<?xml version="1.0" encoding="utf-8"?>
<!-- Generator: Adobe Illustrator 24.1.0, SVG Export Plug-In . SVG Version: 6.00 Build 0)  -->
<svg version="1.1" id="Calque_1" xmlns="http://www.w3.org/2000/svg" xmlns:xlink="http://www.w3.org/1999/xlink" x="0px" y="0px"
	 viewBox="0 0 349 462.2" style="enable-background:new 0 0 349 462.2;" xml:space="preserve">
<style type="text/css">
	.st0{fill:#FFFFFF;}
</style>
<g>
	<path class="st0" d="M97,243c-0.7-0.2-1.7-0.2-2.2-0.7c-3.6-3.5-7.4-6.8-9.8-11.3c0-0.6,0-1.2,0-2c6.1,0,11.8,0,17.6,0
		c0.5-0.7,0.9-1.4,1.4-2c2.6,1.3,5.2,2.6,8,4c3.2,0,6.5,0,9.9,0c5.9,0.1,11.1-2,15.8-5.2c2.9-1.9,5.4-4.3,8.2-6.6
		c0.1,5.2,3.1,8.6,6.7,11.8c2.6,0,5.2,0.1,7.9,0c1.7-0.1,3.5-0.4,5-1.1c1.1-0.5,1.7-1.9,2.5-2.9c5.2-0.2,10.3,1.2,15.5,1.1
		c19.9-0.3,39.8-0.1,59.7-0.1c2.5,0,5,0,7.5,0c0.4,0,0.9,0.6,1.3,1c-0.1,0.6,0,1.4-0.4,1.8c-3.6,4.1-7.3,8.2-10.9,12.2
		c-0.7,0-1.2,0-1.7,0c-1.7-1.4-3.7-1-5.6-1c-36.6,0-73.2-0.1-109.9,0C114.7,242.1,105.8,241.1,97,243z"/>
	<path class="st0" d="M236.4,356c2.9,0,5.6,0,8.4,0c0,23.3,0,46.5,0,69.8c-2.5,0-4.9,0-7.7,0c0-16.8,0-33.7,0-50.6
		c-0.2,0-0.4-0.1-0.6-0.1c-5.6,16.8-11.2,33.7-16.9,50.7c-2.2,0-4.7,0-7.3,0c-5.6-16.2-11.2-32.5-16.8-48.8
		c-0.1,0.1-0.2,0.2-0.3,0.3c-0.1,0.1-0.1,0.3-0.1,0.4c0,16,0,31.9,0,48.1c-2.6,0-5.1,0-7.8,0c0-23.1,0-46.3,0-69.7
		c2.4,0,4.9,0,7.6,0c6.9,20.1,13.8,40.4,20.9,61.1c3.3-6.5,4.8-13.4,7.2-20c2.5-6.8,4.5-13.8,6.9-20.6
		C232.2,369.9,234.2,363.1,236.4,356z"/>
	<path class="st0" d="M164.5,356.1c2.7,0,5.5,0,8.4,0c0,23.2,0,46.3,0,69.7c-2.4,0-5,0-7.9,0c0-16.9,0-33.8,0-50.7
		c-0.2,0-0.3,0-0.5,0c-5.6,16.9-11.3,33.8-16.9,50.9c-2.2,0-4.5,0-7.3,0c-5.5-16.1-11.2-32.5-17.1-49.7c0,17.1,0,33.2,0,49.6
		c-2.7,0.3-5.3,0.1-8,0.2c0-23.3,0-46.4,0-69.8c2.4,0,5,0,7.7,0c6.9,20.2,13.8,40.4,20.7,60.7c0.3-0.3,0.8-0.6,1-1
		C151.2,396.2,157.7,376.4,164.5,356.1z"/>
	<path class="st0" d="M97,243c8.8-1.9,17.7-0.9,26.6-1c36.6-0.1,73.2-0.1,109.9,0c1.9,0,3.9-0.4,5.6,1c0,0.5,0,1,0,1.3
		c-1.2,0.9-2.4,1.8-3.4,2.7c-3.9,3.4-8.3,6.2-12.6,9c-0.2,0.2-0.6,0-1,0c-2.9-0.3-5.7-0.9-8.6-1c-4.7-0.1-9.4,0.4-14.1,0.8
		c-7.6,0.7-15.3,0.2-23,0.2s-15.3,0.2-23,0c-7.5-0.2-15.1,0.8-22.6-0.8c-3-0.7-6.3-0.1-9.5-0.1c-1.7,0-2.8,0.5-5.4,2
		c-2.8,0.2-4.5-2-6.5-3.2c-4.2-2.5-7.9-5.6-11.7-8.6C97.3,244.8,97.3,243.7,97,243z"/>
	<path class="st0" d="M246,95c4.1,2.8,6.6,6.8,9,11c-10.8,0-21.6,0-32.4,0c-1.5,0-3-0.1-4.5,0c-1.4,0.2-2.7,0.6-4.1,1
		c-0.8-1-1.7-2-2.5-3c-0.8,1-1.7,2-2.5,3c-1-2.2-2.9-0.9-4.3-0.9c-38.5-0.1-76.9-0.1-115.4-0.1c-1.5,0-3,0.1-4.5,0
		c-0.3,0-0.5-0.6-0.8-1c0-0.8,0-1.6,0-2.6c3.3-2.1,4.3-6.5,8-8.4c0,0.2,0,0.5,0,0.5c3.3,0.4,6.4,1.6,9.8,1.6
		c39.2-0.1,78.4,0,117.6-0.1C228.4,95.9,237.3,96.9,246,95z"/>
	<path class="st0" d="M269,197c-1.3,5.4-4.5,12.5-7,16c-0.8-2.1-2.6-0.9-3.8-0.9c-28.7-0.1-57.4,0-86.1-0.1c-2.7,0-5.4,0.7-8.1-0.9
		c-0.9-0.5-2.8-0.3-3.7,0.3c-1.5,1-2.9,0.3-4.3,0.6c0-5,0-10,0-15C193.7,197,231.4,197,269,197z"/>
	<path class="st0" d="M189,35c-2.5-0.3-5-0.8-7.6-1c-2.7-0.2-5.4,0.5-7.9-0.2c-2.1-0.5-4.2-1.3-6.1-0.8c-4.8,1.3-9.8,0.2-14.6,1.1
		c-5.8,1.1-11.8,1.3-17.4,3.8c-1,0.4-2.3,0.1-3.5,0.1c0-0.6,0-1.2,0-2c-2,0-3.6,0-5.3,0c-8.5,0-17,0-25.4,0c-0.8,0-2.1,0.7-2.3-1
		c1.8-3.1,5.3-3.6,8.2-4.9c3.9-1.8,8-3.1,12-4.8c3.4-1.5,7.1-2,10.6-3.3c1.9-0.7,4.3-0.4,5.9-1.4c1.9-1.4,4.4,0.6,5.9-1.6
		c2.6,0.2,5.1-0.5,7.6-0.9c4.1-0.6,8.4-0.9,12.6-1c4.3-0.2,8.7,0.1,13-0.1c4.9-0.2,9.6,1.8,14.6,1c3.2,1.5,6.8,1.2,10.1,2.1
		c3.3,0.8,6.5,2,9.8,2.8c5.7,1.4,16.4,5.3,20.8,7.6c0.1,0,0,0.3,0,0.5c-1.2,2.2-3.3,2-5.4,2c-11.1,0-22.2,0-33.4,0
		c-0.8,0-1.5,0.1-2.3,0.2C189,34,189,34.5,189,35z"/>
	<path class="st0" d="M246,95c-8.8,1.9-17.7,0.9-26.5,1c-39.2,0.1-78.4,0-117.6,0.1c-3.4,0-6.5-1.1-9.8-1.6c0,0,0-0.3,0-0.5
		c3.1-3.2,6.1-6.5,9.2-9.6c0.4-0.4,1.2-0.3,1.8-0.4c1.5,1.3,3.3,1,5.1,1c29.9,0,59.8,0,89.7,0c11.3,0,22.6,0,33.9,0
		c0.5-0.7,0.9-1.3,1.3-2c0.6,0.1,1.4,0,1.8,0.4C238.6,87.2,242.3,91.1,246,95z"/>
	<path class="st0" d="M156,212c1.4-0.3,2.8,0.4,4.3-0.6c0.9-0.6,2.8-0.8,3.7-0.3c2.7,1.5,5.4,0.9,8.1,0.9c28.7,0.1,57.4,0,86.1,0.1
		c1.2,0,3-1.2,3.8,0.9c-0.3,1-0.5,2.2-1,3.1c-2.7,4.5-4.9,9.4-9,12.9c-0.4-0.3-0.8-0.9-1.3-1c-2.5-0.1-5,0-7.5,0
		c-19.9,0-39.8-0.2-59.7,0.1c-5.2,0.1-10.3-1.3-15.5-1.1c0.4-1.8-0.8-3.3-1.4-5c-2.4,0-4.8,0-6.9,0c-1.1-1-2-1.8-2.4-2.1
		C156.2,217,155.7,214.6,156,212z"/>
	<path class="st0" d="M84,105c0.3,0.3,0.5,0.9,0.8,1c1.5,0.1,3,0,4.5,0c38.5,0,76.9,0,115.4,0.1c1.4,0,3.3-1.2,4.3,0.9
		c0,0.5,0.2,1.3,0,1.4c-2.2,1.6-2.6,4.2-3.9,6.3c-0.6,1-0.9,1.9-2.1,2.3c-42.3,0-84.7,0-127,0c0.5-3.7,3.1-6.2,4.8-9.3
		c0.5-0.9,1.2-1.8,1.7-2.7C83,105,83.5,105,84,105z"/>
	<path class="st0" d="M269,197c-37.7,0-75.3,0-113,0c0-4.7,0-9.3,0-14c16.3,0,32.7,0,49,0c-0.3,2.7,2.4,3.2,3.3,4.9c2.3,0,4.3,0,6,0
		c1.4-1.1,2.5-2,3.7-2.9c0.3,1.9,1.9,0.9,2.8,1c16.7,0.1,33.5,0,50.2,0c-0.3,3.1-0.6,6.3-1,9.4C269.9,196,269.4,196.5,269,197z"/>
	<path class="st0" d="M67,137c1-3.1,2-6.1,3-9.2c0.1-0.3,0.6-0.5,1-0.8c42.3,0,84.7,0,127,0c-1,1.9-2,3.8-3.1,5.6
		c-1.2,1.9-2.6,3.6-3.9,5.4c-32.5,0-65,0.1-97.4-0.1C84.7,137.9,75.8,138.9,67,137z"/>
	<path class="st0" d="M67,137c8.8,1.9,17.7,0.9,26.6,0.9c32.5,0.1,65,0.1,97.4,0.1c-0.2,1-0.4,1.9-0.6,3c2.5,0,5,0,7.5,0
		c2.4,0.1,4.8-0.3,7.2,0.2c0,2.5,0,4.6,0,6.8c-46.7,0-93.3,0-140,0C64.6,144.2,66.4,140.7,67,137z"/>
	<path class="st0" d="M65,148c46.7,0,93.3,0,140,0c0,3.3,0,6.7,0,10c-7.6,0-15.3,0-22.9,0c-10.6,0-21.2,0-31.8,0
		c-0.8,0-2.1-0.7-2.3,1c-2.5-0.9-4.6-2.4-7.2-3.1c-4-1.1-8.1-0.5-12.1-0.9c-3.3-0.4-6.3,1.1-9.5,1.2c-1.2,0-2.4,1.4-3.7,1.8
		c-1.5,0.5-3,0.7-4.5,1.1c-0.3-1.9-1.9-0.9-2.8-1c-15.1-0.1-30.2,0-45.2,0c0.4-3.2,0.8-6.4,1.2-9.7C64.3,148.2,64.8,148.1,65,148z"
		/>
	<path class="st0" d="M233,83c-0.4,0.7-0.9,1.3-1.3,2c-11.3,0-22.6,0-33.9,0c-29.9,0-59.8,0-89.7,0c-1.7,0-3.6,0.3-5.1-1
		c2.4-4,6.6-5.8,10.3-7.9c1.9-1.1,3.2-3.1,5.7-3.1c1.3,1.2,3,1,4.6,1c30.2,0,60.4,0,90.7,0c0.6,0,1.2-0.1,1.8-0.2c0-0.8,0-1.3,0-1.8
		c3,0.5,5.4,2.2,7.8,4C226.9,78.3,230.9,79.4,233,83z"/>
	<path class="st0" d="M198,127c-42.3,0-84.7,0-127,0c1-3.7,2.7-7,5-10c42.3,0,84.7,0,127,0c-0.2,0.7-0.3,1.5-0.7,2.1
		C201,121.8,199.5,124.4,198,127z"/>
	<path class="st0" d="M116,257c2.6-1.5,3.7-2,5.4-2c3.2,0,6.4-0.6,9.5,0.1c7.5,1.6,15.1,0.6,22.6,0.8c7.7,0.2,15.3,0,23,0
		s15.4,0.5,23-0.2c4.7-0.4,9.4-0.9,14.1-0.8c2.9,0.1,5.7,0.6,8.6,1c-0.4,1.2-1.3,1.5-2.3,2.1c-7.3,4.1-15,7.1-23,9.5
		c-4,1.2-8.3,1.8-12.5,2.5c-8,1.5-16,0.5-24,0.8c-4.5,0.2-8.8-1.3-13.1-1.8c-5.5-0.7-10.6-2.5-15.7-4.3c-4.9-1.7-9.6-4.2-14.3-6.4
		C116.6,258.3,116.4,257.5,116,257z"/>
	<path class="st0" d="M288.9,385.8c0,2.3,0,4.1,0,6.1c-7.9,0-15.7,0-23.7,0c0,9.4,0,18.6,0,28.1c10.5,0,20.9,0,31.6,0
		c0,1.9,0,3.7,0,5.6c-3.8,0.7-25.6,0.9-38.6,0.3c0-23.1,0-46.2,0-69.6c12.1,0,24.3,0,36.7,0c0,1.8,0,3.6,0,5.7c-9.9,0-19.8,0-29.8,0
		c0,8.1,0,15.9,0,23.9C273,385.8,280.7,385.8,288.9,385.8z"/>
	<path class="st0" d="M216,72c0,0.5,0,1,0,1.8c-0.6,0.1-1.2,0.2-1.8,0.2c-30.2,0-60.4,0-90.7,0c-1.6,0-3.2,0.1-4.6-1
		c2.4-2.4,5.7-3.7,8.7-4.8c4.3-1.6,8.6-3.6,13.1-4.5c2-0.4,3.8-1.4,5.8-1.6c3.2-0.3,6.3-1.7,9.6-1.1c6.3-2,12.7-0.5,19.1-1.1
		c2-0.2,3.7,0.8,5.6,1.1c1.9,0.3,4-0.9,5.6,0.9c3.4-0.2,6.5,1.4,9.7,1.9c2.7,0.4,5.2,1.3,7.6,2.3C207.9,67.9,212.6,68.8,216,72z"/>
	<path class="st0" d="M134,294c3.2-0.1,6.2,0.9,9.3,1.8c0.3,0.1,0.6,0.2,0.9,0.2c4.2,0.3,8.4,0.6,12.6,1c2.4,0.2,4.7,0.8,7.1,0.9
		c2.5,0.2,5,0,7.5,0c1.4,1.6,2.9,3.1,4.6,5.1c0,1.7,0,4,0,6.5c-1.5,1.4-3,2.8-4.8,4.5c-3.5,0-7.4,0.1-11.2,0
		c-2.4-0.1-4.8,0.4-7.3-0.5c-2-0.8-4.9,0.3-6.7-0.6c-2.2-1.2-4.9,0.1-6.7-1.8c-8-0.5-15.5-3.5-22.9-6.1c-5.7-2-11.5-4.2-16.4-7.9
		c1.1-0.5,2.1-1.1,3.6-1.1c3.6,0.2,7.3,0.1,10.9,0.1c3,0,6,0.1,8.9,0c2.8-0.2,5.7-0.6,8.5-1C132.7,294.9,133.3,294.4,134,294z"/>
	<path class="st0" d="M65,187c-0.3-0.1-0.8-0.2-0.8-0.3C64,182.8,62.4,179,63,175c10.8,0,21.6,0,32.4,0c1.5,0,3.1,0.4,4.6,0.6
		c1.5-0.2,3-0.6,4.6-0.6c13.1,0,26.3,0,39.4,0c0.3,1.5,0.8,3,1,4.6c0.2,1.8,0,3.6,0,5.4c-3.5,0-6.7-0.2-9.8,0c-3,0.2-6,0.6-8.9,1.2
		c-3.1,0.6-6,1.8-9.3,1.7c-1.3-1.2-3-1-4.6-1C96.6,187,80.8,187,65,187z"/>
	<path class="st0" d="M100.5,422c1.6,0,3.4,0,5.1,0c1.5,3.4-1.6,3.7-3.2,5c-1.8,0-3.8,0-5.4,0c-3.6-1.2-4.9-3.6-5.2-7.2
		c-4.3,1.9-7.5,5.1-12,6.4c-4.6,1.3-8.8,0.8-13.5-0.4c-1.5-1.6-3.2-3.4-5.3-5.6c0-0.4,0.4-1.6-0.1-2.3c-2.2-3.4,0-6.3,1-9.3
		c1-3,3.6-4.9,6.1-6.6c3.2-2.2,7.5-3.1,11.3-4.2c3.8-1.1,7.7-0.5,11.9-1.1c-0.3-3.1-0.7-6.1-1-9c-1.4-1.2-2.6-2.3-4.2-3.7
		c-2.8-1-6-1.2-9.6-0.3c-3.5,0.8-6,3.3-9.5,4.5c-0.9-0.8-1.9-1.7-2.9-2.6c0-1.1,0-2.2,0-3.3c2.1-1.1,4.1-2.3,6.2-3.3
		c4-1.9,8.3-2,12.6-2.1c3.9-0.1,7.1,1.1,10.1,3.5c3.2,2.6,5,5.7,5,9.8c0,8.3,0.1,16.6,0,25C98,417.8,98.4,420,100.5,422z M90.8,401
		c-1.9,0-3.6-0.1-5.2,0c-1.7,0.2-3.4,0.5-5.1,1c-4.2,1.1-8.3,2.7-10.5,6.7c-1.2,2.3-2.9,4.6-1.1,7.8c1.7,3,3.8,4.3,7.1,4.5
		c6.2,0.3,10.8-2.7,15-6.5c0-4.4,0-8.6,0-12.8C91,401.7,90.9,401.5,90.8,401z"/>
	<path class="st0" d="M189,35c0-0.5,0-1,0-1.8c0.7-0.1,1.5-0.2,2.3-0.2c11.1,0,22.2,0,33.4,0c2,0,4.1,0.2,5.4-2
		c4.4,1.1,8.2,3.5,12.1,5.7c4.3,2.5,8.4,5.5,12.5,8.3c1.4,1,2.9,1.9,4.2,3c4.1,3.6,9,6.3,12.1,11c-7.1,0-14.2,0-21.2,0
		c-0.1,0-0.3,0.1-0.4,0.2c-0.1,0.1-0.2,0.2-0.3,0.3c0,0.5,0,1,0,1.5c-5.7-3.9-11.4-7.7-17.1-11.6c-3.1,0.1-4.5-3.2-7.6-3.5
		c-2.8-0.2-4.8-2.5-7.7-3.1c-2.9-0.6-5.5-3.4-8.4-3.6c-3.4-0.3-6.3-2-9.6-2.3c-0.5,0-1-0.8-1.6-0.9C194.4,35.6,191.7,35.4,189,35z"
		/>
	<path class="st0" d="M272,147c0.3,1.7,0.7,3.3,1,5c0.2,1.6-0.2,3.5,0.5,4.7c1,1.8,0.2,3.5,0.6,5.2c-18.7,0-37.3,0-56,0
		c0-5,0-10,0-15c15.1,0,30.2,0,45.4,0c1.7,0,3.4,0.5,5.2,0.8C269.3,146.6,270.8,147.1,272,147z"/>
	<path class="st0" d="M290,181c-0.3-1.7-0.7-3.3-1-5c-0.3-1.5,0.2-3-0.9-4.6c-1-1.6,0.8-4.2-1.1-5.9c0.7-2.9-1.1-5.6-1-8.5
		c0.7,0,1.3,0,2,0c3.8,2.7,7.5,5.4,11.5,8.3c1.1-1.8,0.3-3.6,0.5-5.3c2.6,0,5-0.3,7.6-0.8c3-0.7,6.3-0.2,9.4-0.2c0,3.9,0,7.9,0,12.1
		c6.5-1.3,12.7-2.2,18.9-3.3c0.1,0.3,0.3,0.7,0.4,1c-2.2,3-4.5,6-6.6,9.1c-1.1,1.6-1.7,3.4-3.7,4.1c-0.2-1.7-1.5-1-2.3-1
		C312.5,181,301.3,181,290,181z"/>
	<path class="st0" d="M218,162c18.7,0,37.3,0,56,0c0,1.5,0,3,0,4.5s0.1,3,0,4.5c-0.2,1.4-0.6,2.7-1,4.1c-18.3,0-36.7,0-55,0
		C218,170.7,218,166.4,218,162z"/>
	<path class="st0" d="M144,175c-13.1,0-26.3,0-39.4,0c-1.5,0-3,0.4-4.6,0.6c-1.5-0.2-3-0.6-4.6-0.6c-10.8-0.1-21.6,0-32.4,0
		c0-2.7,0-5.3,0-8c11.8,0,23.6,0,35.4,0c1.6,0,3.2,0.1,4.6-1c1.6,2,3.2,4,5,6.2c0.8-0.4,1.6-0.7,2.4-1.2c3.6-2.2,6.9-4.9,11-5.9
		c6.7-1.6,13.5-3.1,19.7,1.8c0.2,0.2,0.5,0.3,0.7,0.4C142.8,169.9,144.7,172.1,144,175z"/>
	<path class="st0" d="M263,119c1.7,4,3.4,8,5,12.1c0.2,0.6,0,1.3,0,1.9c-1.3,0.3-2.7,0.8-4,1c-1.5,0.2-3,0-4.5,0
		c-8.7,0-17.5,0-26.2,0c-0.8,0-2.1-0.7-2.3,1c-1.4-0.7-2.3-1.8-3.1-3.3c-1.2-2.1-2.2-4.3-3.7-6.3c-1-1.3-2.5-3.2-2.2-5.4
		c1.3-1.2,3-1,4.6-1C238.7,119,250.9,119,263,119z"/>
	<path class="st0" d="M99,35c0.2,1.7,1.5,1,2.3,1c8.5,0.1,17,0,25.4,0c1.6,0,3.3,0,5.3,0c0,0.8,0,1.4,0,2c-0.1,0.3-0.2,0.8-0.4,0.8
		c-4.3,0.3-7.9,2.5-11.8,3.9c-4.8,1.7-9.3,3.9-13.8,6.3c-4.1,2.2-8,4.6-12,7c0-0.6,0-1.2,0-2c-6.6,0-12.9,0-19.2,0
		c-0.7,0-1.8,0.4-1.8-1c0.2-0.7,0.2-1.8,0.7-2.2c6.6-5,13-10.4,20.6-13.9C95.9,36.2,96.9,34.4,99,35z"/>
	<path class="st0" d="M218,175c18.3,0,36.7,0,55,0c0.7,3.7-1.3,7.1-1.2,10.7c0,0.1-0.5,0.2-0.8,0.3c-16.7,0-33.5,0-50.2,0
		c-0.9,0-2.4,1-2.8-1C218,181.7,218,178.4,218,175z"/>
	<path class="st0" d="M231,135c0.2-1.7,1.5-1,2.3-1c8.7-0.1,17.5,0,26.2,0c1.5,0,3,0.1,4.5,0c1.4-0.2,2.7-0.6,4-1
		c1.9,1.6,1.8,4.1,2.5,6.1c0.9,2.5,1.9,5.1,1.5,7.9c-1.3,0.1-2.7-0.4-3.5,0.8c-1.8-0.3-3.5-0.8-5.2-0.8c-15.1-0.1-30.2,0-45.4,0
		c0-1.9,0-3.9,0-6.1c5.2,0,10.1,0,15.1,0C231.9,138.9,230.7,137.2,231,135z"/>
	<path class="st0" d="M65,187c15.8,0,31.6,0,47.4,0c1.6,0,3.2-0.2,4.6,1c-0.5,0.6-0.8,1.7-1.4,1.8c-4.6,1.3-8.2,4-11.3,7.4
		c-1.1,1.2-2.2,2.5-3.3,3.8c-11,0-22,0-33,0c-0.5-3-1.7-5.9-2.5-8.8C65,190.4,65.4,188.7,65,187z"/>
	<path class="st0" d="M263,119c-12.1,0-24.3,0-36.4,0c-1.6,0-3.2-0.1-4.6,1c-0.6-0.5-1.5-0.8-1.8-1.4c-2.1-3.8-4.1-7.7-6.2-11.6
		c1.4-0.3,2.7-0.8,4.1-1c1.5-0.2,3,0,4.5,0c10.8,0,21.6,0,32.4,0C258.5,109.8,260.8,114.4,263,119z"/>
	<path class="st0" d="M134,294c-0.7,0.3-1.4,0.9-2.1,1c-2.8,0.4-5.7,0.8-8.5,1c-3,0.2-6,0-8.9,0c-3.6,0-7.3,0.1-10.9-0.1
		c-1.4-0.1-2.4,0.5-3.6,1.1c-7.1-2.8-13.4-6.9-19.3-11.7c-0.9-0.7-2.3-0.9-2.7-2.3c0.9-0.4,7.2-2,8.1-2c3.8,0,7.6-0.1,11.4,0.1
		c1.4,0.1,2.4-0.5,3.5-1.1c0.5,0,1.2-0.2,1.4,0c2,2.2,4.7,3,7.2,4.1c7.8,3.4,15.6,6.9,24,9C133.9,293.2,133.9,293.7,134,294z"/>
	<path class="st0" d="M290,181c11.2,0,22.5,0,33.7,0c0.8,0,2.1-0.7,2.3,1c-1.7,4.1-4.7,7.3-7.4,10.7c-1.7,2.2-2.7,5.1-5.6,6.3
		c0-0.2,0-0.5,0-0.5c-3.6-0.1-7.3-0.9-10.6-0.1c-2.6,0.6-4.6,0.4-6.1-0.3c-1.5,0.4-2.3,0.6-3.2,0.9c-0.3-1.7-0.7-3.3-1-5
		c-0.3-1.5,0.7-3.3-1-4.6c-0.2-0.2,0-0.9,0-1.4c0-1.3,0.1-2.6,0-3.9C290.9,183,290.4,182,290,181z"/>
	<path class="st0" d="M73,53c0,1.4,1.1,1,1.8,1c6.3,0,12.6,0,19.2,0c0,0.8,0,1.4,0,2c-4.6,4.3-10.1,7.4-14.6,11.9
		c-2,2-4.4,3.7-6.5,5.7c-1.1,1-0.9,3.2-2.9,3.4c0-0.6,0-1.2,0-2c-2.4,0-4.5,0-6.6,0c-3.8,0-7.7,0.4-11.4-1c0.1-0.6,0-1.4,0.4-1.8
		c3.7-4.1,7.3-8.3,11.2-12.2c2.5-2.5,5.3-4.7,8-7C71.9,52.8,72.5,53,73,53z"/>
	<path class="st0" d="M101,280c-1.1,0.5-2.1,1.1-3.5,1.1c-3.8-0.2-7.6-0.1-11.4-0.1c-0.8,0-7.2,1.6-8.1,2c-2-0.7-3.4-2.2-5-3.4
		c-4.9-3.8-9.2-8.3-13.6-12.7c-0.6-0.5-0.9-1.3-1.4-1.9c2.3-0.3,4.6-0.8,7-1c2.6-0.2,5.2,0,7.9,0c1.5,0,3,0.1,4.4,0
		c0.3,0,0.5-0.6,0.8-1c1.6,0.7,3,1.6,4.3,2.8c5.3,4.7,10.7,9.3,17.2,12.4C100.2,278.5,100.6,279.4,101,280z"/>
	<path class="st0" d="M52,74c3.7,1.4,7.6,1,11.4,1c2.1,0,4.2,0,6.6,0c0,0.8,0,1.4,0,2c-1,2.6-3.5,4.1-5.2,6.3
		c-3.4,4.5-6.4,9.4-9.7,14C55,97.6,54.4,97.8,54,98c-0.4-0.3-0.8-0.9-1.3-1c-3.3-0.1-6.6-0.1-9.9,0c-1.9,0-3.7-0.1-4.8-2
		c0.3-1,0.5-2.1,1-3c3.5-5.5,7.1-10.9,10.8-16.2C50.3,75,51.3,74.6,52,74z"/>
	<path class="st0" d="M305,109c0.7,0.9,1.9,1.9,1.9,2.8c0.1,3.6,2.5,6.2,3.2,9.6c0.7,3.1,1.4,6.2,2.8,9.2c0.4,0.9,0.1,2.3,0.1,3.4
		c-2.6-0.3-4.9,1.4-7.6,1.1c-2.8-0.3-5.6-0.1-8.4-0.1c-1-3.1-2-6.1-3-9.2c-1.5-4.7-2.7-9.4-5-13.8c-0.1-0.3,0-0.7,0-1
		c0.2-1.6,1.4-0.9,2.2-1C295.9,109.8,300.5,110.6,305,109z"/>
	<path class="st0" d="M68,201c11,0,22,0,33,0c-1.7,4.5-2.4,9.2-2,14c-7.4-0.1-14.8,1.7-22.2,1c-0.2,0-0.5,0.3-0.8,0.5
		c-0.1,0.1,0,0.3,0,0.5c-3-2-3.6-5.5-5-8.4C69.9,206.1,69,203.5,68,201z"/>
	<path class="st0" d="M297,135c2.8,0,5.7-0.3,8.4,0.1c2.7,0.3,5-1.3,7.6-1.1c1.5,2,1.2,4.4,1.9,6.6c0.6,1.7,0.5,3.6,1,5.5
		c0.6,2.1,0.1,4.6,0.1,6.9c0,2.1,1.7,3.8,1,6c-3.2,0-6.4-0.5-9.4,0.2c-2.6,0.6-5,0.8-7.6,0.8c0.7-5-0.7-10-1.2-14.9
		C298.5,141.8,297.9,138.3,297,135z"/>
	<path class="st0" d="M78,263c-0.3,0.3-0.5,0.9-0.8,1c-1.5,0.1-2.9,0-4.4,0c-2.6,0-5.2-0.1-7.9,0c-2.3,0.1-4.6,0.6-7,1
		c-2.8-3.3-5.7-6.6-8.4-10c-2-2.6-3.7-5.3-5.5-8c-0.2-0.2,0-0.6,0-1c0.1-0.3,0.2-0.8,0.3-0.8c4.5-0.1,9-0.9,13.7,0.9
		c0.9-0.6,1.9-1.4,3-2.1c2.7,2.9,5.8,5.6,8.1,8.8c2.3,3.2,5.2,5.8,7.8,8.7C77.4,261.9,77.7,262.5,78,263z"/>
	<path class="st0" d="M38,95c1.1,1.9,2.9,2,4.8,2c3.3,0,6.6,0,9.9,0c0.4,0,0.9,0.6,1.3,1c0,2.5-1.8,4.3-2.8,6.3
		c-1.9,3.7-3.7,7.5-5.3,11.3c-1.9,0.4,0.2,3.1-1.9,3.4c-1.1-0.1-2.1,0-3.3-0.6c-1-0.5-2.6,0.1-4.3,0.3c-1.1-0.9-2.7-1.2-4.4-0.2
		c-1.5,0.8-2.9,1.1-4-0.5c-0.5-1.7,0.7-3.1,1.1-4.6C30.2,109.2,35.7,98.3,38,95z"/>
	<path class="st0" d="M103,166c-1.3,1.2-3,1-4.6,1c-11.8,0-23.6,0-35.4,0c0-3,0-6,0-9c15.1,0,30.2,0,45.2,0c0.9,0,2.4-1,2.8,1
		c-1.8,1.7-4.2,2.7-6.3,4C103.6,163.7,102.8,164.5,103,166z"/>
	<path class="st0" d="M305,109c-4.5,1.6-9.2,0.8-13.8,1c-0.8,0-2.1-0.7-2.2,1c-1.8-1.2-2.1-3.3-2.9-5c-2.5-4.7-4.7-9.4-8-13.6
		c-0.2-0.3,0-1,0-1.5c1.1-0.5,2.1-1.1,3.5-1.1c3.9,0.2,7.8,0.1,11.8,0c0.7,0,1.7,0.3,1.7-1c3.8,4.2,5.6,9.4,8,14.3
		C304,105.2,305.4,106.8,305,109z"/>
	<path class="st0" d="M28,118c1.2,1.6,2.6,1.3,4,0.5c1.7-0.9,3.3-0.6,4.4,0.2c1.7-0.2,3.3-0.8,4.3-0.3c1.1,0.6,2.2,0.4,3.3,0.6
		c0.4,2.1-0.8,4-1.4,5.9c-1.6,4.7-2.9,9.4-3.6,14.4c0,0.3-0.6,0.5-1,0.8c-5.3,0-10.7,0-16,0c-0.4-4,2.2-7.5,2-11.5
		c2-1.2,0.2-3.6,1.8-5.3c1-1,0.9-3.2,1.3-4.8C27.3,118.2,27.7,118.1,28,118z"/>
	<path class="st0" d="M249,61c0-0.5,0-1,0-1.5c0.1-0.1,0.2-0.3,0.3-0.3c0.1-0.1,0.3-0.2,0.4-0.2c7.1,0,14.2,0,21.2,0
		c4.6,3.7,8.9,7.8,12,13c-0.4,0.6-0.9,1.3-1.3,2c-2.8,0-5.6,0.3-8.3-0.1c-3-0.4-5.5,1.2-8.4,1.1c-1.5-1.3-3-2.5-4.3-3.9
		C257.2,67.3,253.1,64.2,249,61z"/>
	<path class="st0" d="M22,140c5.3,0,10.7,0,16,0c-0.1,2.5-0.1,5-0.9,7.6c-0.8,2.3,0.2,5-1,7.5c-0.7,1.7-0.1,3.9-0.1,5.9
		c-5.3,0-10.7,0-16,0c0-2.5,0-5,0-7.4c0-2.1,0.2-4,0.9-6.1c0.6-1.7-0.2-3.8,1.1-5.5C22.3,141.5,22,140.7,22,140z"/>
	<path class="st0" d="M265,75c2.8,0.1,5.4-1.4,8.4-1.1c2.7,0.3,5.5,0.1,8.3,0.1c0.5-0.7,0.9-1.4,1.3-2c3.7,2,4.8,6.1,7.4,9
		c1.8,2,3.1,4.3,4.5,6.5c0.2,0.3,0,1,0,1.5c0,1.3-1,1-1.7,1c-3.9,0-7.8,0.1-11.8,0c-1.4-0.1-2.4,0.5-3.5,1.1
		c-2.1-0.4-2.1-2.6-3.2-3.8C271.4,83.3,268.3,79.1,265,75z"/>
	<path class="st0" d="M20,161c5.3,0,10.7,0,16,0c0,3.3,0.3,6.7-0.1,9.9c-0.3,3.2,1,6,1.1,9.1c-5.3,0-10.7,0-16,0c-1.3,0-1-1-1-1.8
		C20,172.5,20,166.8,20,161z"/>
	<path class="st0" d="M76,217c0-0.2-0.1-0.4,0-0.5c0.2-0.2,0.5-0.5,0.8-0.5c7.5,0.7,14.8-1.1,22.2-1c-0.1,2.1,0,4,1.3,5.8
		c1.3,2,2.5,4.1,3.7,6.2c-0.4,0.7-0.9,1.3-1.4,2c-5.8,0-11.5,0-17.6,0c0,0.7,0,1.4,0,2C81.2,227.5,77.1,221.2,76,217z"/>
	<path class="st0" d="M21,180c5.3,0,10.7,0,16,0c0.3,6.1,1.7,12,3,18c-2.8,0-5.7-0.3-8.4,0.1c-3,0.4-5.7-1.2-8.6-1.1
		C21.4,191.5,20.6,185.8,21,180z"/>
	<path class="st0" d="M61,244c-1,0.8-2.1,1.5-3,2.1c-4.7-1.8-9.2-1-13.7-0.9c-0.1,0-0.2,0.5-0.3,0.8c-2.3-1.1-2.9-3.5-4-5.4
		c-1.8-3.1-3.4-6.4-5-9.6c4.8-1.8,9.8-0.7,14.7-1.1c0.4-0.6,0.8-1.3,1.3-1.9c0.6,0.5,1.6,0.8,1.9,1.4c1.9,4.9,4.9,9,8.1,13.1
		C61.2,242.9,61,243.5,61,244z"/>
	<path class="st0" d="M23,197c2.9-0.1,5.5,1.4,8.6,1.1c2.8-0.3,5.6-0.1,8.4-0.1c0.2,1,0.3,2.2,0.7,3.1c1.7,4.2,3.1,8.5,4.3,12.9
		c-4.9,0-9.8,0-14.7,0c-0.5,0.7-0.9,1.4-1.3,2c-2.1-1.6-2.2-4.2-2.9-6.4c-0.7-2.1-0.6-4.4-1.1-6.5C24.5,201.1,23.7,199.1,23,197z"/>
	<path class="st0" d="M29,216c0.4-0.6,0.9-1.3,1.3-2c4.9,0,9.8,0,14.7,0c1.9,4.7,4.4,9.1,6,14c-0.4,0.6-0.9,1.3-1.3,1.9
		c-5,0.4-10-0.7-14.7,1.1c-2-4.2-4-8.3-6-12.5C28.8,217.8,29,216.9,29,216z"/>
	<path class="st0" d="M293,199c0.9-0.2,1.8-0.5,3.2-0.9c1.6,0.7,3.6,0.9,6.1,0.3c3.3-0.8,7.1,0,10.6,0.1c0,0,0,0.3,0,0.5
		c0,0.5,0.2,1.2,0,1.5c-4,5.4-8,10.7-11.9,16c-0.4,0.5-0.7,1-1,1.6c-0.8,1.4-1.6,2.8-3.6,3c-0.5-3.2-0.9-6.3-1.4-9.5
		c-0.2-1.5-0.7-3-1-4.6c-0.3-1.5,0.5-3.2-0.9-4.7C292.5,201.8,293,200.2,293,199z"/>
	<path class="st0" d="M223.9,303.7c-2.1,0.6-3.4,1.2-4.8,1.2c-1.2,0-2.3-0.8-4.1-1.4c-0.7-0.7-1.8-1.8-2.6-2.6
		c-1.4-3-1.6-5.5-0.3-8.1c2.4-3.5,5.5-5.6,10.3-4.7c0.9,0.7,2.1,1.5,3.5,2.6c0.5,0.9,1.1,2.3,2,4
		C228.1,299.5,228.1,299.5,223.9,303.7z"/>
	<path class="st0" d="M264,272.9c0,1.7,0,3.2,0,4.7c-4.7,8.9-12.4,7.9-15.9,1c0-2.2,0-4.5,0-7.2c1.6-1.3,3.4-2.8,4.7-3.9
		c3.8-1.2,6.1,0.8,8.8,1.8C262.3,270.3,263.1,271.4,264,272.9z"/>
	<path class="st0" d="M280.2,237.4c1.5-0.5,2.5-0.8,4-1.2c1.7,0.6,3.8,1.4,5.7,2.1c2.1,3.6,2.1,3.6,2.1,10.8c-0.5,0.4-1.6,1.3-2.6,2
		c-0.9,0.6-1.9,1.1-3,1.8c-1.4,0-3.1,0-4.7,0c-1-0.7-2-1.5-3.5-2.6c-0.4-0.8-1.2-2.3-2.1-4.1C276,241.5,276,241.5,280.2,237.4z"/>
	<path class="st0" d="M288,157c-0.7,0-1.3,0-2,0c0.4-0.3,0.8-0.7,1.2-1C287.5,156.4,287.8,156.7,288,157z"/>
	<ellipse class="st0" cx="180.5" cy="176.5" rx="34.6" ry="9.2"/>
	<path class="st0" d="M205,170c-16.3,0-32.7,0-49,0c-0.2,0-0.5,0-0.5,0c-1.5-4.3-4.7-7.6-7.5-11c0.2-1.7,1.5-1,2.3-1
		c10.6,0,21.2,0,31.8,0c7.6,0,15.3,0,22.9,0C205,162,205,166,205,170z"/>
	<path class="st0" d="M145,205c0,2.5,0,5,0,7.7c-5,4.2-10.5,7.5-17.4,8.3c-0.7,0.1-1.4,0.7-2.1,0.9c-4.1,1-11.5-1.9-13.5-5.6
		c-1.6-2.9-1.7-6.3-0.4-9.3c0.4-1-0.7-2.9,1.4-3.1c0.2,1.7,1.5,1,2.3,1C125.2,205,135.1,205,145,205z"/>
	<path class="st0" d="M145,205c-9.9,0-19.8,0-29.7,0c-0.8,0-2.1,0.7-2.3-1c0.1-0.6,0-1.4,0.4-1.8c1.7-1.8,3.3-3.8,5.4-5.1
		c2.7-1.7,5.7-3.3,8.8-3.9c2.8-0.5,5.6-1.2,8.5-1.4c2.8-0.1,5.6-1.1,8.9-0.6C145,195.8,145,200.4,145,205z"/>
</g>
</svg>
