<?xml version="1.0" encoding="utf-8"?>
<!-- Generator: Adobe Illustrator 24.1.0, SVG Export Plug-In . SVG Version: 6.00 Build 0)  -->
<svg version="1.1" xmlns="http://www.w3.org/2000/svg" xmlns:xlink="http://www.w3.org/1999/xlink" x="0px" y="0px"
	 viewBox="0 0 3982.1 1588.8" style="enable-background:new 0 0 3982.1 1588.8;" xml:space="preserve">
<style type="text/css">
	.st0{fill:#E0E0E0;}
	.st1{fill:#F5F5F5;}
	.st2{fill:none;stroke:#E0E0E0;stroke-width:5.000000e-02;stroke-miterlimit:10;}
	.st3{fill:#EBEBEB;}
	.st4{fill:#FFFFFF;}
	.st5{display:none;}
	.st6{display:inline;fill:#EBEBEB;}
	.st7{fill:#263238;}
	.st8{fill-rule:evenodd;clip-rule:evenodd;fill:#E8505B;}
	.st9{fill:none;stroke:#4E585D;stroke-width:5.000000e-02;stroke-miterlimit:10;}
	.st10{fill:#E8505B;}
	.st11{opacity:0.6;}
	.st12{opacity:0.3;}
	.st13{fill:#455A64;}
	.st14{fill:#FFBE9D;}
	.st15{fill:#EB996E;}
	.st16{fill:#FAFAFA;}
</style>
<g id="Background_Complete">
	<g>
		<g>
			<g>
				<path class="st0" d="M1766.1,515.6c4.7-2.8,9.6-5,14.8-6.4l3-14.6l24.7-0.4l3.6,14.5c5.2,1.3,10.2,3.2,15,5.9l12.5-8.2
					l17.8,17.2l-7.7,12.8c2.8,4.7,5,9.6,6.4,14.8l14.6,3l0.4,24.7l-14.5,3.6c-1.3,5.2-3.2,10.2-5.9,15l8.2,12.5l-17.2,17.8
					l-12.8-7.7c-4.7,2.8-9.6,5-14.8,6.4l-3,14.6l-24.7,0.4l-3.6-14.5c-5.2-1.3-10.2-3.2-15-5.9l-12.5,8.2l-17.8-17.2l7.7-12.8
					c-2.8-4.7-5-9.6-6.4-14.8l-14.6-3l-0.4-24.7l14.5-3.6c1.3-5.2,3.2-10.2,5.9-15l-8.2-12.5l17.2-17.8L1766.1,515.6L1766.1,515.6z
					 M1779.2,548.5c-10.2,10.5-9.9,27.3,0.7,37.5c10.5,10.2,27.3,9.9,37.5-0.7c10.2-10.5,9.9-27.3-0.7-37.5
					C1806.2,537.7,1789.4,538,1779.2,548.5z"/>
			</g>
		</g>
		<g>
			<g>
				<g>
					<path class="st0" d="M1779.2,548.5c0,0,1.4-2,4.9-4.3c3.5-2.3,9.6-4.9,17.3-4.1c3.8,0.4,8,1.7,11.8,4.2
						c3.7,2.5,7.3,6.1,9.5,10.7c1.2,2.3,2,4.8,2.4,7.4c0.5,2.6,0.5,5.4,0.1,8.2c-0.7,5.5-3.3,11-7.4,15.3c-4.1,4.2-9.5,7-15,7.9
						c-2.7,0.5-5.5,0.5-8.2,0.1c-2.7-0.3-5.2-1.1-7.5-2.1c-4.7-2-8.4-5.5-11-9.1c-2.6-3.7-4-7.8-4.6-11.6
						c-1.1-7.7,1.3-13.9,3.5-17.4C1777.3,550,1779.2,548.5,1779.2,548.5c0.1,0.1-1.6,1.7-3.6,5.4c-2,3.6-4.1,9.6-2.9,17
						c0.6,3.6,2,7.5,4.5,11c2.6,3.5,6.1,6.7,10.6,8.6c2.2,1,4.6,1.7,7.1,2c2.5,0.3,5.1,0.3,7.7-0.2c5.2-0.8,10.3-3.5,14.2-7.5
						c3.8-4.1,6.3-9.2,7-14.4c0.4-2.6,0.3-5.2-0.1-7.7c-0.4-2.5-1.1-4.9-2.2-7.1c-2.1-4.4-5.4-7.8-8.9-10.3
						c-3.6-2.4-7.5-3.7-11.2-4.2c-7.4-0.9-13.3,1.4-16.9,3.5C1780.9,546.8,1779.4,548.6,1779.2,548.5z"/>
				</g>
			</g>
		</g>
		<g>
			<g>
				<g>
					<path class="st0" d="M1766.1,515.6c0,0-0.3-0.1-0.8-0.4c-0.6-0.3-1.4-0.8-2.4-1.4c-2.2-1.3-5.4-3.2-9.6-5.7l0.3,0
						c-4.4,4.6-10.1,10.6-17.1,17.9l0-0.5c2.5,3.8,5.3,8,8.2,12.4l0.1,0.2l-0.1,0.2c-2.4,4.4-4.5,9.4-5.8,14.9l-0.1,0.3l-0.3,0.1
						c-4.5,1.1-9.4,2.3-14.5,3.6l0.4-0.5c0.2,7.8,0.3,16,0.5,24.7l-0.5-0.6c4.5,0.9,9.5,2,14.6,3l0.4,0.1l0.1,0.4
						c1.4,4.8,3.5,9.8,6.4,14.6l0.2,0.3l-0.2,0.3c-2.4,4-5,8.3-7.7,12.8l-0.1-0.8c5.6,5.4,11.6,11.2,17.8,17.1l-0.9-0.1
						c3.9-2.6,8.2-5.4,12.5-8.2l0.4-0.2l0.4,0.2c4.4,2.4,9.4,4.5,14.8,5.8l0.4,0.1l0.1,0.4c1.1,4.5,2.3,9.5,3.6,14.5l-0.7-0.6
						c7.8-0.1,16.2-0.3,24.7-0.4l-0.7,0.6c1-4.6,2-9.6,3-14.6l0.1-0.5l0.4-0.1c4.9-1.4,9.9-3.5,14.6-6.3l0,0l0.4-0.2l0.4,0.2
						c4.3,2.6,8.5,5.2,12.8,7.7l-0.9,0.1c5.8-6,11.5-11.9,17.2-17.8l-0.1,0.9c-2.8-4.2-5.5-8.4-8.2-12.5l-0.2-0.4l0.2-0.4
						c2.6-4.7,4.6-9.7,5.8-14.8l0.1-0.4l0.4-0.1c4.9-1.2,9.7-2.4,14.5-3.5l-0.6,0.7c-0.1-8.4-0.3-16.7-0.4-24.7l0.6,0.7
						c-5-1-9.8-2.1-14.6-3.1l-0.4-0.1l-0.1-0.4c-1.5-5.2-3.6-10.2-6.3-14.6l-0.2-0.3l0.2-0.3c2.7-4.4,5.2-8.6,7.8-12.7l0.1,0.8
						c-6.2-6-12.1-11.8-17.7-17.2l0.7,0.1c-4.4,2.9-8.5,5.6-12.5,8.2l-0.3,0.2l-0.3-0.2c-5-2.8-10-4.7-14.8-5.9l-0.3-0.1l-0.1-0.3
						c-1.3-5.3-2.4-10-3.5-14.5l0.4,0.3c-9.6,0.1-17.7,0.2-24.7,0.3l0.3-0.3c-1.3,5.8-2.3,10.6-3.1,14.6l0,0.1l-0.1,0
						c-5.2,1.5-8.9,3.2-11.3,4.3c-1.1,0.6-2,1.1-2.7,1.4C1766.4,515.5,1766.1,515.6,1766.1,515.6c0,0,0.3-0.2,0.8-0.6
						c0.6-0.3,1.4-0.9,2.6-1.5c2.4-1.3,6-3,11.3-4.6l-0.2,0.2c0.8-4,1.8-8.8,2.9-14.6l0.1-0.3l0.3,0c7-0.2,15.1-0.3,24.7-0.5l0.4,0
						l0.1,0.4c1.1,4.5,2.3,9.2,3.6,14.5l-0.4-0.4c5,1.2,10.1,3.1,15.1,5.9l-0.6,0c4-2.6,8.1-5.3,12.5-8.2l0.4-0.3l0.3,0.3
						c5.6,5.4,11.5,11.1,17.8,17.1l0.4,0.3l-0.3,0.4c-2.5,4.1-5.1,8.4-7.7,12.8l0-0.7c2.8,4.6,5,9.6,6.5,14.9l-0.5-0.5
						c4.8,1,9.7,2,14.6,3l0.5,0.1l0,0.6c0.1,8,0.3,16.3,0.5,24.7l0,0.6l-0.6,0.1c-4.8,1.2-9.6,2.4-14.5,3.6l0.5-0.5
						c-1.3,5.2-3.3,10.4-6,15.2l0-0.8c2.7,4.1,5.4,8.3,8.2,12.5l0.3,0.5l-0.4,0.4c-5.6,5.8-11.4,11.8-17.2,17.8l-0.4,0.4l-0.5-0.3
						c-4.2-2.6-8.5-5.1-12.8-7.7l0.8,0l0,0c-4.8,2.9-10,5.1-14.9,6.5l0.5-0.6c-1,5-2.1,10-3,14.6l-0.1,0.6l-0.6,0
						c-8.5,0.1-16.9,0.3-24.7,0.4l-0.6,0l-0.1-0.6c-1.2-5-2.4-10-3.5-14.5l0.5,0.5c-5.5-1.4-10.7-3.5-15.2-6l0.7,0
						c-4.3,2.8-8.6,5.6-12.5,8.2l-0.5,0.3l-0.4-0.4c-6.2-6-12.2-11.8-17.8-17.2l-0.4-0.4l0.3-0.5c2.7-4.4,5.4-8.8,7.8-12.7l0,0.7
						c-2.9-4.9-5.1-10.1-6.5-14.9l0.5,0.4c-5.1-1.1-10.1-2.1-14.6-3.1l-0.5-0.1l0-0.5c-0.1-8.7-0.3-16.9-0.4-24.7l0-0.4l0.4-0.1
						c5.1-1.2,10-2.4,14.5-3.5l-0.4,0.4c1.4-5.6,3.5-10.6,6-15.1l0,0.5c-2.9-4.5-5.7-8.7-8.1-12.5l-0.2-0.3l0.2-0.2
						c7-7.2,12.8-13.1,17.3-17.7l0.1-0.1l0.2,0.1c4.1,2.5,7.2,4.5,9.4,5.8c1,0.7,1.8,1.2,2.4,1.5
						C1765.8,515.4,1766.1,515.6,1766.1,515.6z"/>
				</g>
			</g>
		</g>
	</g>
	<g>
		<g>
			<g>
				<path class="st1" d="M2491.2,690.9c2.8-1.7,5.8-3,8.8-3.8l1.8-8.8l14.8-0.3l2.1,8.7c3.1,0.8,6.1,1.9,9,3.5l7.5-4.9l10.6,10.3
					l-4.6,7.6c1.7,2.8,3,5.8,3.8,8.8l8.7,1.8l0.3,14.8l-8.7,2.1c-0.8,3.1-1.9,6.1-3.5,9l4.9,7.5l-10.3,10.6l-7.6-4.6
					c-2.8,1.7-5.8,3-8.8,3.8l-1.8,8.8l-14.8,0.3l-2.1-8.7c-3.1-0.8-6.1-1.9-9-3.5l-7.5,4.9l-10.6-10.3l4.6-7.6
					c-1.7-2.8-3-5.8-3.8-8.8l-8.8-1.8l-0.3-14.8l8.7-2.1c0.8-3.1,1.9-6.1,3.5-9l-4.9-7.5l10.3-10.6L2491.2,690.9L2491.2,690.9z
					 M2499.1,710.6c-6.1,6.3-5.9,16.3,0.4,22.4c6.3,6.1,16.3,5.9,22.4-0.4c6.1-6.3,5.9-16.3-0.4-22.4
					C2515.2,704.2,2505.2,704.3,2499.1,710.6z"/>
			</g>
		</g>
		<g>
			<g>
				<g>
					<path class="st1" d="M2499.1,710.6c0,0,0.8-1.2,3-2.6c2.1-1.4,5.7-2.9,10.3-2.4c2.3,0.3,4.8,1,7,2.5c2.2,1.5,4.4,3.6,5.7,6.4
						c0.7,1.4,1.2,2.9,1.4,4.5c0.3,1.6,0.3,3.2,0.1,4.9c-0.4,3.3-2,6.6-4.4,9.1c-2.5,2.5-5.7,4.2-9,4.7c-1.6,0.3-3.3,0.3-4.9,0.1
						c-1.6-0.2-3.1-0.6-4.5-1.3c-2.8-1.2-5-3.3-6.6-5.5c-1.6-2.2-2.4-4.7-2.7-6.9c-0.6-4.6,0.8-8.3,2.1-10.4
						C2497.9,711.5,2499.1,710.6,2499.1,710.6c0.1,0.1-1,1-2.2,3.2c-1.2,2.1-2.5,5.8-1.8,10.2c0.4,2.2,1.2,4.5,2.7,6.6
						c1.5,2.1,3.7,4,6.3,5.1c1.3,0.6,2.8,1,4.3,1.2c1.5,0.2,3.1,0.2,4.6-0.1c3.1-0.5,6.1-2.1,8.5-4.5c2.3-2.4,3.8-5.5,4.2-8.6
						c0.2-1.6,0.2-3.1-0.1-4.6c-0.2-1.5-0.7-2.9-1.3-4.2c-1.2-2.6-3.2-4.7-5.4-6.1c-2.1-1.5-4.5-2.2-6.7-2.5
						c-4.4-0.6-8,0.8-10.1,2.1C2500.1,709.6,2499.2,710.7,2499.1,710.6z"/>
				</g>
			</g>
		</g>
		<g>
			<g>
				<g>
					<path class="st1" d="M2491.2,690.9c0,0-0.2-0.1-0.5-0.3c-0.4-0.2-0.8-0.5-1.5-0.8c-1.3-0.8-3.3-1.9-5.8-3.4l0.2,0
						c-2.6,2.7-6.1,6.3-10.2,10.7l0-0.3c1.5,2.3,3.2,4.8,4.9,7.5l0.1,0.1l-0.1,0.1c-1.5,2.6-2.7,5.6-3.5,8.9l0,0.2l-0.2,0
						c-2.7,0.7-5.6,1.4-8.7,2.2l0.2-0.3c0.1,4.7,0.2,9.6,0.3,14.8l-0.3-0.3c2.7,0.6,5.7,1.2,8.8,1.8l0.2,0l0.1,0.2
						c0.8,2.9,2.1,5.9,3.8,8.7l0.1,0.2l-0.1,0.2c-1.4,2.4-3,5-4.6,7.6l-0.1-0.5c3.3,3.2,7,6.7,10.7,10.3l-0.5,0
						c2.3-1.5,4.9-3.2,7.5-4.9l0.2-0.1l0.2,0.1c2.6,1.5,5.7,2.7,8.9,3.5l0.3,0.1l0.1,0.3c0.7,2.7,1.4,5.7,2.1,8.7l-0.4-0.3
						c4.7-0.1,9.7-0.2,14.8-0.3l-0.4,0.4c0.6-2.8,1.2-5.7,1.8-8.8l0.1-0.3l0.3-0.1c2.9-0.8,5.9-2.1,8.7-3.8l0,0l0.2-0.1l0.2,0.1
						c2.6,1.6,5.1,3.1,7.6,4.6l-0.6,0.1c3.5-3.6,6.9-7.1,10.3-10.6l-0.1,0.6c-1.6-2.5-3.3-5-4.9-7.5l-0.1-0.2l0.1-0.2
						c1.6-2.8,2.7-5.8,3.5-8.9l0.1-0.3l0.3-0.1c2.9-0.7,5.8-1.4,8.7-2.1l-0.3,0.4c-0.1-5-0.2-10-0.2-14.8l0.3,0.4
						c-3-0.6-5.9-1.2-8.7-1.8l-0.2-0.1l-0.1-0.2c-0.9-3.1-2.2-6.1-3.8-8.7l-0.1-0.2l0.1-0.2c1.6-2.6,3.1-5.2,4.6-7.6l0.1,0.5
						c-3.7-3.6-7.3-7-10.6-10.3l0.4,0c-2.6,1.7-5.1,3.3-7.5,4.9l-0.2,0.1l-0.2-0.1c-3-1.7-6-2.8-8.9-3.5l-0.2,0l0-0.2
						c-0.8-3.2-1.4-6-2.1-8.7l0.3,0.2c-5.7,0.1-10.6,0.1-14.8,0.2l0.2-0.2c-0.7,3.5-1.4,6.4-1.9,8.7l0,0.1l-0.1,0
						c-3.1,0.9-5.3,1.9-6.8,2.6c-0.7,0.4-1.2,0.6-1.6,0.8C2491.4,690.9,2491.2,691,2491.2,690.9c0,0,0.2-0.1,0.5-0.3
						c0.3-0.2,0.9-0.5,1.6-0.9c1.4-0.8,3.6-1.8,6.8-2.7l-0.1,0.1c0.5-2.4,1.1-5.3,1.8-8.8l0-0.2l0.2,0c4.2-0.1,9.1-0.2,14.8-0.3
						l0.2,0l0.1,0.2c0.7,2.7,1.4,5.5,2.2,8.7l-0.2-0.2c3,0.7,6,1.9,9.1,3.5l-0.3,0c2.4-1.6,4.8-3.2,7.5-4.9l0.2-0.2l0.2,0.2
						c3.4,3.2,6.9,6.6,10.7,10.2l0.2,0.2l-0.2,0.3c-1.5,2.5-3,5-4.6,7.6l0-0.4c1.7,2.7,3,5.7,3.9,8.9l-0.3-0.3
						c2.9,0.6,5.8,1.2,8.8,1.8l0.3,0.1l0,0.3c0.1,4.8,0.2,9.7,0.3,14.8l0,0.3l-0.3,0.1c-2.9,0.7-5.7,1.4-8.7,2.1l0.3-0.3
						c-0.8,3.1-2,6.2-3.6,9.1l0-0.5c1.6,2.5,3.3,5,4.9,7.5l0.2,0.3l-0.2,0.3c-3.4,3.5-6.8,7-10.3,10.6l-0.3,0.3l-0.3-0.2
						c-2.5-1.5-5.1-3.1-7.6-4.6l0.5,0l0,0c-2.9,1.7-6,3-8.9,3.9l0.3-0.3c-0.6,3-1.2,6-1.8,8.8l-0.1,0.4l-0.4,0
						c-5.1,0.1-10.1,0.2-14.8,0.3l-0.4,0l-0.1-0.3c-0.7-3-1.5-6-2.1-8.7l0.3,0.3c-3.3-0.8-6.4-2.1-9.1-3.6l0.4,0
						c-2.6,1.7-5.1,3.4-7.5,4.9l-0.3,0.2l-0.2-0.2c-3.7-3.6-7.3-7.1-10.6-10.3l-0.2-0.2l0.2-0.3c1.6-2.7,3.2-5.3,4.6-7.6l0,0.4
						c-1.8-2.9-3-6-3.9-8.9l0.3,0.3c-3.1-0.6-6-1.3-8.7-1.8l-0.3-0.1l0-0.3c-0.1-5.2-0.2-10.1-0.2-14.8l0-0.3l0.3-0.1
						c3-0.7,6-1.4,8.7-2.1l-0.2,0.2c0.8-3.3,2.1-6.4,3.6-9l0,0.3c-1.8-2.7-3.4-5.2-4.9-7.5l-0.1-0.2l0.1-0.1
						c4.2-4.3,7.7-7.9,10.3-10.6l0.1-0.1l0.1,0.1c2.4,1.5,4.3,2.7,5.6,3.5c0.6,0.4,1.1,0.7,1.4,0.9
						C2491,690.8,2491.2,690.9,2491.2,690.9z"/>
				</g>
			</g>
		</g>
	</g>
	<g>
		<g>
			<g>
				<path class="st1" d="M2607.3,148.1c3.6-2.2,7.4-3.8,11.4-4.9l2.3-11.3l19-0.3l2.7,11.2c4,1,7.9,2.5,11.5,4.5l9.6-6.3l13.7,13.2
					l-6,9.8c2.2,3.6,3.8,7.4,4.9,11.4l11.3,2.3l0.3,19l-11.2,2.7c-1,4-2.5,7.9-4.5,11.5l6.3,9.6l-13.2,13.7l-9.8-6
					c-3.6,2.2-7.4,3.8-11.4,4.9l-2.3,11.3l-19,0.3l-2.7-11.2c-4-1-7.9-2.5-11.5-4.5l-9.6,6.3l-13.7-13.2l6-9.8
					c-2.2-3.6-3.8-7.4-4.9-11.4l-11.3-2.3l-0.3-19l11.2-2.7c1-4,2.5-7.9,4.5-11.5l-6.3-9.6l13.2-13.7L2607.3,148.1L2607.3,148.1z
					 M2617.4,173.5c-7.8,8.1-7.6,21,0.5,28.9c8.1,7.8,21,7.6,28.9-0.5s7.6-21-0.5-28.9C2638.2,165.1,2625.3,165.3,2617.4,173.5z"/>
			</g>
		</g>
		<g>
			<g>
				<g>
					<path class="st1" d="M2617.4,173.5c0,0,1.1-1.5,3.8-3.3c2.7-1.8,7.4-3.8,13.3-3.1c2.9,0.3,6.1,1.3,9.1,3.2
						c2.9,1.9,5.6,4.7,7.3,8.3c0.9,1.8,1.5,3.7,1.9,5.7c0.4,2,0.4,4.2,0.1,6.3c-0.5,4.3-2.5,8.5-5.7,11.8c-3.2,3.3-7.3,5.4-11.6,6.1
						c-2.1,0.4-4.2,0.4-6.3,0.1c-2-0.3-4-0.8-5.8-1.7c-3.6-1.6-6.5-4.2-8.5-7c-2-2.9-3.1-6-3.5-8.9c-0.8-5.9,1-10.7,2.7-13.4
						C2616,174.6,2617.4,173.5,2617.4,173.5c0.1,0.1-1.2,1.3-2.8,4.1c-1.5,2.8-3.2,7.4-2.3,13.1c0.5,2.8,1.5,5.8,3.5,8.5
						c2,2.7,4.7,5.1,8.2,6.6c1.7,0.8,3.6,1.3,5.5,1.5c1.9,0.3,4,0.2,5.9-0.1c4-0.6,7.9-2.7,10.9-5.8c3-3.1,4.9-7.1,5.4-11.1
						c0.3-2,0.3-4-0.1-5.9c-0.3-1.9-0.9-3.8-1.7-5.4c-1.6-3.4-4.2-6-6.9-7.9c-2.8-1.9-5.8-2.8-8.6-3.2c-5.7-0.7-10.3,1.1-13,2.7
						C2618.7,172.2,2617.5,173.6,2617.4,173.5z"/>
				</g>
			</g>
		</g>
		<g>
			<g>
				<g>
					<path class="st1" d="M2607.3,148.1c0,0-0.2-0.1-0.6-0.3c-0.5-0.3-1.1-0.6-1.9-1.1c-1.7-1-4.2-2.5-7.4-4.4l0.2,0
						c-3.4,3.5-7.8,8.2-13.1,13.8l0-0.4c1.9,2.9,4.1,6.1,6.3,9.6l0.1,0.2l-0.1,0.2c-1.9,3.4-3.4,7.2-4.5,11.5l-0.1,0.2l-0.2,0.1
						c-3.5,0.9-7.2,1.8-11.2,2.8l0.3-0.4c0.1,6,0.2,12.4,0.4,19l-0.4-0.4c3.5,0.7,7.3,1.5,11.3,2.3l0.3,0.1l0.1,0.3
						c1,3.7,2.7,7.6,4.9,11.3l0.2,0.3l-0.2,0.3c-1.8,3.1-3.9,6.4-5.9,9.8l-0.1-0.6c4.3,4.1,9,8.6,13.7,13.2l-0.7-0.1
						c3-2,6.3-4.1,9.6-6.3l0.3-0.2l0.3,0.2c3.4,1.9,7.3,3.5,11.4,4.5l0.3,0.1l0.1,0.3c0.9,3.5,1.8,7.3,2.7,11.2l-0.6-0.4
						c6-0.1,12.5-0.2,19-0.3l-0.6,0.5c0.7-3.6,1.5-7.4,2.3-11.3l0.1-0.3l0.3-0.1c3.7-1.1,7.6-2.7,11.2-4.9l0,0l0.3-0.2l0.3,0.2
						c3.3,2,6.6,4,9.8,6l-0.7,0.1c4.5-4.6,8.9-9.2,13.2-13.7l-0.1,0.7c-2.1-3.2-4.2-6.4-6.3-9.6l-0.2-0.3l0.2-0.3
						c2-3.6,3.5-7.5,4.5-11.4l0.1-0.3l0.3-0.1c3.8-0.9,7.5-1.8,11.2-2.7l-0.4,0.6c-0.1-6.5-0.2-12.8-0.3-19l0.4,0.5
						c-3.8-0.8-7.6-1.6-11.3-2.4l-0.3-0.1l-0.1-0.3c-1.1-4-2.8-7.8-4.9-11.3l-0.2-0.3l0.2-0.3c2-3.4,4-6.6,6-9.8l0.1,0.6
						c-4.8-4.7-9.3-9.1-13.7-13.3l0.6,0.1c-3.4,2.2-6.6,4.3-9.6,6.3l-0.2,0.1l-0.2-0.1c-3.8-2.1-7.7-3.6-11.4-4.5l-0.2-0.1l-0.1-0.2
						c-1-4.1-1.9-7.7-2.7-11.2l0.3,0.3c-7.4,0.1-13.7,0.2-19,0.2l0.3-0.2c-1,4.5-1.8,8.2-2.4,11.3l0,0.1l-0.1,0
						c-4,1.1-6.9,2.4-8.7,3.3c-0.9,0.5-1.6,0.8-2,1.1C2607.5,148,2607.3,148.1,2607.3,148.1c0,0,0.2-0.2,0.6-0.4
						c0.4-0.3,1.1-0.7,2-1.2c1.8-1,4.6-2.3,8.7-3.5l-0.1,0.1c0.6-3.1,1.4-6.8,2.3-11.3l0-0.2l0.2,0c5.4-0.1,11.7-0.3,19-0.4l0.3,0
						l0.1,0.3c0.9,3.5,1.8,7.1,2.8,11.2l-0.3-0.3c3.8,0.9,7.7,2.4,11.7,4.6l-0.4,0c3.1-2,6.2-4.1,9.6-6.3l0.3-0.2l0.3,0.2
						c4.3,4.2,8.9,8.6,13.7,13.2l0.3,0.3l-0.2,0.3c-1.9,3.2-3.9,6.5-5.9,9.8l0-0.5c2.1,3.5,3.8,7.4,5,11.5l-0.4-0.4
						c3.7,0.8,7.4,1.5,11.3,2.3l0.4,0.1l0,0.4c0.1,6.2,0.2,12.5,0.4,19l0,0.4l-0.4,0.1c-3.7,0.9-7.4,1.8-11.2,2.7l0.4-0.4
						c-1,4-2.5,8-4.6,11.7l0-0.6c2.1,3.2,4.2,6.4,6.3,9.6l0.3,0.4l-0.3,0.3c-4.3,4.5-8.8,9.1-13.2,13.7l-0.3,0.3l-0.4-0.2
						c-3.3-2-6.5-4-9.8-6l0.6,0l0,0c-3.7,2.2-7.7,3.9-11.5,5l0.4-0.4c-0.8,3.9-1.6,7.7-2.3,11.3l-0.1,0.5l-0.5,0
						c-6.5,0.1-13,0.2-19,0.3l-0.5,0l-0.1-0.4c-0.9-3.9-1.9-7.7-2.7-11.2l0.4,0.4c-4.2-1-8.2-2.7-11.7-4.6l0.6,0
						c-3.3,2.2-6.6,4.3-9.6,6.3l-0.4,0.2l-0.3-0.3c-4.7-4.6-9.4-9.1-13.7-13.2l-0.3-0.3l0.2-0.4c2.1-3.4,4.1-6.8,6-9.8l0,0.5
						c-2.3-3.8-3.9-7.8-5-11.5l0.4,0.3c-3.9-0.8-7.8-1.6-11.3-2.4l-0.4-0.1l0-0.4c-0.1-6.7-0.2-13-0.3-19l0-0.3l0.3-0.1
						c3.9-1,7.7-1.9,11.2-2.7l-0.3,0.3c1.1-4.3,2.7-8.2,4.6-11.6l0,0.4c-2.3-3.5-4.4-6.7-6.3-9.6l-0.1-0.2l0.2-0.2
						c5.4-5.5,9.9-10.1,13.3-13.6l0.1-0.1l0.1,0.1c3.1,2,5.6,3.5,7.2,4.5c0.8,0.5,1.4,0.9,1.9,1.2
						C2607.1,147.9,2607.3,148.1,2607.3,148.1z"/>
				</g>
			</g>
		</g>
	</g>
	<g>
		<g>
			<g>
				<path class="st1" d="M2296.5,232.5c2.8-1.7,5.8-3,8.8-3.8l1.8-8.8l14.8-0.3l2.1,8.7c3.1,0.8,6.1,1.9,9,3.5l7.5-4.9l10.6,10.3
					l-4.6,7.6c1.7,2.8,3,5.8,3.8,8.8l8.7,1.8l0.3,14.8l-8.7,2.1c-0.8,3.1-1.9,6.1-3.5,9l4.9,7.5l-10.3,10.6l-7.6-4.6
					c-2.8,1.7-5.8,3-8.8,3.8l-1.8,8.8l-14.8,0.3l-2.1-8.7c-3.1-0.8-6.1-1.9-9-3.5l-7.5,4.9l-10.6-10.3l4.6-7.6
					c-1.7-2.8-3-5.8-3.8-8.8l-8.8-1.8l-0.3-14.8l8.7-2.1c0.8-3.1,1.9-6.1,3.5-9l-4.9-7.5l10.3-10.6L2296.5,232.5L2296.5,232.5z
					 M2304.4,252.2c-6.1,6.3-5.9,16.3,0.4,22.4c6.3,6.1,16.3,5.9,22.4-0.4c6.1-6.3,5.9-16.3-0.4-22.4
					C2320.6,245.7,2310.5,245.9,2304.4,252.2z"/>
			</g>
		</g>
		<g>
			<g>
				<g>
					<path class="st1" d="M2304.4,252.2c0,0,0.8-1.2,3-2.6c2.1-1.4,5.7-2.9,10.3-2.4c2.3,0.3,4.8,1,7,2.5c2.2,1.5,4.4,3.6,5.7,6.4
						c0.7,1.4,1.2,2.9,1.4,4.5c0.3,1.6,0.3,3.2,0.1,4.9c-0.4,3.3-2,6.6-4.4,9.1c-2.5,2.5-5.7,4.2-9,4.7c-1.6,0.3-3.3,0.3-4.9,0.1
						c-1.6-0.2-3.1-0.6-4.5-1.3c-2.8-1.2-5-3.3-6.6-5.5c-1.6-2.2-2.4-4.7-2.7-6.9c-0.6-4.6,0.8-8.3,2.1-10.4
						C2303.3,253,2304.4,252.2,2304.4,252.2c0.1,0.1-1,1-2.2,3.2c-1.2,2.1-2.5,5.7-1.8,10.2c0.4,2.2,1.2,4.5,2.7,6.6
						c1.5,2.1,3.7,4,6.3,5.1c1.3,0.6,2.8,1,4.3,1.2c1.5,0.2,3.1,0.2,4.6-0.1c3.1-0.5,6.1-2.1,8.5-4.5c2.3-2.4,3.8-5.5,4.2-8.6
						c0.2-1.6,0.2-3.1-0.1-4.6c-0.2-1.5-0.7-2.9-1.3-4.2c-1.2-2.6-3.2-4.7-5.4-6.1c-2.1-1.5-4.5-2.2-6.7-2.5
						c-4.4-0.6-8,0.8-10.1,2.1C2305.4,251.2,2304.5,252.3,2304.4,252.2z"/>
				</g>
			</g>
		</g>
		<g>
			<g>
				<g>
					<path class="st1" d="M2296.5,232.5c0,0-0.2-0.1-0.5-0.3c-0.4-0.2-0.8-0.5-1.5-0.8c-1.3-0.8-3.3-1.9-5.8-3.4l0.2,0
						c-2.6,2.7-6.1,6.3-10.2,10.7l0-0.3c1.5,2.3,3.2,4.8,4.9,7.5l0.1,0.1l-0.1,0.1c-1.5,2.6-2.7,5.6-3.5,8.9l0,0.2l-0.2,0
						c-2.7,0.7-5.6,1.4-8.7,2.2l0.2-0.3c0.1,4.7,0.2,9.6,0.3,14.8l-0.3-0.3c2.7,0.6,5.7,1.2,8.8,1.8l0.2,0l0.1,0.2
						c0.8,2.9,2.1,5.9,3.8,8.7l0.1,0.2l-0.1,0.2c-1.4,2.4-3,5-4.6,7.6l-0.1-0.5c3.3,3.2,7,6.7,10.7,10.3l-0.5,0
						c2.3-1.5,4.9-3.2,7.5-4.9l0.2-0.1l0.2,0.1c2.6,1.5,5.7,2.7,8.9,3.5l0.3,0.1l0.1,0.3c0.7,2.7,1.4,5.7,2.1,8.7l-0.4-0.3
						c4.7-0.1,9.7-0.2,14.8-0.3l-0.4,0.4c0.6-2.8,1.2-5.7,1.8-8.8l0.1-0.3l0.3-0.1c2.9-0.8,5.9-2.1,8.7-3.8l0,0l0.2-0.1l0.2,0.1
						c2.6,1.6,5.1,3.1,7.6,4.6l-0.6,0.1c3.5-3.6,6.9-7.1,10.3-10.6l-0.1,0.6c-1.6-2.5-3.3-5-4.9-7.5l-0.1-0.2l0.1-0.2
						c1.6-2.8,2.7-5.8,3.5-8.9l0.1-0.3l0.3-0.1c2.9-0.7,5.8-1.4,8.7-2.1l-0.3,0.4c-0.1-5-0.2-10-0.2-14.8l0.3,0.4
						c-3-0.6-5.9-1.2-8.7-1.8l-0.2-0.1l-0.1-0.2c-0.9-3.1-2.2-6.1-3.8-8.7l-0.1-0.2l0.1-0.2c1.6-2.6,3.1-5.2,4.6-7.6l0.1,0.5
						c-3.7-3.6-7.3-7-10.6-10.3l0.4,0c-2.6,1.7-5.1,3.3-7.5,4.9l-0.2,0.1l-0.2-0.1c-3-1.7-6-2.8-8.9-3.5l-0.2,0l0-0.2
						c-0.8-3.2-1.4-6-2.1-8.7l0.3,0.2c-5.7,0.1-10.6,0.1-14.8,0.2l0.2-0.2c-0.7,3.5-1.4,6.4-1.9,8.7l0,0.1l-0.1,0
						c-3.1,0.9-5.3,1.9-6.8,2.6c-0.7,0.4-1.2,0.6-1.6,0.8C2296.7,232.4,2296.5,232.5,2296.5,232.5c0,0,0.2-0.1,0.5-0.3
						c0.3-0.2,0.9-0.5,1.6-0.9c1.4-0.8,3.6-1.8,6.8-2.7l-0.1,0.1c0.5-2.4,1.1-5.3,1.8-8.8l0-0.2l0.2,0c4.2-0.1,9.1-0.2,14.8-0.3
						l0.2,0l0.1,0.2c0.7,2.7,1.4,5.5,2.2,8.7l-0.2-0.2c3,0.7,6,1.9,9.1,3.5l-0.3,0c2.4-1.6,4.8-3.2,7.5-4.9l0.2-0.2l0.2,0.2
						c3.4,3.2,6.9,6.6,10.7,10.2l0.2,0.2l-0.2,0.3c-1.5,2.5-3,5-4.6,7.6l0-0.4c1.7,2.7,3,5.7,3.9,8.9l-0.3-0.3
						c2.9,0.6,5.8,1.2,8.8,1.8l0.3,0.1l0,0.3c0.1,4.8,0.2,9.7,0.3,14.8l0,0.3l-0.3,0.1c-2.9,0.7-5.7,1.4-8.7,2.1l0.3-0.3
						c-0.8,3.1-2,6.2-3.6,9.1l0-0.5c1.6,2.5,3.3,5,4.9,7.5l0.2,0.3l-0.2,0.3c-3.4,3.5-6.8,7-10.3,10.6l-0.3,0.3l-0.3-0.2
						c-2.5-1.5-5.1-3.1-7.6-4.6l0.5,0l0,0c-2.9,1.7-6,3-8.9,3.9l0.3-0.3c-0.6,3-1.2,6-1.8,8.8l-0.1,0.4l-0.4,0
						c-5.1,0.1-10.1,0.2-14.8,0.3l-0.4,0l-0.1-0.3c-0.7-3-1.5-6-2.1-8.7l0.3,0.3c-3.3-0.8-6.4-2.1-9.1-3.6l0.4,0
						c-2.6,1.7-5.1,3.4-7.5,4.9l-0.3,0.2l-0.2-0.2c-3.7-3.6-7.3-7.1-10.6-10.3l-0.2-0.2l0.2-0.3c1.6-2.7,3.2-5.3,4.6-7.6l0,0.4
						c-1.8-2.9-3-6-3.9-8.9l0.3,0.3c-3.1-0.6-6-1.3-8.7-1.8l-0.3-0.1l0-0.3c-0.1-5.2-0.2-10.1-0.2-14.8l0-0.3l0.3-0.1
						c3-0.7,6-1.4,8.7-2.1l-0.2,0.2c0.8-3.3,2.1-6.4,3.6-9l0,0.3c-1.8-2.7-3.4-5.2-4.9-7.5l-0.1-0.2l0.1-0.1
						c4.2-4.3,7.7-7.9,10.3-10.6l0.1-0.1l0.1,0.1c2.4,1.5,4.3,2.7,5.6,3.5c0.6,0.4,1.1,0.7,1.4,0.9
						C2296.4,232.3,2296.5,232.5,2296.5,232.5z"/>
				</g>
			</g>
		</g>
	</g>
	<g>
		<g>
			<g>
				<path class="st1" d="M1619,493.2c2.8-1.7,5.8-3,8.8-3.8l1.8-8.8l14.8-0.3l2.1,8.7c3.1,0.8,6.1,1.9,9,3.5l7.5-4.9l10.6,10.3
					l-4.6,7.6c1.7,2.8,3,5.8,3.8,8.8l8.7,1.8l0.3,14.8l-8.7,2.1c-0.8,3.1-1.9,6.1-3.5,9l4.9,7.5l-10.3,10.6l-7.6-4.6
					c-2.8,1.7-5.8,3-8.8,3.8l-1.8,8.8l-14.8,0.3l-2.1-8.7c-3.1-0.8-6.1-1.9-9-3.5l-7.5,4.9l-10.6-10.3l4.6-7.6
					c-1.7-2.8-3-5.8-3.8-8.8l-8.8-1.8l-0.3-14.8l8.7-2.1c0.8-3.1,1.9-6.1,3.5-9l-4.9-7.5l10.3-10.6L1619,493.2L1619,493.2z
					 M1626.9,512.9c-6.1,6.3-5.9,16.3,0.4,22.4c6.3,6.1,16.3,5.9,22.4-0.4c6.1-6.3,5.9-16.3-0.4-22.4
					C1643,506.5,1633,506.6,1626.9,512.9z"/>
			</g>
		</g>
		<g>
			<g>
				<g>
					<path class="st1" d="M1626.9,512.9c0,0,0.8-1.2,3-2.6c2.1-1.4,5.7-2.9,10.3-2.4c2.3,0.3,4.8,1,7,2.5c2.2,1.5,4.4,3.6,5.7,6.4
						c0.7,1.4,1.2,2.9,1.4,4.5c0.3,1.6,0.3,3.2,0.1,4.9c-0.4,3.3-2,6.6-4.4,9.1c-2.5,2.5-5.7,4.2-9,4.7c-1.6,0.3-3.3,0.3-4.9,0.1
						c-1.6-0.2-3.1-0.6-4.5-1.3c-2.8-1.2-5-3.3-6.6-5.5c-1.6-2.2-2.4-4.7-2.7-6.9c-0.6-4.6,0.8-8.3,2.1-10.4
						C1625.7,513.8,1626.9,512.9,1626.9,512.9c0.1,0.1-1,1-2.2,3.2c-1.2,2.1-2.5,5.7-1.8,10.2c0.4,2.2,1.2,4.5,2.7,6.6
						c1.5,2.1,3.7,4,6.3,5.1c1.3,0.6,2.8,1,4.3,1.2c1.5,0.2,3.1,0.2,4.6-0.1c3.1-0.5,6.1-2.1,8.5-4.5c2.3-2.4,3.8-5.5,4.2-8.6
						c0.2-1.6,0.2-3.1-0.1-4.6c-0.2-1.5-0.7-2.9-1.3-4.2c-1.2-2.6-3.2-4.7-5.4-6.1c-2.1-1.5-4.5-2.2-6.7-2.5
						c-4.4-0.6-8,0.8-10.1,2.1C1627.9,511.9,1627,513,1626.9,512.9z"/>
				</g>
			</g>
		</g>
		<g>
			<g>
				<g>
					<path class="st1" d="M1619,493.2c0,0-0.2-0.1-0.5-0.3c-0.4-0.2-0.8-0.5-1.5-0.8c-1.3-0.8-3.3-1.9-5.8-3.4l0.2,0
						c-2.6,2.7-6.1,6.3-10.2,10.7l0-0.3c1.5,2.3,3.2,4.8,4.9,7.5l0.1,0.1l-0.1,0.1c-1.5,2.6-2.7,5.6-3.5,8.9l0,0.2l-0.2,0
						c-2.7,0.7-5.6,1.4-8.7,2.2l0.2-0.3c0.1,4.7,0.2,9.6,0.3,14.8l-0.3-0.3c2.7,0.6,5.7,1.2,8.8,1.8l0.2,0l0.1,0.2
						c0.8,2.9,2.1,5.9,3.8,8.7l0.1,0.2l-0.1,0.2c-1.4,2.4-3,5-4.6,7.6l-0.1-0.5c3.3,3.2,7,6.7,10.7,10.3l-0.5,0
						c2.3-1.5,4.9-3.2,7.5-4.9l0.2-0.1l0.2,0.1c2.6,1.5,5.7,2.7,8.9,3.5l0.3,0.1l0.1,0.3c0.7,2.7,1.4,5.7,2.1,8.7l-0.4-0.3
						c4.7-0.1,9.7-0.2,14.8-0.3l-0.4,0.4c0.6-2.8,1.2-5.7,1.8-8.8l0.1-0.3l0.3-0.1c2.9-0.8,5.9-2.1,8.7-3.8l0,0l0.2-0.1l0.2,0.1
						c2.6,1.6,5.1,3.1,7.6,4.6l-0.6,0.1c3.5-3.6,6.9-7.1,10.3-10.6l-0.1,0.6c-1.6-2.5-3.3-5-4.9-7.5l-0.1-0.2l0.1-0.2
						c1.6-2.8,2.7-5.8,3.5-8.9l0.1-0.3l0.3-0.1c2.9-0.7,5.8-1.4,8.7-2.1l-0.3,0.4c-0.1-5-0.2-10-0.2-14.8l0.3,0.4
						c-3-0.6-5.9-1.2-8.7-1.8l-0.2-0.1l-0.1-0.2c-0.9-3.1-2.2-6.1-3.8-8.7l-0.1-0.2l0.1-0.2c1.6-2.6,3.1-5.2,4.6-7.6l0.1,0.5
						c-3.7-3.6-7.3-7-10.6-10.3l0.4,0c-2.6,1.7-5.1,3.3-7.5,4.9l-0.2,0.1l-0.2-0.1c-3-1.7-6-2.8-8.9-3.5l-0.2,0l0-0.2
						c-0.8-3.2-1.5-6-2.1-8.7l0.3,0.2c-5.7,0.1-10.6,0.1-14.8,0.2l0.2-0.2c-0.7,3.5-1.4,6.4-1.9,8.7l0,0.1l-0.1,0
						c-3.1,0.9-5.3,1.9-6.8,2.6c-0.7,0.4-1.2,0.6-1.6,0.8C1619.2,493.2,1619,493.3,1619,493.2c0,0,0.2-0.1,0.5-0.3
						c0.3-0.2,0.9-0.5,1.6-0.9c1.4-0.8,3.6-1.8,6.7-2.7l-0.1,0.1c0.5-2.4,1.1-5.3,1.8-8.8l0-0.2l0.2,0c4.2-0.1,9.1-0.2,14.8-0.3
						l0.2,0l0.1,0.2c0.7,2.7,1.4,5.5,2.2,8.7l-0.2-0.2c3,0.7,6,1.9,9.1,3.5l-0.3,0c2.4-1.6,4.8-3.2,7.5-4.9l0.2-0.2l0.2,0.2
						c3.4,3.2,6.9,6.6,10.7,10.2l0.2,0.2l-0.2,0.3c-1.5,2.5-3,5-4.6,7.6l0-0.4c1.7,2.7,3,5.7,3.9,8.9l-0.3-0.3
						c2.9,0.6,5.8,1.2,8.8,1.8l0.3,0.1l0,0.3c0.1,4.8,0.2,9.7,0.3,14.8l0,0.3l-0.3,0.1c-2.9,0.7-5.7,1.4-8.7,2.1l0.3-0.3
						c-0.8,3.1-2,6.2-3.6,9.1l0-0.5c1.6,2.5,3.3,5,4.9,7.5l0.2,0.3l-0.2,0.3c-3.4,3.5-6.8,7-10.3,10.6l-0.3,0.3l-0.3-0.2
						c-2.5-1.5-5.1-3.1-7.6-4.6l0.5,0l0,0c-2.9,1.7-6,3-8.9,3.9l0.3-0.3c-0.6,3-1.2,6-1.8,8.7l-0.1,0.4l-0.4,0
						c-5.1,0.1-10.1,0.2-14.8,0.3l-0.4,0l-0.1-0.3c-0.7-3-1.5-6-2.1-8.7l0.3,0.3c-3.3-0.8-6.4-2.1-9.1-3.6l0.4,0
						c-2.6,1.7-5.1,3.4-7.5,4.9l-0.3,0.2l-0.2-0.2c-3.7-3.6-7.3-7.1-10.6-10.3l-0.2-0.2l0.2-0.3c1.6-2.7,3.2-5.3,4.6-7.6l0,0.4
						c-1.8-2.9-3-6-3.9-8.9l0.3,0.3c-3.1-0.6-6-1.3-8.7-1.8l-0.3-0.1l0-0.3c-0.1-5.2-0.2-10.1-0.2-14.8l0-0.3l0.3-0.1
						c3-0.7,6-1.4,8.7-2.1l-0.2,0.2c0.8-3.3,2.1-6.4,3.6-9l0,0.3c-1.8-2.7-3.4-5.2-4.9-7.5l-0.1-0.2l0.1-0.1
						c4.2-4.3,7.7-7.9,10.3-10.6l0.1-0.1l0.1,0.1c2.4,1.5,4.3,2.7,5.6,3.5c0.6,0.4,1.1,0.7,1.4,0.9
						C1618.8,493.1,1619,493.2,1619,493.2z"/>
				</g>
			</g>
		</g>
	</g>
	<g>
		<g>
			<g>
				<path class="st2" d="M1688.1,723.3c8.9-5.4,18.3-9.4,28-12.2l5.8-27.7l46.8-0.8l6.7,27.5c9.8,2.4,19.4,6.1,28.4,11.2l23.7-15.5
					l33.7,32.5l-14.7,24.2c5.4,8.9,9.4,18.3,12.2,28l27.7,5.8l0.8,46.8l-27.5,6.7c-2.4,9.8-6.1,19.4-11.2,28.4l15.5,23.7l-32.5,33.7
					l-24.2-14.7c-8.9,5.4-18.3,9.4-28,12.2l-5.8,27.7l-46.8,0.8l-6.7-27.5c-9.8-2.4-19.4-6.1-28.4-11.2l-23.7,15.5l-33.7-32.5
					l14.7-24.2c-5.4-8.9-9.4-18.3-12.2-28L1609,848l-0.8-46.8l27.5-6.7c2.4-9.8,6.1-19.4,11.2-28.4l-15.5-23.7l32.5-33.7
					L1688.1,723.3L1688.1,723.3z M1713.1,785.7c-19.3,20-18.7,51.8,1.2,71.1c20,19.3,51.8,18.7,71.1-1.3c19.3-20,18.7-51.8-1.2-71.1
					C1764.2,765.2,1732.4,765.7,1713.1,785.7z"/>
			</g>
		</g>
		<g>
			<g>
				<g>
					<path class="st3" d="M1713.1,785.7c0,0,2.6-3.7,9.4-8.2c6.6-4.4,18.2-9.3,32.8-7.8c7.2,0.8,15.1,3.2,22.3,7.9
						c7.1,4.8,13.8,11.5,18,20.3c2.2,4.3,3.7,9.1,4.6,14.1c0.9,5,1,10.2,0.3,15.5c-1.3,10.5-6.2,20.8-14,29c-7.9,8-18,13.3-28.5,15
						c-5.2,0.9-10.5,1-15.5,0.3c-5-0.7-9.9-2-14.3-4.1c-8.9-3.9-15.9-10.4-20.9-17.3c-5-7-7.6-14.8-8.7-22
						c-2.1-14.6,2.4-26.3,6.6-33C1709.5,788.5,1713.1,785.7,1713.1,785.7c0.3,0.2-3,3.3-6.9,10.2c-3.8,6.8-7.8,18.2-5.6,32.2
						c1.1,6.9,3.8,14.3,8.6,20.9c4.9,6.6,11.6,12.7,20.1,16.3c4.2,1.9,8.8,3.2,13.5,3.8c4.8,0.7,9.7,0.6,14.6-0.3
						c9.9-1.6,19.4-6.6,26.9-14.2c7.3-7.7,12-17.4,13.2-27.4c0.7-4.9,0.6-9.9-0.2-14.6c-0.8-4.7-2.2-9.3-4.2-13.4
						c-3.9-8.4-10.2-14.9-17-19.5c-6.8-4.6-14.3-7-21.2-7.9c-14-1.7-25.3,2.7-32,6.7C1716.3,782.6,1713.3,786,1713.1,785.7z"/>
				</g>
			</g>
		</g>
		<g>
			<g>
				<g>
					<path class="st3" d="M1688.1,723.3c0,0-0.5-0.2-1.6-0.8c-1.1-0.7-2.7-1.5-4.6-2.7c-4.2-2.5-10.3-6.1-18.2-10.8l0.6-0.1
						c-8.3,8.7-19.2,20.1-32.3,33.9l0.1-0.9c4.7,7.2,10,15.1,15.6,23.6l0.3,0.4l-0.2,0.5c-4.6,8.3-8.5,17.8-11,28.2l-0.1,0.6
						l-0.6,0.1c-8.6,2.1-17.8,4.4-27.5,6.8l0.8-1c0.3,14.8,0.6,30.4,0.9,46.8l-0.9-1.1c8.6,1.8,18,3.7,27.7,5.7l0.7,0.1l0.2,0.7
						c2.6,9,6.6,18.7,12.1,27.7l0.4,0.6l-0.4,0.6c-4.5,7.5-9.5,15.8-14.6,24.2l-0.2-1.6c10.6,10.2,22,21.2,33.7,32.5l-1.7-0.2
						c7.4-4.8,15.5-10.2,23.7-15.5l0.7-0.5l0.7,0.4c8.3,4.6,17.9,8.5,28.1,11l0.8,0.2l0.2,0.8c2.1,8.6,4.4,18,6.8,27.5l-1.4-1.1
						c14.8-0.3,30.7-0.6,46.8-0.8l-1.4,1.1c1.8-8.8,3.8-18.2,5.8-27.7l0.2-0.9l0.8-0.2c9.2-2.6,18.8-6.6,27.6-12l0,0l0.8-0.4
						l0.7,0.4c8.1,4.9,16.2,9.8,24.2,14.7l-1.8,0.2c11-11.4,21.9-22.6,32.6-33.7l-0.2,1.8c-5.2-8-10.4-15.9-15.5-23.7l-0.5-0.7
						l0.4-0.7c5-8.9,8.7-18.4,11.1-28.1l0.2-0.8l0.8-0.2c9.3-2.3,18.5-4.5,27.5-6.7l-1,1.4c-0.3-16-0.5-31.6-0.8-46.8l1.1,1.3
						c-9.4-2-18.6-3.9-27.7-5.8l-0.8-0.2l-0.2-0.8c-2.8-9.9-6.9-19.3-12-27.7l-0.4-0.6l0.4-0.6c5-8.3,9.9-16.3,14.7-24.2l0.2,1.5
						c-11.8-11.5-23-22.3-33.6-32.6l1.4,0.1c-8.3,5.4-16.2,10.5-23.7,15.5l-0.5,0.3l-0.5-0.3c-9.4-5.3-18.9-8.8-28.1-11.2l-0.6-0.1
						l-0.1-0.6c-2.4-10-4.6-19-6.7-27.5l0.8,0.6c-18.2,0.2-33.6,0.4-46.9,0.6l0.6-0.5c-2.4,11.1-4.3,20.1-5.9,27.7l-0.1,0.3
						l-0.3,0.1c-9.9,2.8-16.9,6-21.4,8.2c-2.2,1.1-3.8,2-5,2.6C1688.7,723.1,1688.1,723.3,1688.1,723.3c0,0,0.5-0.4,1.6-1.1
						c1.1-0.7,2.7-1.6,4.9-2.8c4.5-2.4,11.4-5.8,21.4-8.7l-0.3,0.4c1.5-7.6,3.4-16.7,5.6-27.8l0.1-0.5l0.5,0
						c13.2-0.3,28.7-0.6,46.8-1l0.7,0l0.2,0.7c2.1,8.5,4.3,17.5,6.8,27.5l-0.7-0.7c9.4,2.3,19.1,5.9,28.7,11.2l-1.1,0
						c7.5-5,15.3-10.1,23.6-15.6l0.7-0.5l0.6,0.6c10.7,10.3,21.9,21.1,33.8,32.5l0.7,0.7l-0.5,0.8c-4.8,7.9-9.6,15.9-14.6,24.2
						l0-1.3c5.2,8.6,9.5,18.2,12.3,28.3l-1-0.9c9.1,1.9,18.3,3.8,27.7,5.7l1,0.2l0,1.1c0.3,15.2,0.6,30.9,0.9,46.8l0,1.1l-1.1,0.3
						c-9,2.2-18.2,4.5-27.5,6.8l1-1c-2.4,9.9-6.2,19.6-11.3,28.8l-0.1-1.5c5.1,7.8,10.3,15.7,15.5,23.7l0.6,1l-0.8,0.8
						c-10.7,11.1-21.5,22.3-32.5,33.7l-0.8,0.8l-1-0.6c-8-4.9-16.1-9.7-24.2-14.7l1.5,0l0,0c-9.1,5.5-18.9,9.6-28.3,12.3l1-1.1
						c-2,9.5-4,19-5.8,27.7l-0.2,1.1l-1.1,0c-16.1,0.3-32,0.5-46.8,0.8l-1.1,0l-0.3-1.1c-2.3-9.5-4.6-18.9-6.7-27.5l1,1
						c-10.4-2.6-20.3-6.6-28.8-11.3l1.4-0.1c-8.2,5.4-16.3,10.7-23.7,15.5l-0.9,0.6l-0.8-0.7c-11.7-11.3-23.1-22.4-33.7-32.6
						l-0.7-0.7l0.5-0.9c5.1-8.4,10.2-16.7,14.7-24.2l0,1.3c-5.6-9.3-9.7-19.1-12.3-28.3l0.9,0.8c-9.7-2-19.1-4-27.7-5.8l-0.9-0.2
						l0-0.9c-0.3-16.4-0.5-32.1-0.7-46.8l0-0.8l0.8-0.2c9.7-2.3,18.9-4.6,27.5-6.7l-0.7,0.7c2.6-10.6,6.6-20.2,11.4-28.6l0,0.9
						c-5.6-8.6-10.7-16.5-15.4-23.7l-0.3-0.5l0.4-0.4c13.3-13.7,24.4-24.9,32.7-33.5l0.3-0.3l0.3,0.2c7.7,4.8,13.7,8.5,17.8,11.1
						c2,1.2,3.5,2.2,4.6,2.9C1687.6,722.9,1688.1,723.3,1688.1,723.3z"/>
				</g>
			</g>
		</g>
	</g>
	<g>
		<g>
			<g>
				<path class="st0" d="M2495.9,250.6c7,0.1,13.8,1.2,20.3,3.1l13.2-13.7l26.9,16.3l-6,18.1c4.7,4.9,8.8,10.5,12.2,16.6l19-0.3
					l7.5,30.6l-17,8.5c-0.1,7-1.2,13.8-3.1,20.3l13.7,13.2l-16.3,26.9l-18.1-6c-4.9,4.7-10.5,8.8-16.6,12.2l0.3,19l-30.6,7.5
					l-8.5-17c-7-0.1-13.8-1.2-20.3-3.1l-13.2,13.7l-26.9-16.3l6-18.1c-4.7-4.9-8.8-10.5-12.2-16.6l-19,0.3l-7.5-30.6l17-8.5
					c0.1-7,1.2-13.8,3.1-20.3l-13.7-13.2l16.3-26.9l18.1,6c4.9-4.7,10.5-8.8,16.6-12.2l-0.3-19l30.6-7.5L2495.9,250.6L2495.9,250.6z
					 M2487.7,295.1c-18.1,4.4-29.2,22.7-24.8,40.9c4.4,18.1,22.7,29.2,40.9,24.8c18.1-4.4,29.2-22.7,24.8-40.9
					C2524.2,301.7,2505.9,290.6,2487.7,295.1z"/>
			</g>
		</g>
		<g>
			<g>
				<g>
					<path class="st0" d="M2487.7,295.1c0,0,2.8-1.2,8.3-1.3c5.3-0.1,13.7,1.2,21.4,7.4c3.8,3,7.5,7.2,9.8,12.5
						c2.3,5.3,3.7,11.5,3,18c-0.3,3.2-1.1,6.5-2.5,9.7c-1.3,3.2-3.1,6.2-5.4,8.9c-4.5,5.5-11,9.6-18.3,11.5
						c-7.3,1.7-15,1.1-21.6-1.7c-3.3-1.3-6.3-3.2-8.9-5.4c-2.6-2.2-4.9-4.7-6.7-7.4c-3.7-5.4-5.3-11.6-5.7-17.4
						c-0.3-5.8,1-11.2,2.9-15.6c4.1-9,10.8-14.1,15.6-16.4C2484.7,295.3,2487.7,295.1,2487.7,295.1c0.1,0.2-2.9,0.8-7.6,3.3
						c-4.6,2.5-11,7.6-14.7,16.3c-1.8,4.3-3,9.5-2.6,15c0.4,5.5,2,11.4,5.6,16.5c1.7,2.6,3.8,5,6.3,7c2.5,2.1,5.3,3.8,8.4,5.1
						c6.2,2.6,13.4,3.2,20.4,1.6c6.9-1.8,13.1-5.6,17.3-10.8c2.2-2.5,3.9-5.4,5.1-8.4c1.3-3,2.1-6.1,2.4-9.1
						c0.8-6.2-0.5-12.1-2.7-17.2c-2.2-5.1-5.6-9.1-9.2-12.1c-7.4-6-15.4-7.6-20.6-7.7C2490.7,294.4,2487.8,295.3,2487.7,295.1z"/>
				</g>
			</g>
		</g>
		<g>
			<g>
				<g>
					<path class="st0" d="M2495.9,250.6c0,0-0.2-0.3-0.6-1c-0.4-0.8-1-1.8-1.7-3.2c-1.5-2.9-3.7-7.2-6.5-12.7l0.4,0.2
						c-7.8,2-18.1,4.6-30.6,7.7l0.4-0.5c0.1,5.8,0.3,12.2,0.4,19l0,0.3l-0.3,0.2c-5.6,3.1-11.2,7.1-16.4,12.1l-0.3,0.3l-0.4-0.1
						c-5.6-1.9-11.7-3.9-18.1-6l0.8-0.3c-5.1,8.5-10.6,17.5-16.3,27l-0.1-0.9c4.2,4.1,8.9,8.6,13.7,13.2l0.3,0.3l-0.1,0.5
						c-1.8,6.1-2.9,13-3.1,20.1l0,0.5l-0.5,0.2c-5.3,2.6-11.1,5.6-17,8.5l0.5-1c2.4,9.6,4.9,20,7.5,30.6l-0.9-0.7
						c5.9-0.1,12.4-0.2,19-0.4l0.6,0l0.3,0.5c3,5.6,7.1,11.3,12,16.4l0.4,0.4l-0.2,0.5c-1.9,5.7-3.9,11.8-6,18.1l-0.4-1.1
						c8.5,5.2,17.7,10.7,27,16.3l-1.2,0.2c4.2-4.3,8.7-9,13.2-13.7l0.4-0.4l0.6,0.2c6.2,1.8,13.1,3,20,3.1l0,0l0.6,0l0.3,0.5
						c2.9,5.7,5.7,11.4,8.5,17l-1.1-0.5c10.3-2.5,20.6-5,30.6-7.5l-0.7,0.9c-0.1-6.4-0.2-12.8-0.3-19l0-0.6l0.5-0.3
						c6-3.3,11.5-7.4,16.4-12l0.4-0.4l0.5,0.2c6.1,2,12.1,4.1,18.1,6l-1.1,0.4c5.6-9.2,11-18.2,16.4-26.9l0.1,1.1
						c-4.6-4.5-9.2-8.9-13.7-13.2l-0.4-0.4l0.1-0.5c2-6.7,3-13.4,3.1-20.1l0-0.5l0.5-0.2c5.8-2.9,11.5-5.7,17-8.5l-0.4,0.9
						c-2.6-10.8-5.1-20.9-7.4-30.6l0.7,0.6c-6.7,0.1-13,0.2-19,0.3l-0.4,0l-0.2-0.4c-3.5-6.4-7.6-11.8-12-16.5l-0.3-0.3l0.1-0.4
						c2.2-6.6,4.2-12.5,6.1-18l0.2,0.7c-10.4-6.4-19.3-11.8-26.9-16.5l0.5-0.1c-5.3,5.4-9.7,9.9-13.3,13.6l-0.1,0.1l-0.2-0.1
						c-6.6-2-11.8-2.6-15.1-3c-1.6-0.1-2.9-0.2-3.8-0.3C2496.3,250.6,2495.9,250.6,2495.9,250.6c0,0,0.4,0,1.3,0
						c0.8,0,2.1,0,3.8,0.2c3.4,0.3,8.6,0.8,15.3,2.7l-0.3,0.1c3.6-3.8,7.9-8.3,13.1-13.8l0.2-0.2l0.3,0.2c7.6,4.6,16.6,9.9,27,16.2
						l0.4,0.2l-0.1,0.4c-1.8,5.6-3.8,11.5-6,18.1l-0.1-0.6c4.5,4.7,8.7,10.2,12.3,16.7l-0.6-0.4c6.1-0.1,12.3-0.2,19-0.4l0.6,0
						l0.1,0.6c2.4,9.7,4.9,19.8,7.6,30.6l0.2,0.6l-0.6,0.3c-5.5,2.8-11.2,5.6-17,8.5l0.5-0.7c-0.1,6.8-1.1,13.7-3.1,20.5l-0.2-0.9
						c4.5,4.3,9.1,8.7,13.7,13.2l0.5,0.5l-0.4,0.6c-5.3,8.8-10.7,17.8-16.3,27l-0.4,0.6l-0.7-0.2c-5.9-2-12-4-18.1-6l0.9-0.2
						c-4.9,4.8-10.6,8.9-16.8,12.3l0.5-0.9c0.1,6.3,0.2,12.6,0.3,19l0,0.8l-0.7,0.2c-10.1,2.5-20.3,5-30.6,7.5l-0.8,0.2l-0.3-0.7
						c-2.8-5.6-5.7-11.3-8.5-17l0.8,0.5l0,0c-7.1-0.1-14.2-1.3-20.5-3.2l1-0.3c-4.5,4.7-9.1,9.4-13.2,13.7l-0.5,0.6l-0.7-0.4
						c-9.3-5.6-18.4-11.2-26.9-16.4l-0.6-0.4l0.2-0.7c2.1-6.2,4.2-12.4,6-18.1l0.2,0.9c-5-5.2-9.2-11-12.3-16.8l0.8,0.5
						c-6.6,0.1-13.1,0.2-19,0.3l-0.7,0l-0.2-0.7c-2.6-10.6-5.1-21-7.5-30.6l-0.2-0.7l0.6-0.3c5.9-3,11.8-5.9,17-8.5l-0.5,0.7
						c0.1-7.3,1.4-14.3,3.2-20.5l0.2,0.8c-4.8-4.6-9.4-9.2-13.7-13.3l-0.4-0.4l0.3-0.5c5.8-9.4,11.2-18.4,16.4-26.9l0.3-0.5l0.5,0.2
						c6.3,2.1,12.4,4.2,18.1,6.1l-0.6,0.1c5.3-5.1,11-9.1,16.7-12.2l-0.3,0.5c-0.1-6.9-0.2-13.3-0.3-19l0-0.4l0.4-0.1
						c12.5-3,22.8-5.4,30.7-7.3l0.2-0.1l0.1,0.2c2.7,5.5,4.7,9.8,6.2,12.7c0.7,1.4,1.2,2.5,1.6,3.3
						C2495.8,250.2,2495.9,250.6,2495.9,250.6z"/>
				</g>
			</g>
		</g>
	</g>
	<g>
		<g>
			<g>
				<g>
					<path class="st3" d="M2584.3,850.9c0,0,2.9-1.2,8.3-1.3c5.4-0.1,13.8,1.2,21.6,7.4c3.8,3.1,7.5,7.3,9.9,12.6
						c2.4,5.3,3.8,11.6,3,18.2c-0.3,3.3-1.1,6.6-2.5,9.8c-1.3,3.2-3.1,6.3-5.4,9c-4.5,5.6-11.1,9.7-18.5,11.6
						c-7.4,1.8-15.2,1.1-21.8-1.7c-3.3-1.3-6.4-3.2-9-5.5c-2.7-2.2-4.9-4.7-6.7-7.5c-3.7-5.5-5.4-11.7-5.8-17.5
						c-0.3-5.8,1-11.3,3-15.8c4.1-9.1,10.9-14.2,15.8-16.6C2581.2,851.2,2584.3,850.9,2584.3,850.9c0.1,0.2-2.9,0.8-7.7,3.4
						c-4.6,2.5-11.1,7.6-14.8,16.5c-1.8,4.4-3,9.6-2.6,15.1c0.4,5.5,2.1,11.5,5.6,16.6c1.7,2.6,3.9,5,6.4,7.1
						c2.5,2.1,5.4,3.9,8.5,5.1c6.2,2.7,13.6,3.2,20.6,1.6c7-1.8,13.2-5.7,17.5-10.9c2.2-2.6,4-5.5,5.2-8.5c1.3-3,2.1-6.1,2.4-9.2
						c0.8-6.2-0.5-12.2-2.7-17.3c-2.2-5.1-5.7-9.2-9.3-12.2c-7.4-6.1-15.5-7.6-20.8-7.7C2587.3,850.3,2584.4,851.2,2584.3,850.9z"/>
				</g>
			</g>
		</g>
		<g>
			<g>
				<g>
					<path class="st3" d="M2592.6,806.1c0,0-0.2-0.3-0.6-1c-0.4-0.8-1-1.8-1.7-3.2c-1.5-3-3.7-7.2-6.6-12.8l0.4,0.2
						c-7.9,2-18.3,4.6-30.9,7.7l0.4-0.5c0.1,5.8,0.3,12.3,0.4,19.2l0,0.3l-0.3,0.2c-5.7,3.1-11.3,7.2-16.5,12.2l-0.3,0.3l-0.4-0.1
						c-5.7-1.9-11.8-3.9-18.3-6l0.8-0.3c-5.2,8.6-10.7,17.7-16.4,27.2l-0.1-1c4.3,4.1,9,8.7,13.9,13.3l0.4,0.3l-0.1,0.5
						c-1.8,6.1-3,13.1-3.1,20.3l0,0.5l-0.5,0.2c-5.3,2.7-11.2,5.6-17.2,8.6l0.5-1c2.4,9.7,5,20.2,7.6,30.9l-0.9-0.7
						c6-0.1,12.6-0.2,19.2-0.4l0.6,0l0.3,0.5c3.1,5.6,7.2,11.4,12.1,16.5l0.4,0.4l-0.2,0.5c-1.9,5.7-4,11.9-6.1,18.2l-0.4-1.1
						c8.6,5.2,17.8,10.8,27.2,16.5l-1.2,0.2c4.2-4.4,8.8-9.1,13.4-13.8l0.4-0.4l0.6,0.2c6.2,1.8,13.2,3,20.2,3.1l0,0l0.6,0l0.3,0.5
						c2.9,5.8,5.7,11.5,8.6,17.2l-1.1-0.5c10.4-2.6,20.7-5.1,30.9-7.6l-0.7,1c-0.1-6.5-0.2-12.9-0.3-19.2l0-0.6l0.5-0.3
						c6.1-3.3,11.6-7.4,16.5-12.1l0.4-0.4l0.5,0.2c6.2,2.1,12.2,4.1,18.2,6.1l-1.1,0.4c5.6-9.3,11.1-18.3,16.5-27.2l0.1,1.1
						c-4.7-4.5-9.3-9-13.8-13.4l-0.4-0.4l0.2-0.5c2-6.7,3-13.6,3.2-20.3l0-0.5l0.5-0.2c5.9-2.9,11.6-5.8,17.2-8.6l-0.4,0.9
						c-2.6-10.9-5.1-21.1-7.5-30.9l0.7,0.6c-6.8,0.1-13.1,0.2-19.2,0.3l-0.4,0l-0.2-0.4c-3.5-6.4-7.6-11.9-12.1-16.6l-0.3-0.3
						l0.1-0.4c2.2-6.6,4.2-12.6,6.1-18.2l0.2,0.7c-10.5-6.4-19.5-11.9-27.1-16.6l0.5-0.1c-5.4,5.5-9.8,10-13.4,13.7l-0.1,0.1
						l-0.2-0.1c-6.7-2-11.9-2.7-15.3-3c-1.7-0.1-2.9-0.2-3.8-0.3C2593,806.1,2592.6,806.1,2592.6,806.1c0,0,0.5,0,1.3,0
						c0.9,0,2.1,0,3.9,0.2c3.4,0.3,8.7,0.8,15.4,2.7l-0.3,0.1c3.6-3.8,8-8.4,13.3-13.9l0.2-0.3l0.3,0.2c7.7,4.6,16.7,10,27.3,16.4
						l0.4,0.2l-0.1,0.4c-1.9,5.6-3.8,11.6-6,18.3l-0.1-0.6c4.6,4.7,8.8,10.3,12.4,16.8l-0.6-0.4c6.1-0.1,12.5-0.2,19.2-0.4l0.6,0
						l0.1,0.6c2.4,9.8,4.9,20,7.6,30.9l0.2,0.6l-0.6,0.3c-5.6,2.8-11.3,5.7-17.2,8.6l0.5-0.7c-0.1,6.9-1.1,13.9-3.2,20.7l-0.2-0.9
						c4.5,4.4,9.1,8.8,13.8,13.3l0.5,0.5l-0.4,0.6c-5.4,8.8-10.8,17.9-16.5,27.2l-0.4,0.6l-0.7-0.2c-6-2-12.1-4-18.2-6.1l1-0.2
						c-5,4.8-10.7,9-16.9,12.4l0.5-0.9c0.1,6.3,0.2,12.7,0.3,19.2l0,0.8l-0.8,0.2c-10.2,2.5-20.5,5-30.9,7.6l-0.8,0.2l-0.3-0.7
						c-2.8-5.7-5.7-11.4-8.6-17.2l0.9,0.5l0,0c-7.2-0.1-14.3-1.3-20.7-3.2l1-0.3c-4.6,4.7-9.1,9.5-13.4,13.8l-0.5,0.6l-0.7-0.4
						c-9.4-5.7-18.6-11.3-27.2-16.5l-0.7-0.4l0.2-0.7c2.1-6.3,4.2-12.5,6.1-18.2l0.2,1c-5.1-5.2-9.3-11.1-12.4-16.9l0.8,0.5
						c-6.7,0.1-13.2,0.2-19.2,0.3l-0.7,0l-0.2-0.7c-2.6-10.7-5.2-21.2-7.5-30.9l-0.2-0.7l0.6-0.3c6-3,11.9-5.9,17.2-8.6l-0.5,0.7
						c0.1-7.3,1.4-14.5,3.2-20.7l0.2,0.8c-4.8-4.7-9.5-9.2-13.8-13.4l-0.4-0.4l0.3-0.5c5.8-9.5,11.3-18.6,16.6-27.2l0.3-0.5l0.5,0.2
						c6.4,2.2,12.5,4.2,18.2,6.1l-0.6,0.1c5.3-5.1,11.1-9.2,16.9-12.3l-0.3,0.5c-0.1-6.9-0.2-13.4-0.3-19.2l0-0.4l0.4-0.1
						c12.6-3,23-5.5,30.9-7.4l0.2-0.1l0.1,0.2c2.7,5.6,4.8,9.9,6.2,12.8c0.7,1.4,1.2,2.5,1.6,3.3
						C2592.4,805.6,2592.6,806,2592.6,806.1z"/>
				</g>
			</g>
		</g>
	</g>
	<g>
		<g>
			<g>
				<g>
					<g>
						<g>
							<g>
								<polygon class="st1" points="1574.3,1382.9 1574.3,1480.6 1717.2,1480.6 1874.8,1480.6 1874.8,1382.9 								"/>
							</g>
						</g>
					</g>
				</g>
			</g>
			<g>
				<g>
					<g>
						<g>
							<g>
								<polygon class="st0" points="1561.7,1355.6 1561.7,1382.9 1885.3,1382.9 1885.3,1355.6 1717.2,1355.6 								"/>
							</g>
						</g>
					</g>
				</g>
			</g>
			<g>
				<g>
					<g>
						<g>
							<g>
								<polygon class="st0" points="1723.5,1480.6 1874.8,1480.6 1874.8,1382.9 1885.3,1382.9 1885.3,1355.6 1717.2,1355.6 
									1717.2,1380.4 								"/>
							</g>
						</g>
					</g>
				</g>
			</g>
			<g>
				<g>
					<g>
						<g>
							<g>
								<rect x="1616.3" y="1398.6" class="st0" width="60.9" height="14.7"/>
							</g>
						</g>
					</g>
				</g>
			</g>
			<g>
				<g>
					<g>
						<g>
							<g>
								<rect x="1608.5" y="1431.7" class="st4" width="78.2" height="31.1"/>
							</g>
						</g>
					</g>
				</g>
			</g>
		</g>
	</g>
	<g>
		<g>
			<g>
				<g>
					<g>
						<g>
							<g>
								<polygon class="st1" points="1620.5,1258 1620.5,1355.7 1763.4,1355.7 1921,1355.7 1921,1258 								"/>
							</g>
						</g>
					</g>
				</g>
			</g>
			<g>
				<g>
					<g>
						<g>
							<g>
								<polygon class="st0" points="1607.9,1230.7 1607.9,1258 1931.5,1258 1931.5,1230.7 1763.4,1230.7 								"/>
							</g>
						</g>
					</g>
				</g>
			</g>
			<g>
				<g>
					<g>
						<g>
							<g>
								<polygon class="st0" points="1769.7,1355.7 1921,1355.7 1921,1258 1931.5,1258 1931.5,1230.7 1763.4,1230.7 1763.4,1255.5 
																	"/>
							</g>
						</g>
					</g>
				</g>
			</g>
			<g>
				<g>
					<g>
						<g>
							<g>
								<rect x="1662.6" y="1273.8" class="st0" width="60.9" height="14.7"/>
							</g>
						</g>
					</g>
				</g>
			</g>
			<g>
				<g>
					<g>
						<g>
							<g>
								<rect x="1654.7" y="1306.8" class="st4" width="78.2" height="31.1"/>
							</g>
						</g>
					</g>
				</g>
			</g>
		</g>
	</g>
</g>
<g id="Background_Simple" class="st5">
	<path class="st6" d="M1213,347.8c0.5,11.4-6.3,22-16,28c-9.7,6-22.7,6.4-32.7,0.9c-11.3-6.2-18.6-18.9-30.9-22.6
		c-9.4-2.8-19.6,0.2-29.3-1.7c-18.1-3.7-28.5-26-22.7-43.6c5.8-17.6,23.9-29.1,42.3-31c18.4-1.9,36.8,4.5,52.9,13.7
		c10.4,5.9,20.2,13.1,27.3,22.7S1215,336,1213,347.8"/>
	<path class="st6" d="M1125.2,557c-14.5-10.8-34.4-9.5-52.2-6.6c-17.8,2.8-36.8,6.5-53.4-0.7c-13.9-6.1-23.7-19.2-30.1-33
		c-6.4-13.8-10-28.7-15.5-42.9c-5.6-14.2-13.5-28.1-26.2-36.5c-12.7-8.4-36.6-10.8-48.3-1.2l0,0c-10,5.3-17.9,14-22.2,24.5
		c-6.8,16.9-12.3,42.2-11.7,56.3c1.9,43.5,14.8,84.7,42.4,118.4c22.9,28,68,40.1,104.1,43.1c36.1,3,73.2-9.1,100.5-32.9
		c12.9-11.2,23.9-25.5,27.6-42.3C1143.8,586.5,1138.9,567.2,1125.2,557z"/>
	<path class="st6" d="M1216.6,532.9c-7.7-6.2-20.5-11.1-33.3-8.8c-0.7,0.1-1.3,0.2-2,0.4c0,0-0.1,0-0.1,0l0,0
		c-1.5,0.4-3,0.9-4.4,1.6c-5,2.4-10.5,5.6-14,9.8c-4.9,5.9-7.6,13.8-7.6,21.4c0.1,11.2,9,20.6,19.1,25.5c9.8,4.7,21.3,6.1,31.5,2.5
		c10.2-3.6,18.7-12.7,20.2-23.4C1227.6,551.7,1224.7,539.4,1216.6,532.9z"/>
</g>
<g id="Floor">
	<g>
		<g>
			<path class="st7" d="M2918.8,1480.6c0,0.5-327.2,0.8-730.6,0.8c-403.6,0-730.7-0.4-730.7-0.8c0-0.5,327.1-0.8,730.7-0.8
				C2591.6,1479.8,2918.8,1480.1,2918.8,1480.6z"/>
		</g>
	</g>
</g>
<g id="Processing">
	<g>
		<g>
			<g>
				<path class="st8" d="M1669.2,150.6c11.8-7.1,24.3-12.4,37.2-16l7.8-36.8l62.2-0.9l8.8,36.5c13,3.3,25.7,8.2,37.7,15l31.5-20.5
					l44.6,43.4l-19.6,32.1c7.1,11.8,12.4,24.3,16,37.3l36.8,7.8l0.9,62.2l-36.6,8.8c-3.3,13-8.2,25.7-15,37.7l20.5,31.5l-43.4,44.6
					l-32.1-19.6c-11.8,7.1-24.3,12.4-37.3,16l-7.8,36.8l-62.2,0.9l-8.8-36.6c-13-3.3-25.7-8.2-37.7-15l-31.5,20.5l-44.6-43.4
					l19.6-32.1c-7.1-11.8-12.4-24.3-16-37.3l-36.8-7.8l-0.9-62.2l36.6-8.8c3.3-13,8.2-25.7,15-37.7l-20.5-31.5l43.4-44.6
					L1669.2,150.6L1669.2,150.6z"/>
			</g>
		</g>
		<g>
			<g>
				<g>
					<path class="st4" d="M1784.7,263.8c-0.3,0,0.1-4.8-2-13.1c-1-4.1-2.9-9-6-14.2c-3.1-5.1-7.6-10.5-13.6-15.1
						c-6-4.5-13.6-8.3-22.4-9.9c-8.7-1.5-18.5-1.2-27.9,2.4c-4.7,1.6-9.2,4.1-13.4,7.2c-2.2,1.5-4,3.3-6,5.1c-1.8,2-3.7,3.9-5.2,6.2
						c-6.5,8.7-10.2,19.8-10.3,31.3c0.1,11.5,3.8,22.7,10.3,31.4c1.5,2.2,3.4,4.2,5.2,6.2c2,1.8,3.9,3.6,6,5.1
						c4.2,3.1,8.7,5.6,13.4,7.2c9.4,3.6,19.2,3.8,27.9,2.4c8.8-1.5,16.4-5.4,22.4-9.9c6.1-4.6,10.5-9.9,13.6-15.1
						c3.1-5.2,5-10.1,6-14.2C1784.8,268.6,1784.4,263.7,1784.7,263.8c0,0,0,0.3,0,0.9c0,0.7,0,1.5,0,2.6c0,1.1-0.1,2.5-0.3,4.2
						c-0.2,1.6-0.4,3.5-1,5.6c-0.9,4.2-2.8,9.2-5.8,14.5c-3.1,5.3-7.6,10.8-13.7,15.5c-6.1,4.7-13.9,8.7-22.9,10.3
						c-8.9,1.6-19,1.3-28.7-2.3c-4.9-1.7-9.5-4.2-13.8-7.4c-2.2-1.5-4.2-3.4-6.2-5.3c-1.8-2-3.8-4-5.4-6.3
						c-6.7-8.9-10.6-20.5-10.7-32.3c0.1-11.9,3.9-23.4,10.7-32.3c1.6-2.3,3.5-4.3,5.4-6.3c2-1.8,4-3.7,6.2-5.3
						c4.3-3.2,9-5.7,13.8-7.4c9.6-3.6,19.7-3.9,28.7-2.3c9,1.6,16.7,5.6,22.9,10.3c6.1,4.7,10.6,10.2,13.7,15.5
						c3.1,5.3,5,10.3,5.8,14.5c0.6,2.1,0.8,4,1,5.6c0.3,1.6,0.3,3,0.3,4.2c0,1.1,0,1.9,0,2.6
						C1784.7,263.5,1784.7,263.8,1784.7,263.8z"/>
				</g>
			</g>
			<g>
				<g>
					<path class="st4" d="M1767.7,303c0.3-0.3,12.1,10.9,26.2,25c14.2,14.2,25.4,25.9,25,26.2c-0.3,0.3-12.1-10.9-26.2-25
						C1778.6,315,1767.4,303.3,1767.7,303z"/>
				</g>
			</g>
		</g>
	</g>
	<g>
		<g>
			<g>
				<path class="st8" d="M2094.5,385.9c15.1-9.1,31.2-15.9,47.8-20.6l10-47.2l79.8-1.1l11.3,46.9c16.7,4.2,33,10.6,48.4,19.2
					l40.4-26.3l57.3,55.7l-25.2,41.2c9.1,15.1,15.9,31.2,20.6,47.8l47.2,10l1.1,79.8l-46.9,11.3c-4.2,16.7-10.6,33-19.2,48.4
					l26.3,40.4l-55.7,57.3l-41.2-25.2c-15.1,9.1-31.2,15.9-47.8,20.6l-10,47.2l-79.8,1.1l-11.3-46.9c-16.7-4.2-33-10.6-48.4-19.2
					l-40.4,26.3l-57.3-55.7l25.2-41.2c-9.1-15.1-15.9-31.2-20.6-47.8l-47.2-10l-1.1-79.8l46.9-11.3c4.2-16.7,10.6-33,19.2-48.4
					l-26.3-40.4l55.7-57.3L2094.5,385.9L2094.5,385.9z"/>
			</g>
		</g>
		<g>
			<g>
				<g>
					<path class="st4" d="M2168.5,637.9c0,0,0.3,0,1,0c0.7,0,1.6,0,2.7,0c2.5,0,6-0.1,10.5-0.1c9.2-0.1,22.4-0.2,39.2-0.3l-0.5,0.5
						c-0.2-6.7-0.3-14.3-0.5-22.4l0-0.4l0.4-0.2c11.2-5.1,22.9-12.7,33.5-22.9c5.3-5.1,10.1-11.2,14-18c4.1-6.8,6.5-14.7,7.7-22.9
						c1.9-16.5-1.8-34.9-12-50.2c-10-15.3-25.5-27.9-43.7-34.8c-13.6-5.2-28.3-5.8-41.9-2.9c-13.7,2.5-26.3,8.6-36.4,16.8
						c-10.3,8.2-17.5,19.1-22,30.4c-1,2.9-2.2,5.6-2.9,8.5c-0.7,2.9-1.4,5.8-2.1,8.6c-1,5.7-1.6,11.4-1.5,16.9
						c0.1,5.5,0.8,10.9,2,15.9c1.2,5.1,3,9.8,5.1,14.2c4.3,8.8,9.9,16,15.8,21.9c11.8,11.7,23.9,18.5,32.7,22.3l0.2,0.1l0,0.2
						c-0.4,6.1-0.6,10.8-0.8,14c-0.1,1.5-0.2,2.7-0.2,3.6C2168.6,637.5,2168.5,637.9,2168.5,637.9c0,0,0-0.4,0-1.1
						c0-0.9,0.1-2,0.1-3.5c0.1-3.3,0.3-8,0.5-14.2l0.2,0.3c-9-3.8-21.1-10.4-33.2-22.2c-6-5.9-11.8-13.2-16.1-22.1
						c-2.2-4.5-4-9.3-5.3-14.4c-1.2-5.2-2-10.6-2.1-16.2c-0.1-5.6,0.5-11.4,1.5-17.2c0.7-2.9,1.4-5.8,2.1-8.7c0.7-2.9,2-5.8,3-8.7
						c4.6-11.5,11.9-22.6,22.4-31c10.4-8.4,23.2-14.6,37.1-17.2c13.8-2.9,29-2.3,42.8,3c18.6,7.1,34.3,19.9,44.5,35.5
						c5.1,7.8,8.8,16.4,10.7,25.2c0.7,2.2,0.9,4.4,1.2,6.6c0.3,2.2,0.7,4.4,0.7,6.6c0.1,2.2,0.2,4.4,0.2,6.5
						c-0.2,2.2-0.4,4.3-0.6,6.4c-1.2,8.4-3.8,16.5-8,23.4c-4.1,6.9-9,13.1-14.4,18.3c-10.8,10.4-22.6,17.9-34,23l0.3-0.5
						c0.1,8.1,0.3,15.7,0.4,22.4l0,0.5l-0.5,0c-16.9-0.1-30.2-0.2-39.5-0.3c-4.5-0.1-7.9-0.1-10.4-0.1c-1.1,0-2,0-2.6,0
						C2168.8,638,2168.5,638,2168.5,637.9z"/>
				</g>
			</g>
			<g>
				<g>
					<path class="st4" d="M2222.6,652.8c0,0.5-12.3,0.8-27.4,0.8c-15.1,0-27.4-0.4-27.4-0.8c0-0.5,12.3-0.8,27.4-0.8
						C2210.4,651.9,2222.6,652.3,2222.6,652.8z"/>
				</g>
			</g>
			<g>
				<g>
					<path class="st4" d="M2204.9,673.5c0.1,0.4-4.3,1.3-9.7,1.1c-5.4-0.2-9.7-1.3-9.6-1.7c0.1-0.5,4.4-0.1,9.7,0.1
						C2200.5,673.2,2204.8,673,2204.9,673.5z"/>
				</g>
			</g>
			<g>
				<g>
					<path class="st4" d="M2179.7,637.9c0,0,0-0.3-0.1-0.9c0-0.7,0-1.6,0-2.7c0-2.5,0.1-5.9,0.2-10.2c0.2-9,0.5-21.7,0.9-37.5
						c0.2-7.9,0.4-16.6,0.7-25.9c0.1-2.3-0.1-4.6-0.9-6.7c-0.7-2.1-2.7-3.6-4.8-3.2c-2.1,0.4-3.6,2.6-4.3,4.8
						c-0.7,2.3-0.2,4.8,0.9,7c2.2,4.5,7.1,7.5,12.2,8.1c5.2,0.8,10.6-1.6,14.2-5.7c3.7-4.1,5.8-9.7,6-15.3c0.1-2.8-0.2-5.8-1.7-8.1
						c-1.3-2.3-4.3-3.8-6.7-2.9c-2.4,0.9-3.6,4-3.2,6.6c0.4,2.7,2,5.2,3.8,7.4c3.5,4.5,8,8.4,13.2,10.2c2.6,0.9,5.3,1.3,7.9,0.9
						c2.6-0.4,5.1-1.4,7.2-3c2.1-1.5,3.8-3.6,4.5-6c0.8-2.4,0.7-5-0.4-7.1c-1.1-2.1-3.1-3.8-5.4-3.7c-2.3,0-4.4,1.5-5.7,3.4
						c-2.6,3.9-2.6,9-3.3,13.5c-1,9.2-1.7,17.9-2.3,25.8c-1.1,15.7-1.9,28.4-2.5,37.4c-0.3,4.3-0.5,7.7-0.7,10.2
						c-0.1,1.1-0.2,2-0.2,2.6c-0.1,0.6-0.1,0.9-0.1,0.9c0,0,0-0.3,0-0.9c0-0.7,0-1.6,0-2.7c0.1-2.4,0.2-5.9,0.4-10.2
						c0.4-8.8,1-21.6,2-37.4c0.5-7.9,1.1-16.5,2.1-25.8c0.3-2.3,0.5-4.7,0.9-7.1c0.4-2.4,1.1-4.9,2.6-7.1c1.5-2.1,3.9-3.9,6.8-4
						c3-0.1,5.6,2,6.8,4.5c1.3,2.5,1.5,5.6,0.5,8.3c-0.9,2.7-2.8,5.1-5.1,6.8c-2.3,1.7-5,2.9-7.9,3.3c-2.9,0.4-5.9,0-8.7-1
						c-5.6-2-10.3-6-14-10.7c-1.8-2.3-3.7-5-4.1-8.2c-0.5-3.2,0.8-7,4.3-8.4c3.5-1.2,7,0.8,8.7,3.5c1.7,2.8,2,6,1.9,9
						c-0.2,6.1-2.5,12-6.4,16.4c-3.9,4.4-9.9,7.1-15.6,6.2c-5.6-0.8-11-4-13.4-9c-1.2-2.5-1.8-5.4-1-8c0.8-2.5,2.5-5.2,5.4-5.8
						c1.4-0.3,2.9,0.1,4,0.9c1.2,0.8,1.9,2,2.4,3.2c0.9,2.4,1,4.9,1,7.3c-0.3,9.3-0.6,18-0.9,25.9c-0.6,15.7-1.1,28.5-1.4,37.5
						c-0.2,4.3-0.4,7.7-0.5,10.2c-0.1,1.1-0.1,2-0.2,2.6C2179.8,637.6,2179.7,637.9,2179.7,637.9z"/>
				</g>
			</g>
			<g>
				<g>
					<path class="st4" d="M2217.8,663.1c0,0.5-10,0.8-22.2,0.8c-12.3,0-22.2-0.4-22.2-0.8c0-0.5,10-0.8,22.2-0.8
						C2207.9,662.3,2217.8,662.7,2217.8,663.1z"/>
				</g>
			</g>
		</g>
	</g>
	<g>
		<g>
			<g>
				<g>
					<path class="st8" d="M2618.8,513.4c9.7-6,20.1-10.7,30.8-13.8l6-30.7l51.8-1.5l7.8,30.3c10.9,2.5,21.5,6.5,31.6,12l26-17.5
						l37.7,35.5l-15.9,27c6,9.7,10.7,20.1,13.8,30.8l30.7,6l1.5,51.8l-30.3,7.8c-2.5,10.9-6.5,21.5-12,31.6l17.5,26l-35.5,37.7
						l-27-15.9c-9.7,6-20.1,10.7-30.8,13.8l-6,30.7l-51.8,1.5l-7.8-30.3c-10.9-2.5-21.5-6.5-31.6-12l-26,17.5l-37.7-35.5l15.9-27
						c-6-9.7-10.7-20.1-13.8-30.8l-30.7-6l-1.5-51.8l30.3-7.8c2.5-10.9,6.5-21.5,12-31.6l-17.5-26l35.5-37.7L2618.8,513.4
						L2618.8,513.4z"/>
				</g>
			</g>
		</g>
		<g>
			<g>
				<g>
					<path class="st4" d="M2755.5,677.6c0,0.1-0.9,0.1-2.5,0.2c-1.8,0-4.2,0.1-7.2,0.2c-6.4,0.1-15.4,0.2-26.5,0.3
						c-22.5,0.1-53.4,0.1-87.4,0.2c-2.1,0-4.3,0-6.2,0l-0.8,0l0-0.8c0.1-32.6,0.2-61.9,0.3-83.2c0.1-10.5,0.2-18.9,0.3-25
						c0.1-2.8,0.1-5.1,0.2-6.8c0.1-1.5,0.1-2.4,0.2-2.4s0.1,0.8,0.2,2.4c0,1.7,0.1,4,0.2,6.8c0.1,6.1,0.1,14.6,0.3,25
						c0.1,21.3,0.2,50.6,0.3,83.2l-0.8-0.8c2,0,4.1,0,6.2,0c34.1,0.1,64.9,0.2,87.4,0.2c11.1,0.1,20.1,0.2,26.5,0.3
						c3,0.1,5.4,0.1,7.2,0.2C2754.6,677.5,2755.5,677.6,2755.5,677.6z"/>
				</g>
			</g>
			<g>
				<g>
					<path class="st4" d="M2741,588.7c0.1,0.1-1.3,1.4-3.9,3.7c-2.8,2.5-6.5,5.7-11,9.6c-9.3,8.1-22.2,19.1-36.6,31.3l-2.2,1.8
						l-0.6,0.5l-0.5-0.5c-5.7-5.3-11.2-10.4-16.3-15.1l1,0c-9.6,7.9-17.8,14.7-23.9,19.7c-2.8,2.2-5.1,4.1-6.9,5.5
						c-1.6,1.3-2.5,1.9-2.6,1.9c-0.1-0.1,0.7-0.8,2.3-2.2c1.7-1.5,4-3.5,6.6-5.9c6-5.1,14.1-12.1,23.5-20.2l0.5-0.4l0.5,0.5
						c5.1,4.7,10.6,9.7,16.3,15l-1.1,0l2.2-1.8c14.3-12.1,27.4-23.1,36.9-30.9c4.6-3.8,8.4-6.9,11.3-9.2
						C2739.4,589.8,2741,588.6,2741,588.7z"/>
				</g>
			</g>
			<g>
				<g>
					<path class="st4" d="M2741,615.9c-0.2,0-0.4-3.1-0.6-8.1c-0.1-5-0.2-12-0.3-19.7l0.8,0.8c-0.4,0-0.9,0-1.4,0
						c-8.1,0-15.4-0.1-20.7-0.2c-5.3-0.1-8.6-0.4-8.6-0.6c0-0.2,3.3-0.4,8.6-0.6c5.3-0.1,12.6-0.2,20.7-0.2c0.5,0,1,0,1.4,0l0.8,0
						l0,0.8c0,7.8-0.1,14.7-0.3,19.7C2741.5,612.8,2741.3,615.9,2741,615.9z"/>
				</g>
			</g>
		</g>
	</g>
	<g>
		<g>
			<g>
				<path class="st7" d="M1903.1,682.1c-0.4,0.2-2.1-3.8-3.7-8.8c-1.6-5-2.5-9.2-2.1-9.3c0.4-0.1,2.1,3.8,3.7,8.8
					C1902.6,677.8,1903.5,682,1903.1,682.1z"/>
			</g>
		</g>
		<g>
			<g>
				<path class="st7" d="M1936.7,749.9c-0.4,0.2-5.4-6.6-10.7-15.7c-5.2-9.1-8.6-16.9-8.2-17.1c0.4-0.2,4.4,7.3,9.7,16.3
					C1932.7,742.4,1937.1,749.7,1936.7,749.9z"/>
			</g>
		</g>
		<g>
			<g>
				<path class="st7" d="M1986.2,807.2c-0.3,0.3-7-5-14.3-12.5c-7.4-7.5-12.6-14.2-12.3-14.5c0.4-0.3,6.1,5.9,13.4,13.4
					C1980.3,801,1986.5,806.8,1986.2,807.2z"/>
			</g>
		</g>
		<g>
			<g>
				<path class="st7" d="M2048.8,849.6c-0.2,0.4-8-3-17.1-8.3c-9.1-5.3-15.9-10.5-15.6-10.8c0.3-0.4,7.4,4.1,16.5,9.4
					C2041.5,845.2,2049,849.2,2048.8,849.6z"/>
			</g>
		</g>
		<g>
			<g>
				<path class="st7" d="M2120.7,872.8c-0.1,0.4-8.5-0.8-18.8-3c-10.1-2.9-18.2-5.5-18.1-5.9c0.1-0.4,8.4,1.5,18.4,4.3
					C2112.6,870.3,2120.8,872.3,2120.7,872.8z"/>
			</g>
		</g>
		<g>
			<g>
				<path class="st7" d="M2196.3,874.5c0.1,0.4-8.4,1.8-18.9,2.2c-10.5,0.5-19-0.1-19-0.6c0-0.5,8.5-0.6,18.9-1.1
					C2187.8,874.6,2196.3,874,2196.3,874.5z"/>
			</g>
		</g>
		<g>
			<g>
				<path class="st7" d="M2270.3,858.1c0.1,0.4-7.8,3.6-17.9,6.4c-10.1,2.8-18.5,4.3-18.6,3.8c-0.1-0.5,8.1-2.6,18.2-5.4
					C2262,860.1,2270.1,857.7,2270.3,858.1z"/>
			</g>
		</g>
		<g>
			<g>
				<path class="st7" d="M2338.8,826c0.2,0.4-6.8,5.2-16,10.2c-9.3,5-17.2,8.2-17.3,7.8c-0.2-0.4,7.4-4.3,16.6-9.2
					C2331.2,829.8,2338.6,825.6,2338.8,826z"/>
			</g>
		</g>
		<g>
			<g>
				<path class="st7" d="M2397.6,778.4c0.3,0.3-5.1,6.9-12.9,14c-7.7,7.2-14.7,12.1-14.9,11.8c-0.3-0.4,6.1-5.9,13.8-13
					C2391.3,784.1,2397.3,778.1,2397.6,778.4z"/>
			</g>
		</g>
		<g>
			<g>
				<path class="st7" d="M2439.4,715.5c0.4,0.2-2.7,8.1-7.8,17.3c-5,9.2-10.1,16.1-10.5,15.8c-0.4-0.3,4.1-7.5,9.1-16.6
					C2435.2,722.9,2439,715.3,2439.4,715.5z"/>
			</g>
		</g>
		<g>
			<g>
				<path class="st7" d="M2465.4,644.3c0.4,0.1-1.9,8.3-5.1,18.3c-3.3,10-6.3,17.9-6.7,17.8c-0.4-0.2,1.9-8.3,5.1-18.3
					C2462,652.1,2465,644.2,2465.4,644.3z"/>
			</g>
		</g>
		<g>
			<g>
				<path class="st7" d="M2489.6,572.5c0.5,0.2-2.4,8.2-5.8,18c-3.4,9.9-6.6,17.8-7,17.6s2-8.3,5.4-18.2c1.7-5,3.5-9.4,4.9-12.5
					C2488.5,574.3,2489.4,572.4,2489.6,572.5z"/>
			</g>
		</g>
		<g>
			<g>
				<path class="st7" d="M2523.3,504.6c0.4,0.3-3.9,7.6-9,16.7c-5.1,9.1-9,16.6-9.5,16.4c-0.4-0.2,2.9-8,8-17.2
					C2517.9,511.3,2522.9,504.4,2523.3,504.6z"/>
			</g>
		</g>
		<g>
			<g>
				<path class="st7" d="M2573.8,448.6c0.3,0.4-6.4,5.6-14,12.7c-7.7,7.1-13.5,13.3-13.8,12.9c-0.3-0.3,5-7,12.7-14.2
					C2566.4,453,2573.6,448.3,2573.8,448.6z"/>
			</g>
		</g>
		<g>
			<g>
				<path class="st7" d="M2642.1,416.6c0.1,0.5-8,2.9-17.8,6.5c-9.8,3.5-17.6,6.8-17.8,6.4c-0.2-0.4,7.4-4.4,17.3-7.9
					C2633.7,418,2642,416.2,2642.1,416.6z"/>
			</g>
		</g>
		<g>
			<g>
				<path class="st7" d="M2717.2,408.3c0,0.5-8.5,0.3-18.9,0.6c-10.4,0.3-18.9,1.1-18.9,0.6c-0.1-0.4,8.4-1.9,18.9-2.2
					C2708.8,406.9,2717.3,407.8,2717.2,408.3z"/>
			</g>
		</g>
		<g>
			<g>
				<path class="st7" d="M2790.3,426.9c-0.2,0.4-8.1-2.7-17.9-6.2c-9.8-3.5-17.9-6-17.8-6.5c0.1-0.4,8.5,1.4,18.4,4.9
					C2782.9,422.7,2790.5,426.6,2790.3,426.9z"/>
			</g>
		</g>
		<g>
			<g>
				<path class="st7" d="M2854.8,466.4c-0.3,0.4-7-4.9-15.5-10.9c-8.5-6.1-15.6-10.7-15.4-11.1c0.2-0.4,7.8,3.6,16.3,9.8
					C2848.9,460.2,2855.1,466.1,2854.8,466.4z"/>
			</g>
		</g>
		<g>
			<g>
				<path class="st7" d="M2892.9,508.4c-0.4,0.2-3-3.1-6.1-7.3c-3.1-4.2-5.5-7.7-5.2-8c0.3-0.3,3.4,2.7,6.5,7
					C2891.2,504.4,2893.2,508.2,2892.9,508.4z"/>
			</g>
		</g>
	</g>
	<g>
		<g>
			<path class="st9" d="M2055.1,829.9"/>
		</g>
	</g>
	<g>
		<g>
			<path class="st7" d="M1499.2,236.8c0,0,0.2-1,0.6-2.9c0.4-1.9,1.1-4.7,1.9-8.4c1.8-7.3,5-18,10.5-31.3
				c5.8-13.1,14-28.8,26.2-45.2c12.1-16.4,28.1-33.6,48.3-49.5c20.4-15.6,44.9-30.2,73.7-39.9c14.3-4.8,29.6-8.6,45.5-11
				c15.9-2.3,32.6-3.3,49.6-2.9c17,0.4,34.4,2.5,51.7,6.6c17.3,4,34.7,9.9,51.3,18.1c16.6,8.2,32.3,18.9,46.9,31.2
				c14.6,12.4,27.8,26.8,38.9,43c11.2,16.2,19.9,33.7,26.1,51.8c6.2,18.1,10,36.7,11.9,55.1c0.3,4.6,0.8,9.2,1.1,13.8
				c0.1,4.6,0.2,9.1,0.3,13.7c0.1,4.5-0.2,9.1-0.3,13.6c-0.4,4.5-0.7,9-1.3,13.4c-2.3,17.7-7.1,34.6-13.6,50.4
				c-6.6,15.7-14.5,30.3-22.5,44.2c-8.1,13.9-16,27.3-23.6,40.3c-15.2,26.1-23.2,53.4-27.6,78.5c-2.3,12.6-3.7,24.7-4.5,36.3
				c-0.9,11.5-1.2,22.4-1.3,32.6c0,20.4,0.2,38,2.5,52.1c2.1,14.2,5,25,7.2,32.2c1.2,3.6,2.2,6.3,2.9,8.1c0.3,0.9,0.7,1.6,0.8,2
				c0.2,0.5,0.3,0.7,0.3,0.7s-1.9-3.5-4.3-10.7c-2.4-7.2-5.4-18-7.6-32.2c-2.3-14.2-2.7-31.8-2.7-52.2c0-10.2,0.3-21.1,1.2-32.7
				c0.8-11.5,2.1-23.7,4.4-36.4c4.4-25.2,12.4-52.8,27.6-79c7.6-13,15.5-26.5,23.6-40.4c8-13.9,15.9-28.5,22.4-44.1
				c6.4-15.6,11.2-32.4,13.5-50c0.6-4.4,0.9-8.8,1.3-13.3c0.1-4.5,0.4-9,0.3-13.5c-0.1-4.5-0.2-9.1-0.3-13.6
				c-0.2-4.6-0.7-9.1-1.1-13.7c-1.9-18.3-5.6-36.8-11.8-54.7c-6.2-18-14.8-35.4-25.9-51.4c-11-16.1-24.2-30.4-38.6-42.7
				c-14.5-12.3-30.1-22.9-46.6-31c-16.5-8.2-33.7-14-50.9-18c-17.2-4-34.5-6.1-51.4-6.6c-16.9-0.5-33.4,0.5-49.3,2.8
				c-15.9,2.4-31,6.1-45.3,10.9c-28.6,9.6-53,24-73.4,39.5c-20.2,15.8-36.2,32.8-48.3,49.1c-12.2,16.3-20.5,31.9-26.4,44.9
				c-5.6,13.2-8.9,23.8-10.8,31.1c-0.9,3.6-1.6,6.4-2.1,8.3C1499.5,235.9,1499.2,236.8,1499.2,236.8z"/>
		</g>
	</g>
</g>
<g id="Character">
	<g>
		<g>
			<g>
				<g>
					<g>
						<path class="st10" d="M2270.2,1401.7l47.5,16.7l-0.5,45.7c-22.8,6.4-25.9,17.9-25.9,17.9l47.6-1.1l41.4-84.2l-32.7-21.4
							l-61.2-26.8"/>
					</g>
					<g class="st11">
						<polygon class="st4" points="2380.2,1396.8 2338.8,1480.9 2291.3,1482 2296.4,1474.7 2335.1,1471.7 2373.2,1392.2 						"/>
					</g>
				</g>
				<g>
					<g>
						<path class="st7" d="M2317,1443.2c0.4,0.5,3.1-1.1,6.8-1.1c3.7-0.1,6.4,1.5,6.8,1c0.4-0.4-2.3-3.2-6.8-3.1
							C2319.3,1440,2316.6,1442.8,2317,1443.2z"/>
					</g>
				</g>
				<g>
					<g>
						<path class="st7" d="M2317.5,1431.8c0.5,0.3,2.5-2.5,6.3-3.4c3.8-0.9,6.8,0.8,7.1,0.3c0.2-0.2-0.4-1-1.8-1.7
							c-1.3-0.7-3.5-1.2-5.8-0.7c-2.3,0.5-4.1,1.9-5,3.1C2317.5,1430.7,2317.3,1431.7,2317.5,1431.8z"/>
					</g>
				</g>
				<g>
					<g>
						<path class="st7" d="M2316.9,1417.3c0.5,0.3,2.1-2.5,5.4-3.8c3.3-1.3,6.3-0.2,6.5-0.7c0.1-0.2-0.5-0.9-1.8-1.4
							c-1.3-0.5-3.4-0.6-5.4,0.1c-2.1,0.8-3.5,2.3-4.2,3.5C2316.7,1416.3,2316.7,1417.2,2316.9,1417.3z"/>
					</g>
				</g>
				<g>
					<g>
						<path class="st7" d="M2313.4,1417.2c0.6-0.1,0.2-3.1,1.7-6.4c1.3-3.3,3.7-5.1,3.4-5.6c-0.2-0.5-3.7,0.8-5.4,4.8
							C2311.4,1414,2312.9,1417.5,2313.4,1417.2z"/>
					</g>
				</g>
				<g>
					<g>
						<path class="st7" d="M2307.8,1411.9c0.3,0,0.7-2.4,1.1-6.4c0.2-2.3,0.4-4.6,0.6-7c0-1.3,0.4-2.6,0-4.4
							c-0.2-0.9-0.8-1.8-1.7-2.4c-0.9-0.6-2.4-0.5-3.2,0.1c-1.6,1.3-2.1,2.8-2.7,4.2c-0.5,1.4-0.8,2.9-0.9,4.3
							c-0.2,2.8,0.4,5.3,1.3,7.2c1.7,3.9,4.1,5.3,4.2,5.1c0.3-0.3-1.6-2-2.8-5.6c-0.6-1.8-1-4.1-0.7-6.5c0.1-1.2,0.4-2.5,0.9-3.7
							c0.5-1.2,1.2-2.6,2-3.2c0.4-0.3,0.7-0.3,1-0.1c0.3,0.2,0.7,0.6,0.8,1.1c0.3,1,0.1,2.5,0.1,3.8c-0.1,2.4-0.1,4.7-0.2,7
							C2307.4,1409.4,2307.5,1411.9,2307.8,1411.9z"/>
					</g>
				</g>
				<g>
					<g>
						<path class="st7" d="M2307,1413.9c0.2-0.1-1.2-2.2-4.9-3.4c-3.5-1.1-9.7-0.9-13.5,4.8c-0.2,0.5-0.2,1.3,0.2,1.8
							c0.4,0.6,0.8,0.8,1.2,1c0.9,0.4,1.6,0.4,2.2,0.4c1.3,0.1,2.6,0.1,3.9,0c2.5-0.2,4.6-0.9,6.3-1.6c3.4-1.5,5-3.2,4.8-3.4
							c-0.2-0.3-2,1-5.3,2c-1.6,0.5-3.7,1-5.9,1.1c-1.1,0.1-2.3,0-3.5-0.1c-0.6-0.1-1.2-0.1-1.6-0.3c-0.4-0.2-0.3-0.2-0.3-0.3
							c0-0.2,0.5-0.7,0.9-1.1c0.4-0.4,0.9-0.8,1.4-1.1c1-0.7,2-1.1,3.1-1.5c2.1-0.7,4.1-0.6,5.8-0.3
							C2305.1,1412.7,2306.8,1414.2,2307,1413.9z"/>
					</g>
				</g>
				<g class="st11">
					<path class="st4" d="M2342.2,1396.2c0.1,3.1,2.6,5.6,5.8,5.5c3.1-0.1,5.6-2.6,5.5-5.8c-0.1-3.1-2.6-5.6-5.8-5.5
						C2344.6,1390.5,2342.2,1393.1,2342.2,1396.2z"/>
				</g>
			</g>
		</g>
		<g>
			<g>
				<g>
					<path class="st10" d="M2026.2,1382.6l0.6,62.3c0,0-63.1,21.6-64.1,33.1l120.8,3.1l3-97.1L2026.2,1382.6z"/>
				</g>
				<g class="st11">
					<g>
						<path class="st4" d="M2064.4,1440.6c2.3,0.7,3.9,3.4,3.3,5.7s-3.3,3.9-5.6,3.3c-2.3-0.7-4.3-3.8-3.4-6.1
							c0.9-2.3,4.1-4,6.2-2.8"/>
					</g>
				</g>
				<g class="st11">
					<path class="st4" d="M2083.6,1481l-0.1-9.8l-115.8,0.7c0,0-5.4,2.2-4.9,6L2083.6,1481z"/>
				</g>
				<g>
					<g>
						<path class="st7" d="M2024.9,1444.2c0,0.6,2.9,0.9,5.8,2.9c2.9,1.9,4.3,4.5,4.9,4.3c0.5-0.1-0.2-3.6-3.7-6
							C2028.4,1443,2024.8,1443.7,2024.9,1444.2z"/>
					</g>
				</g>
				<g>
					<g>
						<path class="st7" d="M2012.1,1449.1c-0.1,0.6,2.4,1.6,4.3,4.2c2,2.5,2.5,5.2,3,5.2c0.6,0.1,1-3.3-1.4-6.5
							C2015.6,1448.9,2012.2,1448.6,2012.1,1449.1z"/>
					</g>
				</g>
				<g>
					<g>
						<path class="st7" d="M2004.6,1464.1c0.5,0.1,1.4-2.8,0-6.1c-1.4-3.3-4.2-4.6-4.4-4.1c-0.3,0.5,1.4,2.3,2.5,5
							C2003.9,1461.5,2004,1464,2004.6,1464.1z"/>
					</g>
				</g>
				<g>
					<g>
						<path class="st7" d="M2026.4,1430c0.2,0.5,3-0.2,6.3,0.1c3.3,0.2,5.9,1.4,6.2,0.9c0.4-0.4-2.1-2.7-6.1-3
							C2028.9,1427.7,2026.1,1429.5,2026.4,1430z"/>
					</g>
				</g>
			</g>
			<g class="st12">
				<polygon points="2026.4,1394.9 2026.5,1406 2085.9,1407 2086.2,1397 				"/>
			</g>
			<g>
				<g>
					<path class="st7" d="M2026.5,1417.4c0,0.2,2.3,0.7,6.1,0.1c1.9-0.3,4.1-0.8,6.4-1.8c1.2-0.5,2.3-1.1,3.5-1.8
						c0.6-0.3,1.2-0.7,1.9-1.4c0.7-0.6,1.1-2.2,0.4-3.1c-0.6-0.9-1.7-1.4-2.6-1.4c-0.9-0.1-1.6,0.1-2.3,0.3
						c-1.4,0.3-2.6,0.7-3.8,1.2c-2.3,1-4.2,2.3-5.7,3.5c-2.9,2.5-3.9,4.7-3.7,4.8c0.3,0.2,1.7-1.6,4.6-3.7c1.4-1,3.3-2.1,5.5-2.9
						c1.1-0.4,2.3-0.7,3.5-1c1.3-0.3,2.4-0.3,2.7,0.3c0.1,0.2,0.1,0.3-0.2,0.7c-0.3,0.3-0.8,0.7-1.4,1c-1.1,0.7-2.2,1.2-3.2,1.7
						c-2.1,1-4.2,1.7-5.9,2.1C2028.8,1417,2026.5,1417.1,2026.5,1417.4z"/>
				</g>
			</g>
			<g>
				<g>
					<path class="st7" d="M2027.2,1418.3c0.2,0.1,1.4-2,1.7-5.8c0.1-1.9,0-4.2-0.7-6.6c-0.3-1.2-0.8-2.5-1.4-3.7
						c-0.7-1.2-1.5-2.8-3.8-3.2c-1.2-0.1-2.2,0.8-2.6,1.6c-0.4,0.8-0.5,1.5-0.7,2.2c-0.3,1.4-0.3,2.8-0.1,4.1
						c0.3,2.6,1.3,4.7,2.4,6.3c2.3,3.2,4.7,4,4.8,3.8c0.2-0.3-1.8-1.5-3.6-4.5c-0.9-1.5-1.6-3.5-1.8-5.7c-0.1-1.1,0-2.3,0.2-3.5
						c0.2-1.3,0.7-2.3,1.2-2.2c0.6,0,1.6,1,2.1,2c0.6,1.1,1.1,2.2,1.4,3.3c0.7,2.2,1,4.3,1,6.1
						C2027.6,1416,2026.9,1418.2,2027.2,1418.3z"/>
				</g>
			</g>
		</g>
		<g>
			<g>
				<g>
					<polygon class="st7" points="2307.1,1350.8 2168,1299.1 2314.2,1278.6 2321.6,1207.3 2048.1,1231.2 2009.5,1286.8 
						2019.6,1356.6 2286.1,1424.3 					"/>
				</g>
				<g>
					<path class="st7" d="M2012.1,1400.7l-13.3-254.6c0.7-24.8,14.2-47.5,35.7-59.9l0,0c17.8-10.3,39.1-12.4,58.5-6l177.4,59.2
						l97.4,25c0,0,16.6,40.9,6.8,72.7c-9.5,31.1-43.6,51.8-73.7,42.9c-37.3-11-208.4-84.6-208.4-84.6v207.3L2012.1,1400.7z"/>
				</g>
				<g>
					<g>
						<path class="st13" d="M2298.4,1280.8c0,0-0.4-0.1-1.1-0.3c-0.8-0.3-1.8-0.7-3-1.2c-2.8-1.1-6.7-2.7-11.6-4.7
							c-10.2-4.1-24.7-10.1-42.7-17.4c-36.1-14.9-85.7-35.4-140.6-58c-2.5-1-4.9-2-7.2-3l1.1-0.8c-0.1,57.6-0.2,109.4-0.3,146.9
							c-0.1,18.6-0.2,33.7-0.3,44.2c-0.1,5.1-0.1,9.2-0.2,12c0,1.3-0.1,2.3-0.1,3.1c0,0.7-0.1,1.1-0.1,1.1s-0.1-0.4-0.1-1.1
							c0-0.8,0-1.8-0.1-3.1c0-2.8-0.1-6.9-0.2-12c-0.1-10.5-0.1-25.6-0.3-44.2c-0.1-37.5-0.2-89.3-0.3-146.9l0-1.2l1.1,0.5
							c2.3,0.9,4.7,1.9,7.2,3c54.8,22.8,104.4,43.5,140.4,58.5c17.9,7.5,32.4,13.6,42.5,17.9c4.9,2.1,8.8,3.8,11.5,4.9
							c1.2,0.6,2.2,1,3,1.3C2298.1,1280.6,2298.5,1280.7,2298.4,1280.8z"/>
					</g>
				</g>
				<g>
					<g>
						<path class="st13" d="M2134.6,1281.1c0.1-0.4,8.8,1.2,18.2,6.4c9.5,5.2,15.4,11.8,15.1,12c-0.3,0.4-6.7-5.5-15.9-10.6
							C2142.8,1283.8,2134.4,1281.5,2134.6,1281.1z"/>
					</g>
				</g>
			</g>
			<g>
				<g>
					<path class="st13" d="M2077.2,1161c0.4-0.2,5,7.3,9.4,17.2c4.4,9.9,7,18.3,6.6,18.5c-0.4,0.2-3.7-8-8.1-17.8
						C2080.7,1169.1,2076.8,1161.2,2077.2,1161z"/>
				</g>
			</g>
		</g>
		<polygon class="st14" points="2077.6,1048.8 2046.2,1043 2013.2,1076.6 2019.3,1098 2057.8,1083.8 		"/>
		<g>
			<g>
				<path class="st15" d="M1961.6,675.6l-8.5,0.7c0,0-15.3,2.5-15.3,2.8c0,0.3-6.7,9.7-6.7,9.8l-6.2,9.5c0,0,5,1.8,8.6-1.6l-2.1,4.8
					c0,0,7,3,11.8-4.6c2.7-4.3,5.1-7.5,6.7-9.5l2.8-0.3c0.2,0.6,11,15.7,11.2,15.4c0.2-0.3,9.1-9,9.1-9L1961.6,675.6z"/>
			</g>
			<g>
				<path class="st14" d="M1984.4,741.5l2.5-47l-23.8-27l-26.2,1.6l-10.7,7.5c0.5,2.6,8,4.4,16,2c7.8-2.2,16.5-0.6,16.5-0.6
					l10.1,17.6l-6.7,7.4l8.5,45.1L1984.4,741.5z"/>
			</g>
			<g>
				<path class="st7" d="M1914.8,679.6h85.1c2.1,0,3.9,1.7,3.9,3.9l0,0c0,2.1-1.7,3.9-3.9,3.9h-85.1l-8.4-3.9L1914.8,679.6z"/>
			</g>
			<g>
				<path class="st14" d="M1957.9,754.2l-8.7-21.3c-1.1-2.7-1.6-5.6-1.5-8.5c0.4-7.7,0.9-23.1-0.2-26.6c-1.6-4.8-7.9-21-4.4-23.4
					c3.6-2.4,8.5-3.2,12,6.4c3.5,9.5,14.2,30.2,14.2,30.2l8.1,34L1957.9,754.2z"/>
			</g>
			<g>
				<g>
					<path class="st15" d="M1968.3,708.7c-0.2,0.1-2.1-3.4-4.9-9.1c-2.9-5.6-6.7-13.9-10.8-22.3c-1.2-1.9-3.1-3.3-5-3.3
						c-1.9,0-3.8,1.4-4.2,3.2c-0.5,1.8-0.2,3.8,0.2,5.6c0.3,1.8,0.7,3.5,1.1,5c1.7,6.1,3.4,9.7,3.2,9.8c-0.1,0-0.6-0.8-1.4-2.4
						c-0.8-1.6-1.8-4-2.8-7.1c-0.5-1.5-1-3.2-1.4-5.1c-0.4-1.8-0.9-3.9-0.3-6.3c0.6-2.4,3-4.3,5.6-4.3c2.8-0.1,5.1,1.8,6.5,4
						c4.4,9,7.9,16.9,10.5,22.7C1967,704.9,1968.5,708.6,1968.3,708.7z"/>
				</g>
			</g>
		</g>
		<g>
			<g>
				<polygon class="st14" points="2365.1,1163.9 2356.5,1148.6 2263.6,1125.4 2274.5,1144.3 				"/>
			</g>
			<g>
				<path class="st10" d="M1949.8,754.2l58.4,138.5c5.5,13.1,16,23.4,29.1,28.8l126.1,51.8l29.4-81.2l-122.8-43.5l-79.8-113.7
					L1949.8,754.2z"/>
			</g>
			<g>
				<path class="st10" d="M2139.7,893.4c0.1,3.2-13.6,104-13.6,124.6c0,20.6,39.4,42.9,39.4,42.9l43.2,91.7h153.7l-52.6-98.7
					l-23.8-79.1c-9-30-25.4-57.2-47.7-79.1l-25.7-17.2L2139.7,893.4z"/>
			</g>
			<g>
				<path class="st10" d="M2184.4,973l25.8,108.3l-130.2-36.7l-22.2,39.2l169.5,77.2c20.9,9.5,45.6,2.8,58.7-16l0,0
					c8-11.4,10.6-25.7,7.2-39.2l-37.9-148.2c-5.2-20.4-26.7-32.1-46.7-25.4l0,0C2191.5,938,2181.2,955.3,2184.4,973z"/>
			</g>
			<g>
				<g>
					<path class="st7" d="M2165.5,1060.9c0,0.1-0.5-0.2-1.5-0.6c-1-0.5-2.3-1.2-4.1-2.2c-3.5-2-8.5-5-14.3-9.5
						c-5.6-4.5-12.4-10.3-16.8-19.1c-4.2-9-3.9-20.1-2.4-31c1.6-11,3.8-21.2,5.2-30.6c1.4-9.4,2.4-17.9,3-25.1
						c0.6-7.2,0.6-13,0.6-17c0-4-0.1-6.3,0-6.3c0.1,0,0.1,0.5,0.3,1.6c0.1,1.1,0.3,2.6,0.4,4.6c0.2,4,0.3,9.9-0.1,17.1
						c-0.4,7.2-1.3,15.8-2.6,25.3c-1.2,9.5-3.5,19.8-5,30.6c-1.5,10.8-1.8,21.5,2.1,30.1c4.1,8.4,10.7,14.3,16.2,18.8
						c5.6,4.5,10.5,7.7,13.9,9.8C2163.7,1059.7,2165.6,1060.8,2165.5,1060.9z"/>
				</g>
			</g>
			<g>
				<g>
					<path class="st7" d="M2237.3,944.2c-0.2,0.5-7.5-3.6-17.5-4.2c-10-0.7-17.8,2.3-17.9,1.8c-0.3-0.3,7.6-4.2,18.1-3.5
						C2230.4,939,2237.6,943.9,2237.3,944.2z"/>
				</g>
			</g>
			<g>
				<g>
					<path class="st7" d="M2219.7,885.8c0.1,0.1-0.8,1-2.4,2.6c-1.6,1.6-3.9,3.9-6.9,6.7c-5.9,5.5-14.3,12.9-23.9,20.6
						c-9.6,7.7-18.7,14.3-25.4,18.9c-3.3,2.3-6.1,4.1-8,5.3c-1.9,1.2-3,1.8-3.1,1.7c-0.1-0.1,0.9-0.9,2.7-2.3
						c2.1-1.6,4.7-3.5,7.7-5.7c6.5-4.8,15.4-11.5,25-19.2c9.6-7.7,18.1-14.9,24.2-20.2c2.8-2.5,5.3-4.5,7.2-6.3
						C2218.7,886.5,2219.6,885.7,2219.7,885.8z"/>
				</g>
			</g>
			<g>
				<g>
					<path class="st7" d="M2070,848.9c0.2,0.5-4.6,2.5-9.8,5.9c-5.3,3.4-9,6.9-9.3,6.6c-0.3-0.3,3-4.4,8.4-8
						C2064.8,849.8,2069.9,848.4,2070,848.9z"/>
				</g>
			</g>
			<g>
				<g>
					<g>
						<path class="st16" d="M2196.8,1022.1c0,0.1-1,0.4-2.8,0.9c-1.8,0.5-4.6,1-8,1.4c-3.4,0.4-7.5,0.5-12,0.3
							c-4.5-0.3-9.5-1-14.6-2.2c-5.1-1.3-9.8-3.1-13.9-4.9c-4.1-2-7.7-4-10.5-6c-2.8-1.9-5-3.7-6.4-5c-1.4-1.3-2.1-2.1-2.1-2.1
							c0.2-0.2,3.4,2.6,9.1,6.2c5.7,3.6,14.2,7.8,24.1,10.3c10,2.5,19.4,2.8,26.1,2.3C2192.7,1022.7,2196.8,1021.8,2196.8,1022.1z"
							/>
					</g>
				</g>
				<g>
					<g>
						<path class="st16" d="M2205.7,1069.7c0,0.2-2.2,0.8-5.8,1.1c-3.7,0.3-8.8,0.2-14.3-1c-5.5-1.1-10.3-3-13.5-4.7
							c-3.3-1.7-5.1-3.1-5-3.3c0.2-0.5,8,4.2,18.8,6.4C2196.6,1070.4,2205.6,1069.2,2205.7,1069.7z"/>
					</g>
				</g>
				<g>
					<g>
						<path class="st16" d="M2273,1040.1c0,0.1-0.8,0.6-2.4,1.5c-1.6,0.9-4,1.9-7,3.1c-6,2.4-14.6,5-24.5,6.4
							c-9.8,1.3-18.8,1.2-25.3,0.5c-3.2-0.3-5.8-0.7-7.6-1.1c-1.8-0.4-2.7-0.6-2.7-0.7c0-0.3,4,0.3,10.4,0.7c6.4,0.4,15.3,0.4,25-1
							c9.7-1.4,18.2-3.7,24.3-5.9C2269.2,1041.5,2272.9,1039.9,2273,1040.1z"/>
					</g>
				</g>
				<g>
					<g>
						<path class="st16" d="M2261,987c-0.1,0.3-4-0.5-10.5-1.3c-6.5-0.8-15.4-1.4-25.4-1.1c-9.9,0.4-18.8,1.7-25.2,2.9
							c-6.4,1.2-10.3,2.3-10.4,2c0-0.1,0.9-0.5,2.7-1.1c1.7-0.6,4.3-1.3,7.5-2.1c6.4-1.5,15.4-3,25.4-3.4c10-0.4,19.1,0.5,25.6,1.6
							c3.2,0.5,5.8,1.1,7.6,1.5C2260.1,986.6,2261,986.9,2261,987z"/>
					</g>
				</g>
				<g>
					<g>
						<path class="st16" d="M2287.8,1135.3c0,0.1-1.3-0.2-3.7-0.7c-2.4-0.5-5.7-1.6-9.8-3c-8.2-2.9-19.1-8-30-15.7
							c-10.9-7.7-19.4-16.2-24.9-22.9c-2.8-3.3-4.9-6.2-6.2-8.2c-1.3-2-2-3.2-1.9-3.2c0.2-0.2,3.3,4.2,9,10.7
							c5.7,6.5,14.3,14.8,25,22.4c10.8,7.5,21.5,12.8,29.5,15.9C2282.7,1133.6,2287.9,1135,2287.8,1135.3z"/>
					</g>
				</g>
				<g>
					<g>
						<path class="st16" d="M2171,1133.6c-0.2,0-0.6-3.4-0.4-9c0.2-5.6,1-13.3,3.2-21.5c2.2-8.3,5.2-15.4,7.8-20.4
							c2.6-5,4.6-7.8,4.8-7.7c0.2,0.1-1.4,3.1-3.7,8.2c-2.3,5-5.1,12.1-7.2,20.3c-2.1,8.1-3.2,15.7-3.6,21.2
							C2171.3,1130.2,2171.3,1133.6,2171,1133.6z"/>
					</g>
				</g>
				<g>
					<g>
						<path class="st16" d="M2092.6,1098c-0.2,0-0.4-2.9,0.1-7.6c0.5-4.6,1.9-11.2,5.6-17.5c3.8-6.2,8.7-10.7,12.2-13.7
							c3.6-3,6-4.6,6.2-4.4c0.2,0.2-2,2.1-5.4,5.3c-3.3,3.2-8,7.7-11.6,13.6c-3.6,6-5.1,12.3-5.9,16.8
							C2093.1,1095.1,2092.9,1098,2092.6,1098z"/>
					</g>
				</g>
				<g>
					<g>
						<path class="st16" d="M2352.2,1132.8c0.1,0.2-3.4,1.8-9.2,4c-5.8,2.2-13.9,4.9-23.1,6.9c-9.2,2.1-17.8,2.9-24,2.6
							c-1.6,0-3-0.1-4.2-0.3c-1.2-0.1-2.3-0.2-3.1-0.4c-1.7-0.3-2.6-0.6-2.6-0.7c0-0.3,3.8,0.3,9.9,0.2c6.1-0.1,14.5-1,23.7-3.1
							c9.1-2,17.3-4.5,23.1-6.4C2348.5,1133.9,2352.1,1132.6,2352.2,1132.8z"/>
					</g>
				</g>
				<g>
					<g>
						<path class="st16" d="M2317.4,1070.2c0.2,0.1-0.8,2-3.5,3.9c-2.6,2-6.6,4.1-11.2,5.9c-4.6,1.8-8.9,3-12.1,3.6
							c-1.6,0.3-2.9,0.4-3.8,0.4c-0.9,0-1.5-0.3-1.4-0.4c0.1-0.1,1.9-0.2,5-1.2c3.1-0.9,7.2-2.2,11.7-4c4.5-1.7,8.5-3.6,11.1-5.3
							C2316,1071.6,2317.2,1070.1,2317.4,1070.2z"/>
					</g>
				</g>
				<g>
					<g>
						<path class="st16" d="M2295.7,1006.6c0.1,0,0,0.5-0.5,1.1c-0.5,0.6-1.4,1.3-2.5,2.1c-2.3,1.5-5.7,3.1-9.6,4.5
							c-3.9,1.4-7.5,2.4-10.2,2.8c-2.7,0.5-4.5,0.1-4.4-0.1c0-0.2,1.6-0.3,4.2-1c2.6-0.7,6-1.8,9.9-3.2c3.8-1.4,7.2-2.8,9.6-3.9
							c1.2-0.6,2.1-1.1,2.7-1.5C2295.3,1006.9,2295.5,1006.6,2295.7,1006.6z"/>
					</g>
				</g>
				<g>
					<g>
						<path class="st16" d="M2182.7,973c0,0.2-2.8,0.5-7.4,0.3c-4.6-0.2-11-0.9-17.8-2.5c-6.9-1.6-12.9-3.9-17-5.8
							c-4.2-1.9-6.6-3.4-6.5-3.6c0.2-0.5,10.4,4.6,23.9,7.8C2171.3,972.5,2182.7,972.5,2182.7,973z"/>
					</g>
				</g>
				<g>
					<g>
						<path class="st16" d="M2273.9,944.4c0.3,0.5-4.2,3.5-10.4,6c-6.1,2.6-11.5,3.5-11.6,3c-0.1-0.4,4.9-2,11-4.5
							C2269,946.4,2273.7,944.1,2273.9,944.4z"/>
					</g>
				</g>
				<g>
					<g>
						<path class="st16" d="M2202.9,903.2c0.1-0.2,1.9,1,4.4,3.5c2.5,2.5,5.4,6.4,7.6,11.2c2.2,4.9,3.2,9.7,3.5,13.1
							c0.3,3.5-0.1,5.6-0.2,5.6c-0.5,0-0.3-8.6-4.7-18.1C2209.2,909.1,2202.5,903.6,2202.9,903.2z"/>
					</g>
				</g>
				<g>
					<g>
						<path class="st16" d="M2103.1,948.2c-0.1,0-0.7-1-1.5-3c-0.8-2-1.8-4.9-2.5-8.7c-1.6-7.5-1.9-18.3,0.2-29.8
							c2.2-11.5,5.9-21.4,8.6-28.5c1.4-3.5,2.6-6.4,3.5-8.3c0.9-1.9,1.4-3,1.5-3c0.1,0-0.2,1.2-0.9,3.2c-0.8,2.3-1.8,5.2-3,8.5
							c-2.5,7.2-6,17.1-8.1,28.4c-2.1,11.3-2,21.8-0.7,29.2C2101.5,943.8,2103.4,948.1,2103.1,948.2z"/>
					</g>
				</g>
				<g>
					<g>
						<path class="st16" d="M2028.6,917.8c-0.1,0,0.1-1.2,0.6-3.2c0.4-2,1.3-4.9,2.5-8.5c2.4-7.1,6.8-16.5,13.3-25.9
							c6.5-9.4,13.9-16.7,19.7-21.4c2.9-2.4,5.3-4.2,7.1-5.3c1.7-1.1,2.7-1.7,2.8-1.6c0.2,0.2-3.6,2.9-9.1,7.8
							c-5.5,4.9-12.7,12.3-19.1,21.5c-6.4,9.2-10.9,18.5-13.5,25.4C2030,913.4,2028.9,917.8,2028.6,917.8z"/>
					</g>
				</g>
				<g>
					<g>
						<path class="st16" d="M2040.6,806.5c0,0.3-3.6,0.5-9.2,2c-5.6,1.5-13,4.6-20.6,9.2c-7.6,4.6-13.8,9.7-17.9,13.8
							c-4.1,4.1-6.2,7-6.4,6.9c-0.1-0.1,0.4-0.9,1.2-2.2c0.4-0.7,1-1.5,1.8-2.4c0.7-0.9,1.6-2,2.6-3c3.9-4.4,10.2-9.7,17.9-14.4
							c7.7-4.6,15.4-7.7,21.1-8.9c1.4-0.4,2.7-0.6,3.9-0.7c1.2-0.2,2.2-0.3,3-0.3C2039.7,806.3,2040.6,806.4,2040.6,806.5z"/>
					</g>
				</g>
				<g>
					<g>
						<path class="st16" d="M2011,763.3c0,0.6-12.5-1.7-27.2,2.1c-14.8,3.6-24.7,11.6-25,11.1c-0.1-0.1,2.2-2.3,6.4-5
							c4.3-2.7,10.6-5.8,18.1-7.7c7.5-1.9,14.6-2.2,19.6-1.8C2008,762.3,2011.1,763.1,2011,763.3z"/>
					</g>
				</g>
			</g>
			<g>
				<g>
					<path class="st7" d="M2184.4,973c0,0,0.3,0.7,0.6,2.1c0.4,1.5,0.9,3.5,1.6,6c1.4,5.4,3.3,13.1,5.6,22.6
						c4.7,19.4,11.2,46.4,18.8,77.4l0.3,1.3l-1.3-0.4c-10.5-3-21.7-6.1-33.2-9.3c-37.6-10.7-71.8-20.4-97-27.6l0.7-0.3
						c-6.9,12-12.5,21.7-16.5,28.6c-1.9,3.3-3.4,5.8-4.6,7.7c-0.5,0.8-0.9,1.5-1.2,2c-0.3,0.4-0.4,0.7-0.5,0.6c0,0,0.1-0.3,0.3-0.7
						c0.3-0.6,0.6-1.2,1.1-2.1c1-1.9,2.5-4.6,4.3-7.9c3.9-6.9,9.3-16.8,16-28.8l0.2-0.4l0.5,0.1c25.2,7,59.4,16.6,97.1,27.1
						c11.5,3.2,22.7,6.4,33.2,9.4l-1,1c-7.3-31.1-13.6-58.1-18.2-77.6c-2.2-9.6-3.9-17.3-5.2-22.7c-0.6-2.6-1-4.6-1.3-6.1
						C2184.5,973.7,2184.3,973,2184.4,973z"/>
				</g>
			</g>
			<g>
				<g>
					<path class="st7" d="M2255.7,966.2c0.1,0,0.3,0.6,0.6,1.9c0.4,1.4,0.9,3.2,1.5,5.4c1.3,4.9,3.1,11.7,5.2,20
						c4.3,17.1,10.2,40.3,16.7,66c3.2,12.9,6.3,25.2,8.9,36.4c2.6,11.2,3.8,21.8,2.5,30.6c-1.2,8.8-4.4,15.4-7.3,19.3
						c-2.9,4-5.2,5.5-5.2,5.5c-0.1-0.1,2-1.8,4.7-5.9c2.7-4,5.6-10.5,6.6-19.1c1.1-8.6-0.1-18.9-2.8-30.1
						c-2.8-11.2-5.9-23.5-9.1-36.4c-6.3-25.7-12-49-16.2-66.1c-2-8.3-3.6-15.1-4.7-20.1c-0.5-2.2-0.9-4.1-1.2-5.5
						C2255.8,966.9,2255.7,966.2,2255.7,966.2z"/>
				</g>
			</g>
			<g class="st12">
				<g>
					<path d="M2279.4,1152.6c19.1,1.8,30.1-9.1,32.2-24c1.1-8.2-1.6-16.4-4.3-24.2c-11.7-34.3-23.5-68.8-42.1-99.9
						c7,31.1,15.9,61,22.9,92.1c2.3,10.2,3.1,16.1,3,26.5C2291,1133.5,2286.3,1144.8,2279.4,1152.6"/>
				</g>
			</g>
		</g>
		<g>
			<g>
				<path class="st7" d="M2209.2,871.9c10.3,3.1,21.9,1.7,31.2-3.8c9.2-5.5,16-15.1,18.1-25.6c5.1,4.9,12.7,6.5,19.7,5.2
					s13.2-5.1,18.3-9.9c9.5-8.8,15.9-21.5,15.4-34.4c-0.5-13-8.6-25.8-20.8-30.1c-12.2-4.4-27.6,1.3-32.7,13.3
					c-2.3-6.8,3.6-16,2.2-23c-2.8-14.1-11.2-22.3-18.4-22.6"/>
			</g>
			<g>
				<g>
					<g>
						<g>
							<path class="st7" d="M2224.5,868.3c14-24.3,17.9-56.7,21.5-84.8c1.7-13.2,4.6-32-4.4-40.2c-9.6-8.8-10.6-22.5-21.6-29.3
								c-11.1-6.8-26.1-7.4-36.5,0.4"/>
						</g>
						<g>
							<g>
								<g>
									<g>
										<g>
											<g>
												<g>
													<g>
														<path class="st14" d="M2152,916.7v-38.2c0,0-39.8-7-42.1-38.9c-2.4-31.9-1.5-105.4-1.5-105.4l0,0
															c34.8-18.2,76.4-15.6,108.8,6.9l-1.6,112.1l0.1,36.5l-32.5,26.4l-31.1,24.5V916.7z"/>
													</g>
												</g>
											</g>
										</g>
									</g>
								</g>
								<g>
									<path class="st7" d="M2140.6,800.7c5.3-6.8,14-9.6,21.1-4.8c7.1,4.7,9.9,15.3,6,23.1c-2.7,5.5-8.9,10.5-15.1,11.9
										c0,0,14.3,26.1,23.4,33c10.8,8.2,15.9,12.3,29.3,13.9c13.2,1.6,11.6,1.7,19.2-9.5c5.5-8.1,7.3-15.9,7.4-25.9
										c0.4-23.5,0.8-47,1.2-70.5c0.1-8.5,0.3-17-1.6-25.3c-1.9-8.2-6.1-16.2-13-20.9c-7.5-5.1-17-5.5-25.6-8.3
										c-10.7-3.5-19.8-10.8-29.8-16.1c-10-5.3-22.3-8.4-32.3-3.1c-7.2,3.8-12,11.2-19,15.3c-10,5.9-23.6,4.6-28.4,19.8
										c-1.7,5.2-1.5,11,0.2,16.2c6.8,20.6,31.6,28.8,49.4,19.9c0.4,3.5-2.9,11.3,0.6,22.3
										C2134.8,795.2,2135.2,800.6,2140.6,800.7"/>
								</g>
							</g>
							<g>
								<g>
									<path class="st15" d="M2146.2,820.5c-0.1,0-0.1,0.6,0.4,1.4c0.5,0.7,1.7,1.7,3.4,1.8c3.5,0.3,7.9-3.5,8-8.8
										c0.1-2.6-0.8-5.1-2.3-6.7c-1.5-1.7-3.3-2.5-4.8-2.9c-3.2-0.7-5,0.5-4.9,0.7c0.1,0.4,1.9-0.2,4.5,0.8
										c2.5,0.8,5.6,3.7,5.3,7.9c-0.1,4.2-3.3,7.2-5.8,7.3C2147.4,822.2,2146.4,820.3,2146.2,820.5z"/>
								</g>
							</g>
						</g>
					</g>
				</g>
				<g>
					<g>
						<path class="st13" d="M2307.7,803.8c0.1,0-0.2,1.1-0.9,3c-0.7,1.9-2.1,4.5-4.2,7.4c-4.2,5.8-12.5,12.7-23.7,14.5
							c-11.2,1.7-21.2-2.6-26.9-6.9c-2.9-2.2-4.9-4.3-6.1-5.9c-1.2-1.6-1.8-2.6-1.7-2.6c0.3-0.2,2.7,3.6,8.5,7.6
							c5.7,4,15.3,7.9,25.9,6.3c10.6-1.7,18.7-8.1,23-13.6C2306.1,808,2307.4,803.7,2307.7,803.8z"/>
					</g>
				</g>
				<g>
					<g>
						<path class="st13" d="M2303.3,798.7c0.1,0-0.3,0.9-1.1,2.4c-0.8,1.5-2.2,3.6-4.3,5.9c-4,4.6-11.2,10.1-20.6,12.3
							c-9.4,2.1-18.2,0.3-23.9-2.3c-2.8-1.2-5-2.6-6.4-3.6c-1.4-1-2.1-1.7-2-1.8c0.2-0.3,3.2,2.1,8.8,4.3c5.6,2.2,14.1,3.8,23.1,1.7
							c9-2.1,16-7.1,20.1-11.5C2301.3,801.9,2303,798.5,2303.3,798.7z"/>
					</g>
				</g>
				<g>
					<g>
						<path class="st13" d="M2250,839.6c0,0.1-0.4,0.3-1.3,0.7c-0.9,0.4-2.3,0.9-4.2,1.1c-3.7,0.5-9.5-0.4-15.2-4.2
							c-5.8-3.7-10.5-10.6-14.3-18.6c-3.9-7.9-6.9-17.2-13-25.2c-3-4-6.7-7.3-10.9-9.3c-4.2-2-8.7-3-13-3.4
							c-8.7-0.9-16.7-0.3-23.3-1.2c-6.7-0.8-11.9-2.7-15.1-4.7c-1.6-1-2.7-1.9-3.4-2.6c-0.7-0.7-1.1-1.1-1-1.1
							c0.1-0.1,1.6,1.4,4.8,3.2c3.2,1.8,8.3,3.5,14.9,4.1c6.6,0.8,14.5,0.1,23.3,0.9c4.4,0.4,9.1,1.3,13.6,3.5
							c4.5,2.1,8.4,5.6,11.5,9.7c6.2,8.3,9.3,17.7,13,25.6c3.6,7.9,8.1,14.6,13.6,18.3c5.4,3.8,10.8,4.8,14.5,4.5
							C2248.1,840.5,2249.9,839.4,2250,839.6z"/>
					</g>
				</g>
				<g>
					<g>
						<path class="st13" d="M2246.9,828.1c0,0.1-0.5,0.1-1.4,0.1c-0.9,0-2.3-0.1-4.1-0.5c-3.5-0.9-8.2-3.5-12.4-8.4
							c-2.1-2.4-4.1-5.3-6-8.5c-1.8-3.3-3.5-6.9-5.3-10.6c-1.8-3.7-3.8-7.6-6.5-11.1c-1.3-1.8-2.8-3.5-4.5-5
							c-0.8-0.8-1.8-1.4-2.7-2.1c-0.9-0.6-1.9-1.4-3-1.8c-4.1-2.3-8.7-3.2-13.1-3.8c-4.4-0.6-8.8-0.6-12.9-0.7
							c-8.3,0-15.9,0.2-22.2-0.6c-6.3-0.8-11.3-2.5-14.3-4.3c-1.6-0.8-2.6-1.8-3.4-2.3c-0.7-0.6-1.1-0.9-1.1-0.9
							c0.1-0.1,1.7,1,4.8,2.6c3.1,1.5,8,3.1,14.2,3.7c6.2,0.7,13.7,0.4,22,0.2c4.2,0,8.6,0,13.1,0.6c4.5,0.6,9.3,1.6,13.7,4
							c1.1,0.5,2.1,1.2,3.1,1.9c1,0.7,2,1.3,2.9,2.2c1.8,1.6,3.4,3.4,4.7,5.2c2.7,3.7,4.7,7.7,6.5,11.4c1.8,3.8,3.4,7.4,5.2,10.6
							c1.7,3.2,3.6,6.1,5.6,8.4c4,4.8,8.4,7.5,11.7,8.5C2244.9,828.1,2246.9,827.9,2246.9,828.1z"/>
					</g>
				</g>
				<g>
					<g>
						<path class="st10" d="M2254.6,844.4c-0.1,0.1-0.7-0.4-1.8-1.5c-1-1-2.4-2.7-3.9-4.9c-2.9-4.4-5.8-11.4-6.2-19.5
							c-0.3-8.2,2.1-15.4,4.6-20c1.3-2.3,2.5-4.1,3.4-5.2c0.9-1.1,1.5-1.7,1.6-1.6c0.2,0.2-1.8,2.7-4,7.3c-2.2,4.6-4.3,11.6-4,19.4
							c0.3,7.8,2.9,14.6,5.5,19C2252.5,841.9,2254.8,844.2,2254.6,844.4z"/>
					</g>
				</g>
			</g>
		</g>
	</g>
</g>
<g id="Plant">
	<g>
		<g>
			<g>
				<g>
					<g>
						<path class="st10" d="M2695.4,1282.9c21.9,7.6,50.4,0.8,69.1-12.8c18.7-13.7,32.1-33.2,44.1-53.1c5.1-8.5,10.1-17.3,11.7-27
							c1.6-9.7-0.8-20.7-8.3-27.1c-11.7-9.9-29.7-4.9-43.1,2.7C2727,1189.4,2698.5,1235,2695.4,1282.9"/>
					</g>
				</g>
			</g>
			<g>
				<g>
					<g>
						<path class="st10" d="M2718.9,1335.3c13.1,17.3,35.7,25,57.4,26c21.7,1,43.1-5,63.4-12.8c7.4-2.8,15.4-6.7,17.9-14.2
							c1.9-5.7-0.1-12.1-3.8-16.7s-9.2-7.6-14.6-10c-20-8.5-42.8-8.9-63.9-3.5C2754.3,1309.6,2735.9,1321.8,2718.9,1335.3"/>
					</g>
				</g>
			</g>
			<g>
				<g>
					<g>
						<path class="st10" d="M2695.1,1189.3c18.1,0.4,31.8-15.5,40-31.6c11.3-22.3,15.2-48.4,10.8-73.1c-1.7-9.2-5.2-19.2-13.4-23.7
							c-8.4-4.5-19.3-1.5-26.4,4.9c-7,6.4-10.9,15.6-13.7,24.7C2682.6,1122,2684.7,1158.1,2695.1,1189.3"/>
					</g>
				</g>
			</g>
			<g>
				<g>
					<g>
						<path class="st10" d="M2635.7,1289.4c30.8-52.5,36-116.7,17.8-174.8c-3-9.4-8.5-20.2-18.4-20.8c-10.9-0.7-17.8,11.5-20.8,22
							c-10.6,36.9-8.3,76.1-6,114.4C2609.7,1253.7,2617.8,1273.9,2635.7,1289.4"/>
					</g>
				</g>
			</g>
			<g>
				<g>
					<g>
						<path class="st10" d="M2603.6,1311c-11.2-36-39.6-66.1-74.8-79.4c-8.2-3.1-18.6-4.8-24.7,1.4c-6,6.1-4.1,16.4-0.3,24.1
							c6.2,12.4,16.3,22.4,26.3,31.9c9.1,8.7,18.6,17.4,30.2,22.5C2571.8,1316.6,2593,1317.9,2603.6,1311"/>
					</g>
				</g>
			</g>
			<g>
				<g>
					<g>
						<g>
							<path class="st7" d="M2794.8,1176.1c0,0-0.2,0.2-0.5,0.5c-0.4,0.3-1,0.8-1.7,1.3c-1.6,1.2-3.7,2.8-6.5,4.8
								c-1.4,1-3,2.2-4.7,3.5c-1.7,1.3-3.4,2.8-5.4,4.4c-3.8,3.2-8.3,6.6-12.9,10.9c-2.3,2.1-4.7,4.3-7.3,6.6
								c-2.5,2.3-4.9,4.9-7.6,7.5c-5.3,5.1-10.4,11.1-16,17.2c-10.7,12.6-21.7,27.2-31.8,43.4c-10,16.3-18.1,32.6-24.6,47.8
								c-3,7.7-6.1,15-8.3,22c-1.1,3.5-2.4,6.8-3.3,10.1c-0.9,3.3-1.8,6.4-2.7,9.5c-1.8,6-2.9,11.6-4,16.4c-0.5,2.4-1.1,4.7-1.5,6.8
								c-0.4,2.1-0.7,4-1,5.7c-0.6,3.4-1.1,6-1.4,7.9c-0.2,0.8-0.3,1.5-0.4,2.1c-0.1,0.5-0.2,0.7-0.2,0.7s0-0.2,0-0.7
								c0.1-0.6,0.2-1.2,0.3-2.1c0.3-1.9,0.7-4.6,1.2-8c0.3-1.7,0.6-3.7,0.9-5.8c0.4-2.1,0.9-4.4,1.4-6.8c1.1-4.9,2.1-10.5,3.8-16.5
								c0.8-3,1.7-6.2,2.6-9.5c0.9-3.3,2.1-6.7,3.3-10.2c2.2-7.1,5.2-14.4,8.2-22.1c6.5-15.3,14.6-31.7,24.6-48.1
								c10.2-16.3,21.2-30.9,32-43.5c5.6-6.2,10.8-12.1,16.1-17.2c2.6-2.6,5.1-5.2,7.6-7.5c2.6-2.3,5-4.5,7.4-6.6
								c4.6-4.3,9.2-7.7,13-10.8c2-1.5,3.8-3,5.5-4.3c1.7-1.2,3.3-2.3,4.8-3.4c2.8-2,5-3.5,6.6-4.6c0.7-0.5,1.3-0.9,1.7-1.2
								C2794.6,1176.2,2794.8,1176.1,2794.8,1176.1z"/>
						</g>
					</g>
				</g>
			</g>
			<g>
				<g>
					<g>
						<g>
							<path class="st7" d="M2835.7,1321.6c0,0-0.7-0.1-2.1-0.4c-1.4-0.2-3.4-0.8-6-1.2c-5.2-1-12.8-2.2-22.3-2.7
								c-18.9-1.2-45.7,1-72.5,12.2c-26.9,11.2-47.3,28.6-59.8,42.9c-6.3,7.1-10.8,13.3-13.8,17.8c-1.5,2.2-2.6,4-3.4,5.1
								c-0.8,1.2-1.2,1.8-1.2,1.8c0,0,0.3-0.7,1-1.9c0.7-1.2,1.7-3.1,3.1-5.3c2.8-4.5,7.3-10.9,13.5-18.1
								c12.3-14.5,32.9-32.2,60-43.5c27.1-11.3,54.2-13.4,73.1-11.9c9.5,0.7,17.2,2,22.4,3.2c2.6,0.5,4.6,1.1,6,1.5
								C2835,1321.4,2835.7,1321.6,2835.7,1321.6z"/>
						</g>
					</g>
				</g>
			</g>
			<g>
				<g>
					<g>
						<g>
							<path class="st7" d="M2721.8,1081.9c0,0,0,0.3-0.1,0.8c-0.1,0.6-0.3,1.4-0.5,2.4c-0.5,2.2-1.2,5.2-2,9
								c-1.8,7.8-4.5,19.2-7.9,33.1c-6.8,27.9-16.7,66.4-27,109.1c-5.1,21.3-9.7,41.7-13.7,60.3c-3.9,18.6-7.3,35.4-9.7,49.5
								c-1.3,7.1-2.3,13.5-3.3,19.1c-1,5.6-1.7,10.5-2.3,14.5c-0.6,3.9-1.1,7-1.4,9.1c-0.2,1-0.3,1.8-0.4,2.4
								c-0.1,0.5-0.2,0.8-0.2,0.8c0,0,0-0.3,0-0.8c0.1-0.6,0.2-1.4,0.3-2.4c0.3-2.2,0.7-5.3,1.2-9.2c0.5-4,1.2-8.9,2.1-14.5
								c0.9-5.6,1.8-12.1,3.1-19.2c2.4-14.2,5.6-31,9.4-49.6c3.9-18.6,8.5-39,13.6-60.4c10.3-42.7,20.3-81.1,27.4-109
								c3.5-13.9,6.3-25.1,8.3-33c1-3.8,1.7-6.8,2.3-9c0.3-1,0.5-1.7,0.6-2.3C2721.6,1082.2,2721.7,1081.9,2721.8,1081.9z"/>
						</g>
					</g>
				</g>
			</g>
			<g>
				<g>
					<g>
						<g>
							<path class="st7" d="M2650.9,1387.9c0,0-0.1-0.2-0.2-0.6c-0.1-0.5-0.3-1.1-0.4-1.9c-0.4-1.8-0.9-4.2-1.5-7.3
								c-1.3-6.3-3-15.6-5-27c-4-22.8-8.6-54.6-11.5-89.8c-1.4-17.6-2.2-34.5-2.5-49.8c-0.3-15.3-0.1-29.1,0.4-40.7
								c0.1-5.8,0.5-11,0.8-15.6c0.2-4.6,0.6-8.6,0.9-11.8c0.3-3.1,0.5-5.6,0.7-7.4c0.1-0.8,0.2-1.4,0.2-1.9
								c0.1-0.4,0.1-0.7,0.1-0.7c0,0,0,0.2,0,0.7c0,0.5,0,1.2-0.1,1.9c-0.1,1.8-0.2,4.3-0.4,7.4c-0.2,3.2-0.5,7.2-0.6,11.8
								c-0.2,4.6-0.5,9.8-0.6,15.6c-0.3,11.6-0.4,25.4,0,40.7c0.4,15.3,1.2,32.1,2.6,49.7c2.9,35.2,7.4,66.9,11.1,89.8
								c1.8,11.4,3.4,20.7,4.6,27.1c0.5,3.1,0.9,5.6,1.2,7.4c0.1,0.8,0.2,1.4,0.3,1.9C2650.9,1387.6,2651,1387.8,2650.9,1387.9z"/>
						</g>
					</g>
				</g>
			</g>
			<g>
				<g>
					<g>
						<g>
							<path class="st7" d="M2653.2,1394.5c0,0-0.3-0.6-0.8-1.8c-0.5-1.3-1.2-3.1-2-5.3c-0.4-1.2-0.9-2.4-1.4-3.8
								c-0.6-1.4-1.3-2.9-2-4.4c-0.7-1.6-1.5-3.3-2.3-5.1c-0.8-1.8-1.8-3.6-2.8-5.6c-1-2-2.1-4-3.1-6.1c-1.2-2.1-2.5-4.2-3.8-6.5
								c-2.5-4.5-5.7-9-8.8-13.9c-6.6-9.5-14.4-19.6-23.2-29.7c-8.9-10-18.1-18.9-26.7-26.7c-4.4-3.7-8.5-7.5-12.6-10.6
								c-2-1.6-4-3.2-5.8-4.7c-1.9-1.4-3.8-2.8-5.5-4.1c-3.5-2.7-6.8-4.9-9.7-6.8c-2.9-2-5.4-3.6-7.5-4.9c-2-1.3-3.6-2.3-4.8-3
								c-1.1-0.7-1.6-1.1-1.6-1.1c0,0,0.6,0.3,1.8,0.9c1.3,0.7,2.9,1.6,4.9,2.8c2.2,1.2,4.7,2.8,7.6,4.7c2.9,1.9,6.3,4,9.8,6.7
								c1.8,1.3,3.7,2.6,5.6,4c1.9,1.5,3.9,3,5.9,4.6c4.1,3.1,8.3,6.8,12.7,10.6c8.7,7.8,17.9,16.7,26.9,26.7
								c8.9,10.1,16.7,20.3,23.3,29.9c3.1,4.9,6.3,9.5,8.7,14.1c1.3,2.3,2.5,4.4,3.7,6.5c1.1,2.2,2.1,4.2,3.1,6.2c1,2,2,3.8,2.7,5.7
								c0.8,1.8,1.5,3.5,2.2,5.2c0.7,1.6,1.3,3.1,1.9,4.5c0.5,1.4,0.9,2.7,1.3,3.9c0.7,2.2,1.3,4,1.8,5.4
								C2653.1,1393.8,2653.3,1394.5,2653.2,1394.5z"/>
						</g>
					</g>
				</g>
			</g>
			<g>
				<g>
					<g>
						<g>
							<path class="st7" d="M2783.4,1237c0,0.2-3.7,0.2-9.7,0.6c-6,0.3-14.3,1.1-23.3,2.8c-9,1.7-17,4-22.7,5.9
								c-5.7,1.9-9.2,3.3-9.3,3c0-0.1,0.8-0.5,2.3-1.3c1.5-0.7,3.8-1.7,6.6-2.8c5.7-2.2,13.7-4.6,22.8-6.4
								c9.1-1.7,17.5-2.3,23.5-2.4c3,0,5.5,0,7.2,0.1C2782.5,1236.8,2783.4,1236.9,2783.4,1237z"/>
						</g>
					</g>
				</g>
			</g>
			<g>
				<g>
					<g>
						<g>
							<path class="st7" d="M2806.7,1350.6c-0.4,0.2-3.9-9.8-12.7-19.2c-8.7-9.4-18.4-13.7-18.2-14.1c0.1-0.1,2.6,0.7,6.3,2.8
								c3.7,2.1,8.5,5.6,13,10.3c4.4,4.8,7.5,9.8,9.3,13.7C2806.2,1348,2806.8,1350.6,2806.7,1350.6z"/>
						</g>
					</g>
				</g>
			</g>
			<g>
				<g>
					<g>
						<g>
							<path class="st7" d="M2727.3,1124.5c0.3,0.3-5.4,5.9-11.6,13.6c-6.2,7.6-10.6,14.3-11,14.1c-0.3-0.2,3.5-7.3,9.8-15
								C2720.9,1129.5,2727.1,1124.3,2727.3,1124.5z"/>
						</g>
					</g>
				</g>
			</g>
			<g>
				<g>
					<g>
						<g>
							<path class="st7" d="M2708.7,1092.4c0.4-0.1,1.7,5.4,2.8,12.2c1.2,6.8,1.8,12.4,1.4,12.4c-0.4,0.1-1.7-5.4-2.8-12.2
								C2708.9,1098,2708.3,1092.4,2708.7,1092.4z"/>
						</g>
					</g>
				</g>
			</g>
			<g>
				<g>
					<g>
						<g>
							<path class="st7" d="M2651,1193.3c0.4,0.2-3.7,8.7-9,19c-5.3,10.3-10,18.5-10.3,18.3c-0.4-0.2,3.7-8.7,9-19
								C2646,1201.4,2650.6,1193.2,2651,1193.3z"/>
						</g>
					</g>
				</g>
			</g>
			<g>
				<g>
					<g>
						<g>
							<path class="st7" d="M2616.6,1159.1c0.4-0.2,3.8,6,7.7,13.7c3.9,7.8,6.7,14.2,6.4,14.4c-0.4,0.2-3.8-6-7.7-13.7
								C2619.1,1165.7,2616.3,1159.2,2616.6,1159.1z"/>
						</g>
					</g>
				</g>
			</g>
			<g>
				<g>
					<g>
						<g>
							<path class="st7" d="M2566.2,1276.3c-0.1,0.4-6.2-0.8-13.9-1.3c-7.6-0.6-13.9-0.2-13.9-0.7c0-0.4,6.2-1.3,14-0.8
								C2560.2,1274.1,2566.3,1276,2566.2,1276.3z"/>
						</g>
					</g>
				</g>
			</g>
		</g>
		<g>
			<g>
				<g>
					<g>
						<path class="st7" d="M2600.6,1380l17.2,90.3c1.1,6,6.4,10.3,12.4,10.3h50.7c6.2,0,11.5-4.5,12.5-10.6l14.9-90H2600.6z"/>
					</g>
				</g>
			</g>
			<g>
				<g>
					<g>
						<polygon class="st13" points="2606.2,1409.3 2703.2,1409.3 2708.4,1380 2600.6,1380 						"/>
					</g>
				</g>
			</g>
			<g>
				<g>
					<g>
						<polygon class="st16" points="2606.2,1409.3 2608.2,1420 2701.7,1420 2703.2,1409.3 						"/>
					</g>
				</g>
			</g>
		</g>
	</g>
	<g>
		<g>
			<path class="st10" d="M518.2,719.8c-27.8,0-62.8,0-94.4,0c0-15.9,0-114.3,0-170.6c24.4,0,63.9,0,86.8,0v3.4h-68.7c0,0,0,0,0,0
				V654c0,0,0,0,0,0c3.7-10.7,10.1-19.2,17.1-26.1c13.7-13.4,30.9-15.5,41.2-15.5c0,1.1,0,2.2,0,3.4c-13.3,0-27.1,3.8-38.5,14.5
				c-11.2,10.4-19.9,24.8-19.9,44.7c0,6.7,0,31.6,0,41.4h76.3V719.8z"/>
			<path class="st10" d="M608.8,641.6l41.3,78.1c-5.7,0-13.4,0-18.3,0l-39.5-75c-3.2,0.3-6.4,0.5-9.8,0.5c-15.3,0-15.5,0-27.9,0
				v74.5c-5.2,0-10.9,0-18.2,0V549.1c12.4,0,22.1-2.5,46.1-2.5c38.5,0,63.7,20.3,63.7,49.3C646.3,618,632.1,634.7,608.8,641.6z
				 M628.1,595.9c0-23.8-15.6-45.9-49.6-45.9c-9.5,0-16.7,0.8-23.9,1.5v90.4c15.4,0,15.4,0,23.9,0
				C612.5,641.8,628.1,620.6,628.1,595.9z"/>
			<path class="st10" d="M745.2,641.6l41.3,78.1c-5.7,0-13.4,0-18.3,0l-39.5-75c-3.2,0.3-6.4,0.5-9.8,0.5c-15.3,0-15.5,0-27.9,0
				v74.5c-5.2,0-10.9,0-18.2,0V549.1c12.4,0,22.1-2.5,46.1-2.5c38.5,0,63.7,20.3,63.7,49.3C782.6,618,768.5,634.7,745.2,641.6z
				 M764.5,595.9c0-23.8-15.6-45.9-49.6-45.9c-9.5,0-16.7,0.8-23.9,1.5v90.4c15.4,0,15.4,0,23.9,0
				C748.9,641.8,764.5,620.6,764.5,595.9z"/>
			<path class="st10" d="M968.3,634.7c0,48.5-37.4,87.8-83.5,87.8c-46.1,0-83.5-39.3-83.5-87.8c0-48.5,37.4-87.8,83.5-87.8
				C930.9,546.9,968.3,586.2,968.3,634.7z M949.6,626.6c-5.8-46.3-39.5-80.1-75.3-75.6c-35.8,4.5-60.1,45.6-54.3,91.9
				c5.8,46.3,39.5,80.1,75.3,75.6C931.1,714,955.4,672.9,949.6,626.6z"/>
			<path class="st10" d="M1064.9,641.6l41.3,78.1c-5.7,0-13.4,0-18.3,0l-39.5-75c-3.2,0.3-6.4,0.5-9.8,0.5c-15.3,0-15.5,0-27.9,0
				v74.5c-5.2,0-10.9,0-18.2,0V549.1c12.4,0,22.1-2.5,46.1-2.5c38.5,0,63.7,20.3,63.7,49.3C1102.3,618,1088.2,634.7,1064.9,641.6z
				 M1084.2,595.9c0-23.8-15.6-45.9-49.6-45.9c-9.5,0-16.7,0.8-23.9,1.5v90.4c15.4,0,15.4,0,23.9,0
				C1068.6,641.8,1084.2,620.6,1084.2,595.9z"/>
		</g>
		<g>
			<path class="st10" d="M601.1,999.7v29.2h-24.6v67.9h-29.2v-67.9H423.2v-5.4l148-200.9h5.4l-0.3,0.4l0.3-0.4v177.1h0H601.1z
				 M547.4,862.2L446.1,999.7h101.3V862.2z"/>
			<path class="st10" d="M844.7,959.6c0,85.7-40.3,141.1-104.9,141.1c-64.6,0-104.9-55.5-104.9-141.1c0-85.7,40.3-141.1,104.9-141.1
				C804.4,818.5,844.7,874,844.7,959.6z M815.5,959.6c0-82.4-29.1-135.7-75.7-135.7c-46.6,0-75.7,53.3-75.7,135.7
				s29.1,135.7,75.7,135.7C786.4,1095.3,815.5,1042,815.5,959.6z"/>
			<path class="st10" d="M1046.6,999.7v29.2H1022v67.9h-29.2v-67.9H868.6v-5.4l148-200.9h5.4l-0.3,0.4l0.3-0.4v177.1h0H1046.6z
				 M992.8,862.2L891.6,999.7h101.3V862.2z"/>
		</g>
	</g>
</g>
</svg>
