<?xml version="1.0" encoding="utf-8"?>
<!-- Generator: Adobe Illustrator 24.1.0, SVG Export Plug-In . SVG Version: 6.00 Build 0)  -->
<svg version="1.1" id="Calque_1" xmlns="http://www.w3.org/2000/svg" xmlns:xlink="http://www.w3.org/1999/xlink" x="0px" y="0px"
	 viewBox="0 0 3982.1 1588.8" style="enable-background:new 0 0 3982.1 1588.8;" xml:space="preserve">
<style type="text/css">
	.st0{fill:#E0E0E0;}
	.st1{fill:#F5F5F5;}
	.st2{fill:none;stroke:#E0E0E0;stroke-width:5.000000e-02;stroke-miterlimit:10;}
	.st3{fill:#EBEBEB;}
	.st4{fill:#FFFFFF;}
	.st5{display:none;}
	.st6{display:inline;fill:#EBEBEB;}
	.st7{fill:#263238;}
	.st8{fill-rule:evenodd;clip-rule:evenodd;fill:#E8505B;}
	.st9{fill:none;stroke:#4E585D;stroke-width:5.000000e-02;stroke-miterlimit:10;}
	.st10{fill:#E8505B;}
	.st11{opacity:0.6;}
	.st12{opacity:0.3;}
	.st13{fill:#455A64;}
	.st14{fill:#FFBE9D;}
	.st15{fill:#EB996E;}
	.st16{fill:#FAFAFA;}
</style>
<g id="Background_Complete">
	<g>
		<g>
			<g>
				<path class="st0" d="M1737.2,591c3.3-1.9,6.7-3.5,10.3-4.5l2.1-10.2l17.2-0.3l2.5,10.1c3.6,0.9,7.1,2.2,10.4,4.1l8.7-5.7
					l12.4,12l-5.4,8.9c1.9,3.3,3.5,6.7,4.5,10.3l10.2,2.1l0.3,17.2l-10.1,2.5c-0.9,3.6-2.2,7.1-4.1,10.4l5.7,8.7l-12,12.4l-8.9-5.4
					c-3.3,1.9-6.7,3.5-10.3,4.5l-2.1,10.2l-17.2,0.3l-2.5-10.1c-3.6-0.9-7.1-2.2-10.4-4.1l-8.7,5.7l-12.4-12l5.4-8.9
					c-1.9-3.3-3.5-6.7-4.5-10.3l-10.2-2.1l-0.3-17.2l10.1-2.5c0.9-3.6,2.2-7.1,4.1-10.4l-5.7-8.7l12-12.4L1737.2,591L1737.2,591z
					 M1746.3,613.9c-7.1,7.3-6.9,19,0.5,26.1c7.3,7.1,19,6.9,26.1-0.5c7.1-7.3,6.9-19-0.5-26.1
					C1765.1,606.4,1753.4,606.6,1746.3,613.9z"/>
			</g>
		</g>
		<g>
			<g>
				<g>
					<path class="st0" d="M1746.3,613.9c0,0,1-1.4,3.4-3c2.4-1.6,6.7-3.4,12-2.9c2.6,0.3,5.6,1.2,8.2,2.9c2.6,1.7,5.1,4.2,6.6,7.4
						c0.8,1.6,1.4,3.3,1.7,5.2c0.3,1.8,0.3,3.8,0.1,5.7c-0.5,3.8-2.3,7.7-5.2,10.7c-2.9,2.9-6.6,4.9-10.4,5.5
						c-1.9,0.3-3.8,0.3-5.7,0.1c-1.9-0.2-3.6-0.8-5.2-1.5c-3.3-1.4-5.8-3.8-7.7-6.3c-1.8-2.6-2.8-5.4-3.2-8.1
						c-0.8-5.4,0.9-9.7,2.4-12.1C1745,615,1746.3,613.9,1746.3,613.9c0.1,0.1-1.1,1.2-2.5,3.8c-1.4,2.5-2.9,6.7-2,11.8
						c0.4,2.5,1.4,5.2,3.1,7.7c1.8,2.4,4.2,4.7,7.4,6c1.5,0.7,3.2,1.2,4.9,1.4s3.6,0.2,5.4-0.1c3.6-0.6,7.2-2.4,9.9-5.2
						c2.6-2.9,4.4-6.4,4.9-10c0.3-1.8,0.2-3.6-0.1-5.4c-0.3-1.7-0.8-3.4-1.5-4.9c-1.5-3.1-3.8-5.4-6.2-7.2c-2.5-1.7-5.2-2.6-7.8-2.9
						c-5.2-0.6-9.3,1-11.8,2.4C1747.5,612.7,1746.5,614,1746.3,613.9z"/>
				</g>
			</g>
		</g>
		<g>
			<g>
				<g>
					<path class="st0" d="M1737.2,591c0,0-0.2-0.1-0.6-0.3c-0.4-0.2-1-0.6-1.7-1c-1.5-0.9-3.8-2.2-6.7-4h0.2
						c-3.1,3.2-7,7.4-11.9,12.5v-0.3c1.7,2.6,3.7,5.6,5.7,8.6l0.1,0.1l-0.1,0.1c-1.7,3.1-3.1,6.5-4,10.4l-0.1,0.2l-0.2,0.1
						c-3.1,0.8-6.5,1.6-10.1,2.5l0.3-0.3c0.1,5.4,0.2,11.1,0.3,17.2l-0.3-0.4c3.1,0.6,6.6,1.4,10.2,2.1l0.3,0.1l0.1,0.3
						c1,3.3,2.4,6.8,4.5,10.2l0.1,0.2l-0.1,0.2c-1.7,2.8-3.5,5.8-5.4,8.9l-0.1-0.6c3.9,3.8,8.1,7.8,12.4,11.9l-0.6-0.1
						c2.7-1.8,5.7-3.8,8.7-5.7l0.3-0.1l0.3,0.1c3.1,1.7,6.5,3.1,10.3,4l0.3,0.1l0.1,0.3c0.8,3.1,1.6,6.6,2.5,10.1l-0.5-0.4
						c5.4-0.1,11.3-0.2,17.2-0.3l-0.5,0.4c0.7-3.2,1.4-6.7,2.1-10.2l0.1-0.3l0.3-0.1c3.4-1,6.9-2.4,10.2-4.4l0,0l0.3-0.1l0.3,0.1
						c3,1.8,5.9,3.6,8.9,5.4l-0.6,0.1c4-4.2,8-8.3,12-12.4l-0.1,0.6c-1.9-2.9-3.8-5.8-5.7-8.7l-0.1-0.3l0.1-0.3
						c1.8-3.3,3.2-6.8,4-10.3l0.1-0.3l0.3-0.1c3.4-0.8,6.8-1.7,10.1-2.4l-0.4,0.5c-0.1-5.8-0.2-11.6-0.3-17.2l0.4,0.5
						c-3.5-0.7-6.8-1.5-10.2-2.2l-0.3-0.1l-0.1-0.3c-1-3.6-2.5-7.1-4.4-10.2l-0.1-0.2l0.1-0.2c1.9-3.1,3.6-6,5.4-8.8l0.1,0.6
						c-4.3-4.2-8.4-8.2-12.3-12l0.5,0.1c-3.1,2-5.9,3.9-8.7,5.7l-0.2,0.1l-0.2-0.1c-3.5-1.9-7-3.3-10.3-4.1l-0.2-0.1l-0.1-0.2
						c-0.9-3.7-1.7-7-2.4-10.1l0.3,0.2c-6.7,0.1-12.3,0.1-17.2,0.2l0.2-0.2c-0.9,4-1.6,7.4-2.2,10.2v0.1h-0.1c-3.6,1-6.2,2.2-7.9,3
						c-0.8,0.4-1.4,0.8-1.9,1C1737.4,590.9,1737.2,591,1737.2,591s0.2-0.1,0.6-0.4c0.4-0.2,1-0.6,1.8-1c1.7-0.9,4.2-2.1,7.9-3.2
						l-0.1,0.1c0.6-2.8,1.3-6.1,2-10.2l0.1-0.2h0.2c4.9-0.1,10.5-0.2,17.2-0.3h0.3l0.1,0.3c0.8,3.1,1.6,6.4,2.5,10.1l-0.3-0.3
						c3.5,0.8,7,2.2,10.5,4.1h-0.4c2.8-1.8,5.6-3.7,8.7-5.7l0.3-0.2l0.2,0.2c3.9,3.8,8,7.7,12.4,11.9l0.3,0.2l-0.2,0.3
						c-1.7,2.9-3.6,5.8-5.4,8.9v-0.5c1.9,3.2,3.5,6.7,4.5,10.4l-0.3-0.3c3.3,0.7,6.8,1.4,10.2,2.1l0.3,0.1v0.4
						c0.1,5.6,0.2,11.3,0.3,17.2v0.4l-0.4,0.1c-3.3,0.8-6.7,1.7-10.1,2.5l0.3-0.3c-0.9,3.6-2.3,7.2-4.2,10.6v-0.6
						c1.9,2.9,3.8,5.8,5.7,8.7l0.2,0.3l-0.3,0.3c-3.9,4-7.9,8.2-12,12.4l-0.3,0.3l-0.3-0.2c-2.9-1.8-5.9-3.6-8.9-5.4h0.6l0,0
						c-3.3,2-7,3.6-10.4,4.5l0.3-0.4c-0.7,3.5-1.5,7-2.1,10.2l-0.1,0.4h-0.4c-5.9,0.1-11.8,0.2-17.2,0.3h-0.4l-0.1-0.4
						c-0.8-3.5-1.7-7-2.4-10.1l0.3,0.3c-3.8-1-7.4-2.4-10.6-4.2h0.5c-3,1.9-6,3.9-8.7,5.7l-0.3,0.2l-0.3-0.3
						c-4.3-4.2-8.5-8.2-12.4-12l-0.3-0.3l0.2-0.3c1.9-3.1,3.8-6.1,5.4-8.8v0.5c-2-3.4-3.6-7-4.5-10.4l0.3,0.3
						c-3.6-0.8-7-1.5-10.2-2.2l-0.3-0.1v-0.3c-0.1-6.1-0.2-11.8-0.3-17.2v-0.3l0.3-0.1c3.6-0.8,7-1.7,10.1-2.4l-0.3,0.3
						c1-3.9,2.4-7.4,4.2-10.5v0.3c-2-3.1-4-6.1-5.6-8.7l-0.1-0.2l0.1-0.1c4.9-5,8.9-9.1,12-12.3l0.1-0.1l0.1,0.1
						c2.9,1.7,5,3.1,6.5,4c0.7,0.5,1.3,0.8,1.7,1C1737,590.9,1737.2,591,1737.2,591z"/>
				</g>
			</g>
		</g>
	</g>
	<g>
		<g>
			<g>
				<path class="st1" d="M2242,713c1.9-1.2,4-2.1,6.1-2.6l1.3-6.1l10.3-0.2l1.5,6.1c2.2,0.6,4.2,1.3,6.3,2.4l5.2-3.4l7.4,7.2
					l-3.2,5.3c1.2,1.9,2.1,4,2.6,6.1l6.1,1.3l0.2,10.3l-6.1,1.5c-0.6,2.2-1.3,4.2-2.4,6.3l3.4,5.2l-7.2,7.4l-5.3-3.2
					c-1.9,1.2-4,2.1-6.1,2.6l-1.3,6.1l-10.3,0.2l-1.5-6.1c-2.2-0.6-4.2-1.3-6.3-2.4l-5.2,3.4l-7.4-7.2l3.2-5.3
					c-1.2-1.9-2.1-4-2.6-6.1l-6.1-1.3l-0.2-10.3l6.1-1.5c0.6-2.2,1.3-4.2,2.4-6.3l-3.4-5.2l7.2-7.4L2242,713L2242,713z
					 M2247.5,726.8c-4.2,4.4-4.1,11.3,0.3,15.6c4.4,4.2,11.3,4.1,15.6-0.3c4.2-4.4,4.1-11.3-0.3-15.6
					C2258.7,722.3,2251.8,722.4,2247.5,726.8z"/>
			</g>
		</g>
		<g>
			<g>
				<g>
					<path class="st1" d="M2247.5,726.8c0,0,0.6-0.8,2.1-1.8c1.5-1,4-2,7.2-1.7c1.6,0.2,3.3,0.7,4.9,1.7s3.1,2.5,4,4.5
						c0.5,1,0.8,2,1,3.1c0.2,1.1,0.2,2.2,0.1,3.4c-0.3,2.3-1.4,4.6-3.1,6.3c-1.7,1.7-4,2.9-6.3,3.3c-1.1,0.2-2.3,0.2-3.4,0.1
						c-1.1-0.1-2.2-0.4-3.1-0.9c-1.9-0.8-3.5-2.3-4.6-3.8c-1.1-1.5-1.7-3.3-1.9-4.8c-0.4-3.2,0.6-5.8,1.5-7.2
						C2246.7,727.4,2247.5,726.8,2247.5,726.8c0.1,0.1-0.7,0.7-1.5,2.2c-0.8,1.5-1.7,4-1.3,7.1c0.3,1.5,0.8,3.1,1.9,4.6
						s2.6,2.8,4.4,3.6c0.9,0.4,1.9,0.7,3,0.8c1,0.1,2.2,0.1,3.2-0.1c2.2-0.3,4.2-1.5,5.9-3.1c1.6-1.7,2.6-3.8,2.9-6
						c0.1-1.1,0.1-2.2-0.1-3.2c-0.1-1-0.5-2-0.9-2.9c-0.8-1.8-2.2-3.3-3.8-4.2c-1.5-1-3.1-1.5-4.7-1.7c-3.1-0.4-5.6,0.6-7,1.5
						C2248.2,726.1,2247.6,726.8,2247.5,726.8z"/>
				</g>
			</g>
		</g>
		<g>
			<g>
				<g>
					<path class="st1" d="M2242,713c0,0-0.1-0.1-0.3-0.2c-0.3-0.1-0.6-0.3-1-0.6c-0.9-0.6-2.3-1.3-4-2.4h0.1
						c-1.8,1.9-4.2,4.4-7.1,7.4v-0.2c1,1.6,2.2,3.3,3.4,5.2l0.1,0.1l-0.1,0.1c-1,1.8-1.9,3.9-2.4,6.2v0.1h-0.1
						c-1.9,0.5-3.9,1-6.1,1.5l0.1-0.2c0.1,3.3,0.1,6.7,0.2,10.3l-0.2-0.2c1.9,0.4,4,0.8,6.1,1.3h0.1l0.1,0.1c0.6,2,1.5,4.1,2.6,6.1
						l0.1,0.1l-0.1,0.1c-1,1.7-2.1,3.5-3.2,5.3l-0.1-0.3c2.3,2.2,4.9,4.7,7.4,7.2h-0.3c1.6-1,3.4-2.2,5.2-3.4l0.1-0.1l0.1,0.1
						c1.8,1,4,1.9,6.2,2.4l0.2,0.1l0.1,0.2c0.5,1.9,1,4,1.5,6.1l-0.3-0.2c3.3-0.1,6.8-0.1,10.3-0.2l-0.3,0.3c0.4-1.9,0.8-4,1.3-6.1
						l0.1-0.2l0.2-0.1c2-0.6,4.1-1.5,6.1-2.6l0,0l0.1-0.1l0.1,0.1c1.8,1.1,3.6,2.2,5.3,3.2l-0.4,0.1c2.4-2.5,4.8-4.9,7.2-7.4
						l-0.1,0.4c-1.1-1.7-2.3-3.5-3.4-5.2l-0.1-0.1l0.1-0.1c1.1-1.9,1.9-4,2.4-6.2l0.1-0.2l0.2-0.1c2-0.5,4-1,6.1-1.5l-0.2,0.3
						c-0.1-3.5-0.1-7-0.1-10.3l0.2,0.3c-2.1-0.4-4.1-0.8-6.1-1.3l-0.1-0.1l-0.1-0.1c-0.6-2.2-1.5-4.2-2.6-6.1l-0.1-0.1l0.1-0.1
						c1.1-1.8,2.2-3.6,3.2-5.3l0.1,0.3c-2.6-2.5-5.1-4.9-7.4-7.2h0.3c-1.8,1.2-3.6,2.3-5.2,3.4l-0.1,0.1l-0.1-0.1
						c-2.1-1.2-4.2-1.9-6.2-2.4h-0.1v-0.1c-0.6-2.2-1-4.2-1.5-6.1l0.2,0.1c-4,0.1-7.4,0.1-10.3,0.1l0.1-0.1c-0.5,2.4-1,4.5-1.3,6.1
						v0.1h-0.1c-2.2,0.6-3.7,1.3-4.7,1.8c-0.5,0.3-0.8,0.4-1.1,0.6C2242.2,713,2242,713.1,2242,713c0,0,0.1-0.1,0.3-0.2
						c0.2-0.1,0.6-0.3,1.1-0.6c1-0.6,2.5-1.3,4.7-1.9l-0.1,0.1c0.3-1.7,0.8-3.7,1.3-6.1v-0.1h0.1c2.9-0.1,6.3-0.1,10.3-0.2h0.1
						l0.1,0.1c0.5,1.9,1,3.8,1.5,6.1l-0.1-0.1c2.1,0.5,4.2,1.3,6.3,2.4h-0.2c1.7-1.1,3.3-2.2,5.2-3.4l0.1-0.1l0.1,0.1
						c2.4,2.2,4.8,4.6,7.4,7.1l0.1,0.1l-0.1,0.2c-1,1.7-2.1,3.5-3.2,5.3v-0.3c1.2,1.9,2.1,4,2.7,6.2l-0.2-0.2c2,0.4,4,0.8,6.1,1.3
						l0.2,0.1v0.2c0.1,3.3,0.1,6.8,0.2,10.3v0.2l-0.2,0.1c-2,0.5-4,1-6.1,1.5l0.2-0.2c-0.6,2.2-1.4,4.3-2.5,6.3v-0.3
						c1.1,1.7,2.3,3.5,3.4,5.2l0.1,0.2l-0.1,0.2c-2.4,2.4-4.7,4.9-7.2,7.4l-0.2,0.2l-0.2-0.1c-1.7-1-3.6-2.2-5.3-3.2h0.3l0,0
						c-2,1.2-4.2,2.1-6.2,2.7l0.2-0.2c-0.4,2.1-0.8,4.2-1.3,6.1l-0.1,0.3h-0.3c-3.6,0.1-7,0.1-10.3,0.2h-0.3l-0.1-0.2
						c-0.5-2.1-1-4.2-1.5-6.1l0.2,0.2c-2.3-0.6-4.5-1.5-6.3-2.5h0.3c-1.8,1.2-3.6,2.4-5.2,3.4l-0.2,0.1l-0.1-0.1
						c-2.6-2.5-5.1-4.9-7.4-7.2l-0.1-0.1l0.1-0.2c1.1-1.9,2.2-3.7,3.2-5.3v0.3c-1.3-2-2.1-4.2-2.7-6.2l0.2,0.2
						c-2.2-0.4-4.2-0.9-6.1-1.3l-0.2-0.1v-0.2c-0.1-3.6-0.1-7-0.1-10.3v-0.2l0.2-0.1c2.1-0.5,4.2-1,6.1-1.5l-0.1,0.1
						c0.6-2.3,1.5-4.5,2.5-6.3v0.2c-1.3-1.9-2.4-3.6-3.4-5.2l-0.1-0.1l0.1-0.1c2.9-3,5.4-5.5,7.2-7.4l0.1-0.1l0.1,0.1
						c1.7,1,3,1.9,3.9,2.4c0.4,0.3,0.8,0.5,1,0.6C2241.9,713,2242,713,2242,713z"/>
				</g>
			</g>
		</g>
	</g>
	<g>
		<g>
			<g>
				<path class="st1" d="M2322.8,335.2c2.5-1.5,5.2-2.6,7.9-3.4l1.6-7.9l13.2-0.2l1.9,7.8c2.8,0.7,5.5,1.7,8,3.1l6.7-4.4l9.5,9.2
					l-4.2,6.8c1.5,2.5,2.6,5.2,3.4,7.9l7.9,1.6l0.2,13.2l-7.8,1.9c-0.7,2.8-1.7,5.5-3.1,8l4.4,6.7l-9.2,9.5l-6.8-4.2
					c-2.5,1.5-5.2,2.6-7.9,3.4l-1.6,7.9l-13.2,0.2l-1.9-7.8c-2.8-0.7-5.5-1.7-8-3.1l-6.7,4.4l-9.5-9.2l4.2-6.8
					c-1.5-2.5-2.6-5.2-3.4-7.9l-7.9-1.6l-0.2-13.2l7.8-1.9c0.7-2.8,1.7-5.5,3.1-8l-4.4-6.7l9.2-9.5L2322.8,335.2L2322.8,335.2z
					 M2329.9,352.8c-5.4,5.6-5.3,14.6,0.3,20.1c5.6,5.4,14.6,5.3,20.1-0.3s5.3-14.6-0.3-20.1C2344.4,347,2335.4,347.1,2329.9,352.8z
					"/>
			</g>
		</g>
		<g>
			<g>
				<g>
					<path class="st1" d="M2329.9,352.8c0,0,0.8-1,2.6-2.3c1.9-1.3,5.2-2.6,9.3-2.2c2,0.2,4.2,0.9,6.3,2.2c2,1.3,3.9,3.3,5.1,5.8
						c0.6,1.3,1,2.6,1.3,4c0.3,1.4,0.3,2.9,0.1,4.4c-0.3,3-1.7,5.9-4,8.2c-2.2,2.3-5.1,3.8-8.1,4.2c-1.5,0.3-2.9,0.3-4.4,0.1
						c-1.4-0.2-2.8-0.6-4-1.2c-2.5-1.1-4.5-2.9-5.9-4.9c-1.4-2-2.2-4.2-2.4-6.2c-0.6-4.1,0.7-7.4,1.9-9.3
						C2328.9,353.6,2329.9,352.8,2329.9,352.8c0.1,0.1-0.8,0.9-1.9,2.9c-1,1.9-2.2,5.2-1.6,9.1c0.3,1.9,1,4,2.4,5.9
						c1.4,1.9,3.3,3.6,5.7,4.6c1.2,0.6,2.5,0.9,3.8,1c1.3,0.2,2.8,0.1,4.1-0.1c2.8-0.4,5.5-1.9,7.6-4c2.1-2.2,3.4-4.9,3.8-7.7
						c0.2-1.4,0.2-2.8-0.1-4.1c-0.2-1.3-0.6-2.6-1.2-3.8c-1.1-2.4-2.9-4.2-4.8-5.5c-1.9-1.3-4-1.9-6-2.2c-4-0.5-7.2,0.8-9.1,1.9
						C2330.8,351.9,2329.9,352.9,2329.9,352.8z"/>
				</g>
			</g>
		</g>
		<g>
			<g>
				<g>
					<path class="st1" d="M2322.8,335.2c0,0-0.1-0.1-0.4-0.2c-0.3-0.2-0.8-0.4-1.3-0.8c-1.2-0.7-2.9-1.7-5.2-3.1h0.1
						c-2.4,2.4-5.4,5.7-9.1,9.6v-0.3c1.3,2,2.9,4.2,4.4,6.7l0.1,0.1l-0.1,0.1c-1.3,2.4-2.4,5-3.1,8l-0.1,0.1l-0.1,0.1
						c-2.4,0.6-5,1.3-7.8,1.9l0.2-0.3c0.1,4.2,0.1,8.6,0.3,13.2l-0.3-0.3c2.4,0.5,5.1,1,7.9,1.6l0.2,0.1l0.1,0.2
						c0.7,2.6,1.9,5.3,3.4,7.9l0.1,0.2l-0.1,0.2c-1.3,2.2-2.7,4.5-4.1,6.8l-0.1-0.4c3,2.9,6.3,6,9.5,9.2l-0.5-0.1
						c2.1-1.4,4.4-2.9,6.7-4.4l0.2-0.1l0.2,0.1c2.4,1.3,5.1,2.4,7.9,3.1l0.2,0.1l0.1,0.2c0.6,2.4,1.3,5.1,1.9,7.8l-0.4-0.3
						c4.2-0.1,8.7-0.1,13.2-0.2l-0.4,0.3c0.5-2.5,1-5.2,1.6-7.9l0.1-0.2l0.2-0.1c2.6-0.8,5.3-1.9,7.8-3.4l0,0l0.2-0.1l0.2,0.1
						c2.3,1.4,4.6,2.8,6.8,4.2l-0.5,0.1c3.1-3.2,6.2-6.4,9.2-9.5l-0.1,0.5c-1.5-2.2-2.9-4.5-4.4-6.7l-0.1-0.2l0.1-0.2
						c1.4-2.5,2.4-5.2,3.1-7.9l0.1-0.2l0.2-0.1c2.6-0.6,5.2-1.3,7.8-1.9l-0.3,0.4c-0.1-4.5-0.1-8.9-0.2-13.2l0.3,0.3
						c-2.6-0.6-5.3-1.1-7.9-1.7l-0.2-0.1l-0.1-0.2c-0.8-2.8-1.9-5.4-3.4-7.9l-0.1-0.2l0.1-0.2c1.4-2.4,2.8-4.6,4.2-6.8l0.1,0.4
						c-3.3-3.3-6.5-6.3-9.5-9.3l0.4,0.1c-2.4,1.5-4.6,3-6.7,4.4l-0.1,0.1l-0.1-0.1c-2.6-1.5-5.4-2.5-7.9-3.1l-0.1-0.1l-0.1-0.1
						c-0.7-2.9-1.3-5.4-1.9-7.8l0.2,0.2c-5.2,0.1-9.5,0.1-13.2,0.1l0.2-0.1c-0.7,3.1-1.3,5.7-1.7,7.9v0.1h-0.1
						c-2.8,0.8-4.8,1.7-6.1,2.3c-0.6,0.3-1.1,0.6-1.4,0.8C2323,335.1,2322.8,335.2,2322.8,335.2s0.1-0.1,0.4-0.3
						c0.3-0.2,0.8-0.5,1.4-0.8c1.3-0.7,3.2-1.6,6.1-2.4l-0.1,0.1c0.4-2.2,1-4.7,1.6-7.9v-0.1h0.1c3.8-0.1,8.1-0.2,13.2-0.3h0.2
						l0.1,0.2c0.6,2.4,1.3,4.9,1.9,7.8l-0.2-0.2c2.6,0.6,5.4,1.7,8.1,3.2h-0.3c2.2-1.4,4.3-2.9,6.7-4.4l0.2-0.1l0.2,0.1
						c3,2.9,6.2,6,9.5,9.2l0.2,0.2l-0.1,0.2c-1.3,2.2-2.7,4.5-4.1,6.8v-0.3c1.5,2.4,2.6,5.2,3.5,8l-0.3-0.3c2.6,0.6,5.2,1,7.9,1.6
						l0.3,0.1v0.3c0.1,4.3,0.1,8.7,0.3,13.2v0.3l-0.3,0.1c-2.6,0.6-5.2,1.3-7.8,1.9l0.3-0.3c-0.7,2.8-1.7,5.6-3.2,8.1v-0.4
						c1.5,2.2,2.9,4.5,4.4,6.7l0.2,0.3l-0.2,0.2c-3,3.1-6.1,6.3-9.2,9.5l-0.2,0.2l-0.3-0.1c-2.3-1.4-4.5-2.8-6.8-4.2h0.4l0,0
						c-2.6,1.5-5.4,2.7-8,3.5l0.3-0.3c-0.6,2.7-1.1,5.4-1.6,7.9l-0.1,0.3h-0.3c-4.5,0.1-9.1,0.1-13.2,0.2h-0.3l-0.1-0.3
						c-0.6-2.7-1.3-5.4-1.9-7.8l0.3,0.3c-2.9-0.7-5.7-1.9-8.1-3.2h0.4c-2.3,1.5-4.6,3-6.7,4.4l-0.3,0.1l-0.2-0.2
						c-3.3-3.2-6.5-6.3-9.5-9.2l-0.2-0.2l0.1-0.3c1.5-2.4,2.9-4.7,4.2-6.8v0.3c-1.6-2.6-2.7-5.4-3.5-8l0.3,0.2
						c-2.7-0.6-5.4-1.1-7.9-1.7l-0.3-0.1v-0.3c-0.1-4.7-0.1-9.1-0.2-13.2v-0.2l0.2-0.1c2.7-0.7,5.4-1.3,7.8-1.9l-0.2,0.2
						c0.8-3,1.9-5.7,3.2-8.1v0.3c-1.6-2.4-3.1-4.7-4.4-6.7l-0.1-0.1l0.1-0.1c3.8-3.8,6.9-7,9.3-9.5l0.1-0.1l0.1,0.1
						c2.2,1.4,3.9,2.4,5,3.1c0.6,0.3,1,0.6,1.3,0.8C2322.7,335,2322.8,335.2,2322.8,335.2z"/>
				</g>
			</g>
		</g>
	</g>
	<g>
		<g>
			<g>
				<path class="st1" d="M2106.5,393.9c1.9-1.2,4-2.1,6.1-2.6l1.3-6.1l10.3-0.2l1.5,6.1c2.2,0.6,4.2,1.3,6.3,2.4l5.2-3.4l7.4,7.2
					l-3.2,5.3c1.2,1.9,2.1,4,2.6,6.1l6.1,1.3l0.2,10.3l-6.1,1.5c-0.6,2.2-1.3,4.2-2.4,6.3l3.4,5.2l-7.2,7.4l-5.3-3.2
					c-1.9,1.2-4,2.1-6.1,2.6l-1.3,6.1l-10.3,0.2l-1.5-6.1c-2.2-0.6-4.2-1.3-6.3-2.4l-5.2,3.4l-7.4-7.2l3.2-5.3
					c-1.2-1.9-2.1-4-2.6-6.1l-6.1-1.3l-0.2-10.3l6.1-1.5c0.6-2.2,1.3-4.2,2.4-6.3l-3.4-5.2l7.2-7.4L2106.5,393.9L2106.5,393.9z
					 M2112,407.6c-4.2,4.4-4.1,11.3,0.3,15.6c4.4,4.2,11.3,4.1,15.6-0.3c4.2-4.4,4.1-11.3-0.3-15.6
					C2123.2,403.1,2116.2,403.2,2112,407.6z"/>
			</g>
		</g>
		<g>
			<g>
				<g>
					<path class="st1" d="M2112,407.6c0,0,0.6-0.8,2.1-1.8c1.5-1,4-2,7.2-1.7c1.6,0.2,3.3,0.7,4.9,1.7c1.5,1,3.1,2.5,4,4.5
						c0.5,1,0.8,2,1,3.1c0.2,1.1,0.2,2.2,0.1,3.4c-0.3,2.3-1.4,4.6-3.1,6.3c-1.7,1.7-4,2.9-6.3,3.3c-1.1,0.2-2.3,0.2-3.4,0.1
						c-1.1-0.1-2.2-0.4-3.1-0.9c-1.9-0.8-3.5-2.3-4.6-3.8c-1.1-1.5-1.7-3.3-1.9-4.8c-0.4-3.2,0.6-5.8,1.5-7.2
						C2111.2,408.2,2112,407.6,2112,407.6c0.1,0.1-0.7,0.7-1.5,2.2c-0.8,1.5-1.7,4-1.3,7.1c0.3,1.5,0.8,3.1,1.9,4.6
						c1,1.5,2.6,2.8,4.4,3.6c0.9,0.4,1.9,0.7,3,0.8c1,0.1,2.2,0.1,3.2-0.1c2.2-0.3,4.2-1.5,5.9-3.1c1.6-1.7,2.6-3.8,2.9-6
						c0.1-1.1,0.1-2.2-0.1-3.2c-0.1-1-0.5-2-0.9-2.9c-0.8-1.8-2.2-3.3-3.8-4.2c-1.5-1-3.1-1.5-4.7-1.7c-3.1-0.4-5.6,0.6-7,1.5
						C2112.7,406.9,2112,407.7,2112,407.6z"/>
				</g>
			</g>
		</g>
		<g>
			<g>
				<g>
					<path class="st1" d="M2106.5,393.9c0,0-0.1-0.1-0.3-0.2c-0.3-0.1-0.6-0.3-1-0.6c-0.9-0.6-2.3-1.3-4-2.4h0.1
						c-1.8,1.9-4.2,4.4-7.1,7.4V398c1,1.6,2.2,3.3,3.4,5.2l0.1,0.1l-0.1,0.1c-1,1.8-1.9,3.9-2.4,6.2v0.1h-0.1
						c-1.9,0.5-3.9,1-6.1,1.5l0.1-0.2c0.1,3.3,0.1,6.7,0.2,10.3l-0.2-0.2c1.9,0.4,4,0.8,6.1,1.3h0.1l0.1,0.1c0.6,2,1.5,4.1,2.6,6.1
						l0.1,0.1l-0.1,0.1c-1,1.7-2.1,3.5-3.2,5.3l-0.1-0.3c2.3,2.2,4.9,4.7,7.4,7.2h-0.3c1.6-1,3.4-2.2,5.2-3.4l0.1-0.1l0.1,0.1
						c1.8,1,4,1.9,6.2,2.4l0.2,0.1l0.1,0.2c0.5,1.9,1,4,1.5,6.1l-0.3-0.2c3.3-0.1,6.8-0.1,10.3-0.2l-0.3,0.3c0.4-1.9,0.8-4,1.3-6.1
						l0.1-0.2l0.2-0.1c2-0.6,4.1-1.5,6.1-2.6l0,0l0.1-0.1l0.1,0.1c1.8,1.1,3.6,2.2,5.3,3.2l-0.4,0.1c2.4-2.5,4.8-4.9,7.2-7.4
						l-0.1,0.4c-1.1-1.7-2.3-3.5-3.4-5.2l-0.1-0.1l0.1-0.1c1.1-1.9,1.9-4,2.4-6.2l0.1-0.2l0.2-0.1c2-0.5,4-1,6.1-1.5l-0.2,0.3
						c-0.1-3.5-0.1-7-0.1-10.3l0.2,0.3c-2.1-0.4-4.1-0.8-6.1-1.3l-0.1-0.1l-0.1-0.1c-0.6-2.2-1.5-4.2-2.6-6.1l-0.1-0.1l0.1-0.1
						c1.1-1.8,2.2-3.6,3.2-5.3l0.1,0.3c-2.6-2.5-5.1-4.9-7.4-7.2h0.3c-1.8,1.2-3.6,2.3-5.2,3.4l-0.1,0.1l-0.1-0.1
						c-2.1-1.2-4.2-1.9-6.2-2.4h-0.1v-0.1c-0.6-2.2-1-4.2-1.5-6.1l0.2,0.1c-4,0.1-7.4,0.1-10.3,0.1l0.1-0.1c-0.5,2.4-1,4.5-1.3,6.1
						v0.1h-0.1c-2.2,0.6-3.7,1.3-4.7,1.8c-0.5,0.3-0.8,0.4-1.1,0.6C2106.6,393.8,2106.5,393.9,2106.5,393.9s0.1-0.1,0.3-0.2
						c0.2-0.1,0.6-0.3,1.1-0.6c1-0.6,2.5-1.3,4.7-1.9l-0.1,0.1c0.3-1.7,0.8-3.7,1.3-6.1V385h0.1c2.9-0.1,6.3-0.1,10.3-0.2h0.1
						l0.1,0.1c0.5,1.9,1,3.8,1.5,6.1l-0.1-0.1c2.1,0.5,4.2,1.3,6.3,2.4h-0.2c1.7-1.1,3.3-2.2,5.2-3.4l0.1-0.1l0.1,0.1
						c2.4,2.2,4.8,4.6,7.4,7.1l0.1,0.1l-0.1,0.2c-1,1.7-2.1,3.5-3.2,5.3v-0.3c1.2,1.9,2.1,4,2.7,6.2l-0.2-0.2c2,0.4,4,0.8,6.1,1.3
						l0.2,0.1v0.2c0.1,3.3,0.1,6.8,0.2,10.3v0.2l-0.2,0.1c-2,0.5-4,1-6.1,1.5l0.2-0.2c-0.6,2.2-1.4,4.3-2.5,6.3v-0.3
						c1.1,1.7,2.3,3.5,3.4,5.2l0.1,0.2l-0.1,0.2c-2.4,2.4-4.7,4.9-7.2,7.4l-0.2,0.2l-0.2-0.1c-1.7-1-3.6-2.2-5.3-3.2h0.3l0,0
						c-2,1.2-4.2,2.1-6.2,2.7l0.2-0.2c-0.4,2.1-0.8,4.2-1.3,6.1l-0.1,0.3h-0.3c-3.6,0.1-7,0.1-10.3,0.2h-0.3l-0.1-0.2
						c-0.5-2.1-1-4.2-1.5-6.1l0.2,0.2c-2.3-0.6-4.5-1.5-6.3-2.5h0.3c-1.8,1.2-3.6,2.4-5.2,3.4l-0.2,0.1l-0.1-0.1
						c-2.6-2.5-5.1-4.9-7.4-7.2l-0.1-0.1l0.1-0.2c1.1-1.9,2.2-3.7,3.2-5.3v0.3c-1.3-2-2.1-4.2-2.7-6.2l0.2,0.2
						c-2.2-0.4-4.2-0.9-6.1-1.3l-0.2-0.1v-0.2c-0.1-3.6-0.1-7-0.1-10.3V411l0.2-0.1c2.1-0.5,4.2-1,6.1-1.5l-0.1,0.1
						c0.6-2.3,1.5-4.5,2.5-6.3v0.2c-1.3-1.9-2.4-3.6-3.4-5.2l-0.1-0.1l0.1-0.1c2.9-3,5.4-5.5,7.2-7.4l0.1-0.1l0.1,0.1
						c1.7,1,3,1.9,3.9,2.4c0.4,0.3,0.8,0.5,1,0.6C2106.4,393.8,2106.5,393.9,2106.5,393.9z"/>
				</g>
			</g>
		</g>
	</g>
	<g>
		<g>
			<g>
				<path class="st1" d="M1634.8,575.4c1.9-1.2,4-2.1,6.1-2.6l1.3-6.1l10.3-0.2l1.5,6.1c2.2,0.6,4.2,1.3,6.3,2.4l5.2-3.4l7.4,7.2
					l-3.2,5.3c1.2,1.9,2.1,4,2.6,6.1l6.1,1.3l0.2,10.3l-6.1,1.5c-0.6,2.2-1.3,4.2-2.4,6.3l3.4,5.2l-7.2,7.4l-5.3-3.2
					c-1.9,1.2-4,2.1-6.1,2.6l-1.3,6.1l-10.3,0.2l-1.5-6.1c-2.2-0.6-4.2-1.3-6.3-2.4l-5.2,3.4l-7.4-7.2l3.2-5.3
					c-1.2-1.9-2.1-4-2.6-6.1l-6.1-1.3l-0.2-10.3l6.1-1.5c0.6-2.2,1.3-4.2,2.4-6.3l-3.4-5.2l7.2-7.4L1634.8,575.4L1634.8,575.4z
					 M1640.3,589.1c-4.2,4.4-4.1,11.3,0.3,15.6c4.4,4.2,11.3,4.1,15.6-0.3c4.2-4.4,4.1-11.3-0.3-15.6
					C1651.5,584.7,1644.5,584.7,1640.3,589.1z"/>
			</g>
		</g>
		<g>
			<g>
				<g>
					<path class="st1" d="M1640.3,589.1c0,0,0.6-0.8,2.1-1.8c1.5-1,4-2,7.2-1.7c1.6,0.2,3.3,0.7,4.9,1.7c1.5,1,3.1,2.5,4,4.5
						c0.5,1,0.8,2,1,3.1c0.2,1.1,0.2,2.2,0.1,3.4c-0.3,2.3-1.4,4.6-3.1,6.3c-1.7,1.7-4,2.9-6.3,3.3c-1.1,0.2-2.3,0.2-3.4,0.1
						c-1.1-0.1-2.2-0.4-3.1-0.9c-1.9-0.8-3.5-2.3-4.6-3.8c-1.1-1.5-1.7-3.3-1.9-4.8c-0.4-3.2,0.6-5.8,1.5-7.2
						C1639.5,589.8,1640.3,589.1,1640.3,589.1c0.1,0.1-0.7,0.7-1.5,2.2c-0.8,1.5-1.7,4-1.3,7.1c0.3,1.5,0.8,3.1,1.9,4.6
						c1,1.5,2.6,2.8,4.4,3.6c0.9,0.4,1.9,0.7,3,0.8c1,0.1,2.2,0.1,3.2-0.1c2.2-0.3,4.2-1.5,5.9-3.1c1.6-1.7,2.6-3.8,2.9-6
						c0.1-1.1,0.1-2.2-0.1-3.2c-0.1-1-0.5-2-0.9-2.9c-0.8-1.8-2.2-3.3-3.8-4.2c-1.5-1-3.1-1.5-4.7-1.7c-3.1-0.4-5.6,0.6-7,1.5
						C1641,588.4,1640.4,589.2,1640.3,589.1z"/>
				</g>
			</g>
		</g>
		<g>
			<g>
				<g>
					<path class="st1" d="M1634.8,575.4c0,0-0.1-0.1-0.3-0.2c-0.3-0.1-0.6-0.3-1-0.6c-0.9-0.6-2.3-1.3-4-2.4h0.1
						c-1.8,1.9-4.2,4.4-7.1,7.4v-0.2c1,1.6,2.2,3.3,3.4,5.2l0.1,0.1l-0.1,0.1c-1,1.8-1.9,3.9-2.4,6.2v0.1h-0.1
						c-1.9,0.5-3.9,1-6.1,1.5l0.1-0.2c0.1,3.3,0.1,6.7,0.2,10.3l-0.2-0.2c1.9,0.4,4,0.8,6.1,1.3h0.1l0.1,0.1c0.6,2,1.5,4.1,2.6,6.1
						l0.1,0.1l-0.1,0.1c-1,1.7-2.1,3.5-3.2,5.3l-0.1-0.3c2.3,2.2,4.9,4.7,7.4,7.2h-0.3c1.6-1,3.4-2.2,5.2-3.4l0.1-0.1l0.1,0.1
						c1.8,1,4,1.9,6.2,2.4l0.2,0.1l0.1,0.2c0.5,1.9,1,4,1.5,6.1l-0.3-0.2c3.3-0.1,6.8-0.1,10.3-0.2l-0.3,0.3c0.4-1.9,0.8-4,1.3-6.1
						l0.1-0.2l0.2-0.1c2-0.6,4.1-1.5,6.1-2.6l0,0l0.1-0.1l0.1,0.1c1.8,1.1,3.6,2.2,5.3,3.2l-0.4,0.1c2.4-2.5,4.8-4.9,7.2-7.4
						l-0.1,0.4c-1.1-1.7-2.3-3.5-3.4-5.2l-0.1-0.1l0.1-0.1c1.1-1.9,1.9-4,2.4-6.2l0.1-0.2l0.2-0.1c2-0.5,4-1,6.1-1.5l-0.2,0.3
						c-0.1-3.5-0.1-7-0.1-10.3l0.2,0.3c-2.1-0.4-4.1-0.8-6.1-1.3l-0.1-0.1l-0.1-0.1c-0.6-2.2-1.5-4.2-2.6-6.1l-0.1-0.1l0.1-0.1
						c1.1-1.8,2.2-3.6,3.2-5.3l0.1,0.3c-2.6-2.5-5.1-4.9-7.4-7.2h0.3c-1.8,1.2-3.6,2.3-5.2,3.4l-0.1,0.1l-0.1-0.1
						c-2.1-1.2-4.2-1.9-6.2-2.4h-0.1v-0.1c-0.6-2.2-1-4.2-1.5-6.1l0.2,0.1c-4,0.1-7.4,0.1-10.3,0.1l0.1-0.1c-0.5,2.4-1,4.5-1.3,6.1
						v0.1h-0.1c-2.2,0.6-3.7,1.3-4.7,1.8c-0.5,0.3-0.8,0.4-1.1,0.6C1634.9,575.4,1634.8,575.5,1634.8,575.4c0,0,0.1-0.1,0.3-0.2
						s0.6-0.3,1.1-0.6c1-0.6,2.5-1.3,4.7-1.9l-0.1,0.1c0.3-1.7,0.8-3.7,1.3-6.1v-0.1h0.1c2.9-0.1,6.3-0.1,10.3-0.2h0.1l0.1,0.1
						c0.5,1.9,1,3.8,1.5,6.1l-0.1-0.1c2.1,0.5,4.2,1.3,6.3,2.4h-0.2c1.7-1.1,3.3-2.2,5.2-3.4l0.1-0.1l0.1,0.1
						c2.4,2.2,4.8,4.6,7.4,7.1l0.1,0.1l-0.1,0.2c-1,1.7-2.1,3.5-3.2,5.3v-0.3c1.2,1.9,2.1,4,2.7,6.2l-0.2-0.2c2,0.4,4,0.8,6.1,1.3
						l0.2,0.1v0.2c0.1,3.3,0.1,6.8,0.2,10.3v0.2l-0.2,0.1c-2,0.5-4,1-6.1,1.5l0.2-0.2c-0.6,2.2-1.4,4.3-2.5,6.3v-0.3
						c1.1,1.7,2.3,3.5,3.4,5.2l0.1,0.2l-0.1,0.2c-2.4,2.4-4.7,4.9-7.2,7.4l-0.2,0.2l-0.2-0.1c-1.7-1-3.6-2.2-5.3-3.2h0.3l0,0
						c-2,1.2-4.2,2.1-6.2,2.7l0.2-0.2c-0.4,2.1-0.8,4.2-1.3,6.1l-0.1,0.3h-0.3c-3.6,0.1-7,0.1-10.3,0.2h-0.3l-0.1-0.2
						c-0.5-2.1-1-4.2-1.5-6.1l0.2,0.2c-2.3-0.6-4.5-1.5-6.3-2.5h0.3c-1.8,1.2-3.6,2.4-5.2,3.4l-0.2,0.1l-0.1-0.1
						c-2.6-2.5-5.1-4.9-7.4-7.2l-0.1-0.1l0.1-0.2c1.1-1.9,2.2-3.7,3.2-5.3v0.3c-1.3-2-2.1-4.2-2.7-6.2l0.2,0.2
						c-2.2-0.4-4.2-0.9-6.1-1.3l-0.2-0.1v-0.2c-0.1-3.6-0.1-7-0.1-10.3v-0.2l0.2-0.1c2.1-0.5,4.2-1,6.1-1.5l-0.1,0.1
						c0.6-2.3,1.5-4.5,2.5-6.3v0.2c-1.3-1.9-2.4-3.6-3.4-5.2l-0.1-0.1l0.1-0.1c2.9-3,5.4-5.5,7.2-7.4l0.1-0.1l0.1,0.1
						c1.7,1,3,1.9,3.9,2.4c0.4,0.3,0.8,0.5,1,0.6C1634.7,575.3,1634.8,575.4,1634.8,575.4z"/>
				</g>
			</g>
		</g>
	</g>
	<g>
		<g>
			<g>
				<path class="st2" d="M1682.9,735.6c6.2-3.8,12.7-6.5,19.5-8.5l4-19.3l32.6-0.6l4.7,19.1c6.8,1.7,13.5,4.2,19.8,7.8l16.5-10.8
					l23.5,22.6l-10.2,16.8c3.8,6.2,6.5,12.7,8.5,19.5l19.3,4l0.6,32.6l-19.1,4.7c-1.7,6.8-4.2,13.5-7.8,19.8l10.8,16.5l-22.6,23.5
					l-16.8-10.2c-6.2,3.8-12.7,6.5-19.5,8.5l-4,19.3l-32.6,0.6l-4.7-19.1c-6.8-1.7-13.5-4.2-19.8-7.8l-16.5,10.8l-23.5-22.6
					l10.2-16.8c-3.8-6.2-6.5-12.7-8.5-19.5l-19.3-4l-0.6-32.6l19.1-4.7c1.7-6.8,4.2-13.5,7.8-19.8l-10.8-16.5l22.6-23.5
					L1682.9,735.6L1682.9,735.6z M1700.3,779c-13.4,13.9-13,36.1,0.8,49.5c13.9,13.4,36.1,13,49.5-0.9s13-36.1-0.8-49.5
					C1735.9,764.8,1713.7,765.1,1700.3,779z"/>
			</g>
		</g>
		<g>
			<g>
				<g>
					<path class="st3" d="M1700.3,779c0,0,1.8-2.6,6.5-5.7c4.6-3.1,12.7-6.5,22.8-5.4c5,0.6,10.5,2.2,15.5,5.5
						c4.9,3.3,9.6,8,12.5,14.1c1.5,3,2.6,6.3,3.2,9.8s0.7,7.1,0.2,10.8c-0.9,7.3-4.3,14.5-9.7,20.2c-5.5,5.6-12.5,9.3-19.8,10.4
						c-3.6,0.6-7.3,0.7-10.8,0.2c-3.5-0.5-6.9-1.4-10-2.9c-6.2-2.7-11.1-7.2-14.6-12c-3.5-4.9-5.3-10.3-6.1-15.3
						c-1.5-10.2,1.7-18.3,4.6-23C1697.8,781,1700.3,779,1700.3,779c0.2,0.1-2.1,2.3-4.8,7.1c-2.6,4.7-5.4,12.7-3.9,22.4
						c0.8,4.8,2.6,10,6,14.6c3.4,4.6,8.1,8.8,14,11.3c2.9,1.3,6.1,2.2,9.4,2.6c3.3,0.5,6.8,0.4,10.2-0.2c6.9-1.1,13.5-4.6,18.7-9.9
						c5.1-5.4,8.4-12.1,9.2-19.1c0.5-3.4,0.4-6.9-0.1-10.2c-0.6-3.3-1.5-6.5-2.9-9.3c-2.7-5.8-7.1-10.4-11.8-13.6
						c-4.7-3.2-10-4.9-14.8-5.5c-9.7-1.2-17.6,1.9-22.3,4.7C1702.5,776.9,1700.4,779.3,1700.3,779z"/>
				</g>
			</g>
		</g>
		<g>
			<g>
				<g>
					<path class="st3" d="M1682.9,735.6c0,0-0.3-0.1-1.1-0.6c-0.8-0.5-1.9-1-3.2-1.9c-2.9-1.7-7.2-4.2-12.7-7.5l0.4-0.1
						c-5.8,6.1-13.4,14-22.5,23.6l0.1-0.6c3.3,5,7,10.5,10.9,16.4l0.2,0.3l-0.1,0.3c-3.2,5.8-5.9,12.4-7.7,19.6l-0.1,0.4l-0.4,0.1
						c-6,1.5-12.4,3.1-19.1,4.7l0.6-0.7c0.2,10.3,0.4,21.2,0.6,32.6l-0.6-0.8c6,1.3,12.5,2.6,19.3,4l0.5,0.1l0.1,0.5
						c1.8,6.3,4.6,13,8.4,19.3l0.3,0.4l-0.3,0.4c-3.1,5.2-6.6,11-10.2,16.8l-0.1-1.1c7.4,7.1,15.3,14.8,23.5,22.6l-1.2-0.1
						c5.2-3.3,10.8-7.1,16.5-10.8l0.5-0.3l0.5,0.3c5.8,3.2,12.5,5.9,19.6,7.7l0.6,0.1l0.1,0.6c1.5,6,3.1,12.5,4.7,19.1l-1-0.8
						c10.3-0.2,21.4-0.4,32.6-0.6l-1,0.8c1.3-6.1,2.6-12.7,4-19.3l0.1-0.6l0.6-0.1c6.4-1.8,13.1-4.6,19.2-8.4l0,0l0.6-0.3l0.5,0.3
						c5.6,3.4,11.3,6.8,16.8,10.2l-1.3,0.1c7.7-7.9,15.2-15.7,22.7-23.5l-0.1,1.3c-3.6-5.6-7.2-11.1-10.8-16.5l-0.3-0.5l0.3-0.5
						c3.5-6.2,6.1-12.8,7.7-19.6l0.1-0.6l0.6-0.1c6.5-1.6,12.9-3.1,19.1-4.7l-0.7,1c-0.2-11.1-0.3-22-0.6-32.6l0.8,0.9
						c-6.5-1.4-12.9-2.7-19.3-4l-0.6-0.1l-0.1-0.6c-1.9-6.9-4.8-13.4-8.4-19.3l-0.3-0.4l0.3-0.4c3.5-5.8,6.9-11.3,10.2-16.8l0.1,1
						c-8.2-8-16-15.5-23.4-22.7l1,0.1c-5.8,3.8-11.3,7.3-16.5,10.8l-0.3,0.2l-0.3-0.2c-6.5-3.7-13.2-6.1-19.6-7.8l-0.4-0.1l-0.1-0.4
						c-1.7-7-3.2-13.2-4.7-19.1l0.6,0.4c-12.7,0.1-23.4,0.3-32.7,0.4l0.4-0.3c-1.7,7.7-3,14-4.1,19.3l-0.1,0.2l-0.2,0.1
						c-6.9,1.9-11.8,4.2-14.9,5.7c-1.5,0.8-2.6,1.4-3.5,1.8C1683.3,735.5,1682.9,735.6,1682.9,735.6s0.3-0.3,1.1-0.8
						c0.8-0.5,1.9-1.1,3.4-1.9c3.1-1.7,7.9-4,14.9-6.1l-0.2,0.3c1-5.3,2.4-11.6,3.9-19.4l0.1-0.3h0.3c9.2-0.2,20-0.4,32.6-0.7h0.5
						l0.1,0.5c1.5,5.9,3,12.2,4.7,19.1l-0.5-0.5c6.5,1.6,13.3,4.1,20,7.8h-0.8c5.2-3.5,10.7-7,16.4-10.9l0.5-0.3l0.4,0.4
						c7.4,7.2,15.2,14.7,23.5,22.6l0.5,0.5l-0.3,0.6c-3.3,5.5-6.7,11.1-10.2,16.8v-0.9c3.6,6,6.6,12.7,8.6,19.7l-0.7-0.6
						c6.3,1.3,12.7,2.6,19.3,4l0.7,0.1v0.8c0.2,10.6,0.4,21.5,0.6,32.6v0.8l-0.8,0.2c-6.3,1.5-12.7,3.1-19.1,4.7l0.7-0.7
						c-1.7,6.9-4.3,13.6-7.9,20.1l-0.1-1c3.6,5.4,7.2,10.9,10.8,16.5l0.4,0.7l-0.6,0.6c-7.4,7.7-15,15.5-22.6,23.5l-0.6,0.6
						l-0.7-0.4c-5.6-3.4-11.2-6.8-16.8-10.2h1l0,0c-6.3,3.8-13.2,6.7-19.7,8.6l0.7-0.8c-1.4,6.6-2.8,13.2-4,19.3l-0.1,0.8h-0.8
						c-11.2,0.2-22.3,0.3-32.6,0.6h-0.8l-0.2-0.8c-1.6-6.6-3.2-13.2-4.7-19.1l0.7,0.7c-7.2-1.8-14.1-4.6-20.1-7.9l1-0.1
						c-5.7,3.8-11.3,7.4-16.5,10.8l-0.6,0.4l-0.6-0.5c-8.1-7.9-16.1-15.6-23.5-22.7l-0.5-0.5l0.3-0.6c3.6-5.8,7.1-11.6,10.2-16.8
						v0.9c-3.9-6.5-6.8-13.3-8.6-19.7l0.6,0.6c-6.8-1.4-13.3-2.8-19.3-4l-0.6-0.1v-0.6c-0.2-11.4-0.3-22.3-0.5-32.6v-0.6l0.6-0.1
						c6.8-1.6,13.2-3.2,19.1-4.7l-0.5,0.5c1.8-7.4,4.6-14.1,7.9-19.9v0.6c-3.9-6-7.4-11.5-10.7-16.5l-0.2-0.3l0.3-0.3
						c9.3-9.5,17-17.3,22.8-23.3l0.2-0.2l0.2,0.1c5.4,3.3,9.5,5.9,12.4,7.7c1.4,0.8,2.4,1.5,3.2,2
						C1682.6,735.3,1682.9,735.6,1682.9,735.6z"/>
				</g>
			</g>
		</g>
	</g>
	<g>
		<g>
			<g>
				<path class="st0" d="M2245.3,406.5c4.9,0.1,9.6,0.8,14.1,2.2l9.2-9.5l18.7,11.3l-4.2,12.6c3.3,3.4,6.1,7.3,8.5,11.6l13.2-0.2
					l5.2,21.3l-11.8,5.9c-0.1,4.9-0.8,9.6-2.2,14.1l9.5,9.2l-11.3,18.7l-12.6-4.2c-3.4,3.3-7.3,6.1-11.6,8.5l0.2,13.2l-21.3,5.2
					l-5.9-11.8c-4.9-0.1-9.6-0.8-14.1-2.2l-9.2,9.5l-18.7-11.3l4.2-12.6c-3.3-3.4-6.1-7.3-8.5-11.6l-13.2,0.2l-5.2-21.3l11.8-5.9
					c0.1-4.9,0.8-9.6,2.2-14.1l-9.5-9.2l11.3-18.7l12.6,4.2c3.4-3.3,7.3-6.1,11.6-8.5l-0.2-13.2l21.3-5.2L2245.3,406.5L2245.3,406.5
					z M2239.6,437.5c-12.6,3.1-20.3,15.8-17.3,28.5c3.1,12.6,15.8,20.3,28.5,17.3c12.6-3.1,20.3-15.8,17.3-28.5
					S2252.3,434.4,2239.6,437.5z"/>
			</g>
		</g>
		<g>
			<g>
				<g>
					<path class="st0" d="M2239.6,437.5c0,0,1.9-0.8,5.8-0.9c3.7-0.1,9.5,0.8,14.9,5.2c2.6,2.1,5.2,5,6.8,8.7
						c1.6,3.7,2.6,8,2.1,12.5c-0.2,2.2-0.8,4.5-1.7,6.8c-0.9,2.2-2.2,4.3-3.8,6.2c-3.1,3.8-7.7,6.7-12.7,8c-5.1,1.2-10.4,0.8-15-1.2
						c-2.3-0.9-4.4-2.2-6.2-3.8s-3.4-3.3-4.7-5.2c-2.6-3.8-3.7-8.1-4-12.1c-0.2-4,0.7-7.8,2-10.9c2.9-6.3,7.5-9.8,10.9-11.4
						C2237.5,437.6,2239.6,437.5,2239.6,437.5c0.1,0.1-2,0.6-5.3,2.3c-3.2,1.7-7.7,5.3-10.2,11.3c-1.3,3-2.1,6.6-1.8,10.4
						c0.3,3.8,1.4,7.9,3.9,11.5c1.2,1.8,2.6,3.5,4.4,4.9c1.7,1.5,3.7,2.6,5.8,3.6c4.3,1.8,9.3,2.2,14.2,1.1c4.8-1.3,9.1-3.9,12-7.5
						c1.5-1.7,2.7-3.8,3.6-5.8c0.9-2.1,1.5-4.2,1.7-6.3c0.6-4.3-0.3-8.4-1.9-12c-1.5-3.6-3.9-6.3-6.4-8.4
						c-5.2-4.2-10.7-5.3-14.3-5.4C2241.7,437,2239.6,437.6,2239.6,437.5z"/>
				</g>
			</g>
		</g>
		<g>
			<g>
				<g>
					<path class="st0" d="M2245.3,406.5c0,0-0.1-0.2-0.4-0.7c-0.3-0.6-0.7-1.3-1.2-2.2c-1-2-2.6-5-4.5-8.8l0.3,0.1
						c-5.4,1.4-12.6,3.2-21.3,5.4l0.3-0.3c0.1,4,0.2,8.5,0.3,13.2v0.2l-0.2,0.1c-3.9,2.2-7.8,4.9-11.4,8.4l-0.2,0.2l-0.3-0.1
						c-3.9-1.3-8.1-2.7-12.6-4.2l0.6-0.2c-3.6,5.9-7.4,12.2-11.3,18.8l-0.1-0.6c2.9,2.9,6.2,6,9.5,9.2l0.2,0.2l-0.1,0.3
						c-1.3,4.2-2,9.1-2.2,14v0.3l-0.3,0.1c-3.7,1.8-7.7,3.9-11.8,5.9l0.3-0.7c1.7,6.7,3.4,13.9,5.2,21.3l-0.6-0.5
						c4.1-0.1,8.6-0.1,13.2-0.3h0.4l0.2,0.3c2.1,3.9,4.9,7.9,8.4,11.4l0.3,0.3l-0.1,0.3c-1.3,4-2.7,8.2-4.2,12.6l-0.3-0.8
						c5.9,3.6,12.3,7.4,18.8,11.3l-0.8,0.1c2.9-3,6.1-6.3,9.2-9.5l0.3-0.3l0.4,0.1c4.3,1.3,9.1,2.1,13.9,2.2l0,0h0.4l0.2,0.3
						c2,4,4,7.9,5.9,11.8l-0.8-0.3c7.2-1.7,14.3-3.5,21.3-5.2l-0.5,0.6c-0.1-4.5-0.1-8.9-0.2-13.2v-0.4l0.3-0.2
						c4.2-2.3,8-5.2,11.4-8.4l0.3-0.3l0.3,0.1c4.2,1.4,8.4,2.9,12.6,4.2l-0.8,0.3c3.9-6.4,7.7-12.7,11.4-18.7l0.1,0.8
						c-3.2-3.1-6.4-6.2-9.5-9.2l-0.3-0.3l0.1-0.3c1.4-4.7,2.1-9.3,2.2-14v-0.3l0.3-0.1c4-2,8-4,11.8-5.9l-0.3,0.6
						c-1.8-7.5-3.6-14.6-5.2-21.3l0.5,0.4c-4.7,0.1-9.1,0.1-13.2,0.2h-0.3l-0.1-0.3c-2.4-4.5-5.3-8.2-8.4-11.5l-0.2-0.2l0.1-0.3
						c1.5-4.6,2.9-8.7,4.2-12.5l0.1,0.5c-7.2-4.5-13.4-8.2-18.7-11.5l0.3-0.1c-3.7,3.8-6.8,6.9-9.3,9.5l-0.1,0.1l-0.1-0.1
						c-4.6-1.4-8.2-1.8-10.5-2.1c-1.1-0.1-2-0.1-2.6-0.2C2245.6,406.5,2245.3,406.5,2245.3,406.5s0.3,0,0.9,0c0.6,0,1.5,0,2.6,0.1
						c2.4,0.2,6,0.6,10.7,1.9l-0.2,0.1c2.5-2.6,5.5-5.8,9.1-9.6l0.1-0.1l0.2,0.1c5.3,3.2,11.6,6.9,18.8,11.3l0.3,0.1l-0.1,0.3
						c-1.3,3.9-2.6,8-4.2,12.6l-0.1-0.4c3.1,3.3,6.1,7.1,8.6,11.6l-0.4-0.3c4.2-0.1,8.6-0.1,13.2-0.3h0.4l0.1,0.4
						c1.7,6.8,3.4,13.8,5.3,21.3l0.1,0.4l-0.4,0.2c-3.8,1.9-7.8,3.9-11.8,5.9l0.3-0.5c-0.1,4.7-0.8,9.5-2.2,14.3l-0.1-0.6
						c3.1,3,6.3,6.1,9.5,9.2l0.3,0.3l-0.3,0.4c-3.7,6.1-7.4,12.4-11.3,18.8l-0.3,0.4l-0.5-0.1c-4.1-1.4-8.4-2.8-12.6-4.2l0.6-0.1
						c-3.4,3.3-7.4,6.2-11.7,8.6l0.3-0.6c0.1,4.4,0.1,8.8,0.2,13.2v0.6l-0.5,0.1c-7,1.7-14.1,3.5-21.3,5.2l-0.6,0.1l-0.2-0.5
						c-1.9-3.9-4-7.9-5.9-11.8l0.6,0.3l0,0c-4.9-0.1-9.9-0.9-14.3-2.2l0.7-0.2c-3.1,3.3-6.3,6.5-9.2,9.5l-0.3,0.4l-0.5-0.3
						c-6.5-3.9-12.8-7.8-18.7-11.4l-0.4-0.3l0.1-0.5c1.5-4.3,2.9-8.6,4.2-12.6l0.1,0.6c-3.5-3.6-6.4-7.7-8.6-11.7l0.6,0.3
						c-4.6,0.1-9.1,0.1-13.2,0.2h-0.5l-0.1-0.5c-1.8-7.4-3.6-14.6-5.2-21.3l-0.1-0.5l0.4-0.2c4.1-2.1,8.2-4.1,11.8-5.9l-0.3,0.5
						c0.1-5.1,1-10,2.2-14.3l0.1,0.6c-3.3-3.2-6.5-6.4-9.5-9.3l-0.3-0.3l0.2-0.3c4-6.5,7.8-12.8,11.4-18.7l0.2-0.3l0.3,0.1
						c4.4,1.5,8.6,2.9,12.6,4.2l-0.4,0.1c3.7-3.6,7.7-6.3,11.6-8.5l-0.2,0.3c-0.1-4.8-0.1-9.3-0.2-13.2v-0.3l0.3-0.1
						c8.7-2.1,15.9-3.8,21.4-5.1l0.1-0.1l0.1,0.1c1.9,3.8,3.3,6.8,4.3,8.8c0.5,1,0.8,1.7,1.1,2.3
						C2245.2,406.2,2245.3,406.5,2245.3,406.5z"/>
				</g>
			</g>
		</g>
	</g>
	<g>
		<g>
			<g>
				<g>
					<path class="st3" d="M2306.8,824.4c0,0,2-0.8,5.8-0.9c3.8-0.1,9.6,0.8,15,5.2c2.6,2.2,5.2,5.1,6.9,8.8
						c1.7,3.7,2.6,8.1,2.1,12.7c-0.2,2.3-0.8,4.6-1.7,6.8c-0.9,2.2-2.2,4.4-3.8,6.3c-3.1,3.9-7.7,6.8-12.9,8.1
						c-5.2,1.3-10.6,0.8-15.2-1.2c-2.3-0.9-4.5-2.2-6.3-3.8c-1.9-1.5-3.4-3.3-4.7-5.2c-2.6-3.8-3.8-8.1-4-12.2
						c-0.2-4,0.7-7.9,2.1-11c2.9-6.3,7.6-9.9,11-11.6C2304.7,824.6,2306.8,824.4,2306.8,824.4c0.1,0.1-2,0.6-5.4,2.4
						c-3.2,1.7-7.7,5.3-10.3,11.5c-1.3,3.1-2.1,6.7-1.8,10.5c0.3,3.8,1.5,8,3.9,11.6c1.2,1.8,2.7,3.5,4.5,4.9
						c1.7,1.5,3.8,2.7,5.9,3.6c4.3,1.9,9.5,2.2,14.3,1.1c4.9-1.3,9.2-4,12.2-7.6c1.5-1.8,2.8-3.8,3.6-5.9c0.9-2.1,1.5-4.2,1.7-6.4
						c0.6-4.3-0.3-8.5-1.9-12c-1.5-3.6-4-6.4-6.5-8.5c-5.2-4.2-10.8-5.3-14.5-5.4C2308.9,824,2306.9,824.6,2306.8,824.4z"/>
				</g>
			</g>
		</g>
		<g>
			<g>
				<g>
					<path class="st3" d="M2312.6,793.3c0,0-0.1-0.2-0.4-0.7c-0.3-0.6-0.7-1.3-1.2-2.2c-1-2.1-2.6-5-4.6-8.9l0.3,0.1
						c-5.5,1.4-12.7,3.2-21.5,5.4l0.3-0.3c0.1,4,0.2,8.6,0.3,13.4v0.2l-0.2,0.1c-4,2.2-7.9,5-11.5,8.5l-0.2,0.2l-0.3-0.1
						c-4-1.3-8.2-2.7-12.7-4.2l0.6-0.2c-3.6,6-7.4,12.3-11.4,18.9l-0.1-0.7c3,2.9,6.3,6.1,9.7,9.3l0.3,0.2l-0.1,0.3
						c-1.3,4.2-2.1,9.1-2.2,14.1v0.3l-0.3,0.1c-3.7,1.9-7.8,3.9-12,6l0.3-0.7c1.7,6.8,3.5,14.1,5.3,21.5l-0.6-0.5
						c4.2-0.1,8.8-0.1,13.4-0.3h0.4l0.2,0.3c2.2,3.9,5,7.9,8.4,11.5l0.3,0.3l-0.1,0.3c-1.3,4-2.8,8.3-4.2,12.7l-0.3-0.8
						c6,3.6,12.4,7.5,18.9,11.5l-0.8,0.1c2.9-3.1,6.1-6.3,9.3-9.6l0.3-0.3l0.4,0.1c4.3,1.3,9.2,2.1,14.1,2.2l0,0h0.4l0.2,0.3
						c2,4,4,8,6,12l-0.8-0.3c7.2-1.8,14.4-3.6,21.5-5.3l-0.5,0.7c-0.1-4.5-0.1-9-0.2-13.4v-0.4l0.3-0.2c4.2-2.3,8.1-5.2,11.5-8.4
						l0.3-0.3l0.3,0.1c4.3,1.5,8.5,2.9,12.7,4.2l-0.8,0.3c3.9-6.5,7.7-12.7,11.5-18.9l0.1,0.8c-3.3-3.1-6.5-6.3-9.6-9.3l-0.3-0.3
						l0.1-0.3c1.4-4.7,2.1-9.5,2.2-14.1v-0.3l0.3-0.1c4.1-2,8.1-4,12-6l-0.3,0.6c-1.8-7.6-3.6-14.7-5.2-21.5l0.5,0.4
						c-4.7,0.1-9.1,0.1-13.4,0.2h-0.3l-0.1-0.3c-2.4-4.5-5.3-8.3-8.4-11.6l-0.2-0.2l0.1-0.3c1.5-4.6,2.9-8.8,4.2-12.7l0.1,0.5
						c-7.3-4.5-13.6-8.3-18.9-11.6l0.3-0.1c-3.8,3.8-6.8,7-9.3,9.5l-0.1,0.1l-0.1-0.1c-4.7-1.4-8.3-1.9-10.7-2.1
						c-1.2-0.1-2-0.1-2.6-0.2C2312.9,793.3,2312.6,793.3,2312.6,793.3s0.3,0,0.9,0c0.6,0,1.5,0,2.7,0.1c2.4,0.2,6.1,0.6,10.7,1.9
						l-0.2,0.1c2.5-2.6,5.6-5.8,9.3-9.7l0.1-0.2l0.2,0.1c5.4,3.2,11.6,7,19,11.4l0.3,0.1l-0.1,0.3c-1.3,3.9-2.6,8.1-4.2,12.7
						l-0.1-0.4c3.2,3.3,6.1,7.2,8.6,11.7l-0.4-0.3c4.2-0.1,8.7-0.1,13.4-0.3h0.4l0.1,0.4c1.7,6.8,3.4,13.9,5.3,21.5l0.1,0.4
						l-0.4,0.2c-3.9,1.9-7.9,4-12,6l0.3-0.5c-0.1,4.8-0.8,9.7-2.2,14.4l-0.1-0.6c3.1,3.1,6.3,6.1,9.6,9.3l0.3,0.3l-0.3,0.4
						c-3.8,6.1-7.5,12.5-11.5,18.9l-0.3,0.4l-0.5-0.1c-4.2-1.4-8.4-2.8-12.7-4.2l0.7-0.1c-3.5,3.3-7.4,6.3-11.8,8.6l0.3-0.6
						c0.1,4.4,0.1,8.8,0.2,13.4v0.6l-0.6,0.1c-7.1,1.7-14.3,3.5-21.5,5.3l-0.6,0.1l-0.2-0.5c-1.9-4-4-7.9-6-12l0.6,0.3l0,0
						c-5-0.1-10-0.9-14.4-2.2l0.7-0.2c-3.2,3.3-6.3,6.6-9.3,9.6l-0.3,0.4l-0.5-0.3c-6.5-4-12.9-7.9-18.9-11.5l-0.5-0.3l0.1-0.5
						c1.5-4.4,2.9-8.7,4.2-12.7l0.1,0.7c-3.6-3.6-6.5-7.7-8.6-11.8l0.6,0.3c-4.7,0.1-9.2,0.1-13.4,0.2h-0.5l-0.1-0.5
						c-1.8-7.4-3.6-14.8-5.2-21.5l-0.1-0.5l0.4-0.2c4.2-2.1,8.3-4.1,12-6l-0.3,0.5c0.1-5.1,1-10.1,2.2-14.4l0.1,0.6
						c-3.3-3.3-6.6-6.4-9.6-9.3l-0.3-0.3l0.2-0.3c4-6.6,7.9-12.9,11.6-18.9l0.2-0.3l0.3,0.1c4.5,1.5,8.7,2.9,12.7,4.2l-0.4,0.1
						c3.7-3.6,7.7-6.4,11.8-8.6l-0.2,0.3c-0.1-4.8-0.1-9.3-0.2-13.4v-0.3l0.3-0.1c8.8-2.1,16-3.8,21.5-5.2l0.1-0.1l0.1,0.1
						c1.9,3.9,3.3,6.9,4.3,8.9c0.5,1,0.8,1.7,1.1,2.3C2312.5,792.9,2312.6,793.2,2312.6,793.3z"/>
				</g>
			</g>
		</g>
	</g>
	<g>
		<g>
			<g>
				<g>
					<g>
						<g>
							<g>
								<polygon class="st1" points="1603.7,1194.8 1603.7,1262.8 1703.2,1262.8 1812.9,1262.8 1812.9,1194.8 								"/>
							</g>
						</g>
					</g>
				</g>
			</g>
			<g>
				<g>
					<g>
						<g>
							<g>
								<polygon class="st0" points="1594.9,1175.8 1594.9,1194.8 1820.2,1194.8 1820.2,1175.8 1703.2,1175.8 								"/>
							</g>
						</g>
					</g>
				</g>
			</g>
			<g>
				<g>
					<g>
						<g>
							<g>
								<polygon class="st0" points="1707.6,1262.8 1812.9,1262.8 1812.9,1194.8 1820.2,1194.8 1820.2,1175.8 1703.2,1175.8 
									1703.2,1193.1 								"/>
							</g>
						</g>
					</g>
				</g>
			</g>
			<g>
				<g>
					<g>
						<g>
							<g>
								<rect x="1632.9" y="1205.7" class="st0" width="42.4" height="10.2"/>
							</g>
						</g>
					</g>
				</g>
			</g>
			<g>
				<g>
					<g>
						<g>
							<g>
								<rect x="1627.5" y="1228.8" class="st4" width="54.4" height="21.7"/>
							</g>
						</g>
					</g>
				</g>
			</g>
		</g>
	</g>
	<g>
		<g>
			<g>
				<g>
					<g>
						<g>
							<g>
								<polygon class="st1" points="1635.8,1107.9 1635.8,1175.9 1735.3,1175.9 1845,1175.9 1845,1107.9 								"/>
							</g>
						</g>
					</g>
				</g>
			</g>
			<g>
				<g>
					<g>
						<g>
							<g>
								<polygon class="st0" points="1627.1,1088.9 1627.1,1107.9 1852.4,1107.9 1852.4,1088.9 1735.3,1088.9 								"/>
							</g>
						</g>
					</g>
				</g>
			</g>
			<g>
				<g>
					<g>
						<g>
							<g>
								<polygon class="st0" points="1739.7,1175.9 1845,1175.9 1845,1107.9 1852.4,1107.9 1852.4,1088.9 1735.3,1088.9 
									1735.3,1106.1 								"/>
							</g>
						</g>
					</g>
				</g>
			</g>
			<g>
				<g>
					<g>
						<g>
							<g>
								<rect x="1665.2" y="1118.9" class="st0" width="42.4" height="10.2"/>
							</g>
						</g>
					</g>
				</g>
			</g>
			<g>
				<g>
					<g>
						<g>
							<g>
								<rect x="1659.7" y="1141.8" class="st4" width="54.4" height="21.7"/>
							</g>
						</g>
					</g>
				</g>
			</g>
		</g>
	</g>
</g>
<g id="Background_Simple" class="st5">
	<path class="st6" d="M1213,347.8c0.5,11.4-6.3,22-16,28s-22.7,6.4-32.7,0.9c-11.3-6.2-18.6-18.9-30.9-22.6
		c-9.4-2.8-19.6,0.2-29.3-1.7c-18.1-3.7-28.5-26-22.7-43.6s23.9-29.1,42.3-31s36.8,4.5,52.9,13.7c10.4,5.9,20.2,13.1,27.3,22.7
		S1215,336,1213,347.8"/>
	<path class="st6" d="M1125.2,557c-14.5-10.8-34.4-9.5-52.2-6.6c-17.8,2.8-36.8,6.5-53.4-0.7c-13.9-6.1-23.7-19.2-30.1-33
		c-6.4-13.8-10-28.7-15.5-42.9c-5.6-14.2-13.5-28.1-26.2-36.5s-36.6-10.8-48.3-1.2l0,0c-10,5.3-17.9,14-22.2,24.5
		c-6.8,16.9-12.3,42.2-11.7,56.3c1.9,43.5,14.8,84.7,42.4,118.4c22.9,28,68,40.1,104.1,43.1s73.2-9.1,100.5-32.9
		c12.9-11.2,23.9-25.5,27.6-42.3C1143.8,586.5,1138.9,567.2,1125.2,557z"/>
	<path class="st6" d="M1216.6,532.9c-7.7-6.2-20.5-11.1-33.3-8.8c-0.7,0.1-1.3,0.2-2,0.4h-0.1l0,0c-1.5,0.4-3,0.9-4.4,1.6
		c-5,2.4-10.5,5.6-14,9.8c-4.9,5.9-7.6,13.8-7.6,21.4c0.1,11.2,9,20.6,19.1,25.5c9.8,4.7,21.3,6.1,31.5,2.5s18.7-12.7,20.2-23.4
		C1227.6,551.7,1224.7,539.4,1216.6,532.9z"/>
</g>
<g id="Floor">
	<g>
		<g>
			<path class="st7" d="M2539.7,1262.8c0,0.3-227.8,0.6-508.6,0.6c-281,0-508.7-0.3-508.7-0.6c0-0.3,227.7-0.6,508.7-0.6
				C2311.9,1262.3,2539.7,1262.5,2539.7,1262.8z"/>
		</g>
	</g>
</g>
<g id="Processing">
	<g>
		<g>
			<g>
				<path class="st8" d="M1669.7,336.9c8.2-4.9,16.9-8.6,25.9-11.1l5.4-25.6l43.3-0.6l6.1,25.4c9.1,2.3,17.9,5.7,26.2,10.4
					l21.9-14.3l31.1,30.2l-13.6,22.3c4.9,8.2,8.6,16.9,11.1,26l25.6,5.4l0.6,43.3l-25.5,6.1c-2.3,9.1-5.7,17.9-10.4,26.2l14.3,21.9
					l-30.2,31.1l-22.3-13.6c-8.2,4.9-16.9,8.6-26,11.1l-5.4,25.6l-43.3,0.6l-6.1-25.5c-9.1-2.3-17.9-5.7-26.2-10.4l-21.9,14.3
					l-31.1-30.2l13.6-22.3c-4.9-8.2-8.6-16.9-11.1-26l-25.6-5.4l-0.6-43.3l25.5-6.1c2.3-9.1,5.7-17.9,10.4-26.2l-14.3-21.9
					l30.2-31.1L1669.7,336.9L1669.7,336.9z"/>
			</g>
		</g>
		<g>
			<g>
				<g>
					<path class="st4" d="M1750.2,415.7c-0.2,0,0.1-3.3-1.4-9.1c-0.7-2.9-2-6.3-4.2-9.9c-2.2-3.6-5.3-7.3-9.5-10.5
						c-4.2-3.1-9.5-5.8-15.6-6.9c-6.1-1-12.9-0.8-19.4,1.7c-3.3,1.1-6.4,2.9-9.3,5c-1.5,1-2.8,2.3-4.2,3.6c-1.3,1.4-2.6,2.7-3.6,4.3
						c-4.5,6.1-7.1,13.8-7.2,21.8c0.1,8,2.6,15.8,7.2,21.9c1,1.5,2.4,2.9,3.6,4.3c1.4,1.3,2.7,2.5,4.2,3.6c2.9,2.2,6.1,3.9,9.3,5
						c6.5,2.5,13.4,2.6,19.4,1.7c6.1-1,11.4-3.8,15.6-6.9c4.2-3.2,7.3-6.9,9.5-10.5s3.5-7,4.2-9.9
						C1750.2,419,1749.9,415.6,1750.2,415.7c0,0,0,0.2,0,0.6c0,0.5,0,1,0,1.8s-0.1,1.7-0.2,2.9c-0.1,1.1-0.3,2.4-0.7,3.9
						c-0.6,2.9-1.9,6.4-4,10.1c-2.2,3.7-5.3,7.5-9.5,10.8c-4.2,3.3-9.7,6.1-15.9,7.2c-6.2,1.1-13.2,0.9-20-1.6
						c-3.4-1.2-6.6-2.9-9.6-5.2c-1.5-1-2.9-2.4-4.3-3.7c-1.3-1.4-2.6-2.8-3.8-4.4c-4.7-6.2-7.4-14.3-7.4-22.5
						c0.1-8.3,2.7-16.3,7.4-22.5c1.1-1.6,2.4-3,3.8-4.4c1.4-1.3,2.8-2.6,4.3-3.7c3-2.2,6.3-4,9.6-5.2c6.7-2.5,13.7-2.7,20-1.6
						c6.3,1.1,11.6,3.9,15.9,7.2c4.2,3.3,7.4,7.1,9.5,10.8c2.2,3.7,3.5,7.2,4,10.1c0.4,1.5,0.6,2.8,0.7,3.9c0.2,1.1,0.2,2.1,0.2,2.9
						c0,0.8,0,1.3,0,1.8C1750.2,415.5,1750.2,415.7,1750.2,415.7z"/>
				</g>
			</g>
			<g>
				<g>
					<path class="st4" d="M1738.3,443c0.2-0.2,8.4,7.6,18.2,17.4c9.9,9.9,17.7,18,17.4,18.2c-0.2,0.2-8.4-7.6-18.2-17.4
						C1745.9,451.4,1738.1,443.2,1738.3,443z"/>
				</g>
			</g>
		</g>
	</g>
	<g>
		<g>
			<g>
				<path class="st8" d="M1965.8,500.7c10.5-6.3,21.7-11.1,33.3-14.3l7-32.9l55.6-0.8l7.9,32.7c11.6,2.9,23,7.4,33.7,13.4l28.1-18.3
					l39.9,38.8l-17.5,28.7c6.3,10.5,11.1,21.7,14.3,33.3l32.9,7l0.8,55.6l-32.7,7.9c-2.9,11.6-7.4,23-13.4,33.7l18.3,28.1
					l-38.8,39.9l-28.7-17.5c-10.5,6.3-21.7,11.1-33.3,14.3l-7,32.9l-55.6,0.8l-7.9-32.7c-11.6-2.9-23-7.4-33.7-13.4L1941,756
					l-39.9-38.8l17.5-28.7c-6.3-10.5-11.1-21.7-14.3-33.3l-32.9-7l-0.8-55.6l32.7-7.9c2.9-11.6,7.4-23,13.4-33.7l-18.3-28.1
					l38.8-39.9L1965.8,500.7L1965.8,500.7z"/>
			</g>
		</g>
		<g>
			<g>
				<g>
					<path class="st4" d="M2017.4,676.2c0,0,0.2,0,0.7,0s1.1,0,1.9,0c1.7,0,4.2-0.1,7.3-0.1c6.4-0.1,15.6-0.1,27.3-0.2l-0.3,0.3
						c-0.1-4.7-0.2-10-0.3-15.6v-0.3l0.3-0.1c7.8-3.6,15.9-8.8,23.3-15.9c3.7-3.6,7-7.8,9.7-12.5c2.9-4.7,4.5-10.2,5.4-15.9
						c1.3-11.5-1.3-24.3-8.4-34.9c-7-10.7-17.8-19.4-30.4-24.2c-9.5-3.6-19.7-4-29.2-2c-9.5,1.7-18.3,6-25.3,11.7
						c-7.2,5.7-12.2,13.3-15.3,21.2c-0.7,2-1.5,3.9-2,5.9c-0.5,2-1,4-1.5,6c-0.7,4-1.1,7.9-1,11.8s0.6,7.6,1.4,11.1
						c0.8,3.6,2.1,6.8,3.6,9.9c3,6.1,6.9,11.1,11,15.2c8.2,8.1,16.6,12.9,22.8,15.5l0.1,0.1v0.1c-0.3,4.2-0.4,7.5-0.6,9.7
						c-0.1,1-0.1,1.9-0.1,2.5C2017.4,675.9,2017.4,676.2,2017.4,676.2s0-0.3,0-0.8c0-0.6,0.1-1.4,0.1-2.4c0.1-2.3,0.2-5.6,0.3-9.9
						l0.1,0.2c-6.3-2.6-14.7-7.2-23.1-15.5c-4.2-4.1-8.2-9.2-11.2-15.4c-1.5-3.1-2.8-6.5-3.7-10c-0.8-3.6-1.4-7.4-1.5-11.3
						c-0.1-3.9,0.3-7.9,1-12c0.5-2,1-4,1.5-6.1c0.5-2,1.4-4,2.1-6.1c3.2-8,8.3-15.7,15.6-21.6c7.2-5.8,16.2-10.2,25.8-12
						c9.6-2,20.2-1.6,29.8,2.1c12.9,4.9,23.9,13.9,31,24.7c3.6,5.4,6.1,11.4,7.4,17.5c0.5,1.5,0.6,3.1,0.8,4.6
						c0.2,1.5,0.5,3.1,0.5,4.6c0.1,1.5,0.1,3.1,0.1,4.5c-0.1,1.5-0.3,3-0.4,4.5c-0.8,5.8-2.6,11.5-5.6,16.3
						c-2.9,4.8-6.3,9.1-10,12.7c-7.5,7.2-15.7,12.5-23.7,16l0.2-0.3c0.1,5.6,0.2,10.9,0.3,15.6v0.3h-0.3c-11.8-0.1-21-0.1-27.5-0.2
						c-3.1-0.1-5.5-0.1-7.2-0.1c-0.8,0-1.4,0-1.8,0C2017.6,676.2,2017.4,676.2,2017.4,676.2z"/>
				</g>
			</g>
			<g>
				<g>
					<path class="st4" d="M2055,686.5c0,0.3-8.6,0.6-19.1,0.6c-10.5,0-19.1-0.3-19.1-0.6c0-0.3,8.6-0.6,19.1-0.6
						C2046.5,685.9,2055,686.2,2055,686.5z"/>
				</g>
			</g>
			<g>
				<g>
					<path class="st4" d="M2042.7,700.9c0.1,0.3-3,0.9-6.8,0.8c-3.8-0.1-6.8-0.9-6.7-1.2c0.1-0.3,3.1-0.1,6.8,0.1
						C2039.6,700.7,2042.6,700.6,2042.7,700.9z"/>
				</g>
			</g>
			<g>
				<g>
					<path class="st4" d="M2025.2,676.2c0,0,0-0.2-0.1-0.6c0-0.5,0-1.1,0-1.9c0-1.7,0.1-4.1,0.1-7.1c0.1-6.3,0.3-15.1,0.6-26.1
						c0.1-5.5,0.3-11.6,0.5-18c0.1-1.6-0.1-3.2-0.6-4.7c-0.5-1.5-1.9-2.5-3.3-2.2c-1.5,0.3-2.5,1.8-3,3.3c-0.5,1.6-0.1,3.3,0.6,4.9
						c1.5,3.1,4.9,5.2,8.5,5.6c3.6,0.6,7.4-1.1,9.9-4c2.6-2.9,4-6.8,4.2-10.7c0.1-1.9-0.1-4-1.2-5.6c-0.9-1.6-3-2.6-4.7-2
						c-1.7,0.6-2.5,2.8-2.2,4.6c0.3,1.9,1.4,3.6,2.6,5.2c2.4,3.1,5.6,5.8,9.2,7.1c1.8,0.6,3.7,0.9,5.5,0.6c1.8-0.3,3.6-1,5-2.1
						c1.5-1,2.6-2.5,3.1-4.2c0.6-1.7,0.5-3.5-0.3-4.9c-0.8-1.5-2.2-2.6-3.8-2.6c-1.6,0-3.1,1-4,2.4c-1.8,2.7-1.8,6.3-2.3,9.4
						c-0.7,6.4-1.2,12.5-1.6,18c-0.8,10.9-1.3,19.8-1.7,26c-0.2,3-0.3,5.4-0.5,7.1c-0.1,0.8-0.1,1.4-0.1,1.8
						c-0.1,0.4-0.1,0.6-0.1,0.6s0-0.2,0-0.6c0-0.5,0-1.1,0-1.9c0.1-1.7,0.1-4.1,0.3-7.1c0.3-6.1,0.7-15,1.4-26
						c0.3-5.5,0.8-11.5,1.5-18c0.2-1.6,0.3-3.3,0.6-4.9c0.3-1.7,0.8-3.4,1.8-4.9c1-1.5,2.7-2.7,4.7-2.8c2.1-0.1,3.9,1.4,4.7,3.1
						c0.9,1.7,1,3.9,0.3,5.8c-0.6,1.9-1.9,3.6-3.6,4.7s-3.5,2-5.5,2.3c-2,0.3-4.1,0-6.1-0.7c-3.9-1.4-7.2-4.2-9.7-7.4
						c-1.3-1.6-2.6-3.5-2.9-5.7c-0.3-2.2,0.6-4.9,3-5.8c2.4-0.8,4.9,0.6,6.1,2.4c1.2,1.9,1.4,4.2,1.3,6.3c-0.1,4.2-1.7,8.4-4.5,11.4
						c-2.7,3.1-6.9,4.9-10.9,4.3c-3.9-0.6-7.7-2.8-9.3-6.3c-0.8-1.7-1.3-3.8-0.7-5.6c0.6-1.7,1.7-3.6,3.8-4c1-0.2,2,0.1,2.8,0.6
						c0.8,0.6,1.3,1.4,1.7,2.2c0.6,1.7,0.7,3.4,0.7,5.1c-0.2,6.5-0.4,12.5-0.6,18c-0.4,10.9-0.8,19.8-1,26.1c-0.1,3-0.3,5.4-0.3,7.1
						c-0.1,0.8-0.1,1.4-0.1,1.8C2025.2,675.9,2025.2,676.2,2025.2,676.2z"/>
				</g>
			</g>
			<g>
				<g>
					<path class="st4" d="M2051.7,693.7c0,0.3-7,0.6-15.5,0.6c-8.6,0-15.5-0.3-15.5-0.6c0-0.3,7-0.6,15.5-0.6
						C2044.8,693.1,2051.7,693.4,2051.7,693.7z"/>
				</g>
			</g>
		</g>
	</g>
	<g>
		<g>
			<g>
				<g>
					<path class="st8" d="M2330.9,589.5c6.8-4.2,14-7.4,21.4-9.6l4.2-21.4l36.1-1l5.4,21.1c7.6,1.7,15,4.5,22,8.4l18.1-12.2
						l26.2,24.7l-11.1,18.8c4.2,6.8,7.4,14,9.6,21.4l21.4,4.2l1,36.1l-21.1,5.4c-1.7,7.6-4.5,15-8.4,22l12.2,18.1l-24.7,26.2
						l-18.8-11.1c-6.8,4.2-14,7.4-21.4,9.6l-4.2,21.4l-36.1,1l-5.4-21.1c-7.6-1.7-15-4.5-22-8.4l-18.1,12.2l-26.2-24.7l11.1-18.8
						c-4.2-6.8-7.4-14-9.6-21.4l-21.4-4.2l-1-36.1l21.1-5.4c1.7-7.6,4.5-15,8.4-22l-12.2-18.1l24.7-26.2L2330.9,589.5L2330.9,589.5z
						"/>
				</g>
			</g>
		</g>
		<g>
			<g>
				<g>
					<path class="st4" d="M2426,703.8c0,0.1-0.6,0.1-1.7,0.1c-1.3,0-2.9,0.1-5,0.1c-4.5,0.1-10.7,0.1-18.4,0.2
						c-15.7,0.1-37.2,0.1-60.8,0.1c-1.5,0-3,0-4.3,0h-0.6v-0.6c0.1-22.7,0.1-43.1,0.2-57.9c0.1-7.3,0.1-13.2,0.2-17.4
						c0.1-1.9,0.1-3.6,0.1-4.7c0.1-1,0.1-1.7,0.1-1.7c0.1,0,0.1,0.6,0.1,1.7c0,1.2,0.1,2.8,0.1,4.7c0.1,4.2,0.1,10.2,0.2,17.4
						c0.1,14.8,0.1,35.2,0.2,57.9l-0.6-0.6c1.4,0,2.9,0,4.3,0c23.7,0.1,45.2,0.1,60.8,0.1c7.7,0.1,14,0.1,18.4,0.2
						c2.1,0.1,3.8,0.1,5,0.1C2425.4,703.7,2426,703.8,2426,703.8z"/>
				</g>
			</g>
			<g>
				<g>
					<path class="st4" d="M2415.9,641.9c0.1,0.1-0.9,1-2.7,2.6c-1.9,1.7-4.5,4-7.7,6.7c-6.5,5.6-15.5,13.3-25.5,21.8l-1.5,1.3
						l-0.4,0.3l-0.3-0.3c-4-3.7-7.8-7.2-11.3-10.5h0.7c-6.7,5.5-12.4,10.2-16.6,13.7c-1.9,1.5-3.6,2.9-4.8,3.8
						c-1.1,0.9-1.7,1.3-1.8,1.3c-0.1-0.1,0.5-0.6,1.6-1.5c1.2-1,2.8-2.4,4.6-4.1c4.2-3.6,9.8-8.4,16.4-14.1l0.3-0.3l0.3,0.3
						c3.6,3.3,7.4,6.8,11.3,10.4h-0.8l1.5-1.3c10-8.4,19.1-16.1,25.7-21.5c3.2-2.6,5.8-4.8,7.9-6.4
						C2414.8,642.7,2415.9,641.8,2415.9,641.9z"/>
				</g>
			</g>
			<g>
				<g>
					<path class="st4" d="M2415.9,660.8c-0.1,0-0.3-2.2-0.4-5.6c-0.1-3.5-0.1-8.4-0.2-13.7l0.6,0.6c-0.3,0-0.6,0-1,0
						c-5.6,0-10.7-0.1-14.4-0.1s-6-0.3-6-0.4s2.3-0.3,6-0.4c3.7-0.1,8.8-0.1,14.4-0.1c0.3,0,0.7,0,1,0h0.6v0.6
						c0,5.4-0.1,10.2-0.2,13.7C2416.3,658.7,2416.1,660.8,2415.9,660.8z"/>
				</g>
			</g>
		</g>
	</g>
	<g>
		<g>
			<g>
				<path class="st7" d="M1832.6,706.9c-0.3,0.1-1.5-2.6-2.6-6.1s-1.7-6.4-1.5-6.5s1.5,2.6,2.6,6.1S1832.9,706.9,1832.6,706.9z"/>
			</g>
		</g>
		<g>
			<g>
				<path class="st7" d="M1856,754.1c-0.3,0.1-3.8-4.6-7.4-10.9c-3.6-6.3-6-11.8-5.7-11.9c0.3-0.1,3.1,5.1,6.8,11.3
					C1853.2,748.9,1856.3,754,1856,754.1z"/>
			</g>
		</g>
		<g>
			<g>
				<path class="st7" d="M1890.4,794c-0.2,0.2-4.9-3.5-10-8.7c-5.2-5.2-8.8-9.9-8.6-10.1c0.3-0.2,4.2,4.1,9.3,9.3
					C1886.3,789.7,1890.6,793.7,1890.4,794z"/>
			</g>
		</g>
		<g>
			<g>
				<path class="st7" d="M1934,823.5c-0.1,0.3-5.6-2.1-11.9-5.8s-11.1-7.3-10.9-7.5c0.2-0.3,5.2,2.9,11.5,6.5
					C1928.9,820.5,1934.2,823.3,1934,823.5z"/>
			</g>
		</g>
		<g>
			<g>
				<path class="st7" d="M1984.1,839.7c-0.1,0.3-5.9-0.6-13.1-2.1c-7-2-12.7-3.8-12.6-4.1c0.1-0.3,5.8,1,12.8,3
					C1978.4,837.9,1984.1,839.3,1984.1,839.7z"/>
			</g>
		</g>
		<g>
			<g>
				<path class="st7" d="M2036.7,840.9c0.1,0.3-5.8,1.3-13.2,1.5c-7.3,0.3-13.2-0.1-13.2-0.4s5.9-0.4,13.2-0.8
					C2030.8,840.9,2036.7,840.5,2036.7,840.9z"/>
			</g>
		</g>
		<g>
			<g>
				<path class="st7" d="M2088.2,829.5c0.1,0.3-5.4,2.5-12.5,4.5s-12.9,3-12.9,2.6c-0.1-0.3,5.6-1.8,12.7-3.8
					C2082.4,830.8,2088.1,829.2,2088.2,829.5z"/>
			</g>
		</g>
		<g>
			<g>
				<path class="st7" d="M2135.9,807.1c0.1,0.3-4.7,3.6-11.1,7.1c-6.5,3.5-12,5.7-12,5.4c-0.1-0.3,5.2-3,11.6-6.4
					C2130.6,809.8,2135.8,806.8,2135.9,807.1z"/>
			</g>
		</g>
		<g>
			<g>
				<path class="st7" d="M2176.9,774c0.2,0.2-3.6,4.8-9,9.7c-5.4,5-10.2,8.4-10.4,8.2c-0.2-0.3,4.2-4.1,9.6-9.1
					C2172.5,777.9,2176.6,773.8,2176.9,774z"/>
			</g>
		</g>
		<g>
			<g>
				<path class="st7" d="M2206,730.2c0.3,0.1-1.9,5.6-5.4,12c-3.5,6.4-7,11.2-7.3,11c-0.3-0.2,2.9-5.2,6.3-11.6
					S2205.7,730,2206,730.2z"/>
			</g>
		</g>
		<g>
			<g>
				<path class="st7" d="M2224.1,680.6c0.3,0.1-1.3,5.8-3.6,12.7c-2.3,7-4.4,12.5-4.7,12.4c-0.3-0.1,1.3-5.8,3.6-12.7
					C2221.7,686,2223.8,680.5,2224.1,680.6z"/>
			</g>
		</g>
		<g>
			<g>
				<path class="st7" d="M2240.9,630.6c0.3,0.1-1.7,5.7-4,12.5c-2.4,6.9-4.6,12.4-4.9,12.3c-0.3-0.1,1.4-5.8,3.8-12.7
					c1.2-3.5,2.4-6.5,3.4-8.7C2240.1,631.9,2240.8,630.6,2240.9,630.6z"/>
			</g>
		</g>
		<g>
			<g>
				<path class="st7" d="M2264.4,583.3c0.3,0.2-2.7,5.3-6.3,11.6c-3.6,6.3-6.3,11.6-6.6,11.4c-0.3-0.1,2-5.6,5.6-12
					S2264.1,583.2,2264.4,583.3z"/>
			</g>
		</g>
		<g>
			<g>
				<path class="st7" d="M2299.5,544.4c0.2,0.3-4.5,3.9-9.7,8.8c-5.4,4.9-9.4,9.3-9.6,9c-0.2-0.2,3.5-4.9,8.8-9.9
					C2294.4,547.4,2299.4,544.2,2299.5,544.4z"/>
			</g>
		</g>
		<g>
			<g>
				<path class="st7" d="M2347.1,522.1c0.1,0.3-5.6,2-12.4,4.5c-6.8,2.4-12.3,4.7-12.4,4.5c-0.1-0.3,5.2-3.1,12-5.5
					C2341.2,523.1,2347,521.8,2347.1,522.1z"/>
			</g>
		</g>
		<g>
			<g>
				<path class="st7" d="M2399.4,516.3c0,0.3-5.9,0.2-13.2,0.4s-13.2,0.8-13.2,0.4c-0.1-0.3,5.8-1.3,13.2-1.5
					C2393.5,515.3,2399.4,516,2399.4,516.3z"/>
			</g>
		</g>
		<g>
			<g>
				<path class="st7" d="M2450.2,529.3c-0.1,0.3-5.6-1.9-12.5-4.3c-6.8-2.4-12.5-4.2-12.4-4.5c0.1-0.3,5.9,1,12.8,3.4
					C2445.1,526.3,2450.4,529,2450.2,529.3z"/>
			</g>
		</g>
		<g>
			<g>
				<path class="st7" d="M2495.2,556.8c-0.2,0.3-4.9-3.4-10.8-7.6c-5.9-4.2-10.9-7.4-10.7-7.7c0.1-0.3,5.4,2.5,11.3,6.8
					C2491,552.4,2495.4,556.5,2495.2,556.8z"/>
			</g>
		</g>
		<g>
			<g>
				<path class="st7" d="M2521.7,586c-0.3,0.1-2.1-2.2-4.2-5.1c-2.2-2.9-3.8-5.4-3.6-5.6c0.2-0.2,2.4,1.9,4.5,4.9
					C2520.5,583.2,2521.9,585.9,2521.7,586z"/>
			</g>
		</g>
	</g>
	<g>
		<g>
			<path class="st9" d="M1938.4,809.8"/>
		</g>
	</g>
	<g>
		<g>
			<path class="st7" d="M1551.4,396.9c0,0,0.1-0.7,0.4-2c0.3-1.3,0.8-3.3,1.3-5.8c1.3-5.1,3.5-12.5,7.3-21.8
				c4-9.1,9.7-20.1,18.2-31.5c8.4-11.4,19.6-23.4,33.6-34.5c14.2-10.9,31.3-21,51.3-27.8c10-3.3,20.6-6,31.7-7.7
				c11.1-1.6,22.7-2.3,34.5-2s23.9,1.7,36,4.6c12,2.8,24.2,6.9,35.7,12.6c11.6,5.7,22.5,13.2,32.7,21.7
				c10.2,8.6,19.4,18.7,27.1,29.9c7.8,11.3,13.9,23.5,18.2,36.1c4.3,12.6,7,25.6,8.3,38.4c0.2,3.2,0.6,6.4,0.8,9.6
				c0.1,3.2,0.1,6.3,0.2,9.5c0.1,3.1-0.1,6.3-0.2,9.5c-0.3,3.1-0.5,6.3-0.9,9.3c-1.6,12.3-4.9,24.1-9.5,35.1
				c-4.6,10.9-10.1,21.1-15.7,30.8c-5.6,9.7-11.1,19-16.4,28.1c-10.6,18.2-16.2,37.2-19.2,54.7c-1.6,8.8-2.6,17.2-3.1,25.3
				c-0.6,8-0.8,15.6-0.9,22.7c0,14.2,0.1,26.5,1.7,36.3c1.5,9.9,3.5,17.4,5,22.4c0.8,2.5,1.5,4.4,2,5.6c0.2,0.6,0.5,1.1,0.6,1.4
				c0.1,0.3,0.2,0.5,0.2,0.5s-1.3-2.4-3-7.4s-3.8-12.5-5.3-22.4c-1.6-9.9-1.9-22.1-1.9-36.3c0-7.1,0.2-14.7,0.8-22.8
				c0.6-8,1.5-16.5,3.1-25.3c3.1-17.5,8.6-36.8,19.2-55c5.3-9.1,10.8-18.4,16.4-28.1c5.6-9.7,11.1-19.8,15.6-30.7
				c4.5-10.9,7.8-22.6,9.4-34.8c0.4-3.1,0.6-6.1,0.9-9.3c0.1-3.1,0.3-6.3,0.2-9.4c-0.1-3.1-0.1-6.3-0.2-9.5
				c-0.1-3.2-0.5-6.3-0.8-9.5c-1.3-12.7-3.9-25.6-8.2-38.1c-4.3-12.5-10.3-24.6-18-35.8c-7.7-11.2-16.8-21.2-26.9-29.7
				c-10.1-8.6-21-15.9-32.4-21.6c-11.5-5.7-23.5-9.7-35.4-12.5c-12-2.8-24-4.2-35.8-4.6c-11.8-0.3-23.3,0.3-34.3,1.9
				c-11.1,1.7-21.6,4.2-31.5,7.6c-19.9,6.7-36.9,16.7-51.1,27.5c-14.1,11-25.2,22.8-33.6,34.2c-8.5,11.3-14.3,22.2-18.4,31.3
				c-3.9,9.2-6.2,16.6-7.5,21.7c-0.6,2.5-1.1,4.5-1.5,5.8C1551.6,396.3,1551.4,396.9,1551.4,396.9z"/>
		</g>
	</g>
</g>
<g id="Character">
	<g>
		<g>
			<g>
				<g>
					<g>
						<path class="st10" d="M2088.2,1207.9l33.1,11.6l-0.3,31.8c-15.9,4.5-18,12.5-18,12.5l33.1-0.8l28.8-58.6l-22.8-14.9
							l-42.6-18.7"/>
					</g>
					<g class="st11">
						<polygon class="st4" points="2164.7,1204.5 2135.9,1263 2102.8,1263.8 2106.4,1258.7 2133.3,1256.6 2159.9,1201.3 						"/>
					</g>
				</g>
				<g>
					<g>
						<path class="st7" d="M2120.7,1236.8c0.3,0.3,2.2-0.8,4.7-0.8c2.6-0.1,4.5,1,4.7,0.7c0.3-0.3-1.6-2.2-4.7-2.2
							C2122.3,1234.6,2120.5,1236.5,2120.7,1236.8z"/>
					</g>
				</g>
				<g>
					<g>
						<path class="st7" d="M2121.1,1228.9c0.3,0.2,1.7-1.7,4.4-2.4c2.6-0.6,4.7,0.6,4.9,0.2c0.1-0.1-0.3-0.7-1.3-1.2
							c-0.9-0.5-2.4-0.8-4-0.5c-1.6,0.3-2.9,1.3-3.5,2.2C2121.1,1228.1,2120.9,1228.8,2121.1,1228.9z"/>
					</g>
				</g>
				<g>
					<g>
						<path class="st7" d="M2120.7,1218.8c0.3,0.2,1.5-1.7,3.8-2.6c2.3-0.9,4.4-0.1,4.5-0.5c0.1-0.1-0.3-0.6-1.3-1
							c-0.9-0.3-2.4-0.4-3.8,0.1c-1.5,0.6-2.4,1.6-2.9,2.4C2120.5,1218.1,2120.5,1218.7,2120.7,1218.8z"/>
					</g>
				</g>
				<g>
					<g>
						<path class="st7" d="M2118.2,1218.7c0.4-0.1,0.1-2.2,1.2-4.5c0.9-2.3,2.6-3.6,2.4-3.9c-0.1-0.3-2.6,0.6-3.8,3.3
							C2116.8,1216.5,2117.9,1218.9,2118.2,1218.7z"/>
					</g>
				</g>
				<g>
					<g>
						<path class="st7" d="M2114.3,1215c0.2,0,0.5-1.7,0.8-4.5c0.1-1.6,0.3-3.2,0.4-4.9c0-0.9,0.3-1.8,0-3.1
							c-0.1-0.6-0.6-1.3-1.2-1.7c-0.6-0.4-1.7-0.3-2.2,0.1c-1.1,0.9-1.5,1.9-1.9,2.9c-0.3,1-0.6,2-0.6,3c-0.1,1.9,0.3,3.7,0.9,5
							c1.2,2.7,2.9,3.7,2.9,3.6c0.2-0.2-1.1-1.4-1.9-3.9c-0.4-1.3-0.7-2.9-0.5-4.5c0.1-0.8,0.3-1.7,0.6-2.6c0.3-0.8,0.8-1.8,1.4-2.2
							c0.3-0.2,0.5-0.2,0.7-0.1c0.2,0.1,0.5,0.4,0.6,0.8c0.2,0.7,0.1,1.7,0.1,2.6c-0.1,1.7-0.1,3.3-0.1,4.9
							C2114.1,1213.3,2114.1,1215,2114.3,1215z"/>
					</g>
				</g>
				<g>
					<g>
						<path class="st7" d="M2113.8,1216.4c0.1-0.1-0.8-1.5-3.4-2.4c-2.4-0.8-6.8-0.6-9.4,3.3c-0.1,0.3-0.1,0.9,0.1,1.3
							c0.3,0.4,0.6,0.6,0.8,0.7c0.6,0.3,1.1,0.3,1.5,0.3c0.9,0.1,1.8,0.1,2.7,0c1.7-0.1,3.2-0.6,4.4-1.1c2.4-1,3.5-2.2,3.3-2.4
							c-0.1-0.2-1.4,0.7-3.7,1.4c-1.1,0.3-2.6,0.7-4.1,0.8c-0.8,0.1-1.6,0-2.4-0.1c-0.4-0.1-0.8-0.1-1.1-0.2
							c-0.3-0.1-0.2-0.1-0.2-0.2c0-0.1,0.3-0.5,0.6-0.8s0.6-0.6,1-0.8c0.7-0.5,1.4-0.8,2.2-1c1.5-0.5,2.9-0.4,4-0.2
							C2112.5,1215.6,2113.6,1216.6,2113.8,1216.4z"/>
					</g>
				</g>
				<g class="st11">
					<path class="st4" d="M2138.3,1204.1c0.1,2.2,1.8,3.9,4,3.8c2.2-0.1,3.9-1.8,3.8-4c-0.1-2.2-1.8-3.9-4-3.8
						C2140,1200.1,2138.3,1201.9,2138.3,1204.1z"/>
				</g>
			</g>
		</g>
		<g>
			<g>
				<g>
					<path class="st10" d="M1918.3,1194.6l0.4,43.4c0,0-43.9,15-44.6,23l84.1,2.2l2.1-67.6L1918.3,1194.6z"/>
				</g>
				<g class="st11">
					<g>
						<path class="st4" d="M1944.9,1235c1.6,0.5,2.7,2.4,2.3,4s-2.3,2.7-3.9,2.3c-1.6-0.5-3-2.6-2.4-4.2c0.6-1.6,2.9-2.8,4.3-1.9"/>
					</g>
				</g>
				<g class="st11">
					<path class="st4" d="M1958.2,1263.1l-0.1-6.8l-80.6,0.5c0,0-3.8,1.5-3.4,4.2L1958.2,1263.1z"/>
				</g>
				<g>
					<g>
						<path class="st7" d="M1917.4,1237.5c0,0.4,2,0.6,4,2c2,1.3,3,3.1,3.4,3c0.3-0.1-0.1-2.5-2.6-4.2
							C1919.8,1236.7,1917.3,1237.1,1917.4,1237.5z"/>
					</g>
				</g>
				<g>
					<g>
						<path class="st7" d="M1908.5,1240.9c-0.1,0.4,1.7,1.1,3,2.9c1.4,1.7,1.7,3.6,2.1,3.6c0.4,0.1,0.7-2.3-1-4.5
							C1910.9,1240.8,1908.5,1240.6,1908.5,1240.9z"/>
					</g>
				</g>
				<g>
					<g>
						<path class="st7" d="M1903.2,1251.3c0.3,0.1,1-1.9,0-4.2c-1-2.3-2.9-3.2-3.1-2.9c-0.2,0.3,1,1.6,1.7,3.5
							C1902.8,1249.5,1902.8,1251.3,1903.2,1251.3z"/>
					</g>
				</g>
				<g>
					<g>
						<path class="st7" d="M1918.4,1227.6c0.1,0.3,2.1-0.1,4.4,0.1c2.3,0.1,4.1,1,4.3,0.6c0.3-0.3-1.5-1.9-4.2-2.1
							C1920.2,1226,1918.2,1227.3,1918.4,1227.6z"/>
					</g>
				</g>
			</g>
			<g class="st12">
				<polygon points="1918.4,1203.2 1918.5,1210.9 1959.8,1211.6 1960.1,1204.6 				"/>
			</g>
			<g>
				<g>
					<path class="st7" d="M1918.5,1218.8c0,0.1,1.6,0.5,4.2,0.1c1.3-0.2,2.9-0.6,4.5-1.3c0.8-0.3,1.6-0.8,2.4-1.3
						c0.4-0.2,0.8-0.5,1.3-1c0.5-0.4,0.8-1.5,0.3-2.2c-0.4-0.6-1.2-1-1.8-1c-0.6-0.1-1.1,0.1-1.6,0.2c-1,0.2-1.8,0.5-2.6,0.8
						c-1.6,0.7-2.9,1.6-4,2.4c-2,1.7-2.7,3.3-2.6,3.3c0.2,0.1,1.2-1.1,3.2-2.6c1-0.7,2.3-1.5,3.8-2c0.8-0.3,1.6-0.5,2.4-0.7
						c0.9-0.2,1.7-0.2,1.9,0.2c0.1,0.1,0.1,0.2-0.1,0.5c-0.2,0.2-0.6,0.5-1,0.7c-0.8,0.5-1.5,0.8-2.2,1.2c-1.5,0.7-2.9,1.2-4.1,1.5
						C1920.1,1218.6,1918.5,1218.6,1918.5,1218.8z"/>
				</g>
			</g>
			<g>
				<g>
					<path class="st7" d="M1919,1219.5c0.1,0.1,1-1.4,1.2-4c0.1-1.3,0-2.9-0.5-4.6c-0.2-0.8-0.6-1.7-1-2.6c-0.5-0.8-1-1.9-2.6-2.2
						c-0.8-0.1-1.5,0.6-1.8,1.1c-0.3,0.6-0.3,1-0.5,1.5c-0.2,1-0.2,1.9-0.1,2.9c0.2,1.8,0.9,3.3,1.7,4.4c1.6,2.2,3.3,2.8,3.3,2.6
						c0.1-0.2-1.3-1-2.5-3.1c-0.6-1-1.1-2.4-1.3-4c-0.1-0.8,0-1.6,0.1-2.4c0.1-0.9,0.5-1.6,0.8-1.5c0.4,0,1.1,0.7,1.5,1.4
						c0.4,0.8,0.8,1.5,1,2.3c0.5,1.5,0.7,3,0.7,4.2C1919.3,1217.9,1918.8,1219.4,1919,1219.5z"/>
				</g>
			</g>
		</g>
		<g>
			<g>
				<g>
					<polygon class="st7" points="2113.8,1172.5 2017,1136.5 2118.8,1122.2 2123.9,1072.6 1933.5,1089.2 1906.7,1127.9 
						1913.7,1176.5 2099.2,1223.6 					"/>
				</g>
				<g>
					<path class="st7" d="M1908.5,1207.2l-9.3-177.3c0.5-17.3,9.9-33.1,24.9-41.7l0,0c12.4-7.2,27.2-8.6,40.7-4.2l123.5,41.2
						l67.8,17.4c0,0,11.6,28.5,4.7,50.6c-6.6,21.7-30.4,36.1-51.3,29.9c-26-7.7-145.1-58.9-145.1-58.9v144.3L1908.5,1207.2z"/>
				</g>
				<g>
					<g>
						<path class="st13" d="M2107.8,1123.7c0,0-0.3-0.1-0.8-0.2c-0.6-0.2-1.3-0.5-2.1-0.8c-1.9-0.8-4.7-1.9-8.1-3.3
							c-7.1-2.9-17.2-7-29.7-12.1c-25.1-10.4-59.7-24.6-97.9-40.4c-1.7-0.7-3.4-1.4-5-2.1l0.8-0.6c-0.1,40.1-0.1,76.2-0.2,102.3
							c-0.1,12.9-0.1,23.5-0.2,30.8c-0.1,3.6-0.1,6.4-0.1,8.4c0,0.9-0.1,1.6-0.1,2.2c0,0.5-0.1,0.8-0.1,0.8s-0.1-0.3-0.1-0.8
							c0-0.6,0-1.3-0.1-2.2c0-1.9-0.1-4.8-0.1-8.4c-0.1-7.3-0.1-17.8-0.2-30.8c-0.1-26.1-0.1-62.2-0.2-102.3v-0.8l0.8,0.3
							c1.6,0.6,3.3,1.3,5,2.1c38.2,15.9,72.7,30.3,97.7,40.7c12.5,5.2,22.6,9.5,29.6,12.5c3.4,1.5,6.1,2.6,8,3.4
							c0.8,0.4,1.5,0.7,2.1,0.9C2107.6,1123.6,2107.9,1123.7,2107.8,1123.7z"/>
					</g>
				</g>
				<g>
					<g>
						<path class="st13" d="M1993.8,1123.9c0.1-0.3,6.1,0.8,12.7,4.5c6.6,3.6,10.7,8.2,10.5,8.4c-0.2,0.3-4.7-3.8-11.1-7.4
							C1999.5,1125.8,1993.6,1124.2,1993.8,1123.9z"/>
					</g>
				</g>
			</g>
			<g>
				<g>
					<path class="st13" d="M1953.8,1040.3c0.3-0.1,3.5,5.1,6.5,12c3.1,6.9,4.9,12.7,4.6,12.9s-2.6-5.6-5.6-12.4
						C1956.2,1046,1953.5,1040.5,1953.8,1040.3z"/>
				</g>
			</g>
		</g>
		<polygon class="st14" points="1954.1,962.2 1932.2,958.2 1909.2,981.6 1913.5,996.5 1940.3,986.6 		"/>
		<g>
			<g>
				<path class="st15" d="M1873.3,702.4l-5.9,0.5c0,0-10.7,1.7-10.7,1.9c0,0.2-4.7,6.8-4.7,6.8l-4.3,6.6c0,0,3.5,1.3,6-1.1l-1.5,3.3
					c0,0,4.9,2.1,8.2-3.2c1.9-3,3.6-5.2,4.7-6.6l1.9-0.2c0.1,0.4,7.7,10.9,7.8,10.7c0.1-0.2,6.3-6.3,6.3-6.3L1873.3,702.4z"/>
			</g>
			<g>
				<path class="st14" d="M1889.2,748.3l1.7-32.7l-16.6-18.8l-18.2,1.1l-7.4,5.2c0.3,1.8,5.6,3.1,11.1,1.4
					c5.4-1.5,11.5-0.4,11.5-0.4l7,12.3l-4.7,5.2l5.9,31.4L1889.2,748.3z"/>
			</g>
			<g>
				<path class="st7" d="M1840.7,705.2h59.2c1.5,0,2.7,1.2,2.7,2.7l0,0c0,1.5-1.2,2.7-2.7,2.7h-59.2l-5.8-2.7L1840.7,705.2z"/>
			</g>
			<g>
				<path class="st14" d="M1870.7,757.1l-6.1-14.8c-0.8-1.9-1.1-3.9-1-5.9c0.3-5.4,0.6-16.1-0.1-18.5c-1.1-3.3-5.5-14.6-3.1-16.3
					c2.5-1.7,5.9-2.2,8.4,4.5c2.4,6.6,9.9,21,9.9,21l5.6,23.7L1870.7,757.1z"/>
			</g>
			<g>
				<g>
					<path class="st15" d="M1878,725.4c-0.1,0.1-1.5-2.4-3.4-6.3c-2-3.9-4.7-9.7-7.5-15.5c-0.8-1.3-2.2-2.3-3.5-2.3
						c-1.3,0-2.6,1-2.9,2.2c-0.3,1.3-0.1,2.6,0.1,3.9c0.2,1.3,0.5,2.4,0.8,3.5c1.2,4.2,2.4,6.8,2.2,6.8c-0.1,0-0.4-0.6-1-1.7
						c-0.6-1.1-1.3-2.8-1.9-4.9c-0.3-1-0.7-2.2-1-3.6c-0.3-1.3-0.6-2.7-0.2-4.4c0.4-1.7,2.1-3,3.9-3c1.9-0.1,3.6,1.3,4.5,2.8
						c3.1,6.3,5.5,11.8,7.3,15.8C1877.1,722.8,1878.1,725.4,1878,725.4z"/>
				</g>
			</g>
		</g>
		<g>
			<g>
				<polygon class="st14" points="2154.2,1042.3 2148.2,1031.7 2083.6,1015.5 2091.2,1028.7 				"/>
			</g>
			<g>
				<path class="st10" d="M1865.1,757.1l40.7,96.4c3.8,9.1,11.1,16.3,20.3,20.1l87.8,36.1l20.5-56.5l-85.5-30.3l-55.6-79.2
					L1865.1,757.1z"/>
			</g>
			<g>
				<path class="st10" d="M1997.3,854c0.1,2.2-9.5,72.4-9.5,86.7s27.4,29.9,27.4,29.9l30.1,63.8h107l-36.6-68.7l-16.6-55.1
					c-6.3-20.9-17.7-39.8-33.2-55.1l-17.9-12L1997.3,854z"/>
			</g>
			<g>
				<path class="st10" d="M2028.4,909.4l18,75.4l-90.6-25.6l-15.5,27.3l118,53.7c14.6,6.6,31.7,1.9,40.9-11.1l0,0
					c5.6-7.9,7.4-17.9,5-27.3l-26.4-103.2c-3.6-14.2-18.6-22.3-32.5-17.7l0,0C2033.4,885.1,2026.2,897.1,2028.4,909.4z"/>
			</g>
			<g>
				<g>
					<path class="st7" d="M2015.3,970.6c0,0.1-0.3-0.1-1-0.4c-0.7-0.3-1.6-0.8-2.9-1.5c-2.4-1.4-5.9-3.5-10-6.6
						c-3.9-3.1-8.6-7.2-11.7-13.3c-2.9-6.3-2.7-14-1.7-21.6c1.1-7.7,2.6-14.8,3.6-21.3c1-6.5,1.7-12.5,2.1-17.5
						c0.4-5,0.4-9.1,0.4-11.8c0-2.8-0.1-4.4,0-4.4s0.1,0.3,0.2,1.1c0.1,0.8,0.2,1.8,0.3,3.2c0.1,2.8,0.2,6.9-0.1,11.9
						c-0.3,5-0.9,11-1.8,17.6c-0.8,6.6-2.4,13.8-3.5,21.3c-1,7.5-1.3,15,1.5,21c2.9,5.8,7.4,10,11.3,13.1c3.9,3.1,7.3,5.4,9.7,6.8
						C2014,969.8,2015.3,970.6,2015.3,970.6z"/>
				</g>
			</g>
			<g>
				<g>
					<path class="st7" d="M2065.3,889.4c-0.1,0.3-5.2-2.5-12.2-2.9c-7-0.5-12.4,1.6-12.5,1.3c-0.2-0.2,5.3-2.9,12.6-2.4
						C2060.4,885.8,2065.5,889.2,2065.3,889.4z"/>
				</g>
			</g>
			<g>
				<g>
					<path class="st7" d="M2053,848.7c0.1,0.1-0.6,0.7-1.7,1.8c-1.1,1.1-2.7,2.7-4.8,4.7c-4.1,3.8-10,9-16.6,14.3
						c-6.7,5.4-13,10-17.7,13.2c-2.3,1.6-4.2,2.9-5.6,3.7c-1.3,0.8-2.1,1.3-2.2,1.2c-0.1-0.1,0.6-0.6,1.9-1.6c1.5-1.1,3.3-2.4,5.4-4
						c4.5-3.3,10.7-8,17.4-13.4c6.7-5.4,12.6-10.4,16.8-14.1c1.9-1.7,3.7-3.1,5-4.4C2052.3,849.2,2052.9,848.7,2053,848.7z"/>
				</g>
			</g>
			<g>
				<g>
					<path class="st7" d="M1948.8,823c0.1,0.3-3.2,1.7-6.8,4.1c-3.7,2.4-6.3,4.8-6.5,4.6c-0.2-0.2,2.1-3.1,5.8-5.6
						C1945.2,823.7,1948.7,822.7,1948.8,823z"/>
				</g>
			</g>
			<g>
				<g>
					<g>
						<path class="st16" d="M2037.1,943.6c0,0.1-0.7,0.3-1.9,0.6s-3.2,0.7-5.6,1c-2.4,0.3-5.2,0.3-8.4,0.2
							c-3.1-0.2-6.6-0.7-10.2-1.5c-3.6-0.9-6.8-2.2-9.7-3.4c-2.9-1.4-5.4-2.8-7.3-4.2c-1.9-1.3-3.5-2.6-4.5-3.5
							c-1-0.9-1.5-1.5-1.5-1.5c0.1-0.1,2.4,1.8,6.3,4.3c4,2.5,9.9,5.4,16.8,7.2c7,1.7,13.5,1.9,18.2,1.6
							C2034.2,944,2037.1,943.4,2037.1,943.6z"/>
					</g>
				</g>
				<g>
					<g>
						<path class="st16" d="M2043.3,976.8c0,0.1-1.5,0.6-4,0.8c-2.6,0.2-6.1,0.1-10-0.7c-3.8-0.8-7.2-2.1-9.4-3.3
							c-2.3-1.2-3.6-2.2-3.5-2.3c0.1-0.3,5.6,2.9,13.1,4.5C2036.9,977.3,2043.2,976.4,2043.3,976.8z"/>
					</g>
				</g>
				<g>
					<g>
						<path class="st16" d="M2090.1,956.2c0,0.1-0.6,0.4-1.7,1c-1.1,0.6-2.8,1.3-4.9,2.2c-4.2,1.7-10.2,3.5-17.1,4.5
							c-6.8,0.9-13.1,0.8-17.6,0.3c-2.2-0.2-4-0.5-5.3-0.8s-1.9-0.4-1.9-0.5c0-0.2,2.8,0.2,7.2,0.5c4.5,0.3,10.7,0.3,17.4-0.7
							s12.7-2.6,16.9-4.1C2087.5,957.1,2090,956,2090.1,956.2z"/>
					</g>
				</g>
				<g>
					<g>
						<path class="st16" d="M2081.8,919.2c-0.1,0.2-2.8-0.3-7.3-0.9s-10.7-1-17.7-0.8c-6.9,0.3-13.1,1.2-17.5,2
							c-4.5,0.8-7.2,1.6-7.2,1.4c0-0.1,0.6-0.3,1.9-0.8c1.2-0.4,3-0.9,5.2-1.5c4.5-1,10.7-2.1,17.7-2.4s13.3,0.3,17.8,1.1
							c2.2,0.3,4,0.8,5.3,1C2081.1,918.9,2081.8,919.1,2081.8,919.2z"/>
					</g>
				</g>
				<g>
					<g>
						<path class="st16" d="M2100.4,1022.4c0,0.1-0.9-0.1-2.6-0.5s-4-1.1-6.8-2.1c-5.7-2-13.3-5.6-20.9-10.9s-13.5-11.3-17.3-15.9
							c-1.9-2.3-3.4-4.3-4.3-5.7c-0.9-1.4-1.4-2.2-1.3-2.2c0.1-0.1,2.3,2.9,6.3,7.4s10,10.3,17.4,15.6c7.5,5.2,15,8.9,20.5,11.1
							C2096.9,1021.3,2100.5,1022.2,2100.4,1022.4z"/>
					</g>
				</g>
				<g>
					<g>
						<path class="st16" d="M2019.1,1021.3c-0.1,0-0.4-2.4-0.3-6.3c0.1-3.9,0.7-9.3,2.2-15c1.5-5.8,3.6-10.7,5.4-14.2
							s3.2-5.4,3.3-5.4c0.1,0.1-1,2.2-2.6,5.7c-1.6,3.5-3.6,8.4-5,14.1c-1.5,5.6-2.2,10.9-2.5,14.8
							C2019.3,1018.9,2019.3,1021.3,2019.1,1021.3z"/>
					</g>
				</g>
				<g>
					<g>
						<path class="st16" d="M1964.5,996.5c-0.1,0-0.3-2,0.1-5.3c0.3-3.2,1.3-7.8,3.9-12.2c2.6-4.3,6.1-7.4,8.5-9.5
							c2.5-2.1,4.2-3.2,4.3-3.1c0.1,0.1-1.4,1.5-3.8,3.7c-2.3,2.2-5.6,5.4-8.1,9.5c-2.5,4.2-3.6,8.6-4.1,11.7
							C1964.9,994.5,1964.7,996.5,1964.5,996.5z"/>
					</g>
				</g>
				<g>
					<g>
						<path class="st16" d="M2145.2,1020.7c0.1,0.1-2.4,1.3-6.4,2.8s-9.7,3.4-16.1,4.8c-6.4,1.5-12.4,2-16.7,1.8
							c-1.1,0-2.1-0.1-2.9-0.2c-0.8-0.1-1.6-0.1-2.2-0.3c-1.2-0.2-1.8-0.4-1.8-0.5c0-0.2,2.6,0.2,6.9,0.1c4.2-0.1,10.1-0.7,16.5-2.2
							c6.3-1.4,12-3.1,16.1-4.5C2142.7,1021.5,2145.2,1020.6,2145.2,1020.7z"/>
					</g>
				</g>
				<g>
					<g>
						<path class="st16" d="M2121,977.1c0.1,0.1-0.6,1.4-2.4,2.7c-1.8,1.4-4.6,2.9-7.8,4.1s-6.2,2.1-8.4,2.5c-1.1,0.2-2,0.3-2.6,0.3
							c-0.6,0-1-0.2-1-0.3c0.1-0.1,1.3-0.1,3.5-0.8c2.2-0.6,5-1.5,8.1-2.8c3.1-1.2,5.9-2.5,7.7-3.7
							C2120,978.1,2120.9,977,2121,977.1z"/>
					</g>
				</g>
				<g>
					<g>
						<path class="st16" d="M2105.9,932.8c0.1,0,0,0.3-0.3,0.8c-0.3,0.4-1,0.9-1.7,1.5c-1.6,1-4,2.2-6.7,3.1c-2.7,1-5.2,1.7-7.1,1.9
							c-1.9,0.3-3.1,0.1-3.1-0.1c0-0.1,1.1-0.2,2.9-0.7c1.8-0.5,4.2-1.3,6.9-2.2c2.6-1,5-1.9,6.7-2.7c0.8-0.4,1.5-0.8,1.9-1
							C2105.6,933,2105.8,932.8,2105.9,932.8z"/>
					</g>
				</g>
				<g>
					<g>
						<path class="st16" d="M2027.2,909.4c0,0.1-1.9,0.3-5.2,0.2c-3.2-0.1-7.7-0.6-12.4-1.7c-4.8-1.1-9-2.7-11.8-4
							c-2.9-1.3-4.6-2.4-4.5-2.5c0.1-0.3,7.2,3.2,16.6,5.4C2019.3,909.1,2027.2,909.1,2027.2,909.4z"/>
					</g>
				</g>
				<g>
					<g>
						<path class="st16" d="M2090.7,889.5c0.2,0.3-2.9,2.4-7.2,4.2c-4.2,1.8-8,2.4-8.1,2.1c-0.1-0.3,3.4-1.4,7.7-3.1
							C2087.3,890.9,2090.6,889.3,2090.7,889.5z"/>
					</g>
				</g>
				<g>
					<g>
						<path class="st16" d="M2041.3,860.9c0.1-0.1,1.3,0.7,3.1,2.4s3.8,4.5,5.3,7.8c1.5,3.4,2.2,6.8,2.4,9.1
							c0.2,2.4-0.1,3.9-0.1,3.9c-0.3,0-0.2-6-3.3-12.6C2045.7,865,2041,861.1,2041.3,860.9z"/>
					</g>
				</g>
				<g>
					<g>
						<path class="st16" d="M1971.8,892.2c-0.1,0-0.5-0.7-1-2.1c-0.6-1.4-1.3-3.4-1.7-6.1c-1.1-5.2-1.3-12.7,0.1-20.7
							c1.5-8,4.1-14.9,6-19.8c1-2.4,1.8-4.5,2.4-5.8c0.6-1.3,1-2.1,1-2.1s-0.1,0.8-0.6,2.2c-0.6,1.6-1.3,3.6-2.1,5.9
							c-1.7,5-4.2,11.9-5.6,19.8c-1.5,7.9-1.4,15.2-0.5,20.3C1970.7,889.1,1972,892.1,1971.8,892.2z"/>
					</g>
				</g>
				<g>
					<g>
						<path class="st16" d="M1920,871c-0.1,0,0.1-0.8,0.4-2.2c0.3-1.4,0.9-3.4,1.7-5.9c1.7-4.9,4.7-11.5,9.3-18s9.7-11.6,13.7-14.9
							c2-1.7,3.7-2.9,4.9-3.7c1.2-0.8,1.9-1.2,1.9-1.1c0.1,0.1-2.5,2-6.3,5.4c-3.8,3.4-8.8,8.6-13.3,15c-4.5,6.4-7.6,12.9-9.4,17.7
							C1920.9,868,1920.2,871,1920,871z"/>
					</g>
				</g>
				<g>
					<g>
						<path class="st16" d="M1928.3,793.5c0,0.2-2.5,0.3-6.4,1.4c-3.9,1-9.1,3.2-14.3,6.4c-5.3,3.2-9.6,6.8-12.5,9.6
							s-4.3,4.9-4.5,4.8c-0.1-0.1,0.3-0.6,0.8-1.5c0.3-0.5,0.7-1,1.3-1.7c0.5-0.6,1.1-1.4,1.8-2.1c2.7-3.1,7.1-6.8,12.5-10
							c5.4-3.2,10.7-5.4,14.7-6.2c1-0.3,1.9-0.4,2.7-0.5c0.8-0.1,1.5-0.2,2.1-0.2C1927.7,793.4,1928.3,793.5,1928.3,793.5z"/>
					</g>
				</g>
				<g>
					<g>
						<path class="st16" d="M1907.7,763.5c0,0.4-8.7-1.2-18.9,1.5c-10.3,2.5-17.2,8.1-17.4,7.7c-0.1-0.1,1.5-1.6,4.5-3.5
							c3-1.9,7.4-4,12.6-5.4c5.2-1.3,10.2-1.5,13.6-1.3C1905.6,762.8,1907.8,763.3,1907.7,763.5z"/>
					</g>
				</g>
			</g>
			<g>
				<g>
					<path class="st7" d="M2028.4,909.4c0,0,0.2,0.5,0.4,1.5c0.3,1,0.6,2.4,1.1,4.2c1,3.8,2.3,9.1,3.9,15.7
						c3.3,13.5,7.8,32.3,13.1,53.9l0.2,0.9l-0.9-0.3c-7.3-2.1-15.1-4.2-23.1-6.5c-26.2-7.4-50-14.2-67.5-19.2l0.5-0.2
						c-4.8,8.4-8.7,15.1-11.5,19.9c-1.3,2.3-2.4,4-3.2,5.4c-0.3,0.6-0.6,1-0.8,1.4c-0.2,0.3-0.3,0.5-0.3,0.4c0,0,0.1-0.2,0.2-0.5
						c0.2-0.4,0.4-0.8,0.8-1.5c0.7-1.3,1.7-3.2,3-5.5c2.7-4.8,6.5-11.7,11.1-20.1l0.1-0.3l0.3,0.1c17.5,4.9,41.4,11.6,67.6,18.9
						c8,2.2,15.8,4.5,23.1,6.5l-0.7,0.7c-5.1-21.7-9.5-40.4-12.7-54c-1.5-6.7-2.7-12-3.6-15.8c-0.4-1.8-0.7-3.2-0.9-4.2
						C2028.5,909.9,2028.4,909.4,2028.4,909.4z"/>
				</g>
			</g>
			<g>
				<g>
					<path class="st7" d="M2078.1,904.7c0.1,0,0.2,0.4,0.4,1.3c0.3,1,0.6,2.2,1,3.8c0.9,3.4,2.2,8.1,3.6,13.9
						c3,11.9,7.1,28.1,11.6,45.9c2.2,9,4.4,17.5,6.2,25.3s2.6,15.2,1.7,21.3c-0.8,6.1-3.1,10.7-5.1,13.4c-2,2.8-3.6,3.8-3.6,3.8
						c-0.1-0.1,1.4-1.3,3.3-4.1c1.9-2.8,3.9-7.3,4.6-13.3c0.8-6-0.1-13.2-1.9-21c-1.9-7.8-4.1-16.4-6.3-25.3
						c-4.4-17.9-8.4-34.1-11.3-46c-1.4-5.8-2.5-10.5-3.3-14c-0.3-1.5-0.6-2.9-0.8-3.8C2078.1,905.2,2078.1,904.7,2078.1,904.7z"/>
				</g>
			</g>
			<g class="st12">
				<g>
					<path d="M2094.6,1034.5c13.3,1.3,21-6.3,22.4-16.7c0.8-5.7-1.1-11.4-3-16.8c-8.1-23.9-16.4-47.9-29.3-69.5
						c4.9,21.7,11.1,42.5,15.9,64.1c1.6,7.1,2.2,11.2,2.1,18.4C2102.6,1021.2,2099.4,1029.1,2094.6,1034.5"/>
				</g>
			</g>
		</g>
		<g>
			<g>
				<path class="st7" d="M2045.7,839.1c7.2,2.2,15.2,1.2,21.7-2.6c6.4-3.8,11.1-10.5,12.6-17.8c3.6,3.4,8.8,4.5,13.7,3.6
					s9.2-3.6,12.7-6.9c6.6-6.1,11.1-15,10.7-23.9c-0.3-9.1-6-18-14.5-21c-8.5-3.1-19.2,0.9-22.8,9.3c-1.6-4.7,2.5-11.1,1.5-16
					c-1.9-9.8-7.8-15.5-12.8-15.7"/>
			</g>
			<g>
				<g>
					<g>
						<g>
							<path class="st7" d="M2056.3,836.6c9.7-16.9,12.5-39.5,15-59c1.2-9.2,3.2-22.3-3.1-28c-6.7-6.1-7.4-15.7-15-20.4
								c-7.7-4.7-18.2-5.2-25.4,0.3"/>
						</g>
						<g>
							<g>
								<g>
									<g>
										<g>
											<g>
												<g>
													<g>
														<path class="st14" d="M2005.9,870.2v-26.6c0,0-27.7-4.9-29.3-27.1c-1.7-22.2-1-73.4-1-73.4l0,0
															c24.2-12.7,53.2-10.9,75.7,4.8l-1.1,78l0.1,25.4l-22.6,18.4l-21.7,17.1L2005.9,870.2L2005.9,870.2z"/>
													</g>
												</g>
											</g>
										</g>
									</g>
								</g>
								<g>
									<path class="st7" d="M1997.9,789.5c3.7-4.7,9.7-6.7,14.7-3.3c4.9,3.3,6.9,10.7,4.2,16.1c-1.9,3.8-6.2,7.3-10.5,8.3
										c0,0,10,18.2,16.3,23c7.5,5.7,11.1,8.6,20.4,9.7c9.2,1.1,8.1,1.2,13.4-6.6c3.8-5.6,5.1-11.1,5.2-18
										c0.3-16.4,0.6-32.7,0.8-49.1c0.1-5.9,0.2-11.8-1.1-17.6c-1.3-5.7-4.2-11.3-9.1-14.6c-5.2-3.6-11.8-3.8-17.8-5.8
										c-7.4-2.4-13.8-7.5-20.7-11.2c-7-3.7-15.5-5.8-22.5-2.2c-5,2.6-8.4,7.8-13.2,10.7c-7,4.1-16.4,3.2-19.8,13.8
										c-1.2,3.6-1,7.7,0.1,11.3c4.7,14.3,22,20.1,34.4,13.9c0.3,2.4-2,7.9,0.4,15.5C1993.9,785.7,1994.2,789.4,1997.9,789.5"/>
								</g>
							</g>
							<g>
								<g>
									<path class="st15" d="M2001.8,803.3c-0.1,0-0.1,0.4,0.3,1c0.3,0.5,1.2,1.2,2.4,1.3c2.4,0.2,5.5-2.4,5.6-6.1
										c0.1-1.8-0.6-3.6-1.6-4.7c-1-1.2-2.3-1.7-3.3-2c-2.2-0.5-3.5,0.3-3.4,0.5c0.1,0.3,1.3-0.1,3.1,0.6c1.7,0.6,3.9,2.6,3.7,5.5
										c-0.1,2.9-2.3,5-4,5.1C2002.7,804.5,2002,803.1,2001.8,803.3z"/>
								</g>
							</g>
						</g>
					</g>
				</g>
				<g>
					<g>
						<path class="st13" d="M2114.3,791.6c0.1,0-0.1,0.8-0.6,2.1c-0.5,1.3-1.5,3.1-2.9,5.2c-2.9,4-8.7,8.8-16.5,10.1
							c-7.8,1.2-14.8-1.8-18.7-4.8c-2-1.5-3.4-3-4.2-4.1c-0.8-1.1-1.3-1.8-1.2-1.8c0.2-0.1,1.9,2.5,5.9,5.3c4,2.8,10.7,5.5,18,4.4
							c7.4-1.2,13-5.6,16-9.5C2113.2,794.6,2114.1,791.6,2114.3,791.6z"/>
					</g>
				</g>
				<g>
					<g>
						<path class="st13" d="M2111.2,788.1c0.1,0-0.2,0.6-0.8,1.7c-0.6,1-1.5,2.5-3,4.1c-2.8,3.2-7.8,7-14.3,8.6
							c-6.5,1.5-12.7,0.2-16.6-1.6c-1.9-0.8-3.5-1.8-4.5-2.5c-1-0.7-1.5-1.2-1.4-1.3c0.1-0.2,2.2,1.5,6.1,3
							c3.9,1.5,9.8,2.6,16.1,1.2c6.3-1.5,11.1-4.9,14-8C2109.8,790.3,2111,788,2111.2,788.1z"/>
					</g>
				</g>
				<g>
					<g>
						<path class="st13" d="M2074.1,816.6c0,0.1-0.3,0.2-0.9,0.5c-0.6,0.3-1.6,0.6-2.9,0.8c-2.6,0.3-6.6-0.3-10.6-2.9
							c-4-2.6-7.3-7.4-10-12.9c-2.7-5.5-4.8-12-9.1-17.5c-2.1-2.8-4.7-5.1-7.6-6.5s-6.1-2.1-9.1-2.4c-6.1-0.6-11.6-0.2-16.2-0.8
							c-4.7-0.6-8.3-1.9-10.5-3.3c-1.1-0.7-1.9-1.3-2.4-1.8s-0.8-0.8-0.7-0.8c0.1-0.1,1.1,1,3.3,2.2c2.2,1.3,5.8,2.4,10.4,2.9
							c4.6,0.6,10.1,0.1,16.2,0.6c3.1,0.3,6.3,0.9,9.5,2.4c3.1,1.5,5.8,3.9,8,6.8c4.3,5.8,6.5,12.3,9.1,17.8
							c2.5,5.5,5.6,10.2,9.5,12.7c3.8,2.6,7.5,3.3,10.1,3.1C2072.8,817.2,2074,816.4,2074.1,816.6z"/>
					</g>
				</g>
				<g>
					<g>
						<path class="st13" d="M2071.9,808.6c0,0.1-0.3,0.1-1,0.1s-1.6-0.1-2.9-0.3c-2.4-0.6-5.7-2.4-8.6-5.8c-1.5-1.7-2.9-3.7-4.2-5.9
							c-1.3-2.3-2.4-4.8-3.7-7.4c-1.3-2.6-2.6-5.3-4.5-7.7c-0.9-1.3-1.9-2.4-3.1-3.5c-0.6-0.6-1.3-1-1.9-1.5c-0.6-0.4-1.3-1-2.1-1.3
							c-2.9-1.6-6.1-2.2-9.1-2.6c-3.1-0.4-6.1-0.4-9-0.5c-5.8,0-11.1,0.1-15.5-0.4c-4.4-0.6-7.9-1.7-10-3c-1.1-0.6-1.8-1.3-2.4-1.6
							c-0.5-0.4-0.8-0.6-0.8-0.6c0.1-0.1,1.2,0.7,3.3,1.8c2.2,1,5.6,2.2,9.9,2.6c4.3,0.5,9.5,0.3,15.3,0.1c2.9,0,6,0,9.1,0.4
							c3.1,0.4,6.5,1.1,9.5,2.8c0.8,0.3,1.5,0.8,2.2,1.3c0.7,0.5,1.4,0.9,2,1.5c1.3,1.1,2.4,2.4,3.3,3.6c1.9,2.6,3.3,5.4,4.5,7.9
							c1.3,2.6,2.4,5.2,3.6,7.4c1.2,2.2,2.5,4.2,3.9,5.8c2.8,3.3,5.8,5.2,8.1,5.9C2070.5,808.6,2071.9,808.4,2071.9,808.6z"/>
					</g>
				</g>
				<g>
					<g>
						<path class="st10" d="M2077.3,819.9c-0.1,0.1-0.5-0.3-1.3-1c-0.7-0.7-1.7-1.9-2.7-3.4c-2-3.1-4-7.9-4.3-13.6
							c-0.2-5.7,1.5-10.7,3.2-13.9c0.9-1.6,1.7-2.9,2.4-3.6s1-1.2,1.1-1.1c0.1,0.1-1.3,1.9-2.8,5.1c-1.5,3.2-3,8.1-2.8,13.5
							c0.2,5.4,2,10.2,3.8,13.2C2075.8,818.2,2077.4,819.8,2077.3,819.9z"/>
					</g>
				</g>
			</g>
		</g>
	</g>
</g>
</svg>
