<svg id="Calque_1" data-name="Calque 1" xmlns="http://www.w3.org/2000/svg" xmlns:xlink="http://www.w3.org/1999/xlink" viewBox="0 0 104.99 99.34"><defs><linearGradient id="Dégradé_sans_nom_22" x1="11.17" y1="52.95" x2="91.4" y2="52.95" gradientUnits="userSpaceOnUse"><stop offset="0" stop-color="#f2f2f2"/><stop offset="0.99" stop-color="#c6edee"/></linearGradient><linearGradient id="Dégradé_sans_nom_22-2" x1="20.97" y1="34.22" x2="91.82" y2="34.22" xlink:href="#Dégradé_sans_nom_22"/><linearGradient id="Dégradé_sans_nom_22-3" x1="20.47" y1="25.12" x2="20.79" y2="25.12" xlink:href="#Dégradé_sans_nom_22"/><linearGradient id="Dégradé_sans_nom_22-4" x1="20.78" y1="24.78" x2="21.01" y2="24.78" xlink:href="#Dégradé_sans_nom_22"/><linearGradient id="Dégradé_sans_nom_22-5" x1="20.23" y1="25.48" x2="20.45" y2="25.48" xlink:href="#Dégradé_sans_nom_22"/><linearGradient id="Dégradé_sans_nom_22-6" x1="20.02" y1="25.76" x2="20.23" y2="25.76" xlink:href="#Dégradé_sans_nom_22"/><linearGradient id="Dégradé_sans_nom_22-7" x1="12.77" y1="51.41" x2="90.23" y2="51.41" xlink:href="#Dégradé_sans_nom_22"/></defs><path d="M91.4,56.27A30.61,30.61,0,0,1,86.25,70a40.44,40.44,0,0,1-4.78,5.9A47.24,47.24,0,0,1,57,89.2a46.23,46.23,0,0,1-12.18.89,37.06,37.06,0,0,1-14.59-3.77A33.34,33.34,0,0,1,16.1,72.6a36.85,36.85,0,0,1-4.47-13.14,45.82,45.82,0,0,1,5.22-28.65c.92-1.72,2.1-3.29,3.19-4.93l.22-.29h0a2.75,2.75,0,0,1,.22-.26v0a.35.35,0,0,0,.31-.41h0c.17,0,.27-.1.22-.27h0c.43-.09.63-.48.92-.77A25.72,25.72,0,0,1,30.77,18,33,33,0,0,1,42,15.76a78,78,0,0,1,8.09.19A61.87,61.87,0,0,1,61.64,18a44.86,44.86,0,0,1,15.63,7.65c9.61,7.56,14.25,17.52,14.11,29.72A5.2,5.2,0,0,0,91.4,56.27ZM81.59,73.93h0l.24-.24,0,0,.26-.26,0,0,.27-.27,0,0,.27-.27,0,0c.17-.12.44-.22.27-.51l0,0c.26,0,.45-.09.26-.41.41.22.51-.17.63-.36a35.41,35.41,0,0,0,4.61-7.92,25,25,0,0,0,1.94-8.68,34.73,34.73,0,0,0-.29-5.38,34.6,34.6,0,0,0-16.26-25.2,48.78,48.78,0,0,0-18.36-6.79,73.39,73.39,0,0,0-8.77-.89,40.64,40.64,0,0,0-11.21.89A25.76,25.76,0,0,0,19.56,28.39a37.74,37.74,0,0,0-3,5.2,51.15,51.15,0,0,0-3.65,11.52c-.07.39-.26.77,0,1.18-.05.08-.14.12-.14.2a19.91,19.91,0,0,0-.29,2.29,45.46,45.46,0,0,0-.1,7.47A36,36,0,0,0,14.68,67C19.8,79.7,29.1,87.12,42.8,88.81a41.59,41.59,0,0,0,11.47-.27,47.23,47.23,0,0,0,15.24-5.07,45.58,45.58,0,0,0,11.12-8.33c.26-.29.65-.51.7-1h0A.76.76,0,0,0,81.59,73.93Z" style="stroke:#f9f9f9;stroke-miterlimit:10;stroke-width:0.34209999442100525px;fill:url(#Dégradé_sans_nom_22)"/><path d="M91.4,56.27c0-.29,0-.58,0-.85.14-12.19-4.5-22.15-14.11-29.71a44.54,44.54,0,0,0-15.63-7.66A62.83,62.83,0,0,0,50.09,16,64.19,64.19,0,0,0,42,15.81a32.27,32.27,0,0,0-11.23,2.27,26,26,0,0,0-8.84,5.82c-.29.29-.49.68-.92.77-.12-.31,0-.55.21-.79a28.09,28.09,0,0,1,10.71-9.11,26.27,26.27,0,0,1,7-2.1,29.44,29.44,0,0,1,5.85-.49c1.62.08,3.23.25,4.88.39a67.05,67.05,0,0,1,7.46,1.23,57.38,57.38,0,0,1,6.35,1.77A44.15,44.15,0,0,1,70,18.3a45,45,0,0,1,9.45,6.3,36,36,0,0,1,8.74,11.23,32.54,32.54,0,0,1,3.07,9.52,34.93,34.93,0,0,1,.51,7.44c-.05,1-.15,2-.25,3C91.57,56,91.45,56.12,91.4,56.27Z" style="stroke:#f9f9f9;stroke-miterlimit:10;stroke-width:0.34209999442100525px;fill:url(#Dégradé_sans_nom_22-2)"/><path d="M20.79,24.91a.36.36,0,0,1-.31.42C20.45,25.08,20.5,24.91,20.79,24.91Z" style="stroke:#f9f9f9;stroke-miterlimit:10;stroke-width:0.34209999442100525px;fill:url(#Dégradé_sans_nom_22-3)"/><path d="M21,24.65c0,.17-.05.26-.22.26C20.74,24.75,20.81,24.62,21,24.65Z" style="stroke:#f9f9f9;stroke-miterlimit:10;stroke-width:0.34209999442100525px;fill:url(#Dégradé_sans_nom_22-4)"/><path d="M20.45,25.35c-.07.1-.14.17-.22.27C20.31,25.52,20.38,25.42,20.45,25.35Z" style="stroke:#f9f9f9;stroke-miterlimit:10;stroke-width:0.34209999442100525px;fill:url(#Dégradé_sans_nom_22-5)"/><path d="M20.23,25.62,20,25.9A1.36,1.36,0,0,1,20.23,25.62Z" style="stroke:#f9f9f9;stroke-miterlimit:10;stroke-width:0.34209999442100525px;fill:url(#Dégradé_sans_nom_22-6)"/><path d="M12.89,46.32c-.24-.39-.05-.8,0-1.19a51.15,51.15,0,0,1,3.65-11.52,34,34,0,0,1,3-5.19A25.44,25.44,0,0,1,35.33,17.79a41,41,0,0,1,11.21-.9,71.39,71.39,0,0,1,8.77.9,49.3,49.3,0,0,1,18.36,6.79A35.25,35.25,0,0,1,85.29,36.32a34.24,34.24,0,0,1,4.64,13.45,34.66,34.66,0,0,1,.29,5.39,24.41,24.41,0,0,1-1.94,8.67,37.57,37.57,0,0,1-4.61,7.92c-.15.2-.22.61-.63.37-.1.14-.17.26-.26.41l0,0a.49.49,0,0,0-.27.51l0,0-.27.26,0,0-.27.26,0,0a.23.23,0,0,0-.26.26l0,0c-.19,0-.26.07-.26.27l0,0c-.19,0-.26.07-.26.27h0c-.56,0-.89.34-1.23.65a37.39,37.39,0,0,1-3.87,3A46.79,46.79,0,0,1,68,82.36a46.29,46.29,0,0,1-5.68,1.93,48.59,48.59,0,0,1-6.08,1.26,35.68,35.68,0,0,1-5.37.43A46.15,46.15,0,0,1,45,85.76c-1.66-.21-3.3-.41-5-.77a37.72,37.72,0,0,1-7.87-2.63,31.34,31.34,0,0,1-9.52-6.79A33.76,33.76,0,0,1,17,67.77a35.27,35.27,0,0,1-3.4-9.52,32.37,32.37,0,0,1-.68-4.59C12.82,51.22,12.91,48.76,12.89,46.32Z" style="stroke:#f9f9f9;stroke-miterlimit:10;stroke-width:0.34209999442100525px;fill:url(#Dégradé_sans_nom_22-7)"/></svg>