<svg id="Calque_1" data-name="Calque 1" xmlns="http://www.w3.org/2000/svg" xmlns:xlink="http://www.w3.org/1999/xlink" viewBox="0 0 115.41 102.3"><defs><linearGradient id="Dégradé_sans_nom_22" x1="184.38" y1="195.82" x2="264.97" y2="195.82" gradientTransform="translate(-2.3 -243.84) rotate(36.26)" gradientUnits="userSpaceOnUse"><stop offset="0" stop-color="#f2f2f2"/><stop offset="0.99" stop-color="#c6edee"/></linearGradient><linearGradient id="Dégradé_sans_nom_22-2" x1="180.45" y1="205.99" x2="200.89" y2="205.99" xlink:href="#Dégradé_sans_nom_22"/><linearGradient id="Dégradé_sans_nom_22-3" x1="229.25" y1="226.62" x2="256.83" y2="226.62" xlink:href="#Dégradé_sans_nom_22"/><linearGradient id="Dégradé_sans_nom_22-4" x1="224.67" y1="163.87" x2="246.56" y2="163.87" xlink:href="#Dégradé_sans_nom_22"/><linearGradient id="Dégradé_sans_nom_22-5" x1="200.93" y1="188.13" x2="201.09" y2="188.13" xlink:href="#Dégradé_sans_nom_22"/><linearGradient id="Dégradé_sans_nom_22-6" x1="246.56" y1="171.51" x2="246.78" y2="171.51" xlink:href="#Dégradé_sans_nom_22"/><linearGradient id="Dégradé_sans_nom_22-7" x1="185.43" y1="193.6" x2="262.61" y2="193.6" xlink:href="#Dégradé_sans_nom_22"/><linearGradient id="Dégradé_sans_nom_22-8" x1="253.7" y1="198.31" x2="263.89" y2="198.31" xlink:href="#Dégradé_sans_nom_22"/><linearGradient id="Dégradé_sans_nom_22-9" x1="253.16" y1="179.8" x2="253.53" y2="179.8" xlink:href="#Dégradé_sans_nom_22"/><linearGradient id="Dégradé_sans_nom_22-10" x1="253.53" y1="180.15" x2="253.75" y2="180.15" xlink:href="#Dégradé_sans_nom_22"/></defs><path d="M46.76,76.88c-1.3-.66-2.6-1.4-3.95-2-2.45-1-5-1.9-7.46-2.86-2.3-.88-4.6-1.73-6.86-2.68a31.48,31.48,0,0,1-7.24-4.12,21.66,21.66,0,0,1-6.84-8.54,14.64,14.64,0,0,1-1.2-4.86,11.93,11.93,0,0,1,.72-5.19l.35-1c.05-.07.12-.12.14-.19A17.44,17.44,0,0,1,22,38.1a32.26,32.26,0,0,1,6.11-2.53c2.22-.71,4.46-1.33,6.69-2a39.82,39.82,0,0,0,11-4.86c.85-.56,1.66-1.19,2.49-1.77.07,0,.09,0,.1-.06l.35-.21c1.39-1.06,2.81-2.11,4.17-3.22,2.22-1.81,4.42-3.66,6.64-5.5a73.23,73.23,0,0,1,7-5.19,14.81,14.81,0,0,1,17.75.75c.69.57,1.32,1.22,2,1.84l.51.7a18.78,18.78,0,0,1,2,3.08A33.08,33.08,0,0,1,91.51,26c1.29,4.33,2.31,8.71,3.27,13.12.09.39.21.78.33,1.17h0l0,.3c.22,1.22.42,2.42.64,3.64a67.22,67.22,0,0,1,1.13,13.44,38.13,38.13,0,0,1-2.15,12.05,30.83,30.83,0,0,1-6.16,10.24,23.39,23.39,0,0,1-10.56,6.9,21.72,21.72,0,0,1-3.85.78c-.41,0-.81.11-1.21.14a1.56,1.56,0,0,0-.48-.08,24.16,24.16,0,0,1-8-1.4,37.48,37.48,0,0,1-6.17-2.74c-2.44-1.36-4.83-2.79-7.23-4.17C49.72,78.5,48.25,77.7,46.76,76.88ZM95.65,51.27h0c0-.2,0-.38-.05-.58s0-.56,0-.84c-.19-1.47-.37-2.92-.61-4.37-.75-4.67-1.87-9.23-3-13.82a70.32,70.32,0,0,0-2.08-7.32,27.38,27.38,0,0,0-3.52-7,12.75,12.75,0,0,0-3.56-3.5,6.75,6.75,0,0,0-1-.71A13.55,13.55,0,0,0,68.22,13a33.17,33.17,0,0,0-3.91,2.55c-3,2.17-5.81,4.53-8.61,7l-2.61,2.23c-.27.18-.54.36-.79.55C50.61,26.52,49,27.79,47.24,29a38.16,38.16,0,0,1-11,5.28c-2.15.65-4.32,1.25-6.47,1.89A36.47,36.47,0,0,0,22,39.29a17,17,0,0,0-5.38,4.61,10.21,10.21,0,0,0-2.12,4.88,11.61,11.61,0,0,0,.65,6.87,19.29,19.29,0,0,0,5.65,7.91,27.29,27.29,0,0,0,5.61,3.71,67.9,67.9,0,0,0,7.48,3.13c2.88,1.06,5.76,2.16,8.64,3.22a3.11,3.11,0,0,0,.46.1c.18.1.33.22.5.31,1.56.8,3.18,1.55,4.7,2.39,2,1.12,4,2.28,5.95,3.45a76.63,76.63,0,0,0,8,4.26,29.12,29.12,0,0,0,6.77,2.13,18.94,18.94,0,0,0,10.38-1,4.39,4.39,0,0,0,.73-.41,1.34,1.34,0,0,0,.45-.1,22.26,22.26,0,0,0,7.25-5.41,30.49,30.49,0,0,0,7.13-13.56,44.72,44.72,0,0,0,.89-13.94c0-.08-.06-.15-.08-.23l0,0A2.41,2.41,0,0,0,95.65,51.27Z" style="stroke:#f9f9f9;stroke-miterlimit:10;stroke-width:0.34209999442100525px;fill:url(#Dégradé_sans_nom_22)"/><path d="M48.24,26.92c-.84.58-1.65,1.2-2.5,1.77a40.12,40.12,0,0,1-11,4.86c-2.24.65-4.47,1.29-6.69,2A35,35,0,0,0,22,38.08a17.36,17.36,0,0,0-7.52,7.34,1.33,1.33,0,0,1-.14.19A.78.78,0,0,1,14,45a12.17,12.17,0,0,1,2.12-8.84,8.5,8.5,0,0,1,1.82-2,19.26,19.26,0,0,1,3.38-2.42A24.83,24.83,0,0,1,24,30.59a29,29,0,0,1,6.46-1.41c3.08-.28,6.18-.53,9.26-.81a38.8,38.8,0,0,0,5.79-.93c.44-.11.85-.27,1.3-.37S47.74,26.71,48.24,26.92Z" style="stroke:#f9f9f9;stroke-miterlimit:10;stroke-width:0.34209999442100525px;fill:url(#Dégradé_sans_nom_22-2)"/><path d="M46.76,76.88c1.46.82,2.94,1.61,4.4,2.46,2.41,1.4,4.82,2.81,7.23,4.17a37.39,37.39,0,0,0,6.17,2.74,24.47,24.47,0,0,0,8,1.4,2.67,2.67,0,0,1,.48.08,3.34,3.34,0,0,1-2,.63,18.82,18.82,0,0,1-4.62.18,22.89,22.89,0,0,1-5-1.15A25.39,25.39,0,0,1,56.59,85a39.84,39.84,0,0,1-3.37-2.42c-.72-.53-1.42-1.1-2.11-1.66s-1.32-1.19-2-1.79-1.23-1.06-1.82-1.62A7.18,7.18,0,0,1,46.76,76.88Z" style="stroke:#f9f9f9;stroke-miterlimit:10;stroke-width:0.34209999442100525px;fill:url(#Dégradé_sans_nom_22-3)"/><path d="M95.15,40.18c-.12-.38-.24-.77-.33-1.16-1-4.42-2-8.8-3.27-13.12a33.41,33.41,0,0,0-2.77-6.82,20.17,20.17,0,0,0-2-3.08c-.19-.22-.33-.47-.51-.71a8.94,8.94,0,0,1,1,.5A22.42,22.42,0,0,1,90,18.12a3.71,3.71,0,0,1,.78.93,33.4,33.4,0,0,1,1.8,3.19A18.59,18.59,0,0,1,94.38,28c.2,1.42.5,2.83.6,4.23.18,2.49.25,5,.35,7.46A1.12,1.12,0,0,1,95.15,40.18Z" style="stroke:#f9f9f9;stroke-miterlimit:10;stroke-width:0.34209999442100525px;fill:url(#Dégradé_sans_nom_22-4)"/><path d="M48.68,26.65c-.11.08-.23.13-.34.21C48.45,26.78,48.57,26.73,48.68,26.65Z" style="stroke:#f9f9f9;stroke-miterlimit:10;stroke-width:0.34209999442100525px;fill:url(#Dégradé_sans_nom_22-5)"/><path d="M95.19,40.51l0-.31A1.67,1.67,0,0,1,95.19,40.51Z" style="stroke:#f9f9f9;stroke-miterlimit:10;stroke-width:0.34209999442100525px;fill:url(#Dégradé_sans_nom_22-6)"/><path d="M80,84.84a4,4,0,0,1-.73.41,18.75,18.75,0,0,1-10.37,1,28.88,28.88,0,0,1-6.78-2.13,77.6,77.6,0,0,1-8-4.27c-2-1.15-3.94-2.34-6-3.44-1.54-.86-3.13-1.6-4.69-2.39l-.5-.31a4.51,4.51,0,0,0-.48-.57c-1.06-.88-2.12-1.8-3.23-2.61-2.48-1.79-5-3.49-7.67-5a80.46,80.46,0,0,1-8-5.37,23,23,0,0,1-3.22-2.82,24.42,24.42,0,0,1-3.65-4.77A28,28,0,0,1,15.42,50c-.13-.34-.24-.7-.4-1a.45.45,0,0,0-.51-.24,10.31,10.31,0,0,1,2.12-4.88A17.19,17.19,0,0,1,22,39.26a36,36,0,0,1,7.72-3.14c2.15-.64,4.32-1.24,6.47-1.89a38.28,38.28,0,0,0,11-5.28c1.72-1.21,3.37-2.46,5-3.69.27-.18.52-.37.79-.56a2.74,2.74,0,0,0,1.27-.39c.84-.41,1.68-.82,2.51-1.25l4.74-2.48c2-1,4-2.11,6.05-3.14,1.71-.86,3.47-1.6,5.21-2.38a15.18,15.18,0,0,1,8.21-1.34c.57.06,1.15,0,1.72.09a13.43,13.43,0,0,1,3.55,3.5,27.25,27.25,0,0,1,3.53,7A73.23,73.23,0,0,1,92,31.63c1.08,4.58,2.22,9.16,3,13.82.23,1.45.42,2.94.61,4.38a7.58,7.58,0,0,1,0,.83.48.48,0,0,0,0,.58h0c0,.12,0,.24,0,.37l0,0c-.11.15-.31.31-.33.48-.08.49-.11,1-.15,1.46,0,.68,0,1.38-.06,2.08-.1,1.25-.3,2.51-.48,3.76-.22,1.48-.48,3-.83,4.45a39.41,39.41,0,0,1-3,8.63,31.57,31.57,0,0,1-2.9,4.8,22.46,22.46,0,0,1-4.12,4.48,5.68,5.68,0,0,0-.75.8c-.21.21-.38.48-.64.57A11.81,11.81,0,0,0,80,84.84Z" style="stroke:#f9f9f9;stroke-miterlimit:10;stroke-width:0.34209999442100525px;fill:url(#Dégradé_sans_nom_22-7)"/><path d="M80,84.84a10.7,10.7,0,0,1,2.38-1.72,2.57,2.57,0,0,0,.63-.57,8.15,8.15,0,0,1,.75-.8,22.72,22.72,0,0,0,4.12-4.48,33,33,0,0,0,2.91-4.8,39.78,39.78,0,0,0,3-8.63c.35-1.48.61-2.94.83-4.46.18-1.24.39-2.5.48-3.76,0-.69,0-1.38.06-2.07a11.84,11.84,0,0,1,.15-1.46c0-.17.21-.33.33-.49,0,.08.07.16.08.22a44.54,44.54,0,0,1-.89,13.95,30.49,30.49,0,0,1-7.13,13.56,22.44,22.44,0,0,1-7.24,5.41A1.35,1.35,0,0,1,80,84.84Z" style="stroke:#f9f9f9;stroke-miterlimit:10;stroke-width:0.34209999442100525px;fill:url(#Dégradé_sans_nom_22-8)"/><path d="M95.65,51.27c-.1-.18-.21-.37,0-.57C95.62,50.87,95.64,51.07,95.65,51.27Z" style="stroke:#f9f9f9;stroke-miterlimit:10;stroke-width:0.34209999442100525px;fill:url(#Dégradé_sans_nom_22-9)"/><path d="M95.66,51.63c0-.12,0-.25,0-.37C95.66,51.38,95.66,51.52,95.66,51.63Z" style="stroke:#f9f9f9;stroke-miterlimit:10;stroke-width:0.34209999442100525px;fill:url(#Dégradé_sans_nom_22-10)"/><path d="M110.46,76.52a.33.33,0,0,1-.39.26C110.07,76.56,110.23,76.52,110.46,76.52Z" style="fill:#d0b18a"/><path d="M110.68,76.36l-.26.2C110.52,76.46,110.62,76.43,110.68,76.36Z" style="fill:#d0b18a"/><path d="M77.91,102.12h.16c-.07.07-.1.16-.16.23A.3.3,0,0,0,77.91,102.12Z" style="fill:#cdb18a"/></svg>