<?xml version="1.0" encoding="utf-8"?>
<!-- Generator: Adobe Illustrator 24.1.0, SVG Export Plug-In . SVG Version: 6.00 Build 0)  -->
<svg version="1.1" id="Calque_1" xmlns="http://www.w3.org/2000/svg" xmlns:xlink="http://www.w3.org/1999/xlink" x="0px" y="0px"
	 viewBox="0 0 1920 1080" style="enable-background:new 0 0 1920 1080;" xml:space="preserve">
<style type="text/css">
	.st0{fill:#121110;}
	.st1{fill:#E3C7AF;}
	.st2{fill:#CFB38B;}
	.st3{fill:#CDB18A;}
	.st4{fill:#D0B18A;}
	.st5{fill:#8CCECE;}
	.st6{fill:#8B9CB6;}
	.st7{fill:#C1C1C1;}
</style>
<path class="st0" d="M672.5,674.5c-6.2-1.1-12.4-1.4-18.7-1.1c-12.9,0.6-25.4,3.2-37.8,6.6c-11.7,3.3-23.2,7.3-34.7,11.2
	c-10.4,3.5-20.8,6.8-31.5,9.3c-10.9,2.6-22,4.2-33.2,4c-14.1-0.2-27.6-3-40.2-9.6c-5.8-3-11.1-6.7-15.8-11.1
	c-8.3-7.8-13.9-17.2-16.4-28.3c-2.1-9.3-1.4-18.5,1.3-27.6c0.7-2.3,1.5-4.6,2.3-6.8c0.5-0.5,0.8-1.2,0.7-1.9c0,0,0,0,0,0
	c0.2-0.2,0.3-0.5,0.5-0.7c2.1-3.7,4.1-7.6,6.4-11.1c7.6-11.8,17.5-21.4,28.7-29.7c8.3-6.1,17.3-11.2,26.5-15.9
	c6.4-3.3,12.9-6.6,19.3-10c5.7-3,11.3-6.4,16.5-10.2c0.9-0.6,1.6-1.4,2.4-2.2c0,0,0,0,0,0c0.6,0.1,1-0.2,1.2-0.8c0,0,0,0,0,0
	c0.3-0.2,0.5-0.4,0.8-0.6c4.3-2.9,7.9-6.7,11.1-10.7c2.3-2.9,4.5-6,6.6-9c6-8.5,12.5-16.4,19.9-23.7c8.5-8.3,17.8-15.3,28.6-20.3
	c12.1-5.6,24.9-7.9,38.1-6.7c16.7,1.5,32.1,6.7,46.5,15.2c5.6,3.3,10.9,7,16.1,10.9c4.9,3.7,9.8,7.4,14.8,11.1
	c12,9,24.9,16.5,38.5,22.6c9.1,4.1,18.2,8.3,26.8,13.2c6.9,3.9,13.4,8.3,19.4,13.6c13.2,11.7,21.4,26.2,25.4,43.3
	c1.9,8.2,2.5,16.5,1.9,24.9c-0.9,11.8-4.1,22.8-10.2,33.1c-1,1.7-2,3.4-3,5.1c-0.2,0.3-0.3,0.5-0.5,0.8c-0.1,0.1-0.2,0.2-0.3,0.4
	c-0.2,0.3-0.4,0.6-0.5,0.8c0,0,0,0,0,0c-0.2,0.3-0.4,0.5-0.5,0.8c-0.1,0.2-0.3,0.4-0.4,0.5c-0.1,0.2-0.3,0.4-0.4,0.7c0,0,0,0,0,0
	c-0.6,0.6-1.3,1.1-1.9,1.8c-7.3,8.7-15.9,15.7-26,20.9c-11.2,5.8-23.1,8.9-35.7,9.1c-8.7,0.1-17.3-1-25.8-3c-9-2.1-17.7-5-26.4-8
	c-9.1-3.1-18.3-6.2-27.7-8.5c-3.5-0.8-7-1.9-10.6-1.9c0,0,0,0,0,0C674,674.3,673.3,674.3,672.5,674.5z M736.5,511.5
	c-0.6-0.8-1.1-1.7-2.4-1.4c0.1-1.1-0.9-1.4-1.5-1.9c-4.7-3.5-9.3-6.9-14.1-10.3c-4.6-3.3-9.2-6.7-14-9.8
	c-11.7-7.6-24.4-12.9-38-15.9c-0.9-0.2-1.9-0.1-2.9-0.2c-0.5-0.2-1-0.5-1.5-0.6c-2.5-0.3-5-0.7-7.5-0.9c-9.8-1.1-19.3,0.1-28.5,3.2
	c-10.9,3.6-20.5,9.5-29.2,16.8c-9.7,8.2-17.9,17.7-25.4,28c-2.4,3.4-4.9,6.7-7.3,10.1c-0.3,0.5-1,0.9-0.6,1.7
	c-0.5-0.3-0.8,0-1.1,0.4c-1.1,1.2-2.1,2.5-3.3,3.7c-5.1,5.2-10.9,9.5-17,13.5c-6.8,4.4-14,8.1-21.2,11.8c-6.8,3.5-13.7,7-20.4,10.6
	c-11.3,6.1-21.4,13.6-30.4,22.9c-7.3,7.5-13.6,15.8-18.2,25.3c-2.1,4.4-4,9-4.9,13.9c-2.5,9.3-2.1,18.5,0.9,27.6
	c3.3,10,9.4,18,17.5,24.6c13,10.5,28,15.7,44.5,16.8c10.7,0.8,21.3-0.2,31.8-2.2c10.9-2.1,21.5-5.1,32.1-8.6
	c11.4-3.7,22.7-7.5,34.1-11.1c13-4.1,26.2-7.2,39.8-8.5c2.3-0.1,4.6-0.3,6.9-0.4c11.5-0.4,22.8,1.2,33.9,4.2
	c9.9,2.6,19.5,6,29.2,9.2c10.6,3.5,21.3,6.8,32.4,8.5c10.1,1.5,20.1,1.3,30.1-0.9c22-5,47.6-21.3,58-52.4c0.2-0.6,0.1-1.3,0.2-1.9
	c0.2-0.4,0.5-0.7,0.6-1.1c3.2-11.8,3.5-23.6,1.1-35.5c-3.7-18.9-13-34.5-28-46.6c-7-5.7-14.6-10.5-22.7-14.5
	c-7.3-3.7-14.8-7.2-22.2-10.6c-10.2-4.8-20.2-10.1-29.5-16.6C737.5,511.9,737,511.7,736.5,511.5L736.5,511.5z"/>
<path class="st1" d="M674.6,674.9c3.7,0,7.1,1.1,10.6,1.9c9.4,2.2,18.5,5.4,27.7,8.5c8.7,2.9,17.5,5.9,26.4,8c8.5,2,17,3.1,25.8,3
	c12.6-0.2,24.5-3.2,35.7-9.1c10-5.3,18.7-12.2,26-20.9c0.5-0.7,1.2-1.2,1.9-1.8c0.4,1-0.1,1.7-0.6,2.4c-2.2,3-4.2,6.2-6.6,9
	c-4.2,4.8-8.8,9.2-14,12.9c-9.1,6.5-19.1,11.1-30.1,13.5c-4.5,1-9,1.6-13.7,1.8c-10.2,0.3-20.1-1.5-29.7-4.5
	c-6.9-2.2-13.6-4.9-20.2-7.8c-9.1-4.1-18.2-8.1-27.4-12c-3.3-1.4-6.8-2.5-10.2-3.8C675.6,675.7,674.9,675.7,674.6,674.9z"/>
<path class="st1" d="M548.7,539.3c-0.8,0.7-1.5,1.5-2.4,2.2c-5.3,3.8-10.8,7.2-16.5,10.2c-6.4,3.4-12.8,6.7-19.3,10
	c-9.2,4.7-18.2,9.8-26.5,15.9c-11.3,8.3-21.1,17.9-28.7,29.7c-2.3,3.6-4.3,7.4-6.4,11.1c-0.2,0-0.4,0-0.5,0
	c0.5-4.4,2.1-8.5,3.8-12.5c2.9-6.6,6.8-12.5,11.4-18c7.8-9.4,17.1-17,27.4-23.4c6.2-3.9,12.6-7.1,19.3-9.9c9.7-4,19.5-7.9,29.3-11.8
	c2.3-0.9,4.6-2,7-2.9C547.2,539.5,547.9,539.5,548.7,539.3z"/>
<path class="st2" d="M672.5,674.5c0.7-0.2,1.5-0.2,2.1,0.4C673.8,675.3,673.1,675.2,672.5,674.5z"/>
<path class="st3" d="M448.4,619c0.1,0.8-0.1,1.4-0.7,1.9C447.6,620.2,447.7,619.5,448.4,619z"/>
<path class="st4" d="M549.9,538.5c-0.2,0.6-0.6,0.9-1.2,0.8C548.7,538.6,549.2,538.5,549.9,538.5z"/>
<path class="st3" d="M829.5,663.2c0.2-0.3,0.4-0.5,0.5-0.8C829.9,662.7,829.7,663,829.5,663.2z"/>
<path class="st3" d="M830,662.5c0.2-0.3,0.4-0.6,0.5-0.8C830.4,661.9,830.2,662.2,830,662.5z"/>
<path class="st3" d="M830.8,661.2c0.2-0.3,0.3-0.5,0.5-0.8C831.2,660.7,831,661,830.8,661.2z"/>
<path class="st4" d="M550.6,538c-0.3,0.2-0.5,0.4-0.8,0.6C550.1,538.3,550.4,538.2,550.6,538z"/>
<path class="st3" d="M448.3,618.4c0.2,0,0.4,0,0.5,0c-0.2,0.2-0.3,0.5-0.5,0.7C448.4,618.8,448.4,618.6,448.3,618.4z"/>
<path class="st2" d="M828.7,664.4c0.1-0.2,0.3-0.4,0.4-0.7c0.1,0.1,0.1,0.3,0.2,0.4C829.1,664.3,828.9,664.3,828.7,664.4z"/>
<path class="st5" d="M838.7,637.2c0,0.6,0,1.3-0.2,1.9c-10.3,31.2-36,47.4-58,52.4c-10,2.3-20,2.5-30.1,0.9
	c-11.1-1.7-21.8-5-32.4-8.5c-9.7-3.2-19.3-6.6-29.2-9.2c-11.1-2.9-22.4-4.5-33.9-4.2c-2.3,0.1-4.6,0.3-6.9,0.4
	c-1.5-0.2-3-0.5-4.5-0.5c-7.7-0.1-15.4,0.1-23,1.3c-4.9,0.8-9.8,1.3-14.6,2.3c-11.4,2.3-22.7,4.9-34,7.4c-6.4,1.4-12.8,2.8-19.4,3.7
	c-3.5,0.5-6.9,1-10.4,1.4c-3.9,0.4-7.8,0.9-11.8,1.1c-5.7,0.2-11.4,0.2-17.1-0.4c-4.9-0.5-9.8-1.2-14.6-2.5
	c-7.4-2-14.6-4.8-21.2-8.8c-7.5-4.6-14.1-10.1-19.4-17.1c-4.9-6.5-8.4-13.6-9.8-21.7c-0.3-1.6-0.7-3.2-1-4.8
	c0.9-4.9,2.8-9.4,4.9-13.9c4.6-9.5,10.9-17.7,18.2-25.3c8.9-9.2,19.1-16.8,30.4-22.9c6.7-3.6,13.6-7.1,20.4-10.6
	c7.2-3.7,14.4-7.4,21.2-11.8c6.1-3.9,11.9-8.3,17-13.5c1.1-1.2,2.2-2.4,3.3-3.7c0.3-0.3,0.6-0.7,1.1-0.4c5.5-3.5,10.3-7.8,14.6-12.7
	c4.2-4.9,8.5-9.7,13.1-14.3c7.1-7.1,14.8-13.3,23.3-18.7c7.3-4.6,15.1-8.1,23.3-10.4c3.9-1.1,7.9-1.9,11.9-2.1
	c4.6-0.3,9.2-0.1,13.8-0.1c1,0.1,2,0,2.9,0.2c13.6,3,26.3,8.3,38,15.9c4.8,3.1,9.4,6.5,14,9.8c4.7,3.4,9.4,6.9,14.1,10.3
	c0.6,0.5,1.6,0.7,1.5,1.9c0.6,0.7,1.1,1.7,2.4,1.4c0,0,0,0,0,0c-0.3,0.9,0.3,1.4,0.9,1.9c2.2,2,4.4,4,6.6,5.9
	c3.4,2.9,6.8,5.8,10.4,8.6c7.9,6.3,16.6,11.5,25.3,16.6c10.3,5.9,20.3,12.2,29.5,19.8c4.6,3.8,8.8,8,12.6,12.6
	c7.7,9.5,12.8,20.4,15.4,32.4c1,4.5,1.7,9,1.6,13.7C838.7,627.8,838.7,632.5,838.7,637.2z"/>
<rect x="-370" y="81" class="st5" width="235" height="105"/>
<rect x="-370" y="228" class="st6" width="235" height="105"/>
<rect x="-369" y="388" class="st7" width="235" height="105"/>
<rect x="-369" y="541" class="st1" width="235" height="105"/>
</svg>
