<?xml version="1.0" encoding="utf-8"?>
<!-- Generator: Adobe Illustrator 24.1.0, SVG Export Plug-In . SVG Version: 6.00 Build 0)  -->
<svg version="1.1" id="Calque_1" xmlns="http://www.w3.org/2000/svg" xmlns:xlink="http://www.w3.org/1999/xlink" x="0px" y="0px"
	 viewBox="0 0 1920 1080" style="enable-background:new 0 0 1920 1080;" xml:space="preserve">
<style type="text/css">
	.st0{fill:#141312;}
	.st1{fill:#E8DDC8;}
	.st2{fill:#E5D9C5;}
	.st3{fill:#EADFC9;}
	.st4{fill:#F2F2F1;}
</style>
<g>
	<path class="st0" d="M989.1,695.5c-6.6,1.1-13.4,1.9-19.9,3.5c-11.8,2.9-23.5,6.4-35.3,9.6c-10.9,3-21.7,6.1-32.6,8.7
		c-12.4,3-25,4.8-37.9,4.4c-17.2-0.5-33.5-4.2-48.4-13c-6.7-3.9-12.6-8.8-17.6-14.7c-5.3-6.2-9.2-13.2-11.4-21.1
		c-0.5-1.6-1-3.2-1.5-4.8c0-0.4,0.1-0.8,0-1.1c-2.7-16.7,0.8-32.4,7.9-47.5c4.3-9.2,9.7-17.8,15.7-25.9c6.3-8.6,12.9-17,19.3-25.5
		c11.2-14.7,20.9-30.2,27.3-47.6c1.6-4.4,2.9-8.9,4.4-13.3c0.3-0.1,0.3-0.3,0.2-0.5c0.2-0.6,0.5-1.1,0.7-1.7
		c2.3-7.7,4.7-15.4,6.7-23.2c3.3-12.7,6.4-25.5,9.6-38.3c3.3-12.9,7.1-25.7,11.9-38.2c10.6-28.2,36.3-46.7,67.6-45.3
		c4.1,0.2,8.2,0.9,12.3,1.4c1.3,0.4,2.5,0.8,3.8,1.2c5.5,1.4,10.7,3.5,15.8,5.9c10.3,4.7,19.7,10.9,28.7,17.7
		c16.5,12.5,32.1,25.9,47.6,39.6c1.4,1.2,2.9,2.3,4.4,3.4c0,0,0,0,0,0c0.3,0.3,0.7,0.7,1,1c4.1,3.9,8.1,7.8,12.2,11.7
		c14.9,14.3,28.8,29.5,40.6,46.6c10.7,15.5,19.4,32.1,24.7,50.3c5.1,17.9,7,36.1,5,54.5c-2.1,19.8-8.3,38-20.3,54.1
		c-3.6,4.8-7.7,9.2-12.1,13.3c-1.4,1.3-2.7,2.6-4.1,3.8c-0.7,0.3-1.4,0.5-2,1c-10.1,7.5-21.3,12.7-33.2,16.4
		c-9.9,3.1-20,5.3-30.2,6.6c-12.7,1.6-25.4,2.8-38,4.2C1004.4,693.5,996.8,694.5,989.1,695.5z M1100.3,468.5
		C1100.3,468.5,1100.3,468.5,1100.3,468.5c-0.6-0.7-1.2-1.3-1.8-2c-0.8-1-1.5-2.1-2.4-3c-4.7-4.9-9.3-9.8-14.1-14.5
		c-15.4-15.2-31.9-29-48.4-43c-8.9-7.5-17.9-14.9-27.5-21.4c-10-6.8-20.5-12.6-32-16.3c-7.4-2.4-14.8-3.9-22.6-3.3
		c-1.9,0-3.8-0.2-5.6,0.1c-23.4,3-40.3,15.3-50.6,36.4c-3.1,6.4-5.3,13.2-7.5,20c-5.1,16.1-9.2,32.5-13,49
		c-1.2,5.1-2.4,10.2-3.6,15.3c-0.5,1.4-1,2.8-1.4,4.2c-2.9,9.1-5.6,18.3-8.7,27.3c-6.1,17.9-15,34.3-26.4,49.4
		c-6.2,8.2-12.6,16.3-18.8,24.5c-7.7,10.2-14.8,20.8-20,32.5c-4.4,10.1-7.4,20.5-7.4,31.6c0,8.3,1.2,16.4,5.4,23.8
		c4.4,10.2,11.9,17.7,21,23.6c12.9,8.4,27.1,12.7,42.3,13.9c10.3,0.9,20.6,0.1,30.8-1.5c12.2-2,24.2-5.3,36.1-8.7
		c13.5-3.9,27.1-7.6,40.6-11.5c0.7-0.2,1.3-0.6,2-0.9c0.9-0.1,1.8-0.1,2.7-0.2c7.9-1.3,15.9-2.9,23.8-3.9
		c10.4-1.3,20.8-2.3,31.3-3.4c13.8-1.4,27.6-2.9,41.1-5.9c10.6-2.4,21-5.6,30.8-10.5c14.8-7.4,26.8-17.8,35.6-31.8
		c0.7-1.1,1.1-2.3,1.6-3.5c0.5-0.5,1.1-1,1.4-1.6c6.8-12.3,10.7-25.6,12.1-39.6c2.5-24-1.1-47.1-10.4-69.4
		c-8.4-20-20.4-37.5-34.5-53.9c-0.2-0.3-0.6-0.4-0.9-0.6l0,0.2C1101,469.4,1100.6,468.9,1100.3,468.5z"/>
	<path class="st1" d="M859.2,507c-1.5,4.4-2.8,8.9-4.4,13.3c-6.4,17.4-16.1,32.9-27.3,47.6c-6.5,8.5-13,16.9-19.3,25.5
		c-6,8.2-11.3,16.7-15.7,25.9c-7.1,15.1-10.6,30.8-7.9,47.5c0.1,0.4,0,0.7,0,1.1c-1.2,0.1-2.1-0.6-2.9-1.4
		c-10.2-10.8-15.8-23.5-16.1-38.4c-0.1-4.1,0.2-8.2,1.4-12.2c1.7-6.1,2.9-12.4,5.9-18.1c2.1-3.9,4.2-7.9,6.8-11.6
		c5.8-8.3,12.4-15.9,20-22.7c10.6-9.4,21.4-18.7,32-28.1c6.7-6,13.2-12.2,18.9-19.1c1.3-1.6,2.4-3.3,3.8-4.9
		C855.8,509.8,856.8,507.6,859.2,507z"/>
	<path class="st2" d="M989.1,695.5c7.6-0.9,15.2-2,22.9-2.8c12.7-1.4,25.4-2.7,38-4.2c10.3-1.3,20.3-3.5,30.2-6.6
		c11.9-3.8,23.1-8.9,33.2-16.4c0.6-0.4,1.3-0.7,2-1c-0.6,3.4-3.3,5.4-5.5,7.6c-5,5.1-10.5,9.5-16.6,13.2c-6.7,4.1-14.1,6.8-21.6,9.3
		c-7.9,2.6-16.1,3.6-24.2,4.4c-6.3,0.6-12.7,0.3-19,0.2c-4.1,0-8.2-0.2-12.3-0.4c-4.1-0.3-8.1-0.8-12.2-1.2
		c-3.7-0.4-7.4-0.6-11.1-1.1C991.6,696.4,990.4,695.8,989.1,695.5z"/>
	<path class="st2" d="M1068.4,428.9c-1.5-1.1-3-2.2-4.4-3.4c-15.5-13.7-31.2-27.1-47.6-39.6c-9-6.8-18.4-13-28.7-17.7
		c-5.1-2.3-10.3-4.5-15.8-5.9c-1.3-0.3-2.5-0.8-3.8-1.2c1.6-0.3,3.2-0.7,4.9-0.8c5.6-0.5,11.2,0.6,16.7,1c1.8,0.1,3.7,0.6,5.4,1.3
		c5.2,2.2,10.4,4.2,15.3,6.9c8.1,4.3,15.6,9.6,22,16.3c4.6,4.7,9.5,9.1,13.7,14c7.4,8.7,14.4,17.7,21.5,26.6
		C1068.2,427.1,1068.2,428.1,1068.4,428.9z"/>
	<path class="st1" d="M860.1,504.8c-0.2,0.6-0.5,1.1-0.7,1.7C859.6,505.9,859.9,505.4,860.1,504.8z"/>
	<path class="st2" d="M1069.4,430c-0.3-0.3-0.7-0.7-1-1C1068.8,429.3,1069.1,429.6,1069.4,430z"/>
	<path class="st3" d="M1133.5,634.8c-0.5,1.2-0.9,2.4-1.6,3.5c-8.8,14-20.8,24.5-35.6,31.8c-9.8,4.9-20.1,8.1-30.8,10.5
		c-13.6,3-27.3,4.5-41.1,5.9c-10.4,1.1-20.9,2-31.3,3.4c-8,1-15.9,2.6-23.8,3.9c-0.9,0.1-1.8,0.1-2.7,0.2c-1.1-0.3-2.2-0.7-3.3-0.8
		c-6.3-0.4-12.7-0.9-19-0.9c-14,0.1-28,0.7-42,2.1c-14.7,1.5-29.5,2.3-44.3,2c-6.6-0.1-13.2-0.4-19.5-1.7c-8.9-1.9-18-3.6-26.4-7.7
		c-3.9-1.9-7.8-3.5-11.5-5.8c-1.4-0.9-2.8-1.9-4.3-2.7c-0.9-0.5-1.8-0.2-2.5,0.5c-4.2-7.4-5.4-15.5-5.4-23.8c0-11.1,3-21.5,7.4-31.6
		c5.2-11.7,12.3-22.3,20-32.5c6.2-8.2,12.6-16.3,18.8-24.5c11.4-15.1,20.3-31.5,26.4-49.4c3.1-9.1,5.8-18.2,8.7-27.3
		c0.5-1.4,0.9-2.8,1.4-4.2c1.8-1.2,2.6-3.1,3.6-4.9c2-3.8,4-7.6,5.9-11.4c3.6-7.3,7.2-14.7,10.8-22c4.6-9.3,9.1-18.7,13.8-28
		c4-7.8,8.5-15.3,12.8-22.9c6.6-11.5,15.1-20.7,26.7-27.2c2.3-1.3,4.4-2.9,6.6-4.3c7.8-0.5,15.3,1,22.6,3.3c11.5,3.7,22,9.5,32,16.3
		c9.6,6.6,18.7,13.9,27.5,21.4c16.4,14,33,27.8,48.4,43c4.8,4.7,9.5,9.7,14.1,14.5c0.9,0.9,1.6,2,2.4,3c0,1.2,0.8,1.6,1.7,2
		c0,0,0,0,0,0c0.3,0.5,0.7,0.9,1,1.4c0,0,0-0.2,0-0.2c0,0.9-0.3,2,0.1,2.7c1,2,2.2,3.9,3.4,5.8c1.7,2.6,3.7,5.1,5.4,7.8
		c3,4.9,5.7,10.1,8.4,15.2c3.2,6.1,6.3,12.3,9,18.7c5.4,12.9,10,26.1,12.3,40c1.4,8.5,2.4,17,2.3,25.6c-0.2,9.3-0.4,18.6-3.1,27.7
		c-0.5,1.6-0.4,3.3-0.6,5c-0.2,1.3-0.1,2.8-0.8,3.8C1135.1,626,1134.7,630.5,1133.5,634.8z"/>
	<path class="st4" d="M1133.5,634.8c1.2-4.3,1.7-8.8,4.1-12.8c0.6-1,0.6-2.5,0.8-3.8c0.2-1.7,0.2-3.4,0.6-5
		c2.7-9.1,2.9-18.4,3.1-27.7c0.1-8.6-0.9-17.1-2.3-25.6c-2.3-13.9-6.9-27.1-12.3-40c-2.7-6.4-5.7-12.5-9-18.7
		c-2.7-5.1-5.3-10.3-8.4-15.2c-1.7-2.7-3.6-5.2-5.4-7.8c-1.2-1.9-2.4-3.8-3.4-5.8c-0.4-0.7-0.1-1.8-0.1-2.7c0.3,0.2,0.7,0.4,0.9,0.6
		c14,16.3,26.1,33.9,34.5,53.9c9.3,22.3,12.9,45.4,10.4,69.4c-1.4,14-5.3,27.2-12.1,39.6C1134.6,633.8,1134,634.3,1133.5,634.8z"/>
	<path class="st4" d="M1100.3,468.5c-0.9-0.4-1.8-0.8-1.7-2C1099.1,467.1,1099.7,467.8,1100.3,468.5z"/>
	<path class="st4" d="M1101.3,469.8c-0.3-0.5-0.7-0.9-1-1.4C1100.6,468.9,1101,469.4,1101.3,469.8z"/>
</g>
</svg>
