<?xml version="1.0" encoding="utf-8"?>
<!-- Generator: Adobe Illustrator 24.1.0, SVG Export Plug-In . SVG Version: 6.00 Build 0)  -->
<svg version="1.1" id="Calque_1" xmlns="http://www.w3.org/2000/svg" xmlns:xlink="http://www.w3.org/1999/xlink" x="0px" y="0px"
	 viewBox="0 0 1920 1080" style="enable-background:new 0 0 1920 1080;" xml:space="preserve">
<style type="text/css">
	.st0{fill:#110F0E;}
	.st1{fill:#D0B18A;}
	.st2{fill:#E3C7AF;}
</style>
<path class="st0" d="M1125,561.3c-2.4,20.7-9.7,39.6-21.3,56.9c-5.9,8.7-12.4,16.9-19.8,24.4c-28.2,28.6-62.1,46.8-101.4,55
	c-16.7,3.5-33.5,4.7-50.4,3.7c-21.1-1.3-41.4-6-60.4-15.6c-25.4-12.8-44.4-32.2-58.4-56.8c-9.6-16.9-15.8-35.1-18.5-54.4
	c-5.8-41.9,1.6-81.4,21.6-118.6c3.8-7.1,8.7-13.6,13.2-20.4c0.3-0.4,0.6-0.8,0.9-1.2c0,0,0,0,0,0c0.3-0.4,0.6-0.7,0.9-1.1
	c0,0,0-0.1,0-0.1c0.9-0.2,1.4-0.7,1.3-1.7c0,0,0,0,0,0c0.7,0,1.1-0.4,0.9-1.1c0,0,0,0,0,0c1.8-0.4,2.6-2,3.8-3.2
	c10.6-10.5,22.7-18.7,36.6-24.1c14.9-5.9,30.5-8.9,46.5-9.4c11.2-0.3,22.3-0.1,33.5,0.8c16.2,1.4,32.2,4.1,47.8,8.5
	c23.5,6.7,45.4,16.6,64.7,31.7c39.8,31.3,59,72.5,58.4,123C1124.8,559,1124.9,560.1,1125,561.3z M1084.4,634.4
	C1084.4,634.4,1084.3,634.5,1084.4,634.4c0.3-0.3,0.7-0.7,1-1c0,0-0.1,0.1-0.1,0.1c0.4-0.4,0.7-0.7,1.1-1.1c0,0-0.1,0.1-0.1,0.1
	c0.4-0.4,0.7-0.7,1.1-1.1l-0.1,0.1c0.4-0.4,0.7-0.7,1.1-1.1l-0.1,0.1c0.7-0.5,1.8-0.9,1.1-2.1l-0.1,0.1c1.1-0.1,1.9-0.4,1.1-1.7
	c1.7,0.9,2.1-0.7,2.6-1.5c7.6-10.2,14.3-20.9,19.1-32.8c4.7-11.5,7.6-23.5,8-35.9c0.2-7.4-0.2-14.9-1.2-22.3
	c-2.6-19.9-9-38.4-19.2-55.7c-12-20.1-28.4-36-48.1-48.6c-23.3-14.9-48.9-23.5-76-28.1c-12-2.1-24.1-3.1-36.3-3.7
	c-15.6-0.7-31.1,0.1-46.4,3.7c-27.3,6.4-49.2,20.9-65.3,44c-4.7,6.8-8.8,14-12.4,21.5c-7.2,15.2-11.7,31.3-15.1,47.7
	c-0.3,1.6-1.1,3.2-0.1,4.9c-0.2,0.3-0.6,0.5-0.6,0.8c-0.5,3.2-1,6.3-1.2,9.5c-0.9,10.3-1.2,20.6-0.4,30.9
	c1.2,15.3,3.9,30.2,9.6,44.4c21.2,52.7,59.7,83.4,116.4,90.4c15.9,2,31.7,1.3,47.5-1.1c22.2-3.4,43.3-10.4,63.1-21
	c17.1-9.2,32.5-20.6,46-34.5c1.1-1.2,2.7-2.1,2.9-4c0,0-0.1,0-0.1,0C1083.7,635.2,1084.1,634.8,1084.4,634.4z"/>
<path class="st1" d="M1125,561.3c0-1.2-0.1-2.4-0.1-3.5c0.6-50.5-18.6-91.7-58.4-123c-19.3-15.1-41.2-25.1-64.7-31.7
	c-15.7-4.4-31.6-7.1-47.8-8.5c-11.1-1-22.3-1.2-33.5-0.8c-16,0.4-31.6,3.5-46.5,9.4c-13.9,5.5-26,13.6-36.6,24.1
	c-1.2,1.2-2,2.8-3.8,3.2c-0.5-1.3,0.2-2.3,0.9-3.3c11.8-16,26.1-29.2,44.3-37.7c9.3-4.3,19-7.1,29-8.7c8-1.3,16.1-2.3,24.2-2
	c6.7,0.3,13.4,1,20.2,1.6c10.4,0.9,20.7,3,30.9,5.1c8.9,1.9,17.7,4.4,26.3,7.3c9.3,3.1,18.4,6.8,27.1,11.3
	c14.1,7.1,27.2,15.7,39.1,26.1c15.2,13.1,27.2,28.6,36.2,46.5c6.3,12.5,10.5,25.7,12.7,39.4c1.7,10.2,2.6,20.4,2.1,30.8
	c-0.2,4.2-0.6,8.4-1,12.6C1125.7,560.1,1125.2,560.7,1125,561.3z"/>
<path class="st1" d="M832.7,431.5c0.1,1-0.4,1.5-1.3,1.7C831.3,432.2,831.5,431.5,832.7,431.5z"/>
<path class="st1" d="M833.6,430.4c0.1,0.7-0.2,1.1-0.9,1.1C832.5,430.8,832.8,430.3,833.6,430.4z"/>
<path class="st1" d="M831.3,433.3c-0.3,0.4-0.6,0.7-0.9,1.1C830.7,434,831,433.6,831.3,433.3z"/>
<path class="st1" d="M830.4,434.4c-0.3,0.4-0.6,0.8-0.9,1.2C829.8,435.1,830.1,434.7,830.4,434.4z"/>
<path class="st2" d="M800,520.1c-1-1.6-0.2-3.3,0.1-4.9c3.4-16.4,7.9-32.5,15.1-47.7c3.5-7.5,7.6-14.7,12.4-21.5
	c16-23.2,37.9-37.6,65.3-44c15.3-3.6,30.8-4.4,46.4-3.7c12.2,0.6,24.3,1.6,36.3,3.7c27.1,4.7,52.7,13.3,76,28.1
	c19.7,12.6,36.1,28.4,48.1,48.6c10.3,17.2,16.7,35.8,19.2,55.7c1,7.4,1.4,14.8,1.2,22.3c-0.3,12.5-3.3,24.4-8,35.9
	c-4.8,11.8-11.6,22.5-19.1,32.8c-0.6,0.8-0.9,2.5-2.6,1.5c-0.4,0.6-0.7,1.1-1.1,1.7c0,0,0.1-0.1,0.1-0.1c-0.9,0.4-1.1,1.2-1.1,2.1
	c0,0,0.1-0.1,0.1-0.1c-0.4,0.4-0.7,0.7-1.1,1.1c0,0,0.1-0.1,0.1-0.1c-0.4,0.4-0.7,0.7-1.1,1.1c0,0,0.1-0.1,0.1-0.1
	c-0.7,0-1.1,0.3-1.1,1.1c0,0,0.1-0.1,0.1-0.1c-0.8,0-1.1,0.3-1.1,1.1c0,0,0.1-0.1,0.1-0.1c-0.8-0.1-1.1,0.3-1.1,1.1c0,0,0.1,0,0.1,0
	c-2.3-0.2-3.7,1.4-5.1,2.7c-5.1,4.5-10.4,8.6-16,12.4c-10.8,7.3-22.1,13.6-34.2,18.6c-7.7,3.1-15.4,5.9-23.5,8
	c-8.3,2.2-16.7,4.1-25.2,5.2c-7.4,1-14.7,1.9-22.2,1.8c-8.1-0.1-16.2,0.2-24.3-0.9c-6.9-0.9-13.7-1.7-20.5-3.2
	c-11.2-2.5-22.2-6-32.6-10.9c-14.8-6.9-28-16.2-39.4-28.1c-9.3-9.7-17.1-20.4-23.3-32.3c-6.5-12.5-11.4-25.6-14.1-39.4
	c-1.2-6.3-2.5-12.6-2.8-19C799.7,540.4,800.1,530.2,800,520.1z"/>
</svg>
