<?xml version="1.0" encoding="utf-8"?>
<!-- Generator: Adobe Illustrator 24.1.0, SVG Export Plug-In . SVG Version: 6.00 Build 0)  -->
<svg version="1.1" id="Calque_1" xmlns="http://www.w3.org/2000/svg" xmlns:xlink="http://www.w3.org/1999/xlink" x="0px" y="0px"
	 viewBox="0 0 161.5 154.6" style="enable-background:new 0 0 161.5 154.6;" xml:space="preserve">
<style type="text/css">
	.st0{opacity:0.85;enable-background:new    ;}
	.st1{fill:url(#SVGID_1_);stroke:#F9F9F9;stroke-width:0.3421;stroke-miterlimit:10;}
	.st2{fill:url(#SVGID_2_);stroke:#F9F9F9;stroke-width:0.3421;stroke-miterlimit:10;}
	.st3{fill:url(#SVGID_3_);stroke:#F9F9F9;stroke-width:0.3421;stroke-miterlimit:10;}
	.st4{fill:url(#SVGID_4_);stroke:#F9F9F9;stroke-width:0.3421;stroke-miterlimit:10;}
	.st5{fill:url(#SVGID_5_);stroke:#F9F9F9;stroke-width:0.3421;stroke-miterlimit:10;}
	.st6{fill:url(#SVGID_6_);stroke:#F9F9F9;stroke-width:0.3421;stroke-miterlimit:10;}
	.st7{fill:url(#SVGID_7_);stroke:#F9F9F9;stroke-width:0.3421;stroke-miterlimit:10;}
	.st8{fill:url(#SVGID_8_);}
	.st9{fill:#E8505B;}
	.st10{fill:url(#SVGID_9_);}
	.st11{fill:url(#SVGID_10_);}
	.st12{fill:none;stroke:url(#SVGID_11_);stroke-width:1.2895;stroke-miterlimit:10;}
	.st13{fill:none;stroke:#8B9CB6;stroke-width:0.5731;stroke-miterlimit:10;}
</style>
<g>
	<g class="st0">
		<linearGradient id="SVGID_1_" gradientUnits="userSpaceOnUse" x1="61.7738" y1="72.9905" x2="139.945" y2="72.9905">
			<stop  offset="0" style="stop-color:#F2F2F2"/>
			<stop  offset="0.9923" style="stop-color:#C6EDEE"/>
		</linearGradient>
		<path class="st1" d="M139.9,76.2c-0.6,4.9-2.3,9.3-5,13.4c-1.4,2-2.9,4-4.7,5.7c-6.6,6.7-14.6,11-23.9,12.9
			c-3.9,0.8-7.9,1.1-11.9,0.9c-5-0.3-9.7-1.4-14.2-3.7c-6-3-10.5-7.6-13.7-13.4c-2.3-4-3.7-8.3-4.4-12.8c-1.4-9.9,0.4-19.2,5.1-27.9
			c0.9-1.7,2-3.2,3.1-4.8c0.1-0.1,0.1-0.2,0.2-0.3l0,0c0.1-0.1,0.1-0.2,0.2-0.3v0c0.2,0,0.3-0.2,0.3-0.4l0,0c0.2,0,0.3-0.1,0.2-0.3
			l0,0c0.4-0.1,0.6-0.5,0.9-0.8c2.5-2.5,5.3-4.4,8.6-5.7c3.5-1.4,7.2-2.1,10.9-2.2c2.6-0.1,5.2,0,7.9,0.2c3.8,0.3,7.6,1,11.3,2
			c5.5,1.6,10.7,3.9,15.2,7.5c9.4,7.4,13.9,17.1,13.7,29C139.9,75.7,139.9,75.9,139.9,76.2z M130.4,93.4
			C130.4,93.4,130.4,93.5,130.4,93.4c0.1-0.1,0.2-0.2,0.2-0.2l0,0c0.1-0.1,0.2-0.2,0.3-0.3l0,0c0.1-0.1,0.2-0.2,0.3-0.3l0,0
			c0.1-0.1,0.2-0.2,0.3-0.3l0,0c0.2-0.1,0.4-0.2,0.3-0.5l0,0c0.3,0,0.4-0.1,0.3-0.4c0.4,0.2,0.5-0.2,0.6-0.4
			c1.8-2.4,3.4-4.9,4.5-7.7c1.1-2.7,1.8-5.5,1.9-8.4c0-1.7,0-3.5-0.3-5.2c-0.6-4.7-2.1-9-4.5-13.1c-2.8-4.7-6.7-8.5-11.3-11.4
			c-5.5-3.5-11.5-5.5-17.9-6.6c-2.8-0.5-5.7-0.7-8.5-0.9c-3.7-0.2-7.3,0-10.9,0.9c-6.4,1.5-11.6,4.9-15.4,10.4
			c-1.1,1.6-2.1,3.3-2.9,5.1c-1.7,3.6-2.8,7.4-3.6,11.2c-0.1,0.4-0.3,0.8,0,1.2c0,0.1-0.1,0.1-0.1,0.2c-0.1,0.8-0.2,1.5-0.3,2.2
			c-0.2,2.4-0.3,4.8-0.1,7.3c0.3,3.6,0.9,7.1,2.3,10.5c5,12.4,14.1,19.6,27.4,21.3c3.7,0.5,7.5,0.3,11.2-0.3
			c5.2-0.8,10.2-2.4,14.9-4.9c4-2.2,7.6-4.8,10.8-8.1c0.3-0.3,0.6-0.5,0.7-0.9h0C130.2,93.6,130.3,93.5,130.4,93.4z"/>
		<linearGradient id="SVGID_2_" gradientUnits="userSpaceOnUse" x1="71.3179" y1="54.7417" x2="140.354" y2="54.7417">
			<stop  offset="0" style="stop-color:#F2F2F2"/>
			<stop  offset="0.9923" style="stop-color:#C6EDEE"/>
		</linearGradient>
		<path class="st2" d="M139.9,76.2c0-0.3,0-0.6,0-0.8c0.1-11.9-4.4-21.6-13.7-29c-4.5-3.6-9.7-5.9-15.2-7.5c-3.7-1-7.4-1.7-11.3-2
			c-2.6-0.2-5.2-0.3-7.9-0.2c-3.8,0.1-7.4,0.8-10.9,2.2c-3.3,1.3-6.1,3.2-8.6,5.7c-0.3,0.3-0.5,0.7-0.9,0.8c-0.1-0.3,0-0.5,0.2-0.8
			c2.8-3.8,6.1-6.9,10.4-8.9c2.2-1,4.5-1.7,6.8-2c1.9-0.3,3.8-0.5,5.7-0.5c1.6,0.1,3.2,0.2,4.8,0.4c2.4,0.2,4.9,0.7,7.3,1.2
			c2.1,0.4,4.2,1,6.2,1.7c2.2,0.7,4.3,1.6,6.4,2.7c3.3,1.7,6.4,3.7,9.2,6.1c3.6,3.1,6.4,6.7,8.5,10.9c1.5,2.9,2.5,6,3,9.3
			c0.4,2.4,0.6,4.8,0.5,7.2c0,1-0.1,2-0.2,3C140.1,75.9,140,76.1,139.9,76.2z"/>
		<linearGradient id="SVGID_3_" gradientUnits="userSpaceOnUse" x1="70.8346" y1="45.8745" x2="71.1488" y2="45.8745">
			<stop  offset="0" style="stop-color:#F2F2F2"/>
			<stop  offset="0.9923" style="stop-color:#C6EDEE"/>
		</linearGradient>
		<path class="st3" d="M71.1,45.7c0,0.2-0.1,0.4-0.3,0.4C70.8,45.8,70.9,45.7,71.1,45.7z"/>
		<linearGradient id="SVGID_4_" gradientUnits="userSpaceOnUse" x1="71.1317" y1="45.5435" x2="71.3621" y2="45.5435">
			<stop  offset="0" style="stop-color:#F2F2F2"/>
			<stop  offset="0.9923" style="stop-color:#C6EDEE"/>
		</linearGradient>
		<path class="st4" d="M71.4,45.4c0,0.2,0,0.3-0.2,0.3C71.1,45.5,71.2,45.4,71.4,45.4z"/>
		<linearGradient id="SVGID_5_" gradientUnits="userSpaceOnUse" x1="70.6045" y1="46.2275" x2="70.8163" y2="46.2275">
			<stop  offset="0" style="stop-color:#F2F2F2"/>
			<stop  offset="0.9923" style="stop-color:#C6EDEE"/>
		</linearGradient>
		<path class="st5" d="M70.8,46.1c-0.1,0.1-0.1,0.2-0.2,0.3C70.7,46.3,70.7,46.2,70.8,46.1z"/>
		<linearGradient id="SVGID_6_" gradientUnits="userSpaceOnUse" x1="70.3927" y1="46.4982" x2="70.6045" y2="46.4982">
			<stop  offset="0" style="stop-color:#F2F2F2"/>
			<stop  offset="0.9923" style="stop-color:#C6EDEE"/>
		</linearGradient>
		<path class="st6" d="M70.6,46.4c-0.1,0.1-0.1,0.2-0.2,0.3C70.5,46.5,70.5,46.4,70.6,46.4z"/>
		<linearGradient id="SVGID_7_" gradientUnits="userSpaceOnUse" x1="63.3345" y1="71.492" x2="138.8035" y2="71.492">
			<stop  offset="0" style="stop-color:#F2F2F2"/>
			<stop  offset="0.9923" style="stop-color:#C6EDEE"/>
		</linearGradient>
		<path class="st7" d="M63.4,66.5c-0.2-0.4,0-0.8,0-1.2c0.8-3.9,1.9-7.6,3.6-11.2c0.8-1.8,1.8-3.5,2.9-5.1
			c3.8-5.5,8.9-8.8,15.4-10.4c3.6-0.8,7.2-1,10.9-0.9c2.9,0.1,5.7,0.4,8.5,0.9c6.4,1.1,12.4,3.1,17.9,6.6c4.6,3,8.5,6.7,11.3,11.4
			c2.4,4,3.9,8.4,4.5,13.1c0.2,1.7,0.3,3.5,0.3,5.2c-0.1,2.9-0.8,5.7-1.9,8.4c-1.1,2.8-2.7,5.3-4.5,7.7c-0.1,0.2-0.2,0.6-0.6,0.4
			c-0.1,0.1-0.2,0.3-0.3,0.4l0,0c-0.2,0.1-0.3,0.3-0.3,0.5l0,0c-0.1,0.1-0.2,0.2-0.3,0.3l0,0c-0.1,0.1-0.2,0.2-0.3,0.3l0,0
			c-0.2,0-0.3,0.1-0.3,0.3l0,0c-0.2,0-0.3,0.1-0.3,0.3l0,0c-0.2,0-0.3,0.1-0.3,0.3h0c-0.5,0-0.9,0.3-1.2,0.6c-1.2,1.1-2.4,2-3.8,2.9
			c-2.5,1.7-5.2,3.2-8,4.4c-1.8,0.7-3.6,1.4-5.5,1.9c-2,0.5-3.9,1-5.9,1.2c-1.7,0.2-3.5,0.4-5.2,0.4c-1.9,0-3.8,0-5.7-0.2
			c-1.6-0.2-3.2-0.4-4.8-0.8c-2.6-0.6-5.2-1.4-7.7-2.6c-3.5-1.6-6.6-3.8-9.3-6.6c-2.2-2.3-4-4.8-5.5-7.6c-1.5-2.9-2.7-6-3.3-9.3
			c-0.3-1.5-0.6-3-0.7-4.5C63.4,71.3,63.5,68.9,63.4,66.5z"/>
	</g>
	
		<linearGradient id="SVGID_8_" gradientUnits="userSpaceOnUse" x1="809.4171" y1="380.6772" x2="853.4432" y2="380.6772" gradientTransform="matrix(0.1032 -0.9947 0.9947 0.1032 -423.6084 896.4097)">
		<stop  offset="2.759910e-03" style="stop-color:#547ED1"/>
		<stop  offset="1" style="stop-color:#54ADD1"/>
	</linearGradient>
	<path class="st8" d="M39.5,87.9l-0.3,2.9c-2.3,0.2-4.6,0.8-6.5,1.7l-2.1-2.3c-0.5-0.6-1.4-0.7-1.9-0.2l-3.9,3.1
		c-0.6,0.5-0.7,1.3-0.2,1.8l1.8,2.3c-1.5,1.8-2.6,3.9-3.3,6.1l-3-0.3c-0.7-0.1-0.8,0.3-0.8,1.1l-0.5,5c-0.1,0.7-0.1,1.6,0.6,1.7
		l3,0.3c0.3,1.6,0.9,4.2,2,6.1l-2.2,1.7c-0.6,0.5-0.6,1.2-0.2,1.8l3.1,3.9c0.5,0.6,1.3,0.6,1.8,0.2l2.3-1.9c1.7,1.3,4,2.4,6.1,3
		c0,0,0.4,0,0.4,0.1l-0.3,3.1c-0.1,0.7-0.3,1.1,0.4,1.2l5,0.5c0.7,0.1,2.3-0.2,2.3-0.9l0.3-3.1l-0.5-0.1c2.2-0.3,4.1-1,6.1-2
		c0,0-0.1,0-0.1,0.1l1.9,2.4c0.5,0.6,1.2,0.6,1.8,0.2l3.9-3.1c0.6-0.5,0.6-1.3,0.2-1.8l-2-2.4c-0.1-0.1-0.1-0.1-0.2-0.2
		c1.2-1.6,2.2-3.2,2.8-5.2v0.2l3.1,0.3c0.7,0.1,2-0.7,2-1.4l0.5-5c0.1-0.7-1-1.3-1.8-1.3l-3.1-0.3v-0.1c-0.2-2.2-0.8-4.3-1.8-6.2
		c0.1,0,0.1-0.1,0.2-0.1l2.4-2c0.6-0.5,0.6-1.3,0.2-1.8l-3.1-3.9c-0.5-0.6-1.3-0.6-1.8-0.2l-2.4,2l0.4,0.1c-1.7-1.4-3.7-2.5-5.2-3.1
		l0.3-3c0.1-0.7-1.3-1.6-2.1-1.7l-5-0.5C39.5,86.4,39.6,87.2,39.5,87.9z M25.3,107.1c0.9-8.2,8.2-14.2,16.4-13.4
		c8.2,0.9,14.2,8.2,13.4,16.4c-0.9,8.2-8.2,14.2-16.4,13.4S24.5,115.3,25.3,107.1z"/>
	<path class="st9" d="M41.9,128.1l2.5,0.4c0.1,1.9,0.5,3.6,1.2,5.2l-2,1.5c-0.5,0.4-0.6,1.1-0.2,1.5l2.5,3.4
		c0.4,0.5,1.1,0.6,1.5,0.2l1.9-1.4c1.4,1.3,3.1,2.3,4.9,3l-0.4,2.5c-0.1,0.6,0.4,1.1,1,1.2l4.2,0.6c0.6,0.1,1.2-0.3,1.3-0.9l0.4-2.5
		c1.8-0.1,3.7-0.6,5.4-1.4l1.4,1.9c0.4,0.5,1.1,0.6,1.5,0.2l3.4-2.5c0.5-0.4,0.6-1.1,0.2-1.5l-1.5-2c1.2-1.4,2.1-3,2.8-4.7l0,0
		l2.6,0.4c0.6,0.1,1.2-0.3,1.2-0.9l0.6-4.2c0.1-0.6-0.3-1.2-0.9-1.3l-2.6-0.4h-0.1c-0.1-1.9-0.6-3.7-1.4-5.4c0,0,0,0,0.1,0l2.1-1.6
		c0.5-0.4,0.6-1.1,0.2-1.5l-2.5-3.4c-0.4-0.5-1.1-0.6-1.5-0.2l-2.1,1.6c-0.1,0-0.1,0.1-0.1,0.1c-1.3-1.1-2.8-2-4.4-2.6l0,0l0.4-2.6
		c0.1-0.6-0.3-1.2-0.9-1.3l-4.2-0.6c-0.6-0.1-1.2,0.4-1.3,1l-0.4,2.6l0,0c-1.8,0.1-3.6,0.6-5.2,1.3c0-0.1,0-0.1-0.1-0.2l-1.6-2.1
		c-0.4-0.5-1.1-0.6-1.5-0.2l-3.4,2.5c-0.5,0.4-0.6,1.1-0.2,1.5l1.6,2.1c0,0,0,0,0.1,0.1c-1.2,1.3-2.2,2.9-2.9,4.7l-2.5-0.4
		c-0.6-0.1-1.2,0.3-1.3,0.9l-0.6,4.2C40.9,127.5,41.3,128,41.9,128.1z M57.7,140.2c-6.9-1-11.7-7.5-10.7-14.4s7.5-11.7,14.4-10.7
		s11.7,7.5,10.7,14.4C71.1,136.5,64.6,141.3,57.7,140.2z"/>
	<g>
		<g>
			
				<linearGradient id="SVGID_9_" gradientUnits="userSpaceOnUse" x1="34.1444" y1="40.1643" x2="62.8086" y2="40.1643" gradientTransform="matrix(1 0 0 1 0 -10)">
				<stop  offset="2.759910e-03" style="stop-color:#547ED1"/>
				<stop  offset="1" style="stop-color:#54ADD1"/>
			</linearGradient>
			<path class="st10" d="M63.3,27.3c-0.1-6.8-7.1-10.7-13.2-11.2c-6.4-0.6-14.3,2.2-16.4,8.9c-0.1,0.5,0.2,0.9,0.7,0.9
				c3.3,0.1,6.8,1,9.3,3.3c2.5,2.2,3.5,5.3,2.2,8.5c-0.2,0.5,0.3,0.9,0.7,0.9c1.6,0.1,3.3,0,4.9-0.2c-0.3-0.1-0.5-0.2-0.8-0.3
				c0.6,0.9,1.2,1.8,1.4,2.9c0.2,0.8-0.1,1.8,0.3,2.6c0.7,1.1,1.9,0.7,2.7,0c2.4-2.1,3.7-5,2.8-8.1c-0.1,0.3-0.2,0.5-0.3,0.8
				C60.8,34.2,63.2,31.2,63.3,27.3c0-0.9-1.4-0.9-1.4,0c-0.1,3.3-2.2,5.9-4.9,7.6c-0.3,0.2-0.4,0.5-0.3,0.8c0.7,2.5-0.2,4.6-2,6.3
				c-0.1,0.1-0.3,0.3-0.4,0.4c-0.4,0.2-0.3,0.3-0.4-0.1c-0.2-0.4,0-1.2-0.1-1.7c-0.3-1.2-0.9-2.4-1.6-3.4c-0.2-0.3-0.5-0.4-0.8-0.3
				c-1.5,0.2-3,0.3-4.5,0.2c0.2,0.3,0.5,0.6,0.7,0.9c1.4-3.5,0.3-7.1-2.4-9.7c-2.8-2.7-6.8-3.9-10.6-4c0.2,0.3,0.5,0.6,0.7,0.9
				c1.8-6,9-8.2,14.6-7.8c5.4,0.4,12,3.7,12.1,9.8C61.8,28.3,63.3,28.3,63.3,27.3z"/>
		</g>
	</g>
	<g>
		<g>
			
				<linearGradient id="SVGID_10_" gradientUnits="userSpaceOnUse" x1="20.8928" y1="47.4472" x2="47.5697" y2="47.4472" gradientTransform="matrix(1 0 0 1 0 -10)">
				<stop  offset="2.759910e-03" style="stop-color:#547ED1"/>
				<stop  offset="1" style="stop-color:#54ADD1"/>
			</linearGradient>
			<path class="st11" d="M34.4,24.4c-4.8,0-10.3,1.9-12.9,6.3c-2.7,4.7-0.2,9.8,4,12.4c-0.1-0.3-0.2-0.5-0.3-0.8
				c-0.8,2.9,0.4,5.6,2.6,7.5c0.7,0.6,1.9,1.1,2.5,0.1c0.5-0.7,0.1-1.6,0.3-2.4c0.2-1,0.7-1.9,1.3-2.7c-0.3,0.1-0.5,0.2-0.8,0.3
				c6.5,1,16.1-1.7,16.8-9.6C48.6,28.3,40.5,24.6,34.4,24.4c-0.9,0-0.9,1.4,0,1.4c5.2,0.1,12.3,3.1,12.1,9.3
				c-0.2,7.1-9.3,9.5-15,8.6c-0.3-0.1-0.6,0-0.8,0.3c-0.6,0.9-1.1,1.8-1.4,2.8c-0.1,0.6-0.1,1.1-0.2,1.6c0,0.2,0.2,0.4-0.1,0.4
				c-0.1,0-0.5-0.4-0.5-0.5c-1.7-1.6-2.5-3.5-1.9-5.8c0.1-0.3-0.1-0.6-0.3-0.8c-3.8-2.4-5.9-6.9-3.2-11c2.4-3.6,7.2-5.1,11.3-5
				C35.4,25.9,35.4,24.4,34.4,24.4z"/>
		</g>
	</g>
	<g>
		
			<linearGradient id="SVGID_11_" gradientUnits="userSpaceOnUse" x1="85.2578" y1="81.2577" x2="116.7336" y2="81.2577" gradientTransform="matrix(1 0 0 1 0 -10)">
			<stop  offset="2.759910e-03" style="stop-color:#547ED1"/>
			<stop  offset="1" style="stop-color:#54ADD1"/>
		</linearGradient>
		<path class="st12" d="M106.4,54v-4.8H88.2c-1.2,0-2.2,1-2.2,2.2v39.7c0,1.2,1,2.2,2.2,2.2h25.7c1.2,0,2.2-1,2.2-2.2V56.2h-7.5
			C107.3,56.2,106.4,55.2,106.4,54z"/>
		<line class="st13" x1="88.7" y1="68.3" x2="111.1" y2="68.3"/>
		<line class="st13" x1="88.9" y1="72.5" x2="111.3" y2="72.5"/>
		<line class="st13" x1="89.2" y1="77.3" x2="111.7" y2="77.3"/>
		<line class="st13" x1="89.4" y1="82.7" x2="100.9" y2="82.7"/>
	</g>
</g>
</svg>
