<?xml version="1.0" encoding="utf-8"?>
<!-- Generator: Adobe Illustrator 24.1.0, SVG Export Plug-In . SVG Version: 6.00 Build 0)  -->
<svg version="1.1" id="Calque_1" xmlns="http://www.w3.org/2000/svg" xmlns:xlink="http://www.w3.org/1999/xlink" x="0px" y="0px"
	 viewBox="0 0 161.5 154.6" style="enable-background:new 0 0 161.5 154.6;" xml:space="preserve">
<style type="text/css">
	.st0{fill:url(#SVGID_1_);stroke:#F9F9F9;stroke-width:0.3421;stroke-miterlimit:10;}
	.st1{fill:url(#SVGID_2_);stroke:#F9F9F9;stroke-width:0.3421;stroke-miterlimit:10;}
	.st2{fill:url(#SVGID_3_);stroke:#F9F9F9;stroke-width:0.3421;stroke-miterlimit:10;}
	.st3{fill:url(#SVGID_4_);stroke:#F9F9F9;stroke-width:0.3421;stroke-miterlimit:10;}
	.st4{fill:url(#SVGID_5_);stroke:#F9F9F9;stroke-width:0.3421;stroke-miterlimit:10;}
	.st5{fill:url(#SVGID_6_);stroke:#F9F9F9;stroke-width:0.3421;stroke-miterlimit:10;}
	.st6{fill:url(#SVGID_7_);stroke:#F9F9F9;stroke-width:0.3421;stroke-miterlimit:10;}
	.st7{fill:url(#SVGID_8_);}
	.st8{fill:#E8505B;}
	.st9{fill:url(#SVGID_9_);}
	.st10{fill:url(#SVGID_10_);}
	.st11{fill:none;stroke:url(#SVGID_11_);stroke-width:1.2895;stroke-miterlimit:10;}
	.st12{fill:none;stroke:#8B9CB6;stroke-width:0.5731;stroke-miterlimit:10;}
</style>
<g>
	
		<linearGradient id="SVGID_1_" gradientUnits="userSpaceOnUse" x1="44.7373" y1="84.0022" x2="122.9085" y2="84.0022" gradientTransform="matrix(1 0 0 -1 0 156)">
		<stop  offset="0" style="stop-color:#F2F2F2"/>
		<stop  offset="0.9923" style="stop-color:#C6EDEE"/>
	</linearGradient>
	<path class="st0" d="M122.9,75.4c-0.6,4.9-2.3,9.3-5,13.4c-1.4,2-2.9,4-4.7,5.7c-6.6,6.7-14.6,11-23.9,12.9
		c-3.9,0.8-7.9,1.1-11.9,0.9c-5-0.3-9.7-1.4-14.2-3.7c-6-3-10.5-7.6-13.7-13.4c-2.3-4-3.7-8.3-4.4-12.8c-1.4-9.9,0.4-19.2,5.1-27.9
		c0.9-1.7,2-3.2,3.1-4.8c0.1-0.1,0.1-0.2,0.2-0.3l0,0c0.1-0.1,0.1-0.2,0.2-0.3l0,0c0.2,0,0.3-0.2,0.3-0.4l0,0c0.2,0,0.3-0.1,0.2-0.3
		l0,0c0.4-0.1,0.6-0.5,0.9-0.8c2.5-2.5,5.3-4.4,8.6-5.7c3.5-1.4,7.2-2.1,10.9-2.2c2.6-0.1,5.2,0,7.9,0.2c3.8,0.3,7.6,1,11.3,2
		c5.5,1.6,10.7,3.9,15.2,7.5c9.4,7.4,13.9,17.1,13.7,29C122.9,74.9,122.9,75.1,122.9,75.4z M113.4,92.6
		C113.4,92.6,113.4,92.7,113.4,92.6c0.1-0.1,0.2-0.2,0.2-0.2l0,0c0.1-0.1,0.2-0.2,0.3-0.3l0,0c0.1-0.1,0.2-0.2,0.3-0.3l0,0
		c0.1-0.1,0.2-0.2,0.3-0.3l0,0c0.2-0.1,0.4-0.2,0.3-0.5l0,0c0.3,0,0.4-0.1,0.3-0.4c0.4,0.2,0.5-0.2,0.6-0.4c1.8-2.4,3.4-4.9,4.5-7.7
		c1.1-2.7,1.8-5.5,1.9-8.4c0-1.7,0-3.5-0.3-5.2c-0.6-4.7-2.1-9-4.5-13.1c-2.8-4.7-6.7-8.5-11.3-11.4c-5.5-3.5-11.5-5.5-17.9-6.6
		c-2.8-0.5-5.7-0.7-8.5-0.9c-3.7-0.2-7.3,0-10.9,0.9c-6.4,1.5-11.6,4.9-15.4,10.4c-1.1,1.6-2.1,3.3-2.9,5.1
		c-1.7,3.6-2.8,7.4-3.6,11.2c-0.1,0.4-0.3,0.8,0,1.2c0,0.1-0.1,0.1-0.1,0.2c-0.1,0.8-0.2,1.5-0.3,2.2c-0.2,2.4-0.3,4.8-0.1,7.3
		c0.3,3.6,0.9,7.1,2.3,10.5c5,12.4,14.1,19.6,27.4,21.3c3.7,0.5,7.5,0.3,11.2-0.3c5.2-0.8,10.2-2.4,14.9-4.9c4-2.2,7.6-4.8,10.8-8.1
		c0.3-0.3,0.6-0.5,0.7-0.9l0,0C113.2,92.8,113.3,92.7,113.4,92.6z"/>
	
		<linearGradient id="SVGID_2_" gradientUnits="userSpaceOnUse" x1="54.3243" y1="102.1126" x2="123.389" y2="102.1126" gradientTransform="matrix(1 0 0 -1 0 156)">
		<stop  offset="0" style="stop-color:#F2F2F2"/>
		<stop  offset="0.9923" style="stop-color:#C6EDEE"/>
	</linearGradient>
	<path class="st1" d="M122.9,75.4c0-0.3,0-0.6,0-0.8c0.1-11.9-4.4-21.6-13.7-29c-4.5-3.6-9.7-5.9-15.2-7.5c-3.7-1-7.4-1.7-11.3-2
		c-2.6-0.2-5.2-0.3-7.9-0.2c-3.8,0.1-7.4,0.8-10.9,2.2c-3.3,1.3-6.1,3.2-8.6,5.7c-0.3,0.3-0.5,0.7-0.9,0.8c-0.1-0.3,0-0.5,0.2-0.8
		c2.8-3.8,6.1-6.9,10.4-8.9c2.2-1,4.5-1.7,6.8-2c1.9-0.3,3.8-0.5,5.7-0.5c1.6,0.1,3.2,0.2,4.8,0.4c2.4,0.2,4.9,0.7,7.3,1.2
		c2.1,0.4,4.2,1,6.2,1.7c2.2,0.7,4.3,1.6,6.4,2.7c3.3,1.7,6.4,3.7,9.2,6.1c3.6,3.1,6.4,6.7,8.5,10.9c1.5,2.9,2.5,6,3,9.3
		c0.4,2.4,0.6,4.8,0.5,7.2c0,1-0.1,2-0.2,3C123.1,75.1,123,75.3,122.9,75.4z"/>
	
		<linearGradient id="SVGID_3_" gradientUnits="userSpaceOnUse" x1="53.7981" y1="110.9126" x2="54.1123" y2="110.9126" gradientTransform="matrix(1 0 0 -1 0 156)">
		<stop  offset="0" style="stop-color:#F2F2F2"/>
		<stop  offset="0.9923" style="stop-color:#C6EDEE"/>
	</linearGradient>
	<path class="st2" d="M54.1,44.9c0,0.2-0.1,0.4-0.3,0.4C53.8,45,53.9,44.9,54.1,44.9z"/>
	
		<linearGradient id="SVGID_4_" gradientUnits="userSpaceOnUse" x1="54.0952" y1="111.2626" x2="54.3256" y2="111.2626" gradientTransform="matrix(1 0 0 -1 0 156)">
		<stop  offset="0" style="stop-color:#F2F2F2"/>
		<stop  offset="0.9923" style="stop-color:#C6EDEE"/>
	</linearGradient>
	<path class="st3" d="M54.4,44.6c0,0.2,0,0.3-0.2,0.3C54.1,44.7,54.2,44.6,54.4,44.6z"/>
	
		<linearGradient id="SVGID_5_" gradientUnits="userSpaceOnUse" x1="53.568" y1="110.5626" x2="53.7798" y2="110.5626" gradientTransform="matrix(1 0 0 -1 0 156)">
		<stop  offset="0" style="stop-color:#F2F2F2"/>
		<stop  offset="0.9923" style="stop-color:#C6EDEE"/>
	</linearGradient>
	<path class="st4" d="M53.8,45.3c-0.1,0.1-0.1,0.2-0.2,0.3C53.7,45.5,53.7,45.4,53.8,45.3z"/>
	
		<linearGradient id="SVGID_6_" gradientUnits="userSpaceOnUse" x1="53.3562" y1="110.2626" x2="53.568" y2="110.2626" gradientTransform="matrix(1 0 0 -1 0 156)">
		<stop  offset="0" style="stop-color:#F2F2F2"/>
		<stop  offset="0.9923" style="stop-color:#C6EDEE"/>
	</linearGradient>
	<path class="st5" d="M53.6,45.6c-0.1,0.1-0.1,0.2-0.2,0.3C53.5,45.7,53.5,45.6,53.6,45.6z"/>
	
		<linearGradient id="SVGID_7_" gradientUnits="userSpaceOnUse" x1="46.298" y1="85.3744" x2="121.767" y2="85.3744" gradientTransform="matrix(1 0 0 -1 0 156)">
		<stop  offset="0" style="stop-color:#F2F2F2"/>
		<stop  offset="0.9923" style="stop-color:#C6EDEE"/>
	</linearGradient>
	<path class="st6" d="M46.4,65.7c-0.2-0.4,0-0.8,0-1.2c0.8-3.9,1.9-7.6,3.6-11.2c0.8-1.8,1.8-3.5,2.9-5.1c3.8-5.5,8.9-8.8,15.4-10.4
		c3.6-0.8,7.2-1,10.9-0.9c2.9,0.1,5.7,0.4,8.5,0.9c6.4,1.1,12.4,3.1,17.9,6.6c4.6,3,8.5,6.7,11.3,11.4c2.4,4,3.9,8.4,4.5,13.1
		c0.2,1.7,0.3,3.5,0.3,5.2c-0.1,2.9-0.8,5.7-1.9,8.4c-1.1,2.8-2.7,5.3-4.5,7.7c-0.1,0.2-0.2,0.6-0.6,0.4c-0.1,0.1-0.2,0.3-0.3,0.4
		l0,0c-0.2,0.1-0.3,0.3-0.3,0.5l0,0c-0.1,0.1-0.2,0.2-0.3,0.3l0,0c-0.1,0.1-0.2,0.2-0.3,0.3l0,0c-0.2,0-0.3,0.1-0.3,0.3l0,0
		c-0.2,0-0.3,0.1-0.3,0.3l0,0c-0.2,0-0.3,0.1-0.3,0.3l0,0c-0.5,0-0.9,0.3-1.2,0.6c-1.2,1.1-2.4,2-3.8,2.9c-2.5,1.7-5.2,3.2-8,4.4
		c-1.8,0.7-3.6,1.4-5.5,1.9c-2,0.5-3.9,1-5.9,1.2c-1.7,0.2-3.5,0.4-5.2,0.4c-1.9,0-3.8,0-5.7-0.2c-1.6-0.2-3.2-0.4-4.8-0.8
		c-2.6-0.6-5.2-1.4-7.7-2.6c-3.5-1.6-6.6-3.8-9.3-6.6c-2.2-2.3-4-4.8-5.5-7.6c-1.5-2.9-2.7-6-3.3-9.3c-0.3-1.5-0.6-3-0.7-4.5
		C46.4,70.5,46.5,68.1,46.4,65.7z"/>
	
		<linearGradient id="SVGID_8_" gradientUnits="userSpaceOnUse" x1="-390.7153" y1="-685.6044" x2="-375.9365" y2="-685.6044" gradientTransform="matrix(0.1032 -0.9947 -0.9947 -0.1032 -596.2742 -375.1593)">
		<stop  offset="2.759910e-03" style="stop-color:#547ED1"/>
		<stop  offset="1" style="stop-color:#54ADD1"/>
	</linearGradient>
	<path class="st7" d="M45.7,69.9l-0.1,1c-0.8,0.1-1.5,0.3-2.2,0.6l-0.7-0.8c-0.2-0.2-0.5-0.2-0.6-0.1l-1.3,1
		c-0.2,0.2-0.2,0.4-0.1,0.6l0.6,0.8c-0.5,0.6-0.9,1.3-1.1,2l-1-0.1c-0.2,0-0.3,0.1-0.3,0.4L38.7,77c0,0.2,0,0.5,0.2,0.6l1,0.1
		c0.1,0.5,0.3,1.4,0.7,2l-0.7,0.6c-0.2,0.2-0.2,0.4-0.1,0.6l1,1.3c0.2,0.2,0.4,0.2,0.6,0.1l0.8-0.6c0.6,0.4,1.3,0.8,2,1
		c0,0,0.1,0,0.1,0l-0.1,1c0,0.2-0.1,0.4,0.1,0.4l1.7,0.2c0.2,0,0.8-0.1,0.8-0.3l0.1-1l-0.2,0c0.7-0.1,1.4-0.3,2-0.7c0,0,0,0,0,0
		l0.6,0.8c0.2,0.2,0.4,0.2,0.6,0.1l1.3-1c0.2-0.2,0.2-0.4,0.1-0.6l-0.7-0.8c0,0,0,0-0.1-0.1c0.4-0.5,0.7-1.1,0.9-1.7V79l1,0.1
		c0.2,0,0.7-0.2,0.7-0.5l0.2-1.7c0-0.2-0.3-0.4-0.6-0.4l-1-0.1v0c-0.1-0.7-0.3-1.4-0.6-2.1c0,0,0,0,0.1,0l0.8-0.7
		c0.2-0.2,0.2-0.4,0.1-0.6l-1-1.3c-0.2-0.2-0.4-0.2-0.6-0.1l-0.8,0.7l0.1,0c-0.6-0.5-1.2-0.8-1.7-1l0.1-1c0-0.2-0.4-0.5-0.7-0.6
		l-1.7-0.2C45.7,69.4,45.7,69.7,45.7,69.9z M40.9,76.4c0.3-2.8,2.8-4.8,5.5-4.5c2.8,0.3,4.8,2.8,4.5,5.5c-0.3,2.8-2.8,4.8-5.5,4.5
		C42.7,81.6,40.6,79.1,40.9,76.4z"/>
	<path class="st8" d="M46.5,83.4l0.8,0.1c0,0.6,0.2,1.2,0.4,1.7l-0.7,0.5c-0.2,0.1-0.2,0.4-0.1,0.5l0.8,1.1c0.1,0.2,0.4,0.2,0.5,0.1
		L49,87c0.5,0.4,1,0.8,1.6,1l-0.1,0.8c0,0.2,0.1,0.4,0.3,0.4l1.4,0.2c0.2,0,0.4-0.1,0.4-0.3l0.1-0.8c0.6,0,1.2-0.2,1.8-0.5l0.5,0.6
		c0.1,0.2,0.4,0.2,0.5,0.1l1.1-0.8c0.2-0.1,0.2-0.4,0.1-0.5l-0.5-0.7c0.4-0.5,0.7-1,0.9-1.6l0,0l0.9,0.1c0.2,0,0.4-0.1,0.4-0.3
		l0.2-1.4c0-0.2-0.1-0.4-0.3-0.4l-0.9-0.1h0c0-0.6-0.2-1.2-0.5-1.8c0,0,0,0,0,0l0.7-0.5c0.2-0.1,0.2-0.4,0.1-0.5L57,78.8
		c-0.1-0.2-0.4-0.2-0.5-0.1l-0.7,0.5c0,0,0,0,0,0c-0.4-0.4-0.9-0.7-1.5-0.9l0,0l0.1-0.9c0-0.2-0.1-0.4-0.3-0.4L52.7,77
		c-0.2,0-0.4,0.1-0.4,0.3l-0.1,0.9l0,0c-0.6,0-1.2,0.2-1.7,0.4c0,0,0,0,0-0.1l-0.5-0.7c-0.1-0.2-0.4-0.2-0.5-0.1l-1.1,0.8
		C48,78.7,48,79,48.1,79.1l0.5,0.7c0,0,0,0,0,0c-0.4,0.4-0.7,1-1,1.6l-0.8-0.1c-0.2,0-0.4,0.1-0.4,0.3L46.2,83
		C46.1,83.2,46.3,83.4,46.5,83.4z M51.8,87.5c-2.3-0.3-3.9-2.5-3.6-4.8s2.5-3.9,4.8-3.6c2.3,0.3,3.9,2.5,3.6,4.8
		C56.3,86.2,54.1,87.8,51.8,87.5z"/>
	<g>
		<g>
			
				<linearGradient id="SVGID_9_" gradientUnits="userSpaceOnUse" x1="116.3576" y1="92.566" x2="131.6655" y2="92.566" gradientTransform="matrix(1 0 0 -1 0 146)">
				<stop  offset="2.759910e-03" style="stop-color:#547ED1"/>
				<stop  offset="1" style="stop-color:#54ADD1"/>
			</linearGradient>
			<path class="st9" d="M131.9,51.9c-0.1-3.6-3.8-5.7-7-6c-3.4-0.3-7.6,1.2-8.8,4.8c-0.1,0.3,0.1,0.5,0.4,0.5c1.8,0.1,3.6,0.5,5,1.8
				c1.3,1.2,1.9,2.8,1.2,4.5c-0.1,0.3,0.2,0.5,0.4,0.5c0.9,0.1,1.8,0,2.6-0.1c-0.2-0.1-0.3-0.1-0.4-0.2c0.3,0.5,0.6,1,0.7,1.5
				c0.1,0.4-0.1,1,0.2,1.4c0.4,0.6,1,0.4,1.4,0c1.3-1.1,2-2.7,1.5-4.3c-0.1,0.2-0.1,0.3-0.2,0.4C130.6,55.6,131.9,54,131.9,51.9
				c0-0.5-0.7-0.5-0.7,0c-0.1,1.8-1.2,3.2-2.6,4.1c-0.2,0.1-0.2,0.3-0.2,0.4c0.4,1.3-0.1,2.5-1.1,3.4c-0.1,0.1-0.2,0.2-0.2,0.2
				c-0.2,0.1-0.2,0.2-0.2-0.1c-0.1-0.2,0-0.6-0.1-0.9c-0.2-0.6-0.5-1.3-0.9-1.8c-0.1-0.2-0.3-0.2-0.4-0.2c-0.8,0.1-1.6,0.2-2.4,0.1
				c0.1,0.2,0.3,0.3,0.4,0.5c0.7-1.9,0.2-3.8-1.3-5.2c-1.5-1.4-3.6-2.1-5.7-2.1c0.1,0.2,0.3,0.3,0.4,0.5c1-3.2,4.8-4.4,7.8-4.2
				c2.9,0.2,6.4,2,6.5,5.2C131.1,52.4,131.9,52.4,131.9,51.9z"/>
		</g>
	</g>
	<g>
		<g>
			
				<linearGradient id="SVGID_10_" gradientUnits="userSpaceOnUse" x1="109.2807" y1="88.6765" x2="123.5273" y2="88.6765" gradientTransform="matrix(1 0 0 -1 0 146)">
				<stop  offset="2.759910e-03" style="stop-color:#547ED1"/>
				<stop  offset="1" style="stop-color:#54ADD1"/>
			</linearGradient>
			<path class="st10" d="M116.5,50.4c-2.6,0-5.5,1-6.9,3.4c-1.4,2.5-0.1,5.2,2.1,6.6c-0.1-0.2-0.1-0.3-0.2-0.4c-0.4,1.5,0.2,3,1.4,4
				c0.4,0.3,1,0.6,1.3,0.1c0.3-0.4,0.1-0.9,0.2-1.3c0.1-0.5,0.4-1,0.7-1.4c-0.2,0.1-0.3,0.1-0.4,0.2c3.5,0.5,8.6-0.9,9-5.1
				C124.1,52.4,119.8,50.5,116.5,50.4c-0.5,0-0.5,0.7,0,0.7c2.8,0.1,6.6,1.7,6.5,5c-0.1,3.8-5,5.1-8,4.6c-0.2-0.1-0.3,0-0.4,0.2
				c-0.3,0.5-0.6,1-0.7,1.5c-0.1,0.3-0.1,0.6-0.1,0.9c0,0.1,0.1,0.2-0.1,0.2c-0.1,0-0.3-0.2-0.3-0.3c-0.9-0.9-1.3-1.9-1-3.1
				c0.1-0.2-0.1-0.3-0.2-0.4c-2-1.3-3.2-3.7-1.7-5.9c1.3-1.9,3.8-2.7,6-2.7C117,51.2,117,50.4,116.5,50.4z"/>
		</g>
	</g>
	<g>
		
			<linearGradient id="SVGID_11_" gradientUnits="userSpaceOnUse" x1="68.2213" y1="75.5626" x2="99.6971" y2="75.5626" gradientTransform="matrix(1 0 0 -1 0 146)">
			<stop  offset="2.759910e-03" style="stop-color:#547ED1"/>
			<stop  offset="1" style="stop-color:#54ADD1"/>
		</linearGradient>
		<path class="st11" d="M89.4,53.2v-4.8H71.2c-1.2,0-2.2,1-2.2,2.2v39.7c0,1.2,1,2.2,2.2,2.2h25.7c1.2,0,2.2-1,2.2-2.2V55.4h-7.5
			C90.3,55.4,89.4,54.4,89.4,53.2z"/>
		<line class="st12" x1="71.7" y1="67.5" x2="94.1" y2="67.5"/>
		<line class="st12" x1="71.9" y1="71.7" x2="94.3" y2="71.7"/>
		<line class="st12" x1="72.2" y1="76.5" x2="94.7" y2="76.5"/>
		<line class="st12" x1="72.4" y1="81.9" x2="83.9" y2="81.9"/>
	</g>
</g>
</svg>
