<?xml version="1.0" encoding="utf-8"?>
<!-- Generator: Adobe Illustrator 24.1.0, SVG Export Plug-In . SVG Version: 6.00 Build 0)  -->
<svg version="1.1" id="Calque_1" xmlns="http://www.w3.org/2000/svg" xmlns:xlink="http://www.w3.org/1999/xlink" x="0px" y="0px"
	 viewBox="0 0 266.7 200.5" style="enable-background:new 0 0 266.7 200.5;" xml:space="preserve">
<style type="text/css">
	.st0{fill:#9C5407;}
	.st1{fill:#E9C3A7;}
	.st2{fill:#E3B089;}
	.st3{fill:#FBBA00;}
	.st4{fill:#FE9A00;}
	.st5{fill:#FD9A00;}
	.st6{fill:#B64E00;}
	.st7{fill:#9B5001;}
	.st8{fill:#9B5002;}
	.st9{fill:#9B4F01;}
</style>
<path class="st0" d="M103,164.5c-2.1-0.1-4.3-0.1-6.4-0.4c-3.1-0.5-6.2-1.1-9.2-1.8c-2.9-0.7-5.8-1.4-8.6-2.5
	c-3.6-1.3-7.1-2.8-10.5-4.5c-3.6-1.7-7.1-3.6-10.4-5.7c-2.8-1.8-5.5-3.9-8.1-6c-1.6-1.2-3.1-2.6-4.5-4c-4.8-4.9-8.6-10.4-11.7-16.5
	c-2.5-5.1-4.3-10.4-5.4-15.9c-0.6-3.1-1-6.2-1.3-9.4c-0.3-3.3-0.4-6.7-0.2-10c0.3-4.8,1.1-9.6,2.4-14.2c1.2-4.2,2.8-8.3,4.8-12.2
	c2.9-5.6,6.6-10.5,11.2-14.7c3.7-3.4,8.1-5.8,12.7-7.7c5.2-2.2,10.5-4,15.9-5.3c5-1.1,10-2.1,15-3c6-1.1,12-1.5,18.1-1.2
	c9,0.4,17.8,2,26,6c3.3,1.6,6.3,3.5,9.5,5.3c0.4,0.2,1,0.3,1.5,0.2c3.7-0.9,7.3-2,11-2.8c3.2-0.7,4.9,0.5,5,4.2
	c0.1,2.2,0,4.4,0.3,6.6c0.4,3.1,2,4.5,5.6,4.7c2.8,0.2,5.6-0.3,8.4-0.4c2.9-0.1,4.5,1.1,5.5,3.8c0.6,1.5,1.2,3,2,4.3
	c2.1,3.5,5.9,5.1,9.8,3.9c1.7-0.5,3.5-0.8,5.3-1.1c2.6-0.5,4.2,0.8,4.4,3.4c0.1,1.7,0.3,3.4,0.5,5.1c0.4,2.7,3.4,5.6,6.1,6.1
	c2.4,0.4,4.6-0.3,6.9-0.6c1.8-0.2,3.7-0.6,5.6-0.4c2.5,0.2,3.8,2.1,5,4.1c1.6,2.7,2.2,5.8,2.5,8.8c0.3,3.1,0.6,6.3,0.5,9.4
	c-0.3,9.7-1.3,19.4-4.7,28.6c-2,5.7-4.7,11-8.2,16c-3.5,5-7.6,9.4-12.4,13.2c-6.2,4.9-13,8.6-20.5,11c-4.3,1.4-8.6,2.4-13,2.7
	c-3.5,0.3-7.1,0.6-10.6,0.5c-3.5-0.2-7.1-0.8-10.6-1.4c-5.3-0.9-10.3-2.7-15.2-4.9c-2.6-1.2-5-2.7-7.5-4c-0.4-0.2-1-0.2-1.5-0.1
	c-3.2,0.7-6.5,1.6-9.7,2.2c-1.7,0.3-3.5,0.4-5.2,0.6c-0.1,0-0.2,0-0.3,0c-1.7,0-3.5,0.1-5.2,0.1C103.2,164.5,103.1,164.5,103,164.5z
	 M114.6,153.3c-2.5-2.7-5-5.4-7.4-8.2c-0.5,0.4-1,0.8-1.5,1.2c-4.4,3.3-8.8,3.1-12-0.6c-3.2-3.5-2.7-9.4,1.1-12.2
	c1.4-1,3.2-1.6,4.9-2.5c-4.3-11.2-5.4-22.9-3.2-35.2c-3.2,1-6.1,0.8-8.9-0.6c-1-0.9-2.2-1.7-3.1-2.8c-3.1-4.1-2.7-10.8,3.1-12.9
	c4.8-0.9,8.6,1.1,11.9,4.4c0.1-0.3,0.3-0.5,0.4-0.7c2.2-5.7,5-11.1,8.5-16.1c3.4-4.9,7.4-9.3,12-13.1c2.3-1.9,4.8-3.7,7.2-5.5
	c4.6-2.4,9.2-4.8,13.7-7.2c-0.2-0.1-0.6-0.5-1-0.7c-10.3-6.7-21.8-9.8-34-10.3c-5.9-0.2-11.8,0.3-17.6,1.2c-9.7,1.4-19,3.8-28.2,7.3
	c-9.3,3.5-16.9,9.1-22.5,17.4C31,66.8,27.9,78.6,27.6,91.1c-0.1,3.4,0.3,6.9,0.7,10.3c0.8,6.9,2.8,13.6,5.7,19.9
	c3.9,8.4,9.3,15.5,16.4,21.4c7.6,6.3,16.2,11,25.4,14.6c7.9,3.1,16,5.3,24.5,5.9c5.5,0.4,11.1,0.2,16.5-1c2.2-0.5,4.4-1.1,6.6-1.6
	C120.4,158.1,117.5,155.7,114.6,153.3z M158.8,44.6c0-1.2,0.1-2.1,0-3c-0.2-2.4-1.3-3.2-3.6-2.7c-2.3,0.5-4.5,1-6.8,1.6
	c-10.7,2.9-20.3,7.9-28.6,15.3c-7,6.2-12.5,13.6-16.6,22c-4.5,9.5-6.9,19.4-6.9,29.9c0,4.1,0.5,8.2,1.2,12.3
	c2.1,11.5,7.3,21.6,15.4,30.1c6,6.3,13.1,11.2,21,14.8c8.8,4,18.1,6,27.8,6c3.5,0,7-0.4,10.4-0.9c14.2-2.3,26.4-8.5,36.3-19.1
	c5.5-5.9,9.6-12.6,12.7-20c4.1-10,5.3-20.5,5.7-31.1c0.1-3-0.2-6.1-0.5-9.1c-0.3-3-0.9-5.9-2.4-8.6c-1.4-2.6-3.4-4.2-6.6-3.7
	c-2.4,0.4-4.8,0.8-7.1,1.1c-4.5,0.7-9.2-2.6-9.9-7.1c-0.3-2-0.4-4-0.7-5.9c-0.3-1.4-1.2-2-2.7-1.7c-1.5,0.3-3,0.6-4.5,1
	c-6.2,1.7-10-0.8-12.4-4.7c-0.8-1.2-1.2-2.7-1.7-4.1c-0.6-1.8-1.8-2.9-3.7-3.1c-1-0.1-2.1,0-3.1,0.1c-2.1,0.1-4.2,0.4-6.3,0.3
	c-3.6-0.1-6-2.3-6.3-5.6C158.9,47.4,158.9,45.8,158.8,44.6z M92.6,95.7c1-0.2,2.1-0.3,3.1-0.7c0.5-0.2,0.9-0.8,1.1-1.3
	c0.8-2.5,1.4-5.1,2.1-7.7c0.1-0.4,0-1-0.2-1.2c-2.4-2.5-5.2-4.4-9-4.3c-4.1,0.1-6.2,3.1-6.1,6.6C83.8,91.9,87.9,95.7,92.6,95.7z
	 M99.9,147.6c2.1-0.2,4.2-1.5,6.2-3.1c0.2-0.2,0.2-0.9,0.1-1.2c-1.8-3.3-3.6-6.6-5.4-9.8c-0.3-0.6-0.7-0.9-1.6-0.8
	c-2.1,0.2-3.6,1.3-5,2.8c-2.1,2.4-2.2,5.1-1,7.8C94.4,145.8,96.5,147.5,99.9,147.6z"/>
<path class="st1" d="M111.3,200.5c-0.2,0-0.4,0-0.5,0C111,200.5,111.1,200.5,111.3,200.5z"/>
<path class="st2" d="M94.6,200.2c-0.2,0-0.4,0-0.6,0C94.2,200.3,94.4,200.2,94.6,200.2z"/>
<path class="st2" d="M108.5,164.4c0.1,0,0.2,0,0.3,0C108.7,164.3,108.6,164.3,108.5,164.4z"/>
<path class="st2" d="M103,164.5c0.1,0,0.2,0,0.3,0C103.2,164.5,103.1,164.5,103,164.5z"/>
<path class="st3" d="M158.8,44.6c0.1,1.2,0.1,2.7,0.3,4.3c0.3,3.4,2.7,5.5,6.3,5.6c2.1,0.1,4.2-0.2,6.3-0.3c1-0.1,2.1-0.2,3.1-0.1
	c1.9,0.1,3.1,1.3,3.7,3.1c0.5,1.4,0.9,2.9,1.7,4.1c2.4,3.8,6.1,6.4,12.4,4.7c1.5-0.4,3-0.7,4.5-1c1.4-0.3,2.4,0.3,2.7,1.7
	c0.3,2,0.4,4,0.7,5.9c0.7,4.5,5.4,7.8,9.9,7.1c2.4-0.4,4.8-0.8,7.1-1.1c3.1-0.5,5.2,1.1,6.6,3.7c1.4,2.7,2.1,5.6,2.4,8.6
	c0.3,3,0.6,6.1,0.5,9.1c-0.3,10.6-1.6,21.1-5.7,31.1c-3.1,7.4-7.2,14.1-12.7,20c-9.9,10.5-22.1,16.8-36.3,19.1
	c-3.4,0.5-6.9,0.9-10.4,0.9c-9.7-0.1-19-2-27.8-6c-7.9-3.6-15-8.4-21-14.8c-8.1-8.5-13.3-18.6-15.4-30.1c-0.7-4-1.2-8.2-1.2-12.3
	c0-10.4,2.4-20.4,6.9-29.9c4.1-8.4,9.6-15.8,16.6-22c8.3-7.4,17.9-12.4,28.6-15.3c2.2-0.6,4.5-1.1,6.8-1.6c2.3-0.5,3.4,0.3,3.6,2.7
	C158.9,42.5,158.8,43.4,158.8,44.6z M117.2,119.1c-0.1-0.4-0.2-0.9-0.2-1.3c0.1-4,0.4-8,0.5-12c0-4.2-0.1-8.4-0.2-12.7
	c1.5,0,3.1,0.3,4.4-0.2c4.6-1.6,7.2-5.1,8-9.8c0.4-2.1-0.1-4.2-1.7-5.9c-3.4-3.5-9.9-3.1-13.1,0.8c-2.1,2.4-2.8,5.2-2.5,8.4
	c-1.9-0.2-3.7,0.3-5.2,1.3c-2.7,1.7-4.2,4.3-4.9,7.4c-1.3,5.9-0.9,11.9,0.2,17.8c0.7,3.9,1.7,7.8,2.9,11.6c1.3,4.2,2.8,8.4,5.1,12.2
	c3.9,6.5,9,11.8,14.9,16.5c3.8,3,7.9,5.5,12.2,7.7c4.2,2,8.5,3.8,13.1,4.7c4,0.8,8.1,1.4,12.1,1.8c2.4,0.2,4.8,0.1,7.2-0.2
	c3.3-0.5,6.8-1,9.9-2.1c4.6-1.7,9-3.9,13.3-6.2c6-3.2,11.5-7.1,15.8-12.5c2.2-2.8,4.3-5.9,5.7-9.1c1.8-4.3,3.2-8.8,4.2-13.4
	c0.9-4.2,1.2-8.6,1.6-12.9c0.2-2.5,0.2-5,0-7.5c-0.2-2.4-0.5-4.9-1.3-7.2c-1-3-3.9-6.1-8.3-5.7c-1,0.1-1.9,0.5-2.9,0.7
	c-1.8-2-4.1-3-6.8-2.9c-7.1,0.1-11.8,7.4-9,14c1.1,2.6,3.5,4.4,6.9,4c2.5-0.3,4.4-1.5,6.4-2.9c0.3,1.4,0.6,2.7,0.9,4.1
	c0.8,3.4,1.5,7,0.2,10.4c-1.3,3.4-2.9,6.6-4.5,9.8c-0.5,1.1-1.2,2.2-1.9,3.3c-0.6-0.3-1.1-0.7-1.7-1c-5.2-2.3-11.5,0.8-13,6.4
	c-0.7,2.5-0.4,4.9,0.5,7.3c-1.8,0.3-3.6,0.8-5.4,1c-3.3,0.3-6.3-1-9.2-2.3c-5.2-2.2-10.1-1.8-14.7,1.6c-0.2-0.2-0.4-0.4-0.6-0.6
	c-2.9-3.4-8.3-4-11.8-1.3c-2.6,2.1-3.5,4.9-3.3,8.1c-2.7,0.2-4.6-1.2-5.9-3.2c-1.4-2.2-2.3-4.6-3.3-7c-1.2-2.8-2.2-5.8-5.2-7.3
	c-0.7-0.4-1.4-0.8-2.1-1.2c4.6-0.7,8.8-5.6,9.4-10.3c0.5-3.4-1.3-6.4-4.5-7.7C125.1,111.6,119.2,113.9,117.2,119.1z M163.2,83.6
	c0.7-0.2,2-0.4,3.3-0.8c2.7-1,4.5-4.2,4.2-7c-0.4-4.1-3.2-7.3-7.2-8.5c-3.7-1.1-8.2,0.4-10.5,3.5c-2.6,3.3-2.1,7.4,1.2,9.9
	C156.6,82.6,159.4,83.5,163.2,83.6z M170.9,114c-0.1-0.6-0.1-1.2-0.2-1.9c-1.2-5.5-6.3-8.8-11.8-7.8c-5.6,1-7.9,5.9-5.2,10.9
	c1.4,2.6,3.6,4.6,6.3,5.8c1.9,0.9,4,1.2,6,0.5C169,120.5,170.8,117.6,170.9,114z"/>
<path class="st3" d="M87.6,79.6c-5.8,2.1-6.3,8.8-3.1,12.9c0.8,1.1,2,1.9,3.1,2.8c0.1,1,0.2,2,0.3,3c0.6,4.3,1.2,8.6,0.8,12.9
	c-0.3,3.4-1.3,6.5-3.4,9.1c-1.3,1.7-2.9,3.1-5,3.7c0.2-2.2,0.2-4.3-0.6-6.4c-2.1-5.3-8.1-6.8-12-2.9c-2.3,2.3-3.7,5.2-4,8.5
	c-2.2-1.3-4.4-2.6-6.7-3.8c-1.3-0.8-2.7-1.4-4.3-1c-2.4,0.6-3.8,3.3-3.4,5.9c0.4,2.6,1.6,4.9,3,7c3.6,5.6,8.4,9.9,14,13.4
	c4.7,2.9,9.7,5.1,15.1,6.6c5.6,1.6,11.3,2.5,17.1,2.8c5.5,0.3,10.9,0,16.3-1c2.9,2.4,5.8,4.8,8.9,7.3c-2.2,0.6-4.4,1.2-6.6,1.6
	c-5.4,1.2-11,1.4-16.5,1c-8.5-0.6-16.6-2.8-24.5-5.9c-9.2-3.6-17.8-8.3-25.4-14.6c-7.1-5.9-12.5-13.1-16.4-21.4
	c-3-6.3-4.9-13-5.7-19.9c-0.4-3.4-0.8-6.9-0.7-10.3c0.3-12.6,3.4-24.3,10.5-34.9c5.6-8.3,13.2-13.9,22.5-17.4
	c9.1-3.4,18.5-5.9,28.2-7.3c5.9-0.9,11.7-1.4,17.6-1.2c12.2,0.5,23.6,3.6,34,10.3c0.4,0.3,0.8,0.6,1,0.7c-4.6,2.4-9.1,4.8-13.7,7.2
	c-1.2-0.6-2.3-1.3-3.5-1.9c-2.6-1.2-5.3-1.9-8.2-1.9c-4.1-4.5-11.3-3.9-14.8,0.4c-2.1,2.6-2.8,5.5-2.2,8.8c-1.2,1.5-2.5,2.9-3.5,4.5
	c-2.9,4.6-5.3,9.4-6.6,14.7C88.4,75.4,88,77.5,87.6,79.6z M46.3,87.4c-1.1,0.3-2.2,0.4-3.2,0.9c-3.6,1.6-5.9,5.5-5.5,9.5
	c0.4,4.1,3.4,7.9,7.2,8.8c3.9,1,7.1-0.6,8.4-4.2c1.4-3.8,1.2-7.6-0.9-11.2C51,88.9,49.1,87.5,46.3,87.4z M74.4,60
	c-0.1,0-0.1-0.1-0.2-0.1c-0.1-1.1-0.2-2.1-0.4-3.2c-0.2-0.8-0.5-1.6-0.8-2.4c-1.7-4.2-6.1-5.9-10.1-3.8c-3.8,2-5.5,5.3-5.1,9.5
	c0.3,3.9,2.4,6.8,6,8.3c4,1.7,7.4,0.6,9.1-3C73.7,63.7,73.9,61.8,74.4,60z"/>
<path class="st4" d="M114.6,153.3c-5.4,1-10.9,1.3-16.3,1c-5.8-0.3-11.5-1.2-17.1-2.8c-5.3-1.6-10.4-3.7-15.1-6.6
	c-5.6-3.5-10.4-7.8-14-13.4c-1.4-2.2-2.5-4.4-3-7c-0.4-2.6,1-5.3,3.4-5.9c1.6-0.4,3,0.3,4.3,1c2.2,1.3,4.4,2.5,6.7,3.8
	c0.1,1,0,2,0.2,3c1.1,4.8,5.9,6.3,10.3,4.8c3.3-1.2,5.2-3.7,6.2-7c2.1-0.6,3.7-2,5-3.7c2.1-2.7,3-5.7,3.4-9.1
	c0.4-4.4-0.2-8.6-0.8-12.9c-0.1-1-0.2-2-0.3-3c2.8,1.4,5.6,1.6,8.9,0.6c-2.1,12.3-1,24,3.2,35.2c-1.7,0.8-3.5,1.4-4.9,2.5
	c-3.8,2.8-4.3,8.6-1.1,12.2c3.3,3.6,7.7,3.8,12,0.6c0.5-0.4,1-0.8,1.5-1.2C109.6,147.9,112.1,150.6,114.6,153.3z"/>
<path class="st5" d="M87.6,79.6c0.5-2.1,0.8-4.3,1.4-6.4c1.4-5.3,3.7-10.1,6.6-14.7c1-1.6,2.3-3,3.5-4.5c1.8,3.8,4,5.3,7.4,4.9
	c2.4-0.3,4.7-1,6.7-2.5c3.5-2.5,6.2-6.7,2.8-11.7c2.9-0.1,5.6,0.6,8.2,1.9c1.2,0.6,2.3,1.2,3.5,1.9c-2.4,1.8-4.9,3.6-7.2,5.5
	c-4.6,3.8-8.6,8.2-12,13.1c-3.5,5-6.4,10.4-8.5,16.1c-0.1,0.2-0.2,0.4-0.4,0.7C96.1,80.8,92.4,78.8,87.6,79.6z"/>
<path class="st6" d="M92.6,95.7c-4.7,0-8.8-3.8-9-8.5c-0.1-3.6,2-6.6,6.1-6.6c3.7-0.1,6.5,1.8,9,4.3c0.2,0.3,0.3,0.8,0.2,1.2
	c-0.7,2.6-1.3,5.1-2.1,7.7c-0.1,0.5-0.6,1.1-1.1,1.3C94.7,95.4,93.6,95.5,92.6,95.7z"/>
<path class="st6" d="M99.9,147.6c-3.5-0.1-5.5-1.8-6.7-4.3c-1.2-2.7-1.1-5.4,1-7.8c1.3-1.5,2.8-2.6,5-2.8c0.9-0.1,1.2,0.2,1.6,0.8
	c1.8,3.3,3.6,6.5,5.4,9.8c0.2,0.3,0.1,1-0.1,1.2C104.2,146.2,102.1,147.4,99.9,147.6z"/>
<path class="st4" d="M124.5,131.4c0.7,0.4,1.4,0.8,2.1,1.2c3,1.6,3.9,4.5,5.2,7.3c1,2.4,2,4.8,3.3,7c1.3,2,3.3,3.4,5.9,3.2
	c0.6,1.3,1,2.9,1.9,4c2.5,2.9,8,3.9,11.6,2.4c2.6-1.1,3.7-3.1,4-5.8c0.2-2.5-0.5-4.7-1.8-6.7c4.6-3.3,9.5-3.8,14.7-1.6
	c2.9,1.3,5.9,2.6,9.2,2.3c1.8-0.2,3.6-0.6,5.4-1c0.2,0.2,0.3,0.5,0.5,0.7c2.1,3.4,5.6,4.4,9.2,2.6c2.9-1.4,4.8-3.8,6.1-6.7
	c1.4-3.4,1.2-6.6-1.5-9.3c0.6-1.1,1.3-2.2,1.9-3.3c1.5-3.2,3.2-6.5,4.5-9.8c1.3-3.4,0.6-6.9-0.2-10.4c-0.3-1.4-0.6-2.7-0.9-4.1
	c0.3-0.4,0.7-0.7,1-1.1c3.1-3.4,4.2-7.4,1.5-11.1c1-0.3,1.9-0.6,2.9-0.7c4.4-0.4,7.3,2.7,8.3,5.7c0.8,2.3,1.1,4.8,1.3,7.2
	c0.2,2.5,0.2,5,0,7.5c-0.4,4.3-0.7,8.7-1.6,12.9c-1,4.5-2.4,9.1-4.2,13.4c-1.4,3.3-3.5,6.3-5.7,9.1c-4.2,5.4-9.8,9.3-15.8,12.5
	c-4.3,2.3-8.7,4.5-13.3,6.2c-3.1,1.2-6.6,1.6-9.9,2.1c-2.4,0.4-4.8,0.5-7.2,0.2c-4.1-0.4-8.1-1-12.1-1.8c-4.6-0.9-8.9-2.7-13.1-4.7
	c-4.3-2.1-8.4-4.6-12.2-7.7c-5.9-4.7-11-10.1-14.9-16.5c-2.3-3.8-3.8-8-5.1-12.2c-1.2-3.8-2.2-7.7-2.9-11.6
	c-1.1-5.9-1.5-11.8-0.2-17.8c0.7-3.1,2.2-5.6,4.9-7.4c1.5-1,3.3-1.6,5.2-1.3c0.7,3,2.1,5.4,4.9,6.7c0.1,4.2,0.3,8.4,0.2,12.7
	c0,4-0.3,8-0.5,12c0,0.4,0.1,0.9,0.2,1.3c-0.1,0.4-0.2,0.7-0.3,1.1C115.3,125.7,118.9,132.1,124.5,131.4z"/>
<path class="st7" d="M208,91.1c2.7,3.7,1.6,7.6-1.5,11.1c-0.3,0.4-0.7,0.7-1,1.1c-2,1.4-3.9,2.6-6.4,2.9c-3.3,0.4-5.8-1.4-6.9-4
	c-2.8-6.5,1.9-13.8,9-14C203.9,88.1,206.2,89.1,208,91.1z M201.1,89.3c-3.1-0.2-6.5,2.1-7.8,5.5c-1.1,2.9-1,5.6,0.8,8.1
	c2.2,3,5.4,2.7,8.4,0.9c1.7-1,3.3-2.4,4.5-4c1.9-2.5,2.5-6-0.3-8.6C205.1,89.8,203.3,89.3,201.1,89.3z"/>
<path class="st8" d="M163.2,83.6c-3.8-0.1-6.6-1-9-2.9c-3.2-2.5-3.7-6.6-1.2-9.9c2.4-3.1,6.8-4.5,10.5-3.5c4,1.1,6.8,4.3,7.2,8.5
	c0.3,2.8-1.6,6-4.2,7C165.2,83.2,163.9,83.4,163.2,83.6z M161.1,68.1c-2.8,0-5.1,0.9-6.8,3c-2.8,3.2-2.4,6.4,0.4,8.7
	c2.9,2.3,6.2,3.2,9.9,2.6c2.1-0.3,4.2-2.2,4.8-4.1C170.9,72.4,165.5,67.8,161.1,68.1z"/>
<path class="st7" d="M170.9,114c0,3.6-1.8,6.5-4.9,7.6c-2.1,0.7-4.1,0.4-6-0.5c-2.7-1.2-4.9-3.2-6.3-5.8c-2.7-5-0.4-9.9,5.2-10.9
	c5.5-1,10.6,2.3,11.8,7.8C170.8,112.7,170.8,113.4,170.9,114z M160.9,105.1c-1.1,0.2-2.3,0.3-3.3,0.8c-3.2,1.3-4.8,3.8-3.7,7.1
	c1.4,4.1,4.4,6.7,8.5,7.8c2.6,0.7,5.4-0.8,6.5-2.9C171.8,112.2,167.4,105.1,160.9,105.1z"/>
<path class="st9" d="M200.3,130.9c2.7,2.7,2.9,5.9,1.5,9.3c-1.2,2.9-3.2,5.2-6.1,6.7c-3.6,1.8-7,0.8-9.2-2.6
	c-0.2-0.2-0.3-0.5-0.5-0.7c-0.9-2.4-1.2-4.8-0.5-7.3c1.5-5.6,7.8-8.7,13-6.4C199.2,130.1,199.7,130.5,200.3,130.9z M186.3,139.1
	c0,0.5,0,0.9,0,1.4c0.4,3.5,3.4,7,7.8,5.9c2.7-0.7,7.6-6.3,7.5-9.8c0-5.1-4.4-7-8-6.4C189.3,130.9,186.1,134.3,186.3,139.1z"/>
<path class="st7" d="M117.3,93.1c-2.8-1.4-4.3-3.8-4.9-6.7c-0.3-3.1,0.5-5.9,2.5-8.4c3.3-3.9,9.7-4.3,13.1-0.8
	c1.6,1.7,2.1,3.7,1.7,5.9c-0.9,4.7-3.5,8.2-8,9.8C120.4,93.4,118.8,93,117.3,93.1z M122.4,75.7c-1.1,0.2-2.3,0.3-3.4,0.7
	c-4,1.7-6.1,5.6-5.4,9.9c0.2,1,0.5,2,1,2.9c1.3,2.1,3.6,3.8,6.3,2.9c4.1-1.4,6.6-4.2,7.7-8.4C129.7,79.5,126.7,75.9,122.4,75.7z"/>
<path class="st7" d="M124.5,131.4c-5.6,0.8-9.3-5.7-7.6-11.2c0.1-0.4,0.2-0.7,0.3-1.1c2-5.2,7.9-7.5,12.3-5.7c3.2,1.3,5,4.2,4.5,7.7
	C133.3,125.7,129.2,130.7,124.5,131.4z M123.8,130.3c0.4,0,0.8,0,1.1,0c0.3,0,0.5-0.2,0.8-0.3c4-1.7,6.3-4.9,7.3-9
	c0.5-2.1-0.3-4.3-1.9-5.5c-2.7-2.1-6-2.2-9.3-0.3c-3.1,1.8-4.9,6.2-3.9,9.9C118.7,128.3,120.9,130.3,123.8,130.3z"/>
<path class="st9" d="M156.8,143.9c1.2,2.1,2,4.3,1.8,6.7c-0.3,2.7-1.4,4.7-4,5.8c-3.6,1.5-9.2,0.5-11.6-2.4c-0.9-1.1-1.3-2.6-1.9-4
	c-0.2-3.2,0.7-6,3.3-8.1c3.5-2.8,8.9-2.2,11.8,1.3C156.3,143.5,156.6,143.7,156.8,143.9z M151,156.1c0.2,0,0.3,0,0.5,0
	c2.5,0.1,5.2-1.6,5.9-4.7c0.4-2.1,0-4.1-1-5.9c-1.4-2.5-3.5-4.1-6.6-4.2c-2.8-0.1-4.9,1.3-6.5,3.4c-1.8,2.5-1.7,7.5,1.2,9.4
	C146.5,155.4,148.7,156,151,156.1z"/>
<path class="st9" d="M80.2,124.1c-1,3.3-2.9,5.8-6.2,7c-4.4,1.6-9.2,0-10.3-4.8c-0.2-1-0.2-2-0.2-3c0.3-3.3,1.7-6.2,4-8.5
	c3.9-3.9,9.9-2.4,12,2.9C80.4,119.8,80.4,121.9,80.2,124.1z M79.3,120.9c-0.1-2.6-1.5-5.3-4.7-6.8c-1.3-0.6-2.6-0.8-4.1-0.1
	c-3.8,2-6.6,7.1-6,11.3c0.3,2.4,2.1,4.4,4.3,5C74.2,131.7,79.3,127.5,79.3,120.9z"/>
<path class="st7" d="M46.3,87.4c2.8,0.2,4.7,1.6,6,3.8c2,3.6,2.3,7.4,0.9,11.2c-1.3,3.6-4.6,5.2-8.4,4.2c-3.8-1-6.8-4.7-7.2-8.8
	c-0.4-4,1.9-7.9,5.5-9.5C44.1,87.8,45.2,87.6,46.3,87.4z M46.6,105.9c2.2,0.1,3.7-0.8,4.9-2.6c2.3-3.5,1.6-9.1-0.5-12
	c-1.5-2-3.4-3-6-2.5c-4.5,0.7-7.8,6.9-5.8,11.4C40.7,103.4,43,105.5,46.6,105.9z"/>
<path class="st7" d="M74.4,60c-0.5,1.8-0.7,3.7-1.5,5.3c-1.7,3.5-5.1,4.6-9.1,3c-3.6-1.5-5.7-4.4-6-8.3c-0.3-4.2,1.3-7.5,5.1-9.5
	c4-2,8.4-0.3,10.1,3.8c0.3,0.8,0.6,1.6,0.8,2.4c0.2,1.1,0.3,2.1,0.4,3.2C74.2,60,74.3,60,74.4,60z M73.3,59.7
	c-0.3-1.5-0.5-3-1.1-4.4c-0.8-2.2-2.2-4-4.6-4.4c-4.9-0.8-8.5,3.4-8.8,7.4c-0.3,3.6,1.1,6.4,4.2,8.4c2.9,1.9,6.4,1.9,8.5-0.9
	C72.8,64,73.1,61.9,73.3,59.7z"/>
<path class="st7" d="M116,44.9c3.5,5,0.8,9.2-2.8,11.7c-2,1.4-4.3,2.2-6.7,2.5c-3.4,0.4-5.7-1.2-7.4-4.9c-0.7-3.3,0.1-6.2,2.2-8.8
	C104.7,41,111.8,40.3,116,44.9z M99.8,51.9c0.2,3.7,2.4,6.2,6.4,6c3.6-0.2,6.7-1.8,8.9-4.7c1.1-1.4,1.8-3.1,1.3-5
	c-0.8-3.1-3.3-5-6.4-5.4C104.3,42.1,99.9,46.7,99.8,51.9z"/>
<path class="st6" d="M201.1,89.3c2.2,0,4,0.5,5.5,2c2.9,2.7,2.2,6.1,0.3,8.6c-1.2,1.6-2.8,3-4.5,4c-3,1.7-6.2,2-8.4-0.9
	c-1.9-2.5-2-5.2-0.8-8.1C194.6,91.4,198,89.1,201.1,89.3z"/>
<path class="st6" d="M161.1,68.1c4.4-0.3,9.9,4.4,8.2,10.2c-0.5,1.9-2.7,3.8-4.8,4.1c-3.7,0.5-7-0.3-9.9-2.6
	c-2.8-2.2-3.2-5.5-0.4-8.7C156,69,158.3,68.1,161.1,68.1z"/>
<path class="st6" d="M160.9,105.1c6.5,0,10.9,7.1,7.9,12.8c-1.1,2.1-3.9,3.5-6.5,2.9c-4.1-1.1-7.1-3.7-8.5-7.8
	c-1.1-3.3,0.5-5.8,3.7-7.1C158.6,105.4,159.8,105.4,160.9,105.1z"/>
<path class="st6" d="M186.3,139.1c-0.1-4.9,3.1-8.2,7.3-8.9c3.6-0.6,8,1.3,8,6.4c0,3.5-4.8,9.2-7.5,9.8c-4.4,1.1-7.4-2.4-7.8-5.9
	C186.2,140,186.3,139.6,186.3,139.1z"/>
<path class="st6" d="M122.4,75.7c4.3,0.2,7.3,3.8,6.2,8c-1.1,4.1-3.6,7-7.7,8.4c-2.7,0.9-5.1-0.7-6.3-2.9c-0.5-0.9-0.9-1.9-1-2.9
	c-0.7-4.4,1.4-8.2,5.4-9.9C120,75.9,121.2,75.9,122.4,75.7z"/>
<path class="st6" d="M123.8,130.3c-2.9,0-5.1-2-6-5.2c-1-3.8,0.8-8.1,3.9-9.9c3.3-1.9,6.6-1.8,9.3,0.3c1.6,1.3,2.4,3.4,1.9,5.5
	c-0.9,4.1-3.2,7.3-7.3,9c-0.3,0.1-0.5,0.3-0.8,0.3C124.5,130.3,124.2,130.3,123.8,130.3z"/>
<path class="st6" d="M151,156.1c-2.4,0-4.5-0.6-6.5-2c-2.9-1.9-3.1-6.9-1.2-9.4c1.6-2.2,3.7-3.5,6.5-3.4c3.1,0.1,5.2,1.7,6.6,4.2
	c1,1.8,1.4,3.8,1,5.9c-0.6,3.1-3.4,4.8-5.9,4.7C151.4,156.1,151.2,156.1,151,156.1z"/>
<path class="st6" d="M79.3,120.9c0,6.6-5,10.7-10.4,9.4c-2.2-0.5-4-2.6-4.3-5c-0.6-4.2,2.2-9.4,6-11.3c1.4-0.7,2.8-0.5,4.1,0.1
	C77.8,115.6,79.2,118.3,79.3,120.9z"/>
<path class="st6" d="M46.6,105.9c-3.6-0.4-5.9-2.5-7.4-5.8c-2-4.5,1.2-10.7,5.8-11.4c2.6-0.4,4.6,0.6,6,2.5c2.2,2.9,2.8,8.5,0.5,12
	C50.4,105,48.8,106,46.6,105.9z"/>
<path class="st6" d="M73.3,59.7c-0.2,2.2-0.5,4.3-1.8,6.1c-2.1,2.8-5.6,2.8-8.5,0.9c-3-2-4.4-4.8-4.2-8.4c0.3-4,3.9-8.2,8.8-7.4
	c2.4,0.4,3.8,2.3,4.6,4.4C72.7,56.7,72.9,58.2,73.3,59.7z"/>
<path class="st6" d="M99.8,51.9c0.1-5.2,4.5-9.8,10.2-9.1c3.1,0.4,5.6,2.3,6.4,5.4c0.5,1.9-0.2,3.6-1.3,5c-2.3,2.9-5.3,4.5-8.9,4.7
	C102.2,58.1,100,55.7,99.8,51.9z"/>
</svg>
