<svg xmlns="http://www.w3.org/2000/svg" version="1.1" xmlns:xlink="http://www.w3.org/1999/xlink" width="375.6" height="368.8"><svg xmlns="http://www.w3.org/2000/svg" version="1.1" xmlns:xlink="http://www.w3.org/1999/xlink" width="375.6" height="368.8"><svg version="1.1" id="Calque_1" xmlns="http://www.w3.org/2000/svg" xmlns:xlink="http://www.w3.org/1999/xlink" x="0px" y="0px" viewBox="0 0 375.6 368.8" style="enable-background:new 0 0 375.6 368.8;" xml:space="preserve">
<style type="text/css">
	.st0{fill:url(#SVGID_1_);stroke:#F9F9F9;stroke-width:0.3421;stroke-miterlimit:10;}
	.st1{fill:url(#SVGID_2_);stroke:#F9F9F9;stroke-width:0.3421;stroke-miterlimit:10;}
	.st2{fill:url(#SVGID_3_);stroke:#F9F9F9;stroke-width:0.3421;stroke-miterlimit:10;}
	.st3{fill:url(#SVGID_4_);stroke:#F9F9F9;stroke-width:0.3421;stroke-miterlimit:10;}
	.st4{fill:url(#SVGID_5_);stroke:#F9F9F9;stroke-width:0.3421;stroke-miterlimit:10;}
	.st5{fill:url(#SVGID_6_);stroke:#F9F9F9;stroke-width:0.3421;stroke-miterlimit:10;}
	.st6{fill:url(#SVGID_7_);stroke:#F9F9F9;stroke-width:0.3421;stroke-miterlimit:10;}
</style>
<g>
	<linearGradient id="SVGID_1_" gradientUnits="userSpaceOnUse" x1="19.4061" y1="196.1465" x2="351.524" y2="196.1465">
		<stop offset="0" style="stop-color:#F2F2F2"></stop>
		<stop offset="0.9923" style="stop-color:#C6EDEE"></stop>
	</linearGradient>
	<path class="st0" d="M351.5,209.9c-2.4,20.7-9.7,39.6-21.3,56.9c-5.9,8.7-12.4,16.9-19.8,24.4c-28.2,28.6-62.1,46.8-101.4,55
		c-16.7,3.5-33.5,4.7-50.4,3.7c-21.1-1.3-41.4-6-60.4-15.6c-25.4-12.8-44.4-32.2-58.4-56.8c-9.6-16.9-15.8-35.1-18.5-54.4
		c-5.8-41.9,1.6-81.4,21.6-118.6c3.8-7.1,8.7-13.6,13.2-20.4c0.3-0.4,0.6-0.8,0.9-1.2l0,0c0.3-0.4,0.6-0.7,0.9-1.1v-0.1
		c0.9-0.2,1.4-0.7,1.3-1.7l0,0c0.7,0,1.1-0.4,0.9-1.1l0,0c1.8-0.4,2.6-2,3.8-3.2C74.5,65.2,86.6,57,100.5,51.6
		c14.9-5.9,30.5-8.9,46.5-9.4c11.2-0.3,22.3-0.1,33.5,0.8c16.2,1.4,32.2,4.1,47.8,8.5c23.5,6.7,45.4,16.6,64.7,31.7
		c39.8,31.3,59,72.5,58.4,123C351.3,207.6,351.4,208.7,351.5,209.9z M310.9,283C310.9,283,310.8,283.1,310.9,283
		c0.3-0.3,0.7-0.7,1-1l-0.1,0.1c0.4-0.4,0.7-0.7,1.1-1.1l-0.1,0.1c0.4-0.4,0.7-0.7,1.1-1.1l-0.1,0.1c0.4-0.4,0.7-0.7,1.1-1.1
		l-0.1,0.1c0.7-0.5,1.8-0.9,1.1-2.1l-0.1,0.1c1.1-0.1,1.9-0.4,1.1-1.7c1.7,0.9,2.1-0.7,2.6-1.5c7.6-10.2,14.3-20.9,19.1-32.8
		c4.7-11.5,7.6-23.5,8-35.9c0.2-7.4-0.2-14.9-1.2-22.3c-2.6-19.9-9-38.4-19.2-55.7c-12-20.1-28.4-36-48.1-48.6
		c-23.3-14.9-48.9-23.5-76-28.1c-12-2.1-24.1-3.1-36.3-3.7c-15.6-0.7-31.1,0.1-46.4,3.7c-27.3,6.4-49.2,20.9-65.3,44
		c-4.7,6.8-8.8,14-12.4,21.5c-7.2,15.2-11.7,31.3-15.1,47.7c-0.3,1.6-1.1,3.2-0.1,4.9c-0.2,0.3-0.6,0.5-0.6,0.8
		c-0.5,3.2-1,6.3-1.2,9.5c-0.9,10.3-1.2,20.6-0.4,30.9c1.2,15.3,3.9,30.2,9.6,44.4c21.2,52.7,59.7,83.4,116.4,90.4
		c15.9,2,31.7,1.3,47.5-1.1c22.2-3.4,43.3-10.4,63.1-21c17.1-9.2,32.5-20.6,46-34.5c1.1-1.2,2.7-2.1,2.9-4h-0.1
		C310.2,283.8,310.6,283.4,310.9,283z"></path>
	<linearGradient id="SVGID_2_" gradientUnits="userSpaceOnUse" x1="59.9548" y1="118.6148" x2="353.2616" y2="118.6148">
		<stop offset="0" style="stop-color:#F2F2F2"></stop>
		<stop offset="0.9923" style="stop-color:#C6EDEE"></stop>
	</linearGradient>
	<path class="st1" d="M351.5,209.9c0-1.2-0.1-2.4-0.1-3.5c0.6-50.5-18.6-91.7-58.4-123c-19.3-15.1-41.2-25.1-64.7-31.7
		c-15.7-4.4-31.6-7.1-47.8-8.5c-11.1-1-22.3-1.2-33.5-0.8c-16,0.4-31.6,3.5-46.5,9.4c-13.9,5.5-26,13.6-36.6,24.1
		c-1.2,1.2-2,2.8-3.8,3.2c-0.5-1.3,0.2-2.3,0.9-3.3c11.8-16,26.1-29.2,44.3-37.7c9.3-4.3,19-7.1,29-8.7c8-1.3,16.1-2.3,24.2-2
		c6.7,0.3,13.4,1,20.2,1.6c10.4,0.9,20.7,3,30.9,5.1c8.9,1.9,17.7,4.4,26.3,7.3c9.3,3.1,18.4,6.8,27.1,11.3
		c14.1,7.1,27.2,15.7,39.1,26.1c15.2,13.1,27.2,28.6,36.2,46.5c6.3,12.5,10.5,25.7,12.7,39.4c1.7,10.2,2.6,20.4,2.1,30.8
		c-0.2,4.2-0.6,8.4-1,12.6C352.2,208.7,351.7,209.3,351.5,209.9z"></path>
	<linearGradient id="SVGID_3_" gradientUnits="userSpaceOnUse" x1="57.9016" y1="80.9416" x2="59.2367" y2="80.9416">
		<stop offset="0" style="stop-color:#F2F2F2"></stop>
		<stop offset="0.9923" style="stop-color:#C6EDEE"></stop>
	</linearGradient>
	<path class="st2" d="M59.2,80.1c0.1,1-0.4,1.5-1.3,1.7C57.8,80.8,58,80.1,59.2,80.1z"></path>
	<linearGradient id="SVGID_4_" gradientUnits="userSpaceOnUse" x1="59.164" y1="79.5352" x2="60.1428" y2="79.5352">
		<stop offset="0" style="stop-color:#F2F2F2"></stop>
		<stop offset="0.9923" style="stop-color:#C6EDEE"></stop>
	</linearGradient>
	<path class="st3" d="M60.1,79c0.1,0.7-0.2,1.1-0.9,1.1C59,79.4,59.3,78.9,60.1,79z"></path>
	<linearGradient id="SVGID_5_" gradientUnits="userSpaceOnUse" x1="56.924" y1="82.4416" x2="57.824" y2="82.4416">
		<stop offset="0" style="stop-color:#F2F2F2"></stop>
		<stop offset="0.9923" style="stop-color:#C6EDEE"></stop>
	</linearGradient>
	<path class="st4" d="M57.8,81.9c-0.3,0.4-0.6,0.7-0.9,1.1C57.2,82.6,57.5,82.2,57.8,81.9z"></path>
	<linearGradient id="SVGID_6_" gradientUnits="userSpaceOnUse" x1="56.024" y1="83.5916" x2="56.9241" y2="83.5916">
		<stop offset="0" style="stop-color:#F2F2F2"></stop>
		<stop offset="0.9923" style="stop-color:#C6EDEE"></stop>
	</linearGradient>
	<path class="st5" d="M56.9,83c-0.3,0.4-0.6,0.8-0.9,1.2C56.3,83.7,56.6,83.3,56.9,83z"></path>
	<linearGradient id="SVGID_7_" gradientUnits="userSpaceOnUse" x1="26.0366" y1="189.7801" x2="346.6739" y2="189.7801">
		<stop offset="0" style="stop-color:#F2F2F2"></stop>
		<stop offset="0.9923" style="stop-color:#C6EDEE"></stop>
	</linearGradient>
	<path class="st6" d="M26.5,168.7c-1-1.6-0.2-3.3,0.1-4.9c3.4-16.4,7.9-32.5,15.1-47.7c3.5-7.5,7.6-14.7,12.4-21.5
		c16-23.2,37.9-37.6,65.3-44c15.3-3.6,30.8-4.4,46.4-3.7c12.2,0.6,24.3,1.6,36.3,3.7c27.1,4.7,52.7,13.3,76,28.1
		c19.7,12.6,36.1,28.4,48.1,48.6c10.3,17.2,16.7,35.8,19.2,55.7c1,7.4,1.4,14.8,1.2,22.3c-0.3,12.5-3.3,24.4-8,35.9
		c-4.8,11.8-11.6,22.5-19.1,32.8c-0.6,0.8-0.9,2.5-2.6,1.5c-0.4,0.6-0.7,1.1-1.1,1.7l0.1-0.1c-0.9,0.4-1.1,1.2-1.1,2.1l0.1-0.1
		c-0.4,0.4-0.7,0.7-1.1,1.1l0.1-0.1c-0.4,0.4-0.7,0.7-1.1,1.1l0.1-0.1c-0.7,0-1.1,0.3-1.1,1.1l0.1-0.1c-0.8,0-1.1,0.3-1.1,1.1
		l0.1-0.1c-0.8-0.1-1.1,0.3-1.1,1.1h0.1c-2.3-0.2-3.7,1.4-5.1,2.7c-5.1,4.5-10.4,8.6-16,12.4c-10.8,7.3-22.1,13.6-34.2,18.6
		c-7.7,3.1-15.4,5.9-23.5,8c-8.3,2.2-16.7,4.1-25.2,5.2c-7.4,1-14.7,1.9-22.2,1.8c-8.1-0.1-16.2,0.2-24.3-0.9
		c-6.9-0.9-13.7-1.7-20.5-3.2c-11.2-2.5-22.2-6-32.6-10.9c-14.8-6.9-28-16.2-39.4-28.1c-9.3-9.7-17.1-20.4-23.3-32.3
		c-6.5-12.5-11.4-25.6-14.1-39.4c-1.2-6.3-2.5-12.6-2.8-19C26.2,189,26.6,178.8,26.5,168.7z"></path>
</g>
<g>
	<path d="M55.5,182.3l16,24c-1.4,0-3,0-4.4,0l-13.8-20.6l-4.9,7.4c0,5.3,0,9.6,0,13.2c-1.5,0-3,0-4.5,0c0-9.4,0-33.6,0-41.9
		c1.5,0,3,0,4.5,0c0,7.3,0,19.7,0,27.4l18.3-27.4c0.3,0,0.6,0,0.9,0L55.5,182.3z"></path>
	<path d="M98.8,206.2c-6.8,0-15.4,0-23.2,0c0-3.9,0-28.1,0-41.9c6,0,15.7,0,21.3,0v0.8H80.1c0,0,0,0,0,0v24.9c0,0,0,0,0,0
		c0.9-2.6,2.5-4.7,4.2-6.4c3.4-3.3,7.6-3.8,10.1-3.8c0,0.3,0,0.6,0,0.8c-3.3,0-6.7,0.9-9.5,3.6c-2.7,2.6-4.9,6.1-4.9,11
		c0,1.6,0,7.8,0,10.2h18.7V206.2z"></path>
	<path d="M129.4,164.3v41.9h-0.8l-24.5-35.4v35.4c-0.3,0-0.6,0-0.8,0v-41.9h0.8l24.5,35.4v-35.4H129.4z"></path>
	<path d="M148.9,182.3l16,24c-1.4,0-3,0-4.4,0l-13.8-20.6l-4.9,7.4c0,5.3,0,9.6,0,13.2c-1.5,0-3,0-4.5,0c0-9.4,0-33.6,0-41.9
		c1.5,0,3,0,4.5,0c0,7.3,0,19.7,0,27.4l18.3-27.4c0.3,0,0.6,0,0.9,0L148.9,182.3z"></path>
	<path d="M205.1,185.3c0,11.9-9.2,21.6-20.5,21.6s-20.5-9.6-20.5-21.6c0-11.9,9.2-21.6,20.5-21.6S205.1,173.4,205.1,185.3z
		 M200.5,183.3c-1.4-11.4-9.7-19.7-18.5-18.6c-8.8,1.1-14.8,11.2-13.3,22.6c1.4,11.4,9.7,19.7,18.5,18.6
		C196,204.8,202,194.7,200.5,183.3z"></path>
	<path d="M209.1,186.8v-3h14.1v3H209.1z"></path>
	<path d="M238,206.2l-12.1-41.9h4.6l9.8,34.1l9.7-33.7c0.1-0.2,0.3-0.4,0.5-0.4c0.2,0,0.5,0.2,0.5,0.4l9.7,33.7l9.8-34.1
		c0.3,0,0.6,0,0.9,0l-12,41.9h-0.8l-9.8-34.1l-9.8,34.1H238z"></path>
	<path d="M299.2,206.2c-6.8,0-15.4,0-23.2,0c0-3.9,0-28.1,0-41.9c6,0,15.7,0,21.3,0v0.8h-16.9c0,0,0,0,0,0v24.9c0,0,0,0,0,0
		c0.9-2.6,2.5-4.7,4.2-6.4c3.4-3.3,7.6-3.8,10.1-3.8c0,0.3,0,0.6,0,0.8c-3.3,0-6.7,0.9-9.5,3.6c-2.7,2.6-4.9,6.1-4.9,11
		c0,1.6,0,7.8,0,10.2h18.7V206.2z"></path>
	<path d="M318.9,184c6.9,1,11.8,4.9,11.8,11.3c0,7.8-6.2,11.6-15.7,11.6c-5.9,0-8.3-0.6-11.3-0.6c0-2.3,0-36.4,0-41.9
		c3.1,0,5.4-0.6,11.3-0.6c8.8,0,12.5,4.7,12.5,10.4C327.5,178.4,324.8,182.8,318.9,184z M308.2,164.9v18.7c2.9,0,3.1,0,6.2,0
		c6.5,0,8.8-4.7,8.8-9.5c0-4.9-2.6-9.5-9.1-9.5C311.7,164.5,309.9,164.7,308.2,164.9z M314,206c8.3,0,12.2-4.2,12.2-10.8
		c0-6.5-3.7-10.7-11.9-10.8c-3.1,0-3.3,0-6.2,0v21.2C309.9,205.8,311.7,206,314,206z"></path>
</g>
</svg></svg><style>@media (prefers-color-scheme: light) { :root { filter: none; } }
@media (prefers-color-scheme: dark) { :root { filter: none; } }
</style></svg>