<?xml version="1.0" encoding="utf-8"?>
<!-- Generator: Adobe Illustrator 24.1.0, SVG Export Plug-In . SVG Version: 6.00 Build 0)  -->
<svg version="1.1" id="Calque_1" xmlns="http://www.w3.org/2000/svg" xmlns:xlink="http://www.w3.org/1999/xlink" x="0px" y="0px"
	 viewBox="0 0 129 125" style="enable-background:new 0 0 129 125;" xml:space="preserve">
<style type="text/css">
	.st0{fill:#E3C7AF;}
</style>
<path class="st0" d="M19.4,12.9c5.5-0.1,11.1-0.1,16.6-0.2c0.8,0,1.5,0.1,2.2,0.1c22.8,0,45.5,0,68.2,0c1.4,0,2.8,0.2,4.2,0.4
	c2.9,1.6,4.1,4,4.1,7.3c-0.1,21.6-0.1,43.2,0,64.9c0,2.5-0.6,4.6-2.7,5.9c-1.2,0.8-2.8,1.4-4.3,1.4c-28.6,0-57.2,0-85.8,0
	c-3.8,0-6-1.8-6.8-5.2c0.2-0.7,0.5-1.4,0.5-2.1c0-21.8,0-43.5,0-65.3c0-0.7-0.3-1.4-0.5-2.1C15.4,15.4,17.2,14,19.4,12.9z M108,75.7
	c0.2-0.6,0.6-1.3,0.6-1.9c0.1-17.2,0.1-34.5,0-51.8c0-0.6-0.4-1.4-0.5-2c-0.7-0.2-1.5-0.5-2.2-0.5c-25.6-0.1-51.2-0.1-76.9-0.1
	c-2.5,0-5.1,0.2-7.6,0.3c-0.1,0.1-0.2,0.1-0.3,0.1c0.1,0.1,0.2,0.2,0.3,0.3c0.1,0.7,0.1,1.5,0.1,2.2c0,17.5,0,35,0,52.5
	c0,0.6-0.1,1.4-0.1,2c-0.9,0.6-0.9,1.2,0,1.8c0.6,0.2,1.4,0.7,2,0.7c27.4,0.1,54.8,0,82.2,0c0.7,0,1.4,0,2.2,0
	C107.9,78,108,76.8,108,75.7z"/>
<path class="st0" d="M45.3,109.2c0.7-0.2,1.4-0.5,2.1-0.8c4.4-1.3,6.9-4.2,7.4-8.9c6.5,0,13.1,0,19.8,0c0.2,0.9,0.4,1.8,0.7,2.8
	c1.2,3.6,3.9,5.5,7.5,6.4c1.6,0.4,2.4,1.2,2,2.9c-1,0.2-1.9,0.5-2.9,0.5c-11.2,0.1-22.4,0-33.6,0C45.2,112,45.2,112,45.3,109.2z"/>
<path class="st0" d="M15,18c0.2,0.7,0.5,1.4,0.5,2.1c0,21.8,0,43.5,0,65.3c0,0.7-0.3,1.4-0.5,2.1c-0.1-0.8-0.3-1.6-0.3-2.4
	c0-21.4,0-42.7,0-64.1C14.7,20,14.9,19,15,18z"/>
<path class="st0" d="M45.3,109.2c-0.1,2.8-0.1,2.8,2.8,2.8c11.2,0,22.4,0,33.6,0c1,0,1.9-0.3,2.9-0.5c0.5,1.4-0.5,1.2-1.4,1.2
	c-2.9,0-5.8,0-8.6,0c-9.3,0-18.5,0-27.8,0c-0.6,0-1.3,0-2.5,0C44.7,111.4,45,110.3,45.3,109.2z"/>
<path class="st0" d="M108,75.7c-0.1-2.5-0.1-5.1-0.1-7.6c0-15.1,0-30.2,0-45.2c0-0.9,0.1-1.9,0.1-2.8c0.2,0.6,0.5,1.4,0.5,2
	c0.1,17.2,0.1,34.5,0,51.8C108.6,74.4,108.2,75.1,108,75.7z"/>
<path class="st0" d="M21.4,76.8c0,0.6,0,1.2,0,1.8C20.4,78,20.4,77.4,21.4,76.8z"/>
<path class="st0" d="M21.4,19.7c0.1,0.1,0.1,0.2-0.1,0.4c-0.1-0.1-0.2-0.2-0.3-0.3C21.2,19.8,21.3,19.7,21.4,19.7z"/>
<g>
	<path class="st0" d="M43.5,51.3c0,1.4-0.1,2.9,0,4.3c0.3,2.9,2.5,5.1,5.3,5.5c3.1,0.4,5.8-1.2,6.8-4c0.3-0.9,0.4-1.9,0.8-2.7
		c0.1-0.3,0.8-0.5,1.2-0.5c0.3,0,0.7,0.4,0.8,0.6c0.1,0.8,0.2,1.7,0,2.5c-0.8,3.7-4.2,6.5-7.9,6.8c-3.9,0.3-7.7-2.1-9.1-5.7
		c0-0.1-0.1-0.2-0.1-0.3c-0.9-4.3-1-8.6,0-12.8c0.9-4,4.9-6.4,9-6.2c4.1,0.3,7.6,3.4,8.2,7.4c0.2,1.6-0.2,2.6-1.1,2.6
		c-1.3,0-1.3-1.1-1.5-2.1c-1-3.8-3.5-5.6-7-5.2c-2.9,0.3-5.1,2.4-5.4,5.3C43.4,48.1,43.5,49.7,43.5,51.3
		C43.5,51.3,43.5,51.3,43.5,51.3z"/>
	<path class="st0" d="M80.2,67.4c-2,0-4.1,0-6.1,0c-0.6,0-1.2,0-1.8-0.2c-0.4-0.1-0.7-0.7-0.8-1c0-0.4,0.3-0.9,0.6-1.1
		c0.5-0.3,1.1-0.3,1.7-0.3c4.2,0,8.3,0,12.5,0c0.6,0,1.2,0.1,1.7,0.3c0.3,0.2,0.7,0.7,0.6,1.1c0,0.4-0.4,0.9-0.8,1
		c-0.5,0.2-1.2,0.2-1.8,0.2C84.2,67.4,82.2,67.4,80.2,67.4z"/>
	<path class="st0" d="M82,62.4c-1.6,0-3.1,0-4.7,0c-0.5,0-1,0-1.4-0.3c-0.3-0.2-0.6-0.7-0.6-1.1c0-0.3,0.3-0.6,0.5-0.8
		c0.3-0.2,0.7-0.3,1-0.3c3.5,0,6.9,0,10.4,0c0.3,0,0.8,0.1,1,0.3c0.3,0.3,0.6,0.8,0.6,1.1c0,0.4-0.5,1-0.8,1c-2,0.1-4.1,0-6.1,0
		C82,62.3,82,62.3,82,62.4z"/>
	<path class="st0" d="M80.2,38.7c-2.2,0-4.3,0-6.5,0c-0.6,0-1.2-0.1-1.7-0.4c-0.3-0.1-0.5-0.6-0.5-0.9c0-0.3,0.2-0.7,0.5-0.9
		c0.4-0.2,0.9-0.4,1.3-0.4c4.6,0,9.1,0,13.7,0c0.2,0,0.5,0,0.7,0.1c0.6,0.1,1.2,0.4,1.2,1.1c0,0.7-0.4,1.1-1.1,1.2
		c-0.8,0.1-1.7,0.1-2.5,0.1C83.6,38.7,81.9,38.7,80.2,38.7C80.2,38.7,80.2,38.7,80.2,38.7z"/>
	<path class="st0" d="M64.1,53.4c-0.9-0.2-1.7-0.4-2.4-0.7c-0.6-0.2-0.6-1.5,0-1.8c0.7-0.3,1.6-0.5,2.2-0.8c0.8-0.9,0-2.8,1.8-2.7
		c1.4,0.1,1,1.7,1.6,2.7c0.7,0.2,1.5,0.4,2.2,0.7c0.3,0.1,0.6,0.6,0.5,0.8c-0.1,0.4-0.3,1-0.6,1.1c-0.6,0.3-1.3,0.4-2.1,0.5
		c-0.2,0.7-0.3,1.5-0.6,2.1c-0.2,0.4-0.7,0.7-1.1,0.7c-0.4,0-0.9-0.4-1.1-0.7C64.3,54.8,64.3,54.1,64.1,53.4z"/>
	<path class="st0" d="M78.6,53.5c-0.2,0.8-0.2,1.5-0.5,2c-0.2,0.4-0.7,0.8-1,0.8c-0.4,0-0.9-0.4-1.1-0.8c-0.3-0.5-0.3-1.1-0.5-1.9
		c-0.7-0.2-1.5-0.4-2.2-0.7c-0.3-0.2-0.6-0.7-0.6-1.1c0-0.2,0.3-0.7,0.6-0.8c0.6-0.3,1.4-0.4,2.2-0.6c0.2-0.6,0.2-1.3,0.5-1.9
		c0.2-0.4,0.7-0.8,1-0.8c0.4,0,0.9,0.4,1.1,0.8c0.3,0.5,0.3,1.1,0.5,1.9c0.7,0.2,1.5,0.4,2.2,0.7c0.3,0.2,0.6,0.7,0.6,1.1
		c0,0.2-0.3,0.7-0.6,0.8C80.2,53.1,79.5,53.3,78.6,53.5z"/>
	<path class="st0" d="M82.2,43.7c-1.8,0-3.6,0-5.3,0c-0.4,0-0.9-0.3-1.3-0.5c-0.4-0.2-0.4-1.3,0.1-1.5c0.3-0.2,0.6-0.4,1-0.4
		c3.6,0,7.1,0,10.7,0c0.3,0,0.7,0.1,1,0.3c0.3,0.2,0.6,0.6,0.5,0.8c-0.1,0.4-0.3,0.9-0.7,1.1c-0.4,0.2-0.9,0.2-1.4,0.2
		C85.3,43.8,83.8,43.7,82.2,43.7C82.2,43.7,82.2,43.7,82.2,43.7z"/>
</g>
</svg>
