<?xml version="1.0" encoding="utf-8"?>
<!-- Generator: Adobe Illustrator 24.1.0, SVG Export Plug-In . SVG Version: 6.00 Build 0)  -->
<svg version="1.1" id="Calque_1" xmlns="http://www.w3.org/2000/svg" xmlns:xlink="http://www.w3.org/1999/xlink" x="0px" y="0px"
	 viewBox="0 0 125 128" style="enable-background:new 0 0 125 128;" xml:space="preserve">
<style type="text/css">
	.st0{fill:#E3C7AF;}
</style>
<path class="st0" d="M19.7,11.2c5.5-0.1,11.1-0.1,16.6-0.2c0.8,0,1.5,0.1,2.2,0.1c22.8,0,45.5,0,68.2,0c1.4,0,2.8,0.2,4.2,0.4
	c2.9,1.6,4.1,4,4.1,7.3c-0.1,21.6-0.1,43.2,0,64.9c0,2.5-0.6,4.6-2.7,5.9c-1.2,0.8-2.8,1.4-4.3,1.4c-28.6,0-57.2,0-85.8,0
	c-3.8,0-6-1.8-6.8-5.2c0.2-0.7,0.5-1.4,0.5-2.1c0-21.8,0-43.5,0-65.3c0-0.7-0.3-1.4-0.5-2.1C15.7,13.7,17.5,12.3,19.7,11.2z
	 M108.3,74c0.2-0.6,0.6-1.3,0.6-1.9c0.1-17.2,0.1-34.5,0-51.8c0-0.6-0.4-1.4-0.5-2c-0.7-0.2-1.5-0.5-2.2-0.5
	c-25.6-0.1-51.2-0.1-76.9-0.1c-2.5,0-5.1,0.2-7.6,0.3c-0.1,0.1-0.2,0.1-0.3,0.1c0.1,0.1,0.2,0.2,0.3,0.3c0.1,0.7,0.1,1.5,0.1,2.2
	c0,17.5,0,35,0,52.5c0,0.6-0.1,1.4-0.1,2c-0.9,0.6-0.9,1.2,0,1.8c0.6,0.2,1.4,0.7,2,0.7c27.4,0.1,54.8,0,82.2,0c0.7,0,1.4,0,2.2,0
	C108.2,76.3,108.3,75.1,108.3,74z"/>
<path class="st0" d="M45.6,107.5c0.7-0.2,1.4-0.5,2.1-0.8c4.4-1.3,6.9-4.2,7.4-8.9c6.5,0,13.1,0,19.8,0c0.2,0.9,0.4,1.8,0.7,2.8
	c1.2,3.6,3.9,5.5,7.5,6.4c1.6,0.4,2.4,1.2,2,2.9c-1,0.2-1.9,0.5-2.9,0.5c-11.2,0.1-22.4,0-33.6,0C45.5,110.3,45.5,110.3,45.6,107.5z
	"/>
<path class="st0" d="M15.3,16.3c0.2,0.7,0.5,1.4,0.5,2.1c0,21.8,0,43.5,0,65.3c0,0.7-0.3,1.4-0.5,2.1C15.2,85,15,84.2,15,83.4
	c0-21.4,0-42.7,0-64.1C15,18.3,15.2,17.3,15.3,16.3z"/>
<path class="st0" d="M45.6,107.5c-0.1,2.8-0.1,2.8,2.8,2.8c11.2,0,22.4,0,33.6,0c1,0,1.9-0.3,2.9-0.5c0.5,1.4-0.5,1.2-1.4,1.2
	c-2.9,0-5.8,0-8.6,0c-9.3,0-18.5,0-27.8,0c-0.6,0-1.3,0-2.5,0C45,109.7,45.3,108.6,45.6,107.5z"/>
<path class="st0" d="M108.3,74c-0.1-2.5-0.1-5.1-0.1-7.6c0-15.1,0-30.2,0-45.2c0-0.9,0.1-1.9,0.1-2.8c0.2,0.6,0.5,1.4,0.5,2
	c0.1,17.2,0.1,34.5,0,51.8C108.9,72.7,108.5,73.4,108.3,74z"/>
<path class="st0" d="M21.7,75.1c0,0.6,0,1.2,0,1.8C20.7,76.3,20.7,75.7,21.7,75.1z"/>
<path class="st0" d="M21.7,18c0.1,0.1,0.1,0.2-0.1,0.4c-0.1-0.1-0.2-0.2-0.3-0.3C21.5,18.1,21.6,18,21.7,18z"/>
<path class="st0" d="M78.4,67.7c1.3,0.4,2.7,0.1,4.1,0.3c0.7,0.1,1.5,0.2,1.7,1.1c0.2,0.8-0.5,1.4-1.6,1.5c-2,0.1-4.1,0.1-6.1,0.1
	c-1.1,0-2.1,0.2-2.8,1.3c-0.1,0.2,0,0.4-0.1,0.6c0.7,0.7,1.5,0.5,2.3,0.5c3.6,0,7.2,0,10.8,0c1,0,1.9,0.1,2.8,0.3
	c0.4,0.1,0.8,0.6,0.9,1c0.1,0.7-0.4,1.1-1,1.2c-0.9,0.1-1.9,0.1-2.9,0.1c-11.9,0-23.7,0-35.6,0c-4,0-7.9,0-11.9,0
	c-1.8,0-2.6-0.5-2.4-1.4c0.1-0.8,0.7-1.2,2.3-1.2c3.8,0,7.7,0,11.5,0c1,0,2.1-0.1,3.2-0.2c-1.1-2.1-1.1-2.1-2.5-2.2
	c-1.9-0.1-3.8,0-5.8-0.1c-0.7,0-1.4-0.2-2.1-0.4c-0.2-0.1-0.5-0.6-0.5-0.9c0-0.3,0.2-0.8,0.5-0.9c0.8-0.2,1.6-0.3,2.4-0.5
	c1-0.2,2.2,0.4,3.2-0.7c-0.8-0.9-1.5-1.8-2.3-2.7c-4-4.5-6.1-9.7-6.3-15.7c-0.2-7.1-0.3-14.1-0.5-21.2c0-0.6,0-1.2,0.1-1.8
	c0.1-0.9,0.8-1.4,1.8-1.4c0.5,0,1,0.1,1.4,0.2c6.4,1,12.4-0.3,18-3.4c0.7-0.4,1.5-0.8,2.1-1.2c0.4,0.1,0.8,0.1,1.1,0.3
	c5.5,4.2,11.8,5,18.4,4.4c0.8-0.1,1.7-0.2,2.5-0.3c1.2-0.1,1.7,0.4,1.8,1.7c0.1,1.1,0,2.2,0,3.2c0,4.8,0,9.6,0,14.4
	c0,1.6-0.1,3.1-0.1,4.7c-0.3,6.2-2.4,11.7-6.7,16.3c-0.7,0.8-1.3,1.7-2,2.5C78.3,67.2,78.4,67.4,78.4,67.7z M43.1,27.2
	c-0.3,0.7-0.4,0.9-0.4,1.1c-0.1,7.7-0.3,15.3,0.6,23c0.5,3.8,1.8,7.3,4.3,10.1c3.2,3.6,6.5,7,9.8,10.5C58.1,72.7,59,73,60,73
	c2.4,0,4.8,0,7.2,0c1.3,0,2.3-0.4,3.2-1.4c2.8-3,5.6-5.9,8.4-8.9c3.6-3.8,5.5-8.4,5.7-13.6c0.2-6.7,0.3-13.4,0.4-20.1
	c0-0.5-0.3-1.1-0.4-1.5c-3.8-0.2-7.4-0.2-10.9-0.6c-3.6-0.4-6.8-2.1-10-4C57.3,26.7,50.4,27.9,43.1,27.2z"/>
<path class="st0" d="M77.6,33.6c-4.9,0.2-9.7-0.1-13.9-3.1c-1,0.4-2,0.9-3,1.3c-3.3,1.4-6.6,2-10.2,1.8c-0.8-0.1-1.7-0.2-2.5-0.3
	c-1.2-0.3-1.8-0.9-1.5-1.6c0.3-0.8,1-0.9,1.7-0.9c0.5,0,1,0,1.4,0.1c4.4,0.4,8.6-0.4,12.4-2.7c0.4-0.2,0.9-0.4,1.4-0.6
	c0.4,0.2,0.9,0.3,1.2,0.5c3.3,2.4,7,3,10.9,2.8c1.5-0.1,3.1-0.5,4.8,0.2c0.1,0.7,0.3,1.4,0.3,2c0,4.6,0,9.1,0,13.7
	c0,5.5-1.7,10.3-5.7,14.3c-2.3,2.3-4.5,4.7-6.8,7.1c-0.5-0.3-1.1-0.5-1.2-0.8c-0.1-0.5-0.1-1.2,0.2-1.6c0.6-0.9,1.4-1.6,2.2-2.4
	c1.8-1.9,3.6-3.8,5.3-5.8c1.9-2.2,3.1-4.9,3.2-7.9c0.1-5,0.1-10.1,0.1-15.1C78,34.4,77.8,34.2,77.6,33.6z"/>
<path class="st0" d="M70.9,42c0.9,0.5,1.7,0.8,2.5,1.3c0,2.4,0.2,4.8,0,7.2c-0.3,4.3-3.7,8.8-10.1,8.7c-5.1-0.1-9-4.1-9.2-9.3
	c-0.1-2.2,0-4.3,0-6.6c0.7-0.5,1.4-0.9,2.2-1.4c1.8-5,4.1-7.1,7.8-6.9C67.6,35.4,69.7,37.5,70.9,42z M56.8,45.4c0,2.1-0.2,3.8,0,5.4
	c0.4,3.4,3.3,5.8,6.6,5.9c3.4,0.1,6.4-2.2,7-5.5c0.4-1.9,0.3-3.8,0-5.8C65.9,45.1,61.6,45.1,56.8,45.4z M67.9,42.3
	c0.2-1.9-0.6-2.9-1.8-3.7c-1-0.7-2.2-0.8-3.4-0.6c-1.1,0.2-2,0.7-2.6,1.7c-0.5,0.7-1.1,1.5-0.5,2.6C62.3,42.3,65,42.3,67.9,42.3z"/>
<path class="st0" d="M63.8,55.4c-0.3-0.1-0.7-0.1-0.9-0.4c-0.6-0.9-1.2-1.8-1.7-2.7c-0.6-1.1-0.2-2.4,0.7-3.2
	c0.9-0.8,2.3-0.9,3.3-0.2c1,0.6,1.5,2,1.1,3.1c-0.5,1.1-1.2,2-1.8,3C64.4,55.2,64.1,55.3,63.8,55.4z"/>
</svg>
