<?xml version="1.0" encoding="utf-8"?>
<!-- Generator: Adobe Illustrator 24.1.0, SVG Export Plug-In . SVG Version: 6.00 Build 0)  -->
<svg version="1.1" id="Calque_1" xmlns="http://www.w3.org/2000/svg" xmlns:xlink="http://www.w3.org/1999/xlink" x="0px" y="0px"
	 viewBox="0 0 113 117" style="enable-background:new 0 0 113 117;" xml:space="preserve">
<style type="text/css">
	.st0{fill:#E3C7AF;}
</style>
<path class="st0" d="M10.7,7.2C16.2,7.1,21.8,7.1,27.3,7c0.8,0,1.5,0.1,2.2,0.1c22.8,0,45.5,0,68.2,0c1.4,0,2.8,0.2,4.2,0.4
	c2.9,1.6,4.1,4,4.1,7.3c-0.1,21.6-0.1,43.2,0,64.9c0,2.5-0.6,4.6-2.7,5.9c-1.2,0.8-2.8,1.4-4.3,1.4c-28.6,0-57.2,0-85.8,0
	c-3.8,0-6-1.8-6.8-5.2c0.2-0.7,0.5-1.4,0.5-2.1c0-21.8,0-43.5,0-65.3c0-0.7-0.3-1.4-0.5-2.1C6.7,9.7,8.5,8.3,10.7,7.2z M99.3,70
	c0.2-0.6,0.6-1.3,0.6-1.9c0.1-17.2,0.1-34.5,0-51.8c0-0.6-0.4-1.4-0.5-2c-0.7-0.2-1.5-0.5-2.2-0.5c-25.6-0.1-51.2-0.1-76.9-0.1
	c-2.5,0-5.1,0.2-7.6,0.3c-0.1,0.1-0.2,0.1-0.3,0.1c0.1,0.1,0.2,0.2,0.3,0.3c0.1,0.7,0.1,1.5,0.1,2.2c0,17.5,0,35,0,52.5
	c0,0.6-0.1,1.4-0.1,2c-0.9,0.6-0.9,1.2,0,1.8c0.6,0.2,1.4,0.7,2,0.7c27.4,0.1,54.8,0,82.2,0c0.7,0,1.4,0,2.2,0
	C99.2,72.3,99.3,71.1,99.3,70z"/>
<path class="st0" d="M36.6,103.5c0.7-0.2,1.4-0.5,2.1-0.8c4.4-1.3,6.9-4.2,7.4-8.9c6.5,0,13.1,0,19.8,0c0.2,0.9,0.4,1.8,0.7,2.8
	c1.2,3.6,3.9,5.5,7.5,6.4c1.6,0.4,2.4,1.2,2,2.9c-1,0.2-1.9,0.5-2.9,0.5c-11.2,0.1-22.4,0-33.6,0C36.5,106.3,36.5,106.3,36.6,103.5z
	"/>
<path class="st0" d="M6.3,12.3c0.2,0.7,0.5,1.4,0.5,2.1c0,21.8,0,43.5,0,65.3c0,0.7-0.3,1.4-0.5,2.1C6.2,81,6,80.2,6,79.4
	C6,58,6,36.7,6,15.3C6,14.3,6.2,13.3,6.3,12.3z"/>
<path class="st0" d="M36.6,103.5c-0.1,2.8-0.1,2.8,2.8,2.8c11.2,0,22.4,0,33.6,0c1,0,1.9-0.3,2.9-0.5c0.5,1.4-0.5,1.2-1.4,1.2
	c-2.9,0-5.8,0-8.6,0c-9.3,0-18.5,0-27.8,0c-0.6,0-1.3,0-2.5,0C36,105.7,36.3,104.6,36.6,103.5z"/>
<path class="st0" d="M99.3,70c-0.1-2.5-0.1-5.1-0.1-7.6c0-15.1,0-30.2,0-45.2c0-0.9,0.1-1.9,0.1-2.8c0.2,0.6,0.5,1.4,0.5,2
	c0.1,17.2,0.1,34.5,0,51.8C99.9,68.7,99.5,69.4,99.3,70z"/>
<path class="st0" d="M12.7,71.1c0,0.6,0,1.2,0,1.8C11.7,72.3,11.7,71.7,12.7,71.1z"/>
<path class="st0" d="M12.7,14c0.1,0.1,0.1,0.2-0.1,0.4c-0.1-0.1-0.2-0.2-0.3-0.3C12.5,14.1,12.6,14,12.7,14z"/>
<path class="st0" d="M69.2,61c0,1.6,0.1,2.9-0.1,4.2c-0.1,0.5-0.7,0.9-1.1,1.4c-0.3-0.4-0.8-0.9-0.8-1.3c-0.1-1.3,0-2.6,0-4.1
	c-2,0-3.7,0-5.8,0c0,0.9,0.1,1.8,0,2.7c-0.2,0.9-0.6,1.9-0.9,2.8c-0.4-1-0.8-1.9-1.1-2.9c-0.2-0.7,0-1.5,0-2.5c-1.9,0-3.6,0-5.5,0
	c0,0.6,0,1.2-0.1,1.7c-0.3,1.2-0.7,2.4-1.1,3.7c-0.3-1.3-0.7-2.5-0.9-3.8c-0.1-0.5-0.1-1-0.1-1.7c-1.8,0-3.5,0-5.6,0
	c0,1.4,0.1,2.7,0,4.1c-0.1,0.6-0.6,1.1-1,1.7c-0.3-0.6-0.9-1.1-1-1.8c-0.2-1.2,0-2.4,0-3.6c-4.4-0.8-4.5-0.9-4.9-5
	c-1.3,0-2.7,0.1-4.1,0c-0.5-0.1-1-0.6-1.6-0.9c0.5-0.4,1.1-0.9,1.6-1c1.2-0.2,2.5,0,3.9,0c0-1.9,0-3.6,0-5.5c-0.7-0.1-1.4,0-2.1-0.2
	c-1.2-0.3-2.3-0.7-3.4-1c1.1-0.3,2.2-0.7,3.3-0.9c0.7-0.1,1.5-0.1,2.3-0.2c0-1.8,0-3.5,0-5.5c-1.4,0-2.8,0.1-4.1,0
	c-0.5-0.1-1-0.6-1.6-0.9c0.5-0.4,1.1-1,1.7-1.1c1.2-0.2,2.5,0,3.9,0c0-1.9,0-3.6,0-5.4c-0.7-0.1-1.4,0-2.1-0.2
	c-1.3-0.3-2.5-0.6-3.8-0.9c1.2-0.4,2.4-0.7,3.6-1c0.5-0.1,1.1-0.1,1.7-0.1c0.9-4.1,0.9-4.1,5.2-5c0-1.2-0.1-2.5,0-3.8
	c0.1-0.5,0.6-1,1-1.4c0.3,0.5,0.9,1,1,1.5c0.1,1.2,0,2.5,0,3.9c1.9,0,3.7,0,5.6,0c0-1-0.1-1.9,0-2.8c0.2-0.9,0.7-1.8,1-2.7
	c0.3,0.9,0.7,1.8,0.9,2.8c0.2,0.8,0,1.6,0,2.7c1.8,0,3.5,0,5.7,0c0-1.3-0.1-2.6,0.1-3.8c0.1-0.6,0.7-1.1,1.1-1.6
	c0.3,0.5,0.9,1,0.9,1.6c0.1,1.2,0,2.5,0,3.9c2,0,3.7,0,5.7,0c0-1.5-0.1-2.8,0-4.1c0.1-0.5,0.6-1,0.9-1.5c0.3,0.5,0.9,0.9,1,1.4
	c0.1,1.3,0,2.6,0,3.9c4.3,0.7,4.5,0.8,5.1,5.1c1.3,0,2.7-0.1,4.1,0c0.5,0,0.9,0.5,1.4,0.8c-0.4,0.4-0.8,1-1.3,1.1
	c-1.3,0.2-2.6,0.1-4.2,0.1c0,1.9,0,3.6,0,5.6c1.4,0,2.8-0.1,4.2,0.1c0.5,0,0.9,0.7,1.3,1.1c-0.5,0.2-0.9,0.6-1.4,0.7
	c-1.3,0.1-2.6,0-4.1,0c0,1.9,0,3.6,0,5.6c1.4,0,2.8-0.1,4.2,0c0.5,0,0.9,0.5,1.3,0.8c-0.4,0.4-0.9,1-1.4,1.1
	c-1.3,0.1-2.6,0.1-4.1,0.1c0,1.9,0,3.6,0,5.6c1.5,0,2.9-0.1,4.4,0c0.5,0,1,0.6,1.5,0.9c-0.5,0.3-0.9,0.9-1.4,1c-1.3,0.1-2.6,0-4.3,0
	C74.4,59.8,72.7,61.3,69.2,61z M56.3,59c4.3,0,8.7,0,13,0c1.6,0,2.4-0.4,2.4-2.3c-0.1-8.6-0.1-17.1,0-25.7c0-1.8-0.7-2.3-2.4-2.3
	c-8.7,0-17.3,0-26,0c-1.5,0-2.3,0.4-2.2,2.1c0.1,8.7,0.1,17.3,0,26c0,1.7,0.6,2.2,2.2,2.2C47.6,59,52,59,56.3,59z"/>
</svg>
