<?xml version="1.0" encoding="utf-8"?>
<!-- Generator: Adobe Illustrator 24.1.0, SVG Export Plug-In . SVG Version: 6.00 Build 0)  -->
<svg version="1.1" id="Calque_1" xmlns="http://www.w3.org/2000/svg" xmlns:xlink="http://www.w3.org/1999/xlink" x="0px" y="0px"
	 viewBox="0 0 131 126" style="enable-background:new 0 0 131 126;" xml:space="preserve">
<style type="text/css">
	.st0{fill:#E3C7AF;}
</style>
<path class="st0" d="M18.4,11.9c5.5-0.1,11.1-0.1,16.6-0.2c0.8,0,1.5,0.1,2.2,0.1c22.8,0,45.5,0,68.2,0c1.4,0,2.8,0.2,4.2,0.4
	c2.9,1.6,4.1,4,4.1,7.3c-0.1,21.6-0.1,43.2,0,64.9c0,2.5-0.6,4.6-2.7,5.9c-1.2,0.8-2.8,1.4-4.3,1.4c-28.6,0-57.2,0-85.8,0
	c-3.8,0-6-1.8-6.8-5.2c0.2-0.7,0.5-1.4,0.5-2.1c0-21.8,0-43.5,0-65.3c0-0.7-0.3-1.4-0.5-2.1C14.4,14.4,16.2,13,18.4,11.9z M107,74.7
	c0.2-0.6,0.6-1.3,0.6-1.9c0.1-17.2,0.1-34.5,0-51.8c0-0.6-0.4-1.4-0.5-2c-0.7-0.2-1.5-0.5-2.2-0.5c-25.6-0.1-51.2-0.1-76.9-0.1
	c-2.5,0-5.1,0.2-7.6,0.3c-0.1,0.1-0.2,0.1-0.3,0.1c0.1,0.1,0.2,0.2,0.3,0.3c0.1,0.7,0.1,1.5,0.1,2.2c0,17.5,0,35,0,52.5
	c0,0.6-0.1,1.4-0.1,2c-0.9,0.6-0.9,1.2,0,1.8c0.6,0.2,1.4,0.7,2,0.7c27.4,0.1,54.8,0,82.2,0c0.7,0,1.4,0,2.2,0
	C106.9,77,107,75.8,107,74.7z"/>
<path class="st0" d="M44.3,108.2c0.7-0.2,1.4-0.5,2.1-0.8c4.4-1.3,6.9-4.2,7.4-8.9c6.5,0,13.1,0,19.8,0c0.2,0.9,0.4,1.8,0.7,2.8
	c1.2,3.6,3.9,5.5,7.5,6.4c1.6,0.4,2.4,1.2,2,2.9c-1,0.2-1.9,0.5-2.9,0.5c-11.2,0.1-22.4,0-33.6,0C44.2,111,44.2,111,44.3,108.2z"/>
<path class="st0" d="M14,17c0.2,0.7,0.5,1.4,0.5,2.1c0,21.8,0,43.5,0,65.3c0,0.7-0.3,1.4-0.5,2.1c-0.1-0.8-0.3-1.6-0.3-2.4
	c0-21.4,0-42.7,0-64.1C13.7,19,13.9,18,14,17z"/>
<path class="st0" d="M44.3,108.2c-0.1,2.8-0.1,2.8,2.8,2.8c11.2,0,22.4,0,33.6,0c1,0,1.9-0.3,2.9-0.5c0.5,1.4-0.5,1.2-1.4,1.2
	c-2.9,0-5.8,0-8.6,0c-9.3,0-18.5,0-27.8,0c-0.6,0-1.3,0-2.5,0C43.7,110.4,44,109.3,44.3,108.2z"/>
<path class="st0" d="M107,74.7c-0.1-2.5-0.1-5.1-0.1-7.6c0-15.1,0-30.2,0-45.2c0-0.9,0.1-1.9,0.1-2.8c0.2,0.6,0.5,1.4,0.5,2
	c0.1,17.2,0.1,34.5,0,51.8C107.6,73.4,107.2,74.1,107,74.7z"/>
<path class="st0" d="M20.4,75.8c0,0.6,0,1.2,0,1.8C19.4,77,19.4,76.4,20.4,75.8z"/>
<path class="st0" d="M20.4,18.7c0.1,0.1,0.1,0.2-0.1,0.4c-0.1-0.1-0.2-0.2-0.3-0.3C20.2,18.8,20.3,18.7,20.4,18.7z"/>
<g>
	<path class="st0" d="M40.9,46c-1.2-0.2-2.3-0.4-3.4-0.6c-0.4-3.6-0.3-7-0.1-10.6c1.8-0.1,3.3-0.2,5-0.3c0.5-0.7,1-1.5,1.5-2.3
		c7.9-12.1,25.3-12.1,33.3,0c0.5,0.7,0.9,1.4,1.4,2.2c1.6,0.1,3.3,0.2,5.1,0.4c0.6,3.5,0.3,6.9,0.2,10.6c-1.2,0.2-2.4,0.4-3.5,0.6
		c-1.2,2.7-2.3,5.3-3.5,8c0.4,1.9,1.9,0.9,3.3,0.7c3.5,3.5,7,7,10.5,10.7c1.5,1.5,1.5,3.5,0.6,5.4c-1,1.9-3,3-5,2.8
		C85,73.5,84,73,83.3,72.2c-3.4-3.5-6.9-7-10.4-10.6c-0.1-0.8,1.4-2.2-0.9-2.9c-0.8,0.4-1.8,0.9-2.9,1.4C60,64.3,49.4,61.4,44,53.1
		c-0.8-1.3-1.5-2.7-2.1-4.2C41.5,48.1,41.3,47.2,40.9,46z M39,44.4c0.7,0.1,1.2,0.2,1.8,0.2c13.3,0,26.6,0,39.9,0
		c0.7,0,1.3-0.3,2.2-0.4c0-1.5,0-2.8,0-4.1c-0.1-1.3,0.3-2.6-0.4-4c-0.6-0.1-1.2-0.2-1.8-0.2c-13.3,0-26.6,0-39.9,0
		c-0.7,0-1.4,0.2-2,0.4C38.6,39.1,38.4,41.7,39,44.4z M74.8,58.8c0.8-0.7,1.5-1.4,2.3-2.1c-0.7-1.1-1.2-2-1.7-2.7
		c2.7-4.4,3-5.1,3-7.8c-1.7-0.4-3.5-0.4-5.3,0c-0.5,0.9-0.9,1.7-1.4,2.5c-5,8.5-17,8.4-21.9-0.2c-0.5-0.8-0.9-1.6-1.3-2.4
		c-1.9-0.2-3.7-0.4-5.4,0.2c0,0.3-0.2,0.6-0.1,0.8c1.8,7.4,8.6,13.1,16.2,13.6c4.2,0.3,8.1-0.6,11.6-2.9c0.5-0.3,1-0.5,1.6-0.8
		C73.1,57.5,73.9,58.1,74.8,58.8z M76.4,34.5c-1.7-6-9-10.3-16.4-10.1c-4.2,0.1-7.9,1.6-11.2,4.2c-2.5,2-3.5,3.5-4,5.8
		c2,0.3,4,0.1,6,0.1c6.1-5.5,12.8-6,19.7,0C72.2,34.5,74.1,34.5,76.4,34.5z M70.6,46.4c-2.4-0.5-16.2-0.7-19.7-0.3
		c-0.2,0-0.3,0.3-0.4,0.5c1.7,4.8,5.9,7.4,11.1,7c2.6-0.2,4.9-1.2,6.7-3.1C69.4,49.4,70.7,48.2,70.6,46.4z M74.6,61.2
		c3.3,3.4,6.4,6.6,9.5,9.7c0.3,0.3,0.7,0.6,1.1,0.9c1.5,0.8,3.4,0.3,4.5-1c1.2-1.4,1.3-2.8,0.3-4.3c-0.5-0.7-1.1-1.3-1.7-1.8
		c-1.8-1.8-3.5-3.5-5.3-5.3c-1.1-1.1-2-2.3-3.5-3.1C77.7,57.9,76.1,59.4,74.6,61.2z M67.1,34.5c0-0.5,0-0.6-0.1-0.7
		c-0.2-0.3-0.5-0.5-0.8-0.7c-3.9-2.1-7.7-2.1-11.5,0.1c-0.3,0.2-0.5,0.6-1,1.2C58.4,34.5,62.7,34.5,67.1,34.5z"/>
	<path class="st0" d="M77.9,72.3c-0.2,0.4-0.3,0.7-0.4,0.8c-0.6,0.1-1.2,0.3-1.7,0.3c-9.8,0-19.7,0-29.5,0c-0.7,0-1.3-0.2-2.4-0.4
		c0.6-0.5,0.8-0.7,1-0.8c0.5-0.1,1-0.1,1.4-0.1c9.8,0,19.7,0,29.5,0C76.5,72.1,77.2,72.2,77.9,72.3z"/>
	<path class="st0" d="M88.4,21.5c2.4,0,4.4,1.8,4.6,4.1c0.1,2.4-2,4.7-4.5,4.6c-2.4,0-4.3-2-4.3-4.4C84.1,23.5,85.9,21.6,88.4,21.5z
		 M88.7,28.9c1.6-0.1,2.9-1.5,2.9-3.1c0-1.7-1.6-3.1-3.4-2.9c-1.7,0.2-2.8,1.6-2.7,3.2C85.6,27.7,87.1,29,88.7,28.9z"/>
	<path class="st0" d="M44.8,59.5c0,1.8-1.4,3.3-3.2,3.2c-1.6-0.1-3-1.5-3-3c0-1.7,1.5-3.3,3.2-3.2C43.5,56.5,44.8,57.9,44.8,59.5z
		 M41.9,61.3c1-0.1,1.7-0.9,1.6-1.9c-0.1-1-0.9-1.7-1.9-1.6c-1,0.1-1.7,1-1.6,1.9C40,60.7,40.9,61.4,41.9,61.3z"/>
	<path class="st0" d="M43.6,68.9c2.5-0.7,10.1-0.8,14.1-0.2c-0.3,0.3-0.5,0.6-0.7,0.6c-4.2,0-8.4,0-12.5,0
		C44.2,69.4,43.9,69.1,43.6,68.9z"/>
	<path class="st0" d="M41.2,72.3c-0.5,0.3-0.7,0.6-1.1,0.7c-0.2,0-0.5-0.4-0.7-0.6c0.3-0.3,0.5-0.6,0.8-0.8
		C40.3,71.5,40.7,71.9,41.2,72.3z"/>
	<path class="st0" d="M83.8,75.3c0.3,0.4,0.5,0.6,0.6,0.9c0.1,0.4-0.6,0.9-0.9,0.7c-0.2-0.2-0.5-0.6-0.4-0.8
		C83.1,75.8,83.5,75.6,83.8,75.3z"/>
	<path class="st0" d="M85.5,54.5c-0.2-0.4-0.5-0.6-0.5-0.9c-0.1-0.5,0.5-0.9,0.9-0.6c0.2,0.2,0.4,0.6,0.4,0.8
		C86.2,54,85.8,54.2,85.5,54.5z"/>
	<path class="st0" d="M74.8,22.6c-0.2-0.4-0.5-0.7-0.4-0.9c0.1-0.2,0.5-0.5,0.7-0.5c0.2,0,0.5,0.4,0.5,0.7
		C75.5,22.1,75.1,22.3,74.8,22.6z"/>
	<path class="st0" d="M91,36.9c-0.4,0.2-0.7,0.5-1,0.5c-0.2-0.1-0.4-0.4-0.6-0.7c0.2-0.2,0.5-0.5,0.7-0.5
		C90.4,36.2,90.6,36.6,91,36.9z"/>
	<path class="st0" d="M69.3,65.7c-0.7,0.3-1,0.5-1.3,0.5c-0.3,0-0.5-0.3-0.7-0.5c0.2-0.2,0.3-0.6,0.6-0.6
		C68.1,65,68.4,65.2,69.3,65.7z"/>
	<path class="st0" d="M43.1,26.4c-0.2-0.4-0.5-0.7-0.4-0.9c0.1-0.2,0.4-0.4,0.7-0.6c0.2,0.2,0.5,0.5,0.5,0.7
		C43.8,25.8,43.5,26,43.1,26.4z"/>
	<path class="st0" d="M69.5,42.8c-0.8-0.8-1.4-1.3-2-1.9c-0.6,0.6-1.2,1.2-1.8,1.7c-1.4-2-1.4-2-1.3-4.1c0.6,0.5,1.1,0.9,1.6,1.4
		c0.5-0.5,1-0.9,1.8-1.6c0.3,0.6,0.6,1.1,1,1.8c0.7-0.5,1.3-0.9,1.8-1.3C71.1,40,71.1,40.1,69.5,42.8z"/>
	<path class="st0" d="M62.1,38.4c0,2.3,0,2.3-1.5,4.3c-0.6-0.6-1.1-1.1-2.1-2c-0.4,0.7-0.7,1.5-1.1,2.2c-1.9-2-1.9-2-1.8-4.3
		c0.3,0.3,0.6,0.4,0.8,0.6c0.2,0.2,0.3,0.3,0.7,0.6c0.5-0.4,1-0.8,1.7-1.4c0.5,0.4,0.9,0.9,1.6,1.5C60.8,39.6,61.3,39.1,62.1,38.4z"
		/>
	<path class="st0" d="M51.7,42.5c-0.6-0.5-1.1-1.1-1.9-1.8c-0.5,0.6-0.9,1.1-1.3,1.7c-0.3-0.1-0.6-0.1-0.7-0.2c-0.5-1-1-2.1-1.5-3.1
		c1.3-1.2,1.3,0.8,2.2,0.5c0.3-0.3,0.8-0.6,1.4-1.1c0.6,0.5,1.1,0.9,1.8,1.5c0.4-0.5,0.7-0.9,1.1-1.5C53.5,40.2,53.5,40.2,51.7,42.5
		z"/>
	<path class="st0" d="M72.9,40.9c0.3,0.3,0.7,0.5,0.7,0.7c0,0.2-0.3,0.5-0.5,0.7c-0.2-0.2-0.6-0.3-0.7-0.6
		C72.3,41.7,72.6,41.4,72.9,40.9z"/>
	<path class="st0" d="M89,68.5c0,1.2-1,2.2-2.2,2.2c-1.3,0-2.3-0.9-2.3-2.2c0-1.2,1-2.2,2.3-2.3C88,66.3,89,67.3,89,68.5z M88,68.7
		c-0.6-0.5-0.9-1-1.2-1c-0.3,0-0.8,0.4-0.9,0.7c-0.2,0.5,0.1,0.9,0.7,0.9C87,69.2,87.3,69,88,68.7z"/>
	<path class="st0" d="M80.7,59.6c-0.9,1.1-1.6,2.3-3.3,2.6C78.4,59.7,79.1,59.1,80.7,59.6z"/>
</g>
</svg>
